<svg fill="none" height="25" viewBox="0 0 25 25" width="25" xmlns="http://www.w3.org/2000/svg" xmlns:xlink="http://www.w3.org/1999/xlink"><clipPath id="a"><path d="m0 0h25v25h-25z"/></clipPath><g clip-path="url(#a)"><path d="m12.5 25c6.969 0 12.5-5.6416 12.5-12.5 0-6.96903-5.6416-12.5-12.5-12.5-6.96903 0-12.5 5.64159-12.5 12.5 0 6.8584 5.64159 12.5 12.5 12.5z" fill="#2c374b"/><path clip-rule="evenodd" d="m19.6538 7.65147c-.1153-.10928-5.7692-3.27837-6.4615-3.49693-.2308-.10927-.8077-.21855-1.1538-.10928-.3462.10928-6.34619 3.38765-6.57696 3.60621-.11539.10928-.23077.32784-.34615.43712-.11539.21856-.11539.32784-.11539 4.15261v3.934l.80769.4372c.46154.2185.80769.4371.80769.4371.11539 0 5.53842-8.19596 5.53842-8.30524s-1.2692-.10928-1.6153 0c-.4616.10928-.80773.32784-1.0385.5464-.11539.10928-.80769 1.20204-1.73077 2.40414-.80769 1.2021-1.5 2.2949-1.5 2.2949s0-1.0928 0-2.6227v-2.73202l.11539-.10928c.23077-.21855 6.11538-3.38765 6.34618-3.38765.1154 0 .2307 0 1.6154.76496.4615.21856 1.7307.87423 2.7692 1.5299 1.0384.5464 1.9615 1.09279 2.0769 1.20207l.1154.10928v5.68254l-2.8846-4.2619c-.1154-.21857-.2308-.43713-.3462-.54641 0 0-.1154.21856-.8077 1.31131-.1154.1093-.2307.3279-.2307.4372l-.1154.2185.1154.1093.1153.1093s0 .1093.1154.1093l.2308.3278s0 .1093.1154.1093c.1154.1092.2308.3278.2308.4371v.1093l2.423 3.7155-.2307.1092c-.1154.1093-.2308.1093-.3462.1093l-3-4.3712-.1154-.1092-.2307.4371-1.1539 1.7484 2.3077 3.497c-.3462.2185-2.3077 1.5299-2.4231 1.5299s-2.7692-1.6392-2.6538-1.7485c0 0 .8077-1.3113 1.7307-2.8412.8077-1.3114 1.8462-2.9506 2.5385-4.0434.8077-1.31131 1.1539-1.96698 1.1539-1.96698s-.577 0-1.2693 0h-1.1538l-2.6539 4.15258c-.92305 1.5299-1.84612 2.9506-2.30766 3.7155-.80769.1093-1.03846.3278-1.03846.3278l-.11539.2186 2.07693 1.0928c1.15388.6557 2.19228 1.2021 2.42308 1.3113.3461.2186.9231.2186 1.1538.2186.2308-.1093 6.2308-3.3876 6.577-3.6062.1153-.1093.2307-.2186.3461-.4371l.1154-.3279v-3.6062-3.60617l-.1154-.21856c0-.21856-.2308-.43712-.2308-.5464z" fill="#fff" fill-rule="evenodd"/><path d="m18.881 14.9538-3.5715-4.9538-1.3095 1.9385 3.4524 5.0615 1.5476-.6462z" fill="#24a2ee"/><path d="m17 17.5517-2.7907-5.5517-1.2093 2.4138 2.2326 4.5862 1.3953-.7241z" fill="#24a2ee"/><path clip-rule="evenodd" d="m6.2406 8.79703 6.203-3.59076 6.203 3.59076v7.18147l-6.203 3.5908-4.62405-2.5809-.56391 1.0099 5.07516 2.9175c.1128.1123.2256.1123.3384 0l7.1052-4.0396c.1128-.1122.2256-.2244.2256-.3366v-8.0792c0-.11221-.1128-.22443-.2256-.33664l-7.1052-4.0396c-.1128-.11221-.2256-.11221-.3384 0l-7.10524 3.92739c-.11278.11221-.22556.22442-.22556.33663v8.07922c0 .1122.11278.2244.22556.3366l1.46617.7855.67669-1.0099-1.01504-.5611v-7.18147z" fill="#98bcdc" fill-rule="evenodd"/><g fill="#fff"><path d="m15 9h-2.4l-5.6 8.8889 1.94286 1.1111z"/><path d="m9.17742 9.86616c.56452-.92958 2.14518-.92958 2.82258-.81339l-5.41935 8.94723c-.22581-.1162-.67742-.3486-1.01613-.581-.45162-.2324-.56452-.2324-.56452-.581v-.4648c1.24194-1.8591 3.6129-5.5775 4.17742-6.50704z"/></g></g></svg>