<svg height="399.881622" viewBox="0 0 400 399.88162178" width="400" xmlns="http://www.w3.org/2000/svg"><g fill-rule="evenodd"><path d="m198.63 75.792c-.141.16-8.524 14.016-18.629 30.791-20.242 33.603-18.871 31.378-19.413 31.514-.508.128 1.703 1.422-22.338-13.078-15.42-9.301-21.302-12.767-21.664-12.768-.563-.001.173-1.153-9.531 14.94-3.584 5.944-5.059 8.532-4.988 8.75.128.391-2.108-.985 22.016 13.553 22.46 13.536 21.64 13.012 21.55 13.756-.035.29-4.512 7.886-10.657 18.083-11.262 18.687-11.208 18.594-11.061 18.831.132.214-.139.328 7.752-3.26 3.896-1.772 20.47-9.301 36.833-16.731 31.231-14.183 30.522-13.846 30.689-14.607.141-.649.174-80.937.034-86.039-.111-4.082-.139-4.255-.593-3.735m2.304.138c-.216.563-.107 89.63.11 90.07.275.557-1.116-.095 27.706 12.978 13.933 6.321 30.199 13.711 36.146 16.423 10.755 4.906 11.554 5.23 11.394 4.618-.045-.174-4.961-8.409-10.925-18.301-5.963-9.892-10.89-18.177-10.949-18.411-.186-.742.178-.977 21.501-13.819 24.12-14.529 21.888-13.155 22.016-13.548.095-.292-1.965-3.788-11.799-20.023-2.1-3.467-2.249-3.667-2.719-3.666-.364.001-6.241 3.466-21.707 12.796-23.24 14.02-21.925 13.272-22.527 12.822-.233-.174-8.35-13.474-18.135-29.717-20.682-34.329-19.558-32.485-19.812-32.485-.109 0-.244.118-.3.263m-4.601 93.089c-1.237.557-14.662 6.662-29.833 13.567s-30.954 14.085-35.074 15.956c-7.647 3.473-8.16 3.767-7.447 4.265 1.194.834 74.354 44.058 74.744 44.159.171.045.377-.023.458-.15.164-.259.214-78.127.051-78.552-.159-.414-.498-.326-2.899.755m4.708-.881c-.416.264-.208 78.781.209 78.768.426-.014 74.922-44.06 75.041-44.368.048-.127-.016-.328-.143-.446-.186-.174-74.673-34.098-74.848-34.089-.028.001-.144.062-.259.135m-76.541 51.554c0 .303-.783-.819 12.705 18.201 13.024 18.366 12.401 17.436 12.093 18.039-.131.259-6.371 4.788-16.131 11.709-13.886 9.846-15.916 11.339-15.908 11.698.014.59 11.976 17.328 12.385 17.328.357 0-.181.374 17.799-12.379 15.574-11.045 14.714-10.485 15.353-10.008.25.186 8.273 11.356 17.829 24.821 18.548 26.135 18.151 25.591 18.385 25.222.224-.353.206-60.2-.018-60.69-.229-.502.511-.046-13.325-8.215-6.646-3.923-22.991-13.583-36.321-21.466-24.372-14.411-24.846-14.683-24.846-14.26m149.916.163c-.686.368-13.432 7.894-35.333 20.862-6.966 4.125-18.254 10.795-25.083 14.821s-12.604 7.503-12.833 7.728l-.417.408-.05 29.288c-.051 30.079-.033 31.429.422 31.339.143-.028 8.158-11.18 17.811-24.782 18.521-26.097 18.099-25.519 18.638-25.518.503.001.208-.202 15.123 10.374 7.547 5.352 14.538 10.307 15.535 11.011s1.952 1.281 2.122 1.281c.334 0 12.313-16.615 12.44-17.255.091-.457 1.297.433-16.124-11.901-16.026-11.347-16.167-11.453-16.167-12.094 0-.236 4.664-6.957 12.247-17.65 14.094-19.876 13.429-18.855 11.669-17.912" fill="#fbfbfb"/><path d="m191.5 5.271c-83.033 3.429-155.55 60.405-178.582 140.312-.158.55-.39 1.338-.514 1.75-.936 3.105-2.947 11.731-3.75 16.084-.508 2.751-1.145 6.518-1.325 7.833-.088.642-.273 1.992-.412 3-2.187 15.851-2.187 35.483 0 51.333.139 1.009.324 2.359.412 3 .18 1.315.817 5.082 1.325 7.834.803 4.353 2.814 12.978 3.75 16.083.124.412.356 1.2.514 1.75 19.053 66.102 72.52 117.736 139.332 134.556 11.421 2.875 21.227 4.446 34.167 5.474 4.668.37 21.931.428 26.166.088 8.045-.648 11.147-.99 17.084-1.888 82.898-12.531 149.113-77.926 162.578-160.563.239-1.467.503-3.079.587-3.584.26-1.556.974-7.606 1.238-10.5.626-6.851.677-8.179.677-17.916s-.051-11.065-.677-17.917c-.264-2.894-.978-8.944-1.238-10.5-.084-.504-.348-2.117-.587-3.583-11.53-70.765-62.159-130.071-130.476-152.839-15.471-5.156-30.423-8.123-47.936-9.512-3.078-.244-18.598-.449-22.333-.295m9.917 68.647c.183.119 3.055 4.742 6.382 10.274 26.919 44.757 31.666 52.559 32.014 52.611.236.036 7.463-4.231 21.48-12.683 25.34-15.28 22.38-13.671 23.248-12.639.629.747 14.323 23.517 14.51 24.126.291.949.315.933-21.328 13.981-23.84 14.372-22.021 13.258-22.138 13.555-.049.125 4.937 8.57 11.08 18.767l11.168 18.541v1.127c0 1.018-.044 1.167-.458 1.541-.357.322-42.69 25.43-71.946 42.671l-4.154 2.448-1.312-.024c-1.102-.021-1.436-.097-2.096-.482-1.213-.707-56.375-33.308-66.034-39.026-10.062-5.957-9.5-5.533-9.5-7.145v-1.209l7.61-12.634c4.185-6.949 9.178-15.243 11.095-18.43s3.461-5.917 3.432-6.067c-.031-.157-9.093-5.723-21.636-13.29-22.963-13.852-22.23-13.368-21.86-14.428.212-.608 13.939-23.374 14.485-24.022.736-.875 1.029-.764 6.145 2.321 31.235 18.84 38.196 23.029 38.403 23.105.134.049.326.034.427-.034.249-.166-.321.774 19.888-32.79 9.824-16.316 18.071-29.861 18.327-30.099.517-.481 2.071-.518 2.768-.066m-76.892 144.222c.49.261 9.104 5.334 19.142 11.274 10.037 5.94 26.575 15.713 36.75 21.719s18.73 11.095 19.012 11.308l.512.387.655-.474c.36-.261 4.891-2.972 10.071-6.024 5.179-3.052 18.754-11.076 30.166-17.83 39.3-23.258 35.562-21.131 36.174-20.577.691.625 1.614-.785-12.777 19.505-6.922 9.761-12.562 17.86-12.533 17.999s7.213 5.332 15.965 11.54c15.859 11.251 16.49 11.737 16.286 12.55-.204.814-12.657 18.045-13.171 18.225-.683.239-.107.624-17.178-11.479-8.513-6.035-15.601-11.005-15.753-11.045-.39-.102.819-1.766-18.424 25.365-19.807 27.927-17.982 25.516-19.394 25.633-1.458.122.039 2.079-19.538-25.549-18.437-26.019-18.102-25.557-18.437-25.429-.117.045-7.048 4.93-15.402 10.855-18.722 13.278-16.988 12.175-17.878 11.365-.553-.502-12.45-17.248-12.675-17.839-.327-.863-.006-1.119 12.487-9.98 6.691-4.746 13.833-9.812 15.872-11.259 2.73-1.937 3.706-2.718 3.705-2.963-.002-.184-1.814-2.884-4.027-6-22.795-32.1-21.925-30.821-21.379-31.424.397-.439.715-.412 1.769.147" fill="#04040c"/><path d="m198.608 74.708c-.225.298-8.787 14.454-19.027 31.459-18.671 31.003-18.924 31.411-19.448 31.275-.242-.063-6.574-3.865-38.529-23.14-4.871-2.937-5.272-3.102-5.888-2.427-.42.46-14.037 23.014-14.274 23.644-.305.808.043 1.034 21.904 14.221 17.298 10.434 21.581 13.085 21.624 13.383.055.386.084.335-14.502 24.555l-7.586 12.594.02 1.276c.017 1.064.075 1.315.351 1.519.795.587 74.667 44.241 75.374 44.542.459.195.615.195 1 .005.373-.185.531-.188.862-.014.33.172.503.171.917-.004.93-.395 75.339-44.445 75.613-44.764.199-.231.261-.609.237-1.447l-.031-1.135-10.997-18.25c-11.528-19.13-11.272-18.691-11.124-19.077.051-.134 9.771-6.078 21.598-13.208 21.808-13.148 22.164-13.379 21.856-14.198-.238-.628-13.854-23.183-14.274-23.642-.546-.598-1.091-.465-3.137.768-1.043.629-10.634 6.413-21.313 12.853-21.268 12.827-20.012 12.109-20.475 11.705-.179-.156-8.408-13.709-18.287-30.118-21.917-36.402-19.67-32.75-20.145-32.75-.212 0-.482.115-.598.256-.189.227-.252.218-.573-.083-.491-.461-.671-.429-1.148.202m.951.084c.044.16.105 20.697.136 45.637l.055 45.345-.483.73c-.339.513-.42.751-.271.8.117.039.353.212.525.384.391.391.502 79.222.112 79.612-.526.526-1.636-.117-66.133-38.297-11.708-6.931-10.969-6.399-10.126-7.296.347-.37.353-.41.083-.561-.746-.417-1.862 1.553 14.279-25.223 4.087-6.78 7.431-12.487 7.431-12.683 0-.547.657-.134-21.746-13.647-22.501-13.572-21.993-13.251-21.883-13.829.064-.336 12.809-21.626 14.011-23.405.43-.637.552-.717 1.012-.662.322.039 8.657 4.97 21.754 12.873 23.025 13.892 22.033 13.326 22.507 12.842.177-.181 8.699-14.241 18.939-31.245 20.307-33.723 19.501-32.445 19.798-31.375m2.666 1.351c.49.792 8.932 14.79 18.761 31.107s18.05 29.849 18.268 30.072c.526.537-1.647 1.773 22.485-12.786 13.065-7.882 21.378-12.801 21.7-12.839.46-.055.582.026 1.012.662 1.202 1.779 13.947 23.069 14.011 23.405.11.578.618.257-21.883 13.829-22.535 13.592-21.805 13.133-21.703 13.666.037.193 4.962 8.472 10.945 18.397 11.891 19.728 11.495 19.028 11.039 19.484-.266.266-.278.352-.085.616.306.418.283.808-.067 1.12-.71.634-75.171 44.527-75.64 44.587-.957.125-.909 2.353-.862-40.187l.044-39.308.468-.373.469-.373-.428-.805-.428-.804.043-45.281c.045-47.553.02-45.99.723-45.72.131.05.639.739 1.128 1.531m-1.782 90.259c.453.95-.138 1.644-.82.962-.347-.348-.348-.354-.032-.94.395-.734.511-.737.852-.022m-77.276 52.268c0 .471-.841-.741 13.339 19.247 6.633 9.35 12.088 17.187 12.123 17.417.09.59.824.041-15.712 11.754-16.815 11.911-16.417 11.616-16.417 12.154 0 .4 1.216 2.166 8.371 12.159 4.372 6.107 4.369 6.104 5.113 5.823.27-.102 7.416-5.095 15.879-11.094 18.065-12.807 16.195-11.533 16.611-11.311.181.097 8.354 11.484 18.163 25.304 20.455 28.821 18.296 25.958 19.058 25.268.284-.257.327-.256.634.022.574.519.681.377 18.756-25.095 19.802-27.905 18.215-25.74 18.761-25.593.222.06 7.487 5.136 16.145 11.28 8.657 6.145 15.925 11.218 16.151 11.275.649.163.729.068 4.987-5.879 9.088-12.693 8.753-12.153 7.996-12.86-.206-.192-7.307-5.266-15.78-11.275-16.673-11.824-16.18-11.462-16.175-11.89.003-.161 4.848-7.118 10.767-15.459 15.103-21.283 14.73-20.745 14.73-21.189 0-1.002 2.138-2.213-37.25 21.108-8.159 4.83-20.084 11.873-26.5 15.651-8.902 5.241-11.833 7.046-12.367 7.615l-.701.746-.255-.494c-.321-.62.843.09-21.011-12.81-10.083-5.951-26.433-15.613-36.333-21.469-18.01-10.655-19.083-11.24-19.083-10.405m1.381.186c.386.197 11.127 6.522 23.869 14.058 12.741 7.536 29.241 17.284 36.666 21.663 14.153 8.348 13.981 8.24 14.351 8.956.295.571.355 60.928.06 61.478-.465.869 1.084 2.938-18.979-25.336-9.721-13.699-17.797-24.976-17.946-25.06-.428-.239-.186-.403-16.556 11.204-17.039 12.081-16.059 11.414-16.582 11.283-.298-.075-10.425-13.965-12.49-17.132-.62-.95-1.102-.566 15.819-12.568 8.76-6.213 16.005-11.44 16.099-11.616.235-.44.816.412-13.081-19.181-13.099-18.469-13.312-18.806-11.23-17.749m151.876-.177c.172.277-.11.686-13.099 19-6.724 9.481-12.255 17.432-12.291 17.67-.083.556-1.521-.512 16.674 12.385 16.444 11.656 15.974 11.281 15.351 12.237-2.047 3.143-12.189 17.055-12.488 17.13-.532.134.232.654-16.861-11.476-8.792-6.24-15.831-11.125-16.028-11.125-.503 0 .472-1.339-18.287 25.105-19.686 27.752-18.629 26.329-18.943 25.509-.201-.524-.188-61.363.013-61.727.293-.53.101-.411 12.785-7.892 6.417-3.784 17.517-10.345 24.667-14.579 41.157-24.373 38.231-22.684 38.507-22.237" fill="#616166"/><path d="m198.723 75.038c-.188.208-8.718 14.291-18.955 31.295-10.238 17.005-18.772 31.05-18.964 31.213-.509.429.74 1.144-22.449-12.845-11.787-7.111-21.591-12.959-21.789-12.997-.513-.098-.424-.234-8.058 12.425-5.32 8.821-6.851 11.482-6.81 11.833.047.412 2.069 1.671 21.385 13.321 23.766 14.334 22.411 13.466 22.144 14.185-.105.281-5.075 8.62-11.045 18.53-5.971 9.911-10.873 18.184-10.894 18.386-.083.796.714.55 5.756-1.775 4.432-2.044 30.075-13.698 57.652-26.202 12.291-5.573 11.915-5.393 12.471-5.988l.416-.446.043-45.085c.046-48.666.08-46.939-.903-45.85m1.945-.041c-.114.214-.156 15.081-.127 45.73l.042 45.413.417.454c.501.546 1.054.811 12 5.743 10.767 4.852 44.27 20.076 54.983 24.984 8.295 3.801 8.984 4.048 8.888 3.189-.025-.224-4.973-8.587-10.995-18.584-6.8-11.286-10.974-18.376-11.013-18.703-.078-.657-2.917 1.136 22.12-13.973 19.248-11.615 21.272-12.876 21.319-13.287.041-.352-1.493-3.017-6.81-11.833-7.64-12.668-7.546-12.524-8.058-12.426-.198.038-9.907 5.829-21.576 12.868-22.094 13.329-22.016 13.284-22.487 12.994-.354-.219-.203.03-20.042-32.899-18.903-31.376-17.923-29.77-18.242-29.892-.146-.056-.319.036-.419.222m-1.445 4.53c.14 5.102.107 85.39-.034 86.039-.167.761.542.424-30.689 14.607-16.363 7.43-32.937 14.959-36.833 16.731-7.891 3.588-7.62 3.474-7.752 3.26-.147-.237-.201-.144 11.061-18.831 6.145-10.197 10.622-17.793 10.657-18.083.09-.744.91-.22-21.55-13.756-24.124-14.538-21.888-13.162-22.016-13.553-.071-.218 1.404-2.806 4.988-8.75 9.704-16.093 8.968-14.941 9.531-14.94.362.001 6.244 3.467 21.664 12.768 24.041 14.5 21.83 13.206 22.338 13.078.542-.136-.829 2.089 19.413-31.514 17.643-29.286 18.741-31.083 18.998-31.083.063 0 .164 1.812.224 4.027m3.159-2.319c.523.848 8.921 14.773 18.664 30.944 9.785 16.243 17.902 29.543 18.135 29.717.602.45-.713 1.198 22.527-12.822 15.466-9.33 21.343-12.795 21.707-12.796.47-.001.619.199 2.719 3.666 9.834 16.235 11.894 19.731 11.799 20.023-.128.393 2.104-.981-22.016 13.548-21.323 12.842-21.687 13.077-21.501 13.819.059.234 4.986 8.519 10.949 18.411 5.964 9.892 10.88 18.127 10.925 18.301.16.612-.639.288-11.394-4.618-5.947-2.712-22.213-10.102-36.146-16.423-28.822-13.073-27.431-12.421-27.706-12.978-.217-.44-.326-89.507-.11-90.07.199-.518.512-.242 1.448 1.278m-4.049 90.413c-.238.09-6.638 3.001-45.25 20.584-9.258 4.216-19.643 8.935-23.077 10.486-7.191 3.249-7.431 3.403-6.548 4.181.303.266 7.544 4.56 49.899 29.59 26.214 15.492 25.679 15.187 26.068 14.865.383-.319.364-79.181-.02-79.565-.266-.266-.619-.312-1.072-.141m2.417.108c-.331.243-.334.461-.376 39.619-.047 42.888-.099 40.352.826 40.058.433-.137 74.941-44.177 75.342-44.532.925-.821 1.151-.696-12.042-6.677-13.515-6.127-47.709-21.682-56.633-25.762-6.728-3.076-6.651-3.047-7.117-2.706m-1.518.535c.163.425.113 78.293-.051 78.552-.081.127-.287.195-.458.15-.39-.101-73.55-43.325-74.744-44.159-.713-.498-.2-.792 7.447-4.265 4.12-1.871 19.903-9.051 35.074-15.956 33.394-15.198 32.02-14.579 32.357-14.583.151-.002.32.116.375.261m39.401 16.674c37.582 17.073 37.817 17.183 37.658 17.6-.119.308-74.615 44.354-75.041 44.368-.332.011-.333-.11-.375-39.313-.042-38.941-.035-39.567.425-39.59.027-.002 16.827 7.619 37.333 16.935m-114.966 34.029c0 .438-.124.26 13.147 18.95 10.2 14.365 12.182 17.246 12.146 17.653-.039.441-1.502 1.52-15.955 11.771-8.752 6.207-15.988 11.405-16.08 11.551-.296.469.049 1.004 6.228 9.666 5.99 8.398 6.049 8.474 6.571 8.409.369-.047 5.242-3.413 16.31-11.267 10.662-7.565 15.918-11.2 16.197-11.2.578 0-.336-1.252 18.684 25.583 19.055 26.886 18.155 25.677 18.484 24.82.055-.145.101-13.984.101-30.752v-30.489l-.542-.568c-.314-.329-5.265-3.349-11.791-7.191-6.188-3.643-22.725-13.41-36.75-21.704-27.533-16.283-26.75-15.837-26.75-15.232m151.877-.129c-.389.156-6.042 3.488-35.627 20.999-9.717 5.751-22.392 13.244-28.167 16.65s-10.687 6.379-10.917 6.607l-.416.414v30.654c0 33.293-.052 31.56.905 30.582.266-.272 8.3-11.519 17.853-24.994 17.818-25.134 18.024-25.417 18.5-25.417.153 0 7.433 5.077 16.177 11.282 11.11 7.885 16.057 11.303 16.425 11.35.608.079 12.89-16.773 12.89-17.687 0-.538 1.28.407-16.641-12.289-8.465-5.996-15.466-11.044-15.559-11.217-.258-.483-.579-.008 12.156-17.968 14.129-19.926 13.044-18.362 13.044-18.792 0-.378-.069-.397-.623-.174m-126.198 15.114c13.33 7.883 29.675 17.543 36.321 21.466 13.836 8.169 13.096 7.713 13.325 8.215.224.49.242 60.337.018 60.69-.234.369.163.913-18.385-25.222-9.556-13.465-17.579-24.635-17.829-24.821-.639-.477.221-1.037-15.353 10.008-17.98 12.753-17.442 12.379-17.799 12.379-.409 0-12.371-16.738-12.385-17.328-.008-.359 2.022-1.852 15.908-11.698 9.76-6.921 16-11.45 16.131-11.709.308-.603.931.327-12.093-18.039-13.488-19.02-12.705-17.898-12.705-18.201 0-.423.474-.151 24.846 14.26m125.905-13.954c-.142.274-5.769 8.27-12.504 17.769-7.583 10.693-12.247 17.414-12.247 17.65 0 .641.141.747 16.167 12.094 17.421 12.334 16.215 11.444 16.124 11.901-.127.64-12.106 17.255-12.44 17.255-.17 0-1.125-.577-2.122-1.281s-7.988-5.659-15.535-11.011c-14.915-10.576-14.62-10.373-15.123-10.374-.539-.001-.117-.579-18.638 25.518-9.653 13.602-17.668 24.754-17.811 24.782-.455.09-.473-1.26-.422-31.339l.05-29.288.417-.408c.229-.225 6.004-3.702 12.833-7.728s18.117-10.696 25.083-14.821c39.966-23.666 36.735-21.815 36.168-20.719" fill="#848489"/><path d="m198.654 74.958-.404.459.446-.393c.463-.407.804-.366.804.097 0 .147.044.224.099.169.16-.16-.103-.79-.331-.79-.116 0-.392.206-.614.458m2.038-.25c-.106.106-.19.271-.187.367s.082.043.176-.118c.134-.23.24-.255.495-.119.178.096.324.136.324.09 0-.228-.628-.4-.808-.22m-.277 45.875c0 24.842.02 34.98.043 22.529.024-12.452.024-32.777 0-45.167-.023-12.391-.043-2.203-.043 22.638m-.67 34.084c0 5.82.021 8.202.047 5.291.025-2.91.025-7.673 0-10.583-.026-2.91-.047-.529-.047 5.292m-54.887 7.916c.151.184.311.484.355.667.079.321.082.32.101-.016.011-.192-.149-.492-.356-.667-.372-.314-.372-.314-.1.016m53.803 4.315c-.135.127-2.532 1.261-5.328 2.521-9.69 4.366-59.271 26.888-63.666 28.92-5.561 2.57-5.966 2.73-6.268 2.48-.156-.13-.232-.135-.232-.014 0 .098.13.252.29.341.27.151.264.191-.083.561-.473.503-.473.824.001 1.226.375.317.375.317.083-.029-.7-.832-.426-1.063 3.218-2.714 12.805-5.802 19.174-8.696 32.324-14.689 8.296-3.781 20.58-9.377 27.298-12.437 12.474-5.682 12.654-5.755 13.107-5.302.354.354.407 79.175.053 79.572-.177.198-.164.2.084.013.471-.357.451-79.187-.021-79.659-.172-.172-.416-.348-.542-.39-.194-.065-.194-.119 0-.354.276-.335.025-.371-.318-.046m2.434.12c.063.103-.101.357-.365.568l-.48.382-.044 39.308c-.043 39.229-.031 40.224.485 40.224.082 0 .035-.175-.105-.389-.456-.697-.295-79.046.164-79.382.477-.349.36-.395 8.813 3.466 12.512 5.714 41.956 19.109 54.756 24.909 13.422 6.082 13.017 5.857 12.223 6.8-.292.346-.292.346.083.029.441-.374.473-.719.116-1.229-.143-.204-.183-.371-.09-.371.094 0 .257-.168.364-.375.159-.309.154-.338-.028-.166-.44.415-1.133.15-8.871-3.397-10.309-4.725-49.673-22.604-59.033-26.812-4.033-1.813-7.451-3.399-7.596-3.523-.318-.274-.551-.298-.392-.042m-77.595 51.867c0 .211.11.53.245.708.221.292.225.27.044-.225-.168-.459-.16-.576.047-.706.209-.133.202-.157-.044-.159-.195-.002-.292.125-.292.382m152.167-.215c-.195.128-.159.155.166.122.332-.033.408.026.371.291-.042.306-.031.309.134.041.317-.516-.125-.814-.671-.454m-76.126 75.525c-.022 16.744-.087 30.563-.142 30.708-.145.377-.393.328-.973-.195l-.509-.458.489.542c.561.621.843.677 1.089.218.118-.221.159-9.978.13-30.792l-.043-30.468zm.698-25.945c0 2.292.023 3.252.052 2.135.029-1.118.029-2.993 0-4.167-.028-1.174-.052-.26-.052 2.032m1.04 56.542c-.459.453-.467.454-.727.125-.231-.292-.25-.296-.158-.028.058.168.106.336.106.375 0 .234.509-.005.917-.431.6-.627.488-.66-.138-.041" fill="#7c7c84"/><path d="m198.649 73.984c-.256.238-8.503 13.783-18.327 30.099-20.209 33.564-19.639 32.624-19.888 32.79-.101.068-.293.083-.427.034-.207-.076-7.168-4.265-38.403-23.105-5.116-3.085-5.409-3.196-6.145-2.321-.546.648-14.273 23.414-14.485 24.022-.37 1.06-1.103.576 21.86 14.428 12.543 7.567 21.605 13.133 21.636 13.29.029.15-1.515 2.88-3.432 6.067s-6.91 11.481-11.095 18.43l-7.61 12.634v1.209c0 1.612-.562 1.188 9.5 7.145 9.659 5.718 64.821 38.319 66.034 39.026.66.385.994.461 2.096.482l1.312.024 4.154-2.448c29.256-17.241 71.589-42.349 71.946-42.671.414-.374.458-.523.458-1.541v-1.127l-11.168-18.541c-6.143-10.197-11.129-18.642-11.08-18.767.117-.297-1.702.817 22.138-13.555 21.643-13.048 21.619-13.032 21.328-13.981-.187-.609-13.881-23.379-14.51-24.126-.868-1.032 2.092-2.641-23.248 12.639-14.017 8.452-21.244 12.719-21.48 12.683-.348-.052-5.095-7.854-32.014-52.611-3.327-5.532-6.199-10.155-6.382-10.274-.697-.452-2.251-.415-2.768.066m3.021.683c.251.32 8.764 14.383 18.918 31.25 19.432 32.28 18.797 31.25 19.26 31.25.164 0 9.923-5.807 21.689-12.905 22.838-13.777 22.026-13.321 22.678-12.733.617.557 14.469 23.612 14.573 24.256.126.777 1.234.068-22.038 14.107-20.666 12.466-21.333 12.884-21.332 13.363.001.358 3.019 5.5 10.893 18.56 12.091 20.054 11.354 18.733 11.199 20.063-.14 1.209 5.012-1.971-38.508 23.772l-37.585 22.232-1.25.034c-1.6.044 1.575 1.821-28.642-16.035-56.08-33.14-48.858-28.657-48.858-30.332v-1.267l10.902-18.099c12.268-20.369 11.442-18.917 11.003-19.338-.177-.17-9.883-6.071-21.568-13.115-22.824-13.757-21.917-13.176-21.79-13.958.103-.634 13.963-23.693 14.571-24.243.652-.588-.152-1.039 22.627 12.701 23.623 14.25 21.785 13.192 22.229 12.803.178-.156 8.519-13.895 18.534-30.533s18.531-30.752 18.924-31.365l.715-1.115 1.2.032c1.158.03 1.216.052 1.656.615m-1.832 91.911c-.231.277-.096.589.255.589.26 0 .334-.589.093-.739-.082-.05-.238.017-.348.15m-77.082 51.415c-.546.603-1.416-.676 21.379 31.424 2.213 3.116 4.025 5.816 4.027 6 .001.245-.975 1.026-3.705 2.963-2.039 1.447-9.181 6.513-15.872 11.259-12.493 8.861-12.814 9.117-12.487 9.98.225.591 12.122 17.337 12.675 17.839.89.81-.844 1.913 17.878-11.365 8.354-5.925 15.285-10.81 15.402-10.855.335-.128 0-.59 18.437 25.429 19.577 27.628 18.08 25.671 19.538 25.549 1.412-.117-.413 2.294 19.394-25.633 19.243-27.131 18.034-25.467 18.424-25.365.152.04 7.24 5.01 15.753 11.045 17.071 12.103 16.495 11.718 17.178 11.479.514-.18 12.967-17.411 13.171-18.225.204-.813-.427-1.299-16.286-12.55-8.752-6.208-15.936-11.401-15.965-11.54s5.611-8.238 12.533-17.999c14.391-20.29 13.468-18.88 12.777-19.505-.612-.554 3.126-2.681-36.174 20.577-11.412 6.754-24.987 14.778-30.166 17.83-5.18 3.052-9.711 5.763-10.071 6.024l-.655.474-.512-.387c-.282-.213-8.837-5.302-19.012-11.308s-26.713-15.779-36.75-21.719c-22.208-13.142-20.297-12.099-20.911-11.421m1.62.362c.383.196 11.312 6.633 24.285 14.306 12.974 7.673 29.476 17.423 36.672 21.666 7.196 4.242 13.336 7.911 13.644 8.152 1.027.802.979.791 1.475.325.256-.241 5.077-3.156 10.715-6.478 5.637-3.322 19.212-11.345 30.166-17.827 38.575-22.828 34.973-20.765 35.441-20.297.447.448.138.911-12.551 18.798-6.926 9.762-12.676 17.928-12.777 18.145-.245.524-1.615-.501 16.291 12.188 15.502 10.986 16.069 11.423 15.869 12.221-.096.379-11.436 16.447-12.343 17.488-.801.919-.183 1.306-17.279-10.817-15.919-11.288-16.239-11.505-16.589-11.269-.103.07-8.192 11.415-17.974 25.211-19.067 26.89-18.169 25.682-19.067 25.649-.332-.012-.758.03-.947.092-.577.192-.521.267-18.665-25.325-18.895-26.651-18.181-25.681-18.768-25.52-.215.059-7.469 5.131-16.12 11.272-16.038 11.385-16.203 11.491-16.892 10.957-.356-.276-12.087-16.719-12.428-17.419-.516-1.061-1.017-.661 15.966-12.704 11.581-8.211 15.931-11.383 15.97-11.641.037-.251-3.67-5.606-12.562-18.145-6.938-9.784-12.73-18.032-12.872-18.328-.473-.993.139-1.312 1.34-.7" fill="#2a2c33"/><path d="m199.748 74.209c.123.069.511.058.863-.023.633-.146.631-.147-.224-.125-.484.012-.765.077-.639.148m-.09 92.391c-.208.389-.2.457.083.664.559.409 1.06-.396.559-.897-.287-.288-.382-.253-.642.233m.675.243c0 .342-.405.445-.588.15-.133-.215.238-.69.441-.565.081.051.147.237.147.415m-77.628 34.657c0 .321.035.452.077.292.041-.161.041-.423 0-.584-.042-.16-.077-.029-.077.292m.328 16.7c-.11.11-.194.316-.188.458.008.181.05.16.14-.071.071-.181.31-.38.53-.442.349-.097.357-.114.06-.128-.188-.01-.432.073-.542.183m153.285-.055c.221.062.459.261.53.442.09.231.132.252.14.071.017-.361-.325-.661-.73-.641-.296.014-.288.031.06.128m-75.827 44.615c-.238.252-.52.394-.696.348-.162-.042-.253-.009-.202.074.17.276.505.157.99-.349.264-.275.441-.5.394-.5s-.266.192-.486.427m-38.324 12.191c.137.05.437.251.666.445l.417.354-.404-.458c-.222-.252-.522-.453-.667-.446-.225.012-.226.027-.012.105m37.25 50.821c-.408.199-.424.224-.084.134.23-.061.597-.109.818-.108.297.003.34-.035.166-.145-.287-.182-.286-.182-.9.119" fill="#393c44"/><path d="m198.729 74.365c-.19.212-.402.497-.471.635-.069.137.075.006.32-.292.517-.628.754-.67 1.173-.207.282.311.325.316.604.063.179-.162.468-.24.717-.192.23.044.377.014.327-.067s-.441-.135-.87-.12c-.428.015-.931-.024-1.116-.088-.239-.082-.437-.005-.684.268m-83.075 37.427-.404.458.427-.375c.466-.408.974-.474 1.542-.199.352.17.353.167.041-.083-.5-.401-1.148-.321-1.606.199m167.086-.199c-.312.25-.311.253.041.083.568-.275 1.076-.209 1.542.199l.427.375-.404-.458c-.458-.52-1.106-.6-1.606-.199m-181.563 24.245c-.014.353.434.956.873 1.176.288.143.269.099-.088-.208-.249-.214-.526-.577-.614-.806s-.165-.302-.171-.162m197.503.053c-.007.17-.257.538-.555.818-.378.356-.428.449-.167.311.47-.249.934-.94.821-1.223-.052-.128-.091-.09-.099.094m-42.972 26.462c-.568.363-.752.608-.25.332.383-.21.982-.674.875-.677-.046-.001-.327.154-.625.345m-111.03.435c.186.3.193.477.032.917-.181.492-.176.514.045.221.325-.428.311-.998-.032-1.281-.253-.209-.257-.197-.045.143m54.913 3.636c-.317.589-.317.591.048.956.439.439.922.244.982-.397.021-.229-.006-.293-.064-.15-.268.662-1.068.752-1.052.119.013-.488.47-.847.767-.602.258.213.265.201.083-.142-.271-.508-.392-.474-.764.216m77.644 34.699c-.014.934-.01.943.145.322.092-.369.098-.773.015-.96-.104-.231-.149-.05-.16.638m-154.459-.04c.056.367.129.698.163.736.126.144.032-.749-.113-1.069-.106-.232-.121-.131-.05.333m.286 17.328c-.051.135-.055.341-.008.459.048.117.092.05.1-.151.009-.264.138-.382.471-.433l.458-.069-.463-.025c-.272-.015-.503.076-.558.219m153.247-.123c.328.059.38.15.319.563-.043.299-.012.433.081.34.311-.311.064-.94-.376-.957-.397-.015-.398-.013-.024.054m-.976 2.712c-.195.275-.318.5-.272.5.045 0 .243-.225.439-.5s.319-.5.273-.5-.244.225-.44.5m-150.5.667c.196.275.394.5.44.5s-.077-.225-.273-.5-.394-.5-.439-.5c-.046 0 .077.225.272.5m147.667 3.333c-.196.275-.319.5-.273.5s.244-.225.44-.5c.195-.275.318-.5.272-.5-.045 0-.243.225-.439.5m-144.833.667c.195.275.393.5.439.5s-.077-.225-.273-.5c-.195-.275-.393-.5-.439-.5s.077.225.273.5m144 .5c-.196.275-.319.5-.273.5s.244-.225.439-.5c.196-.275.319-.5.273-.5s-.244.225-.439.5m-143.167.666c.196.275.394.5.439.5.046 0-.077-.225-.272-.5-.196-.275-.394-.5-.44-.5s.077.225.273.5m141.167 2.167c-.196.275-.319.5-.273.5s.244-.225.439-.5c.196-.275.319-.5.273-.5s-.244.225-.439.5m-.834 1.167c-.195.275-.318.5-.272.5.045 0 .243-.225.439-.5s.319-.5.273-.5-.244.225-.44.5m-137.5.666c.196.275.394.5.44.5s-.077-.225-.273-.5-.394-.5-.439-.5c-.046 0 .077.225.272.5m134.667 3.334c-.196.275-.319.5-.273.5s.244-.225.44-.5c.195-.275.318-.5.272-.5-.045 0-.243.225-.439.5m-131.833.666c.195.275.393.5.439.5s-.077-.225-.273-.5c-.195-.275-.393-.5-.439-.5s.077.225.273.5m131 .5c-.196.275-.319.5-.273.5s.244-.225.439-.5c.196-.275.319-.5.273-.5s-.244.225-.439.5m-130.167.667c.196.275.394.5.439.5.046 0-.077-.225-.272-.5-.196-.275-.394-.5-.44-.5s.077.225.273.5m127.333 3.333c-.195.275-.318.5-.272.5.045 0 .243-.225.439-.5s.319-.5.273-.5-.244.225-.44.5m-124.5.667c.196.275.394.5.44.5s-.077-.225-.273-.5-.394-.5-.439-.5c-.046 0 .077.225.272.5m121.667 3.333c-.196.275-.319.5-.273.5s.244-.225.44-.5c.195-.275.318-.5.272-.5-.045 0-.243.225-.439.5m-118.833.667c.195.275.393.5.439.5s-.077-.225-.273-.5c-.195-.275-.393-.5-.439-.5s.077.225.273.5m118 .5c-.196.275-.319.5-.273.5s.244-.225.439-.5c.196-.275.319-.5.273-.5s-.244.225-.439.5m-117.167.667c.196.275.394.5.439.5.046 0-.077-.225-.272-.5-.196-.275-.394-.5-.44-.5s.077.225.273.5m58.219 2.388c-.324.174-.278.197.417.211.429.008.668-.021.531-.065-.138-.043-.326-.138-.417-.21-.092-.071-.331-.043-.531.064m56.114.945c-.195.275-.318.5-.272.5.045 0 .243-.225.439-.5s.319-.5.273-.5-.244.225-.44.5m-111.5.667c.196.275.394.5.44.5s-.077-.225-.273-.5-.394-.5-.439-.5c-.046 0 .077.225.272.5m108.667 3.333c-.196.275-.319.5-.273.5s.244-.225.44-.5c.195-.275.318-.5.272-.5-.045 0-.243.225-.439.5m-105.833.667c.195.275.393.5.439.5s-.077-.225-.273-.5c-.195-.275-.393-.5-.439-.5s.077.225.273.5m105 .5c-.196.275-.319.5-.273.5s.244-.225.439-.5c.196-.275.319-.5.273-.5s-.244.225-.439.5m-104.167.666c.196.275.394.5.439.5.046 0-.077-.225-.272-.5-.196-.275-.394-.5-.44-.5s.077.225.273.5m-.917 2.598-.5.43.542-.359c.298-.197.542-.39.542-.43 0-.125-.071-.081-.584.359m-1.166.834-.5.429.541-.358c.298-.197.542-.391.542-.431 0-.124-.071-.081-.583.36m110.416 1.629c0 .046.225.244.5.439.275.196.5.319.5.273s-.225-.244-.5-.439c-.275-.196-.5-.319-.5-.273m-114.416 1.204-.5.43.541-.359c.298-.197.542-.391.542-.43 0-.125-.071-.082-.583.359m118.416 1.629c0 .046.225.244.5.44.275.195.5.318.5.272 0-.045-.225-.243-.5-.439s-.5-.319-.5-.273m-59.758.615c-.296.309-.603.479-.779.433-.244-.064-.262-.023-.111.259.099.184.229.271.289.192.061-.078.369-.424.684-.768.686-.746.615-.844-.083-.116m60.925.219c0 .045.225.243.5.439s.5.319.5.273-.225-.244-.5-.44c-.275-.195-.5-.318-.5-.272m-124.75 1.204-.5.429.542-.358c.298-.197.541-.391.541-.431 0-.124-.07-.081-.583.36m128.75 1.629c0 .046.225.244.5.439.275.196.5.319.5.273s-.225-.244-.5-.439c-.275-.196-.5-.319-.5-.273m-132.75 1.204-.5.43.542-.359c.298-.197.541-.391.541-.43 0-.125-.07-.082-.583.359m133.917-.371c0 .046.225.244.5.44.275.195.5.318.5.272 0-.045-.225-.243-.5-.439s-.5-.319-.5-.273m-135.084 1.204-.5.43.542-.359c.298-.197.542-.39.542-.43 0-.125-.071-.081-.584.359m139.084 1.63c0 .045.225.243.5.439s.5.319.5.273-.225-.244-.5-.44c-.275-.195-.5-.318-.5-.272m-143.084 1.204-.5.429.542-.358c.298-.197.542-.391.542-.431 0-.124-.071-.081-.584.36m147.084 1.629c0 .046.225.244.5.439.275.196.5.319.5.273s-.225-.244-.5-.439c-.275-.196-.5-.319-.5-.273m-151.084 1.204-.5.43.542-.359c.298-.197.542-.391.542-.43 0-.125-.071-.082-.584.359m152.25-.371c0 .046.225.244.5.44.275.195.5.318.5.272 0-.045-.225-.243-.5-.439s-.5-.319-.5-.273m-153.416 1.204-.5.43.541-.359c.298-.197.542-.39.542-.43 0-.125-.071-.081-.583.359m114.65.611c-.314.372-.314.372.016.1.184-.151.484-.311.667-.355.321-.079.32-.082-.016-.101-.192-.011-.492.149-.667.356m42.766 1.019c0 .045.225.243.5.439s.5.319.5.273-.225-.244-.5-.44c-.275-.195-.5-.318-.5-.272m-39.5.333c0 .046.225.244.5.439.275.196.5.319.5.273s-.225-.244-.5-.439c-.275-.196-.5-.319-.5-.273m-121.916.871-.5.429.541-.358c.298-.197.542-.391.542-.431 0-.124-.071-.081-.583.36m39.5.333-.5.43.541-.359c.298-.197.542-.391.542-.43 0-.125-.071-.082-.583.359m6.75.235c.195.275.393.5.439.5s-.077-.225-.273-.5c-.195-.275-.393-.5-.439-.5s.077.225.273.5m-47.598.429-.652.595.708-.54c.647-.493.805-.65.653-.65-.031 0-.35.268-.709.595m117.598.071c-.196.275-.319.5-.273.5s.244-.225.439-.5c.196-.275.319-.5.273-.5s-.244.225-.439.5m-69.167.667c.196.275.394.5.439.5.046 0-.077-.225-.272-.5-.196-.275-.394-.5-.44-.5s.077.225.273.5m78.833.227c0 .046.225.244.5.44.275.195.5.318.5.272 0-.045-.225-.243-.5-.439s-.5-.319-.5-.273m-90.416 1.204-.5.43.541-.359c.298-.197.542-.39.542-.43 0-.125-.071-.081-.583.359m91.583-.37c0 .045.225.243.5.439s.5.319.5.273-.225-.244-.5-.44c-.275-.195-.5-.318-.5-.272m-92.75 1.204-.5.429.542-.358c.298-.197.541-.391.541-.431 0-.124-.07-.081-.583.36m-35.083.235c.195.275.393.5.439.5s-.077-.225-.273-.5c-.195-.275-.393-.5-.439-.5s.077.225.273.5m164.5 0c-.196.275-.319.5-.273.5s.244-.225.439-.5c.196-.275.319-.5.273-.5s-.244.225-.439.5m-113.834 1.5c.196.275.394.5.44.5s-.077-.225-.273-.5-.394-.5-.439-.5c-.046 0 .077.225.272.5m81.167-.106c0 .046.225.244.5.439.275.196.5.319.5.273s-.225-.244-.5-.439c-.275-.196-.5-.319-.5-.273m-18.5.606c-.196.275-.319.5-.273.5s.244-.225.44-.5c.195-.275.318-.5.272-.5-.045 0-.243.225-.439.5m-82.25.598-.5.43.542-.359c.298-.197.541-.391.541-.43 0-.125-.07-.082-.583.359m20.417.069c.195.275.393.5.439.5s-.077-.225-.273-.5c-.195-.275-.393-.5-.439-.5s.077.225.273.5m84.333 1.56c0 .046.225.244.5.44.275.195.5.318.5.272 0-.045-.225-.243-.5-.439s-.5-.319-.5-.273m-108.75 1.204-.5.43.542-.359c.298-.197.541-.39.541-.43 0-.125-.07-.081-.583.359m109.917-.37c0 .045.225.243.5.439s.5.319.5.273-.225-.244-.5-.44c-.275-.195-.5-.318-.5-.272m-111.084 1.204-.5.429.542-.358c.298-.197.542-.391.542-.431 0-.124-.071-.081-.584.36m28.417.402c.196.275.394.5.439.5.046 0-.077-.225-.272-.5-.196-.275-.394-.5-.44-.5s.077.225.273.5m55.333.5c-.195.275-.318.5-.272.5.045 0 .243-.225.439-.5s.319-.5.273-.5-.244.225-.44.5m-54.5.666c.196.275.394.5.44.5s-.077-.225-.273-.5-.394-.5-.439-.5c-.046 0 .077.225.272.5m85.834.061c0 .046.225.244.5.439.275.196.5.319.5.273s-.225-.244-.5-.439c-.275-.196-.5-.319-.5-.273m-119.084 1.204-.5.43.542-.359c.298-.197.542-.391.542-.43 0-.125-.071-.082-.584.359m134.75 1.902c-.195.275-.318.5-.272.5.045 0 .243-.225.439-.5s.319-.5.273-.5-.244.225-.44.5m-11.666-.273c0 .046.225.244.5.44.275.195.5.318.5.272 0-.045-.225-.243-.5-.439s-.5-.319-.5-.273m-87 1.106c.195.275.393.5.439.5s-.077-.225-.273-.5c-.195-.275-.393-.5-.439-.5s.077.225.273.5m-40.084.098-.5.43.542-.359c.298-.197.542-.39.542-.43 0-.125-.071-.081-.584.359m128.25-.37c0 .045.225.243.5.439s.5.319.5.273-.225-.244-.5-.44c-.275-.195-.5-.318-.5-.272m-137.5.606c.196.275.394.5.44.5s-.077-.225-.273-.5-.394-.5-.439-.5c-.046 0 .077.225.272.5m147.167 0c-.196.275-.319.5-.273.5s.244-.225.44-.5c.195-.275.318-.5.272-.5-.045 0-.243.225-.439.5m-49.833.166c-.196.275-.319.5-.273.5s.244-.225.439-.5c.196-.275.319-.5.273-.5s-.244.225-.439.5m-89.25.432-.5.429.541-.358c.298-.197.542-.391.542-.431 0-.124-.071-.081-.583.36m-7.25.568c.195.275.393.5.439.5s-.077-.225-.273-.5c-.195-.275-.393-.5-.439-.5s.077.225.273.5m145.5 0c-.196.275-.319.5-.273.5s.244-.225.439-.5c.196-.275.319-.5.273-.5s-.244.225-.439.5m-144.667 1.167c.196.275.394.5.439.5.046 0-.077-.225-.272-.5-.196-.275-.394-.5-.44-.5s.077.225.273.5m143.833 0c-.195.275-.318.5-.272.5.045 0 .243-.225.439-.5s.319-.5.273-.5-.244.225-.44.5m-4-.106c0 .046.225.244.5.439.275.196.5.319.5.273s-.225-.244-.5-.439c-.275-.196-.5-.319-.5-.273m-138 1.366c-.402.153-.477.224-.24.231.189.005.489-.101.667-.236.38-.287.345-.287-.427.005m139.907-.022c.178.144.478.256.667.248.275-.012.255-.041-.102-.149-.245-.074-.545-.186-.667-.248-.122-.063-.076.004.102.149m-90.407 1.262c.196.275.394.5.44.5s-.077-.225-.273-.5-.394-.5-.439-.5c-.046 0 .077.225.272.5m40.667.5c-.196.275-.319.5-.273.5s.244-.225.44-.5c.195-.275.318-.5.272-.5-.045 0-.243.225-.439.5m-37 4.667c.196.275.394.5.439.5.046 0-.077-.225-.272-.5-.196-.275-.394-.5-.44-.5s.077.225.273.5m33.333.5c-.195.275-.318.5-.272.5.045 0 .243-.225.439-.5s.319-.5.273-.5-.244.225-.44.5m-29.666 4.666c.195.275.393.5.439.5s-.077-.225-.273-.5c-.195-.275-.393-.5-.439-.5s.077.225.273.5m26 .5c-.196.275-.319.5-.273.5s.244-.225.439-.5c.196-.275.319-.5.273-.5s-.244.225-.439.5m-2.834 4c-.195.275-.318.5-.272.5.045 0 .243-.225.439-.5s.319-.5.273-.5-.244.225-.44.5m-19.5.667c.196.275.394.5.44.5s-.077-.225-.273-.5-.394-.5-.439-.5c-.046 0 .077.225.272.5m18.667.5c-.196.275-.319.5-.273.5s.244-.225.44-.5c.195-.275.318-.5.272-.5-.045 0-.243.225-.439.5m-15 4.667c.196.275.394.5.439.5.046 0-.077-.225-.272-.5-.196-.275-.394-.5-.44-.5s.077.225.273.5m11.333.5c-.195.275-.318.5-.272.5.045 0 .243-.225.439-.5s.319-.5.273-.5-.244.225-.44.5m-7.666 4.666c.195.275.393.5.439.5s-.077-.225-.273-.5c-.195-.275-.393-.5-.439-.5s.077.225.273.5m.874 1.084c.423.454.496.475.98.293.359-.136.621-.146.835-.031.348.186.775.02 1.158-.452.147-.181.034-.143-.302.103-.524.383-.548.386-.875.09-.314-.284-.358-.286-.642-.029-.407.369-.674.348-1.184-.095-.393-.34-.391-.33.03.121" fill="#3c4444"/></g></svg>