<svg height="400" viewBox="0 0 400 400" width="400" xmlns="http://www.w3.org/2000/svg"><g fill-rule="evenodd"><path d="m60.839 183.526c-1.296 1.23-2.122 2.389-2.286 3.208-.141.705-.413 1.38-.605 1.498-.484.299-.439 4.465.052 4.768.22.136.4.569.4.962s.36 1.04.8 1.438.8.936.8 1.194c0 .259.495.726 1.1 1.038.605.313 1.449.883 1.875 1.268.867.782 5.582 1.017 6.025.3.136-.22.582-.4.992-.4 1.107 0 4.255-3.337 4.553-4.827 1.536-7.679-1.716-12.373-8.572-12.373h-3.104zm29.561-1.526c0 .22-.275.4-.611.4-.793 0-4.189 3.396-4.189 4.189 0 .336-.18.611-.4.611-.233 0-.4 1.325-.4 3.176 0 1.747.18 3.288.4 3.424s.4.524.4.863c0 .938 3.588 4.137 4.64 4.137.502 0 1.024.18 1.16.4.343.555 293.257.555 293.6 0 .136-.22.564-.4.952-.4 2.411 0 4.93-4.277 4.946-8.4.014-3.516-2.418-8-4.338-8-.308 0-.56-.18-.56-.4 0-.266-49.533-.4-147.8-.4s-147.8.134-147.8.4m-85 34.4c-.136.22-.665.4-1.175.4-.542 0-1.615.667-2.577 1.6l-1.648 1.599v5.22c0 5.553.631 7.126 2.876 7.168.372.007.788.193.924.413.29.47 7.4.549 7.4.083 0-.175.58-.49 1.288-.7 2.844-.845 4.608-5.457 3.701-9.675-.808-3.761-9.277-8.555-10.789-6.108m27.2 0c-.136.22-.597.4-1.024.4s-.776.18-.776.4-.262.4-.582.4c-1.741 0-4.135 4.17-4.121 7.179.015 3.408 2.492 7.621 4.48 7.621.317 0 .687.18.823.4.164.265 37.004.4 109.224.4 72.384 0 108.976-.134 108.976-.4 0-.22.544-.4 1.21-.4.909 0 1.301-.239 1.575-.961.201-.529.557-1.079.79-1.224.234-.144.425-.612.425-1.039s.18-.776.4-.776c.784 0 .472-6.29-.396-7.993-.851-1.667-3.066-3.607-4.118-3.607-.351 0-.75-.18-.886-.4-.164-.265-36.596-.4-108-.4s-107.836.135-108 .4m33.2 34.4c-.136.22-.856.4-1.6.4s-1.464.18-1.6.4-.515.4-.842.4c-.678 0-2.558 1.751-2.558 2.382 0 .23-.18.418-.4.418s-.4.45-.4 1-.18 1-.4 1c-.226 0-.4 1.133-.4 2.6s.174 2.6.4 2.6c.22 0 .4.319.4.71 0 .959 3.86 4.89 4.802 4.89.413 0 .862.18.998.4s1.036.4 2 .4 1.864-.18 2-.4.599-.4 1.029-.4c1.797 0 4.924-2.865 5.327-4.88.812-4.061-.32-9.483-2.156-10.321-.33-.151-1.003-.483-1.495-.737s-1.516-.462-2.276-.462-1.493-.18-1.629-.4-.406-.4-.6-.4-.464.18-.6.4m23.8.8c0 .22-.422.4-.938.4-.865 0-2.262 1.08-2.262 1.748 0 .157-.334.644-.742 1.082-1.335 1.433-.995 8.77.406 8.77.185 0 .336.278.336.618 0 .8 1.782 2.582 2.582 2.582.34 0 .618.18.618.4s.54.4 1.2.4 1.2.18 1.2.4c0 .266 43.333.4 129.2.4s129.2-.134 129.2-.4c0-.22.54-.4 1.2-.4s1.2-.15 1.2-.332c0-.183.434-.565.964-.849 2.898-1.55 4.645-7.803 3.029-10.836-.961-1.803-2.585-3.583-3.269-3.583-.372 0-.788-.18-.924-.4-.164-.265-44.471-.4-131.624-.4-87.317 0-131.376.134-131.376.4m-69.6 33.6c0 .22-.36.4-.8.4s-.8.18-.8.4-.294.4-.653.4c-.736 0-2.001 1.311-2.362 2.448-.131.413-.407.752-.612.752s-.373.349-.373.776-.18.888-.4 1.024c-.845.522-.019 6.6.897 6.6.167 0 .303.278.303.618 0 2.504 9.332 5.834 10.6 3.782.136-.22.513-.4.837-.4 2.873 0 6.867-9.976 4.563-11.4-.22-.136-.4-.511-.4-.834 0-.763-3.403-4.166-4.166-4.166-.323 0-.698-.18-.834-.4s-1.497-.4-3.024-.4c-1.584 0-2.776.172-2.776.4m27.2 0c0 .22-.384.4-.853.4-1.109 0-4.347 3.238-4.347 4.347 0 .469-.18.853-.4.853-.231 0-.4 1.259-.4 2.976 0 1.637.18 3.088.4 3.224s.4.543.4.904c0 .884 3.447 4.096 4.397 4.096.416 0 .867.18 1.003.4.163.263 18.192.4 52.786.4h52.538l1.738-.9c.956-.495 2.323-1.52 3.038-2.278l1.3-1.378v-4.459-4.458l-1.76-1.863c-.969-1.025-2.038-1.864-2.377-1.864s-.727-.18-.863-.4c-.163-.263-18.404-.4-53.424-.4-35.184 0-53.176.135-53.176.4m130.088.427c-1.762 1.034-4.088 3.401-4.088 4.16 0 .337-.18.613-.4.613-.235 0-.4 1.4-.4 3.4s.165 3.4.4 3.4c.22 0 .4.235.4.522 0 .786 2.438 3.289 4.13 4.239l1.494.839h107.75 107.75l1.738-.9c3.545-1.836 3.924-2.623 3.932-8.158.007-5.446-.342-6.203-3.736-8.11l-1.482-.832-108.088.028c-105.941.028-108.114.044-109.4.799m17.112 33.973c0 .22-.595.4-1.322.4-1.468 0-4.278 2.203-4.278 3.354 0 .355-.18.646-.4.646s-.4.349-.4.776-.18.888-.4 1.024-.4 1.317-.4 2.624c0 1.317.178 2.376.4 2.376.22 0 .4.362.4.805 0 2.416 3.037 5.154 6.419 5.787 2.878.538 8.381-1.843 8.381-3.626 0-.311.151-.566.336-.566.184 0 .544-.458.8-1.019.572-1.255.625-7.381.064-7.381-.22 0-.4-.235-.4-.522 0-.659-2.556-3.478-3.154-3.478-.245 0-.446-.18-.446-.4s-.439-.4-.976-.4-1.088-.18-1.224-.4-.957-.4-1.824-.4-1.576.18-1.576.4m26.6 0c-.136.22-.597.4-1.024.4s-.776.18-.776.4-.276.4-.613.4c-.338 0-1.238.624-2 1.387-.763.762-1.387 1.662-1.387 2 0 .337-.18.613-.4.613-.586 0-.501 6.233.1 7.291.849 1.494 2.828 3.412 4.423 4.286l1.522.835h66.984c36.842 0 67.461-.12 68.044-.266 1.566-.393 4.527-3.023 4.527-4.021 0-.289.18-.525.4-.525s.4-.529.4-1.176.18-1.288.4-1.424.4-.856.4-1.6-.18-1.464-.4-1.6-.4-.597-.4-1.024-.18-.776-.4-.776-.4-.32-.4-.712c0-.391-.36-.971-.8-1.288s-.8-.779-.8-1.026c0-.831-1.452-1.774-2.731-1.774-.698 0-1.269-.18-1.269-.4 0-.265-22.525-.4-66.776-.4-44.087 0-66.861.136-67.024.4m-108.2 35.2c0 .22-.234.4-.519.4-.732 0-3.582 2.821-4.181 4.138-.598 1.314-.679 7.062-.1 7.062.22 0 .4.351.4.78 0 .691 2.23 2.82 2.954 2.82.154 0 .666.36 1.138.8 1.18 1.099 6.549 1.169 7.733.1.426-.385 1.266-.953 1.866-1.263 2.508-1.294 3.999-7.165 2.62-10.318-.619-1.415-3.319-4.119-4.111-4.119-.33 0-.6-.18-.6-.4 0-.237-1.467-.4-3.6-.4s-3.6.163-3.6.4m26.8 0c0 .22-.262.4-.582.4-.754 0-2.618 1.864-2.618 2.618 0 .32-.18.582-.4.582s-.4.54-.4 1.2-.18 1.2-.4 1.2-.4.799-.4 1.776.18 1.888.4 2.024.4.576.4.978c0 1.495 2.118 4.422 3.2 4.422.238 0 .82.36 1.292.8.977.91 135.908 1.307 135.908.4 0-.22.36-.4.8-.4s.8-.136.8-.302c0-.167.542-.543 1.206-.836 2.21-.979 3.594-3.586 3.594-6.773 0-2.744-.803-5.289-1.669-5.289-.225 0-.914-.54-1.531-1.2s-1.409-1.2-1.76-1.2c-.352 0-.64-.18-.64-.4 0-.265-23.133-.4-68.6-.4s-68.6.135-68.6.4" fill="#e4147c"/><path d="m225.744 28.808c-.189.184-1.514.378-2.944.43s-2.69.227-2.8.39-1.01.345-2 .405c-.99.059-2.025.278-2.3.486-.335.254-.5.215-.5-.119 0-.372-.136-.385-.538-.051-.296.245-1.601.517-2.9.603-3.047.202-4.962.644-4.962 1.147 0 .219-.305.152-.677-.15-.46-.373-.58-.389-.376-.049.305.509.189.551-1.827.665-.594.034-1.209.191-1.367.348-.157.158-.596.287-.974.287s-1.19.261-1.805.58c-.614.318-1.265.488-1.445.376-.181-.112-.329-.013-.329.22s-.326.424-.725.424-1.47.36-2.381.8c-.91.44-1.934.8-2.275.8-.34 0-.619.18-.619.4s-.272.4-.605.4c-.64 0-2.242.795-2.617 1.298-.123.164-.695.337-1.272.385-.576.048-.961.229-.854.402.108.173-.265.315-.828.315s-1.024.136-1.024.302c0 .475-2.503 1.463-3.5 1.381-.495-.041-.9.104-.9.321 0 .218-.278.396-.617.396-.625 0-1.215.4-2.572 1.743-.412.408-.925.634-1.138.502-.214-.132-.5.047-.634.399-.14.364-.502.541-.842.41-.329-.126-.597-.055-.597.159 0 .213-.261.387-.58.387s-.724.234-.9.52-1.18 1.016-2.231 1.623-2.13 1.453-2.396 1.88c-.267.428-.762.777-1.101.777-.338 0-.875.36-1.192.8s-.987.8-1.488.8c-.502 0-.912.136-.912.302 0 .167-.541.542-1.202.835-.662.293-1.118.669-1.014.837s-.255.543-.798.833c-.542.291-.986.678-.986.861 0 .182-.276.332-.613.332-.336 0-.732.315-.879.7-.338.887-3.162 3.536-4.608 4.322-.605.329-1.1.785-1.1 1.012s-.148.322-.329.21c-.317-.196-1.411.828-1.57 1.471-.043.173-.848.913-1.79 1.645-.941.731-1.666 1.535-1.611 1.785s-.2.455-.567.455c-.366 0-.561.105-.433.233.247.247-.03.625-2.29 3.128-.776.859-1.41 1.671-1.41 1.806 0 .134-.402.421-.893.638s-1.093.801-1.338 1.298c-.245.496-1.058 1.576-1.807 2.399s-1.384 1.632-1.412 1.797c-.027.166-.072.582-.1.925s-.23.512-.45.376-.409.078-.42.476c-.01.398-.727 1.444-1.592 2.324s-1.778 2.095-2.029 2.7-.593 1.1-.761 1.1-.414.315-.547.7-.606 1.24-1.051 1.9-.918 1.515-1.051 1.9-.412.7-.619.7c-.208 0-.275.165-.151.366s.035.429-.198.507c-.363.121-.629.839-.75 2.027-.017.165-.301.3-.631.3-.518 0-.765 1.163-.566 2.655.019.141-.116.366-.3.5-.531.389-1.334 1.977-1.334 2.64 0 .333-.18.605-.4.605s-.4.368-.4.817-.36 1.203-.8 1.675-.8 1.185-.8 1.583c0 .399-.18.725-.4.725s-.4.45-.4 1-.18 1-.4 1-.4.461-.4 1.024c0 .705-.155.934-.5.735-.275-.158-.375-.148-.221.022.244.271-.169 1.698-1.28 4.419-.634 1.553-.921 2.409-1.071 3.191-.083.436-.326.967-.539 1.18-.504.504-.505 1.148-.001.837.213-.132.044.527-.376 1.465-.551 1.23-.645 1.846-.339 2.216.234.281.26.511.058.511s-.413.675-.468 1.499c-.056.825-.273 1.671-.482 1.88-.21.21-.381 1.245-.381 2.301s-.149 1.92-.332 1.92c-.182 0-.372 1.035-.422 2.3s-.261 2.36-.468 2.433c-.208.074-.378 1.368-.378 2.877 0 1.508-.152 2.837-.338 2.952-.988.61-.427 15.838.583 15.838.305 0 .555.33.555.732 0 .403.45.974 1 1.268s1 .685 1 .868c0 .182 54.9.332 122 .332 81.067 0 122-.134 122-.4 0-.22.32-.4.712-.4.391 0 .971-.36 1.288-.8s.807-.8 1.088-.8c.282 0 .513-.225.514-.5.002-.275.243-.96.536-1.522.573-1.098.705-8.468.162-9.011-.165-.165-.3-2.15-.3-4.41 0-2.308-.175-4.218-.4-4.357-.22-.136-.4-1.317-.4-2.624 0-1.317-.178-2.376-.4-2.376-.22 0-.4-.889-.4-1.976s-.18-2.088-.4-2.224-.4-1.036-.4-2-.18-1.864-.4-2-.4-.777-.4-1.424-.18-1.176-.4-1.176-.4-.529-.4-1.176-.18-1.288-.4-1.424-.4-1.302-.4-2.59c0-1.289-.142-2.403-.316-2.477-.174-.073-.613-1.033-.975-2.133-.914-2.778-1.672-4.763-1.909-5-.192-.192-.399-.879-.56-1.86-.041-.252-.291-.719-.554-1.036-.264-.318-.361-.696-.216-.841s.053-.263-.203-.263c-.257 0-.473-.315-.48-.7s-.271-1.042-.587-1.459-.48-.912-.364-1.1.049-.341-.148-.341c-.198 0-.597-.717-.886-1.594s-.858-1.895-1.264-2.262-.738-.943-.738-1.28-.39-1.028-.867-1.535c-.476-.507-.893-1.239-.925-1.626-.084-1.007-1.433-3.703-1.854-3.703-.195 0-.354-.36-.354-.8s-.136-.8-.302-.8c-.167 0-.542-.541-.835-1.202-.293-.662-.697-1.101-.898-.977-.201.125-.365-.132-.365-.57 0-.446-.353-.909-.8-1.051-.44-.14-.8-.487-.8-.773 0-.285-.537-1.128-1.194-1.873-.656-.745-1.196-1.489-1.2-1.654-.003-.165-.366-.66-.806-1.1s-.8-1.075-.8-1.411c0-.645-3.073-3.922-4.034-4.302-.314-.124-.359-.238-.101-.255.256-.018-1.139-1.629-3.1-3.58-1.961-1.952-3.565-3.67-3.565-3.818 0-.413-1.913-2.234-2.346-2.234-.211 0-.837-.54-1.393-1.2-.555-.66-1.161-1.2-1.347-1.2s-.597-.36-.914-.8-.731-.8-.92-.8c-.452 0-3.48-3.16-3.48-3.633 0-.202-.302-.367-.671-.367s-1.174-.585-1.788-1.3c-.937-1.09-1.183-1.203-1.523-.7-.223.33-.409.405-.412.168-.003-.238-.498-.688-1.099-1-.601-.313-1.58-1.026-2.174-1.587-.595-.56-1.588-1.279-2.207-1.597s-1.417-.895-1.773-1.281c-.356-.387-.851-.703-1.1-.703s-.453-.139-.453-.309c0-.381-2.834-1.929-3.278-1.791-.177.055-.322-.062-.322-.261 0-.198-.548-.552-1.218-.785-.669-.234-1.732-.791-2.361-1.239-.63-.448-1.657-.819-2.283-.824s-1.588-.361-2.138-.791-1.315-.786-1.7-.791-.7-.16-.7-.345-.765-.578-1.7-.875c-.935-.296-2.178-.865-2.762-1.264s-1.574-.739-2.2-.757c-.626-.017-.903-.125-.616-.24s-1.333-.824-3.6-1.575-4.482-1.544-4.922-1.763-1.295-.436-1.9-.481c-.605-.046-1.1-.239-1.1-.43 0-.19-.225-.267-.5-.17s-.917.022-1.426-.167c-.51-.188-2.305-.443-3.989-.566-1.683-.123-3.247-.376-3.473-.561-.227-.185-1.402-.438-2.612-.562-4.858-.499-7.838-.935-8.566-1.254-.602-.263-.692-.214-.423.233.273.452.225.474-.234.109-.685-.545-22.882-.671-23.433-.133" fill="#54cccb"/><path d="m148.484 64.615c-.662.751-.114.734.892-.028.546-.413.606-.582.2-.572-.317.009-.808.279-1.092.6" fill="#54d0a4"/></g></svg>