<svg xmlns="http://www.w3.org/2000/svg" xml:space="preserve" fill="none" viewBox="0 0 1000 1000">
  <path fill="#61DFFF" d="M186.97 628.14c-16.963-.047-33.927.007-50.89-.168-18.082-.186-35.15-4.67-51.742-11.814-17.491-7.53-32.585-18.329-45.558-32.015-13.163-13.888-23.47-29.794-29.631-48.018-2.67-7.9-4.162-16.199-6.252-24.3-.146-.567-.814-.999-1.568-1.16a77854.647 77854.647 0 0 1 0-391.862c.754-.63 1.418-1.061 1.569-1.629 2.068-7.771 3.67-15.69 6.152-23.324 8.365-25.714 24.04-46.55 44.986-63.138 18.329-14.515 39.114-24.38 62.579-27.81.543-.079.927-1.243 1.385-1.902h392.531c1.095.665 1.636 1.796 2.359 1.927 25.119 4.565 47.126 15.295 66.606 31.897 23.254 19.82 37.763 44.831 45.234 74.008 2.287 8.931 2.86 18.44 3.135 27.717.486 16.486.145 32.996.064 50.29-.047 3.894 0 6.993.028 10.092.065 7.367.12 14.734.118 22.567-.066 18.078-.089 35.69-.071 53.303.034 33.727.092 67.454.066 101.645-.025 10.5.024 20.536.01 31.036-.07 28.618.167 56.776-.218 84.925-.126 9.264-1.097 18.668-3.008 27.727-5.63 26.682-18.6 49.656-37.648 69.035-12.881 13.104-27.99 23.216-45.053 30.19-16.226 6.632-33.008 10.695-50.68 10.666-28.819-.046-57.637.07-86.919.045-10.5-.025-20.536.024-31.036.01-14.753-.07-29.043-.091-43.333-.077-37.051.037-74.103.09-111.622.083-10.843-.017-21.218.019-31.592.054m218.974-31.155c27.467.005 54.938.258 82.4-.133 8.413-.12 17.035-1.116 25.157-3.253 22.808-6 42.17-17.663 57.59-35.997 16.326-19.413 24.903-41.8 25.688-66.703.9-28.6.124-57.252.224-86.809-.05-10.036-.098-20.072-.019-31.035.005-15.952.027-31.904.011-47.856-.035-35.39-.09-70.78-.026-107.101-.037-10.376-.073-20.752.016-32.053.004-14.997.417-30.008-.141-44.983-.326-8.746-1.461-17.614-3.525-26.114-5.7-23.475-18.242-42.775-36.967-58.176-19.436-15.985-41.854-24.519-66.705-24.605-110.472-.385-220.946-.19-331.42-.124-9.254.006-18.509.616-27.763.957-12.53.462-24.198 4.389-35.4 9.541-15.047 6.921-27.6 17.089-38.199 29.948-16.382 19.878-24.688 42.738-24.748 68.171-.27 114.639-.155 229.278-.033 343.917.008 7.339.739 14.765 1.999 21.999 4.615 26.502 17.52 48.198 38.294 65.398 18.818 15.581 40.57 23.594 64.623 24.85 16.612.868 33.31.083 50.633.332 3.753-.038 7.506-.079 11.259-.114 6.712-.062 13.425-.12 21.063-.056 17.614.005 35.227.028 52.84.01 33.729-.034 67.457-.092 102.114.008 10.036-.05 20.072-.098 31.035-.019z"/>
  <path fill="#CA61FF" d="M491.469 1001c-1.095-.665-1.637-1.795-2.36-1.927-25.115-4.567-47.123-15.292-66.6-31.893-23.246-19.814-37.764-44.811-45.225-73.987-2.283-8.927-2.874-18.427-3.148-27.697-.486-16.469-.138-32.962.235-50.077 10.466-.518 20.559-.406 30.642.165.322 18.378.605 36.3 1.002 54.218.308 13.888 4.389 26.893 10.55 39.123 7.116 14.122 16.74 26.342 29.166 36.44 19.258 15.648 41.34 24.352 65.831 24.442 117.303.43 234.608.227 351.912.1 6.33-.008 12.787-.8 18.963-2.202 25.214-5.721 46.363-18.087 62.888-38.388 15.803-19.415 24.42-41.613 24.502-66.308.387-116.803.185-233.608.13-350.412-.003-4.756-.177-9.6-1.06-14.254-5.202-27.426-17.53-50.723-39.548-68.6-18.965-15.398-40.703-23.419-64.8-24.585-16.454-.796-32.981-.101-49.733-.405-.4-6.77-.678-13.208-.632-19.645.026-3.733.574-7.463.888-11.194 16.652.029 33.305.036 49.957.092 18.486.062 35.916 4.596 52.83 11.9 17.344 7.489 32.346 18.228 45.238 31.822 13.2 13.917 23.532 29.847 29.744 48.09 2.693 7.91 4.172 16.231 6.265 24.35.147.568.812 1.002 1.565 1.165.329 130.355.329 261.042 0 391.865-.753.63-1.414 1.063-1.566 1.63-2.068 7.772-3.668 15.692-6.155 23.324-8.376 25.701-24.036 46.542-44.98 63.13-18.33 14.517-39.117 24.383-62.582 27.817-.544.08-.929 1.243-1.388 1.901H491.469z"/>
  <path fill="#616EFF" d="M815.04 373.452c-.282 4.193-.83 7.923-.856 11.656-.046 6.437.233 12.876.6 20.107.223 89.58.31 178.366.086 267.153-.024 9.609-1.158 19.343-2.95 28.797-6.977 36.805-26.007 66.13-56.494 87.836-24.95 17.763-52.972 26.028-83.55 26.013-81.29-.04-162.581-.018-243.872-.009-7.66.001-15.32.08-22.981.121-10.093-.113-20.186-.225-30.66-.167-15.693.127-31.003.105-46.313.036-32.935-.148-62.569-10.454-88.16-30.87-26.68-21.284-43.695-49.03-49.804-82.859-1.768-9.79-2.616-19.822-2.961-29.775-.492-14.13-.128-28.29-.142-42.894a343.5 343.5 0 0 1 31.567-.054c.453 17.008.392 33.506.468 50.004.065 14.246 3.767 27.68 9.58 40.576 8.055 17.866 20.046 32.607 36.027 43.911 16.108 11.395 34.035 18.799 53.79 19.768 18.452.906 36.984.16 55.806.412 6.749.415 13.174.707 19.597.644 3.737-.036 7.468-.64 11.667-.932 91.243.062 182.021.085 272.8.057 14.409-.005 27.964-3.805 41.021-9.69 17.886-8.06 32.569-20.104 43.847-36.062 11.377-16.096 19.489-34.076 19.602-53.797.531-92.774.208-185.553.46-278.654.414-7.11.684-13.896.647-20.68-.019-3.403-.595-6.802-.894-10.664.027-16.96.083-33.457.016-49.954-.058-14.25-3.76-27.686-9.568-40.58-8.048-17.865-20.036-32.609-36.017-43.917-16.253-11.5-34.334-18.88-54.28-19.803-18.29-.846-36.652-.16-54.982-.15-.06-7.367-.115-14.734-.18-22.1-.028-3.1-.075-6.199.035-9.63 16.313-.321 32.484-.581 48.643-.245 32.02.667 60.751 11.157 85.735 30.996 25.868 20.54 41.949 47.622 49.333 79.665 2.117 9.191 2.856 18.819 3.16 28.28.505 15.65.143 31.327.178 47.454z"/>
  <path fill="#616EFF" d="M596.914 218.563c-92.546.456-185.037.248-277.526.621-16.477.067-31.916 6.057-46.175 14.264-15.739 9.06-28.594 21.362-38.02 36.94-7.887 13.036-13.899 26.878-15.156 42.31-.576 7.073-.99 14.182-.994 21.275-.065 87.325-.04 174.65-.026 262.43-6.7.518-13.412.577-20.124.64-3.753.034-7.506.075-11.59-.035-.322-88.973-.268-177.799-.327-266.624-.02-30.6 8.165-58.665 25.881-83.642 21.653-30.527 50.974-49.659 87.805-56.634 9.942-1.884 20.194-2.951 30.307-2.977 88.325-.228 176.651-.134 265.434-.148.494 10.363.53 20.739.511 31.58z"/>
  <path fill="#CA61FF" d="M596.93 404.554c-28.217.458-56.376-.14-84.498.622-25.315.686-48.133 9.064-67.821 25.598-18.172 15.26-30.34 34.193-35.908 57.138-2.061 8.498-3.397 17.372-3.54 26.099-.444 27.303-.162 54.618-.153 82.387-10.028.508-20.064.557-30.564.532a3962.628 3962.628 0 0 1-.393-88.557c.125-18.289 4.76-35.612 12.316-52.222 7.012-15.414 16.328-29.287 28.29-41.206 19.311-19.242 42.352-32.112 69.053-37.8 8.901-1.895 18.143-2.886 27.245-3.007 28.323-.377 56.655-.14 85.441-.148.508 10.028.557 20.064.532 30.564zM628.07 374.446c51.363-.462 102.653-.46 154.408-.503.789 3.355 1.365 6.754 1.384 10.156.037 6.785-.233 13.57-.647 20.68-51.565.291-102.86.257-154.613.231-.508-10.028-.557-20.064-.532-30.564zM374.221 783.214c-.29-51.565-.257-102.86-.231-154.612 10.028-.508 20.064-.557 30.564-.532.459 51.344.454 102.615.457 154.343-3.725.805-7.456 1.41-11.193 1.445-6.423.063-12.848-.23-19.597-.644z"/>
</svg>