<svg viewBox="0 0 465.86 465.86" xmlns="http://www.w3.org/2000/svg" xmlns:xlink="http://www.w3.org/1999/xlink"><linearGradient id="a" gradientUnits="userSpaceOnUse" x1="232.93" x2="232.93" y1="16.15" y2="502.91"><stop offset="0" stop-color="#54f5ff"/><stop offset="1" stop-color="#38cdee"/></linearGradient><path d="m232.93 0c-128.64 0-232.93 104.29-232.93 232.93s104.29 232.93 232.93 232.93 232.93-104.29 232.93-232.93-104.29-232.93-232.93-232.93zm-73.93 297.68-31.72-34.53a22.19 22.19 0 0 0 -16.28-7.15h-17.72v41.5h-19.13v-60.64h36.85a41.38 41.38 0 0 1 30.39 13.35l37.46 40.79 6.56 6.65zm19.88-122.55-37.54 40.87a41.38 41.38 0 0 1 -30.34 13.3h-36.85v-60.64h19.13v41.51h17.72a22.19 22.19 0 0 0 16.3-7.16l31.7-34.53h26.44zm65.52 122.46h-19.16v-109.19h-31.05v-19.13h50.18zm36.22-109.13h-26.4v-19.14h26.4zm111.12 23.32h-19.16v-15.89a8.59 8.59 0 0 0 -8.58-8.58h-43.18a8.59 8.59 0 0 0 -8.58 8.58v73.71a8.59 8.59 0 0 0 8.58 8.57h43.18a8.59 8.59 0 0 0 8.58-8.57v-15.9h19.13v15.9a27.74 27.74 0 0 1 -27.71 27.7h-43.18a27.74 27.74 0 0 1 -27.71-27.7v-73.71a27.74 27.74 0 0 1 27.71-27.71h43.18a27.74 27.74 0 0 1 27.71 27.71z" fill="url(#a)"/></svg>