<svg height="100" viewBox="0 0 100 100" width="100" xmlns="http://www.w3.org/2000/svg"><g fill="none" fill-rule="evenodd"><circle cx="50" cy="50" fill="#22242f" r="50"/><g fill="#e53935" fill-rule="nonzero"><path d="m50 2c26.509668 0 48 21.490332 48 48s-21.490332 48-48 48-48-21.490332-48-48 21.490332-48 48-48zm0 3.38823529c-24.6383973 0-44.61176471 19.97336741-44.61176471 44.61176471s19.97336741 44.6117647 44.61176471 44.6117647 44.6117647-19.9733674 44.6117647-44.6117647-19.9733674-44.61176471-44.6117647-44.61176471z"/><path d="m80.2507798 31.0832298v-4.3602484h-13.8116033c-.7411104-2.8173913-1.4822208-5.2993789-2.2907049-7.5801243l-4.6487835.804969c.8084841 2.0124223 1.6169682 4.2931677 2.3580786 6.7751553h-14.6200873v4.3602484zm-35.3711791 32.4v-27.8385093h-6.8047411c1.4148472-2.0795031 2.8296944-4.6285714 4.2445415-7.7142857v-3.2198758h-11.1166562c.606363-1.3416149 1.1453524-2.6832298 1.6843418-4.0919255l-4.3119151-1.3416149c-2.0212103 6.5739131-5.187773 11.873292-9.4323145 15.9652174l1.0106052 4.7627329c.8758577-.8049689 1.7517155-1.6099378 2.5601996-2.4819875v25.9602484zm-11.4535246-27.8385093h-9.0280724c1.7517156-2.1465839 3.4360574-4.5614907 4.9182783-7.110559h8.4890829c-1.4822208 2.6832298-2.897068 5.0981366-4.3792888 7.110559zm27.7579538 45.2124224c3.3686838 0 5.1203993-1.8782609 5.1203993-5.5677019v-19.1180124h10.7124142v-19.0509317h-26.2083593v19.0509317h10.7797879v17.9776397c0 1.6770187-.6737368 2.5490683-2.0212102 2.5490683-1.5495946 0-3.1665627-.1341614-4.7835309-.3354037l.9432314 4.49441zm-29.3075483-33.2720497h-4.9856519v-7.9826087h4.9856519zm8.8259513 0h-4.9182782v-7.9826087h4.9182782zm31.7330007 4.3602484h-17.0455397v-10.531677h17.0455397zm-31.7330007 7.5130435h-4.9182782v-7.9826087h4.9182782zm-8.8259513 0h-4.9856519v-7.9826087h4.9856519zm45.4098565 18.3130435 3.5708048-2.4819876c-1.8190893-4.2931677-4.3792889-9.2571429-7.7479726-14.9590062l-3.5708047 2.1465838c3.2339363 5.5677019 5.8615096 10.6658385 7.7479725 15.29441zm-28.2295695 1.1403726c2.9644416-4.6285714 5.5246413-10.1291925 7.6805988-16.4347826l-3.9076731-1.8782608c-2.0885839 6.037267-4.5814098 11.2695652-7.4111042 15.6968944zm-5.592015-4.5614906 3.30131-.804969c-.9432314-3.2198758-1.8864629-6.0372671-2.9644416-8.4521739l-3.1665627.9391304c1.0779788 2.6832299 2.0212102 5.4335404 2.8296943 8.3180125zm-7.1416095 3.8906832 3.5034311-.4024845c-.4042421-5.0981366-1.1453525-9.1229813-2.2233313-12.0745341l-3.3686837.4024844c1.0779788 2.8173913 1.7517155 6.8422361 2.0885839 12.0745342zm-12.8683718 1.8111801c1.4148472-3.957764 2.2907049-8.4521739 2.694947-13.5503105l-3.6381784-.4695653c-.3368684 4.8298137-1.2800999 9.1229814-2.7623207 12.8795031zm5.6593886-.8049689 3.5034311-.4024845c-.1347473-5.2993789-.4716157-9.5254658-.9432314-12.6111801l-3.2339364.4024844c.3368684 2.9515528.5389894 7.1776398.6737367 12.6111802z"/></g></g></svg>