<svg enable-background="new 0 0 2000 2000" viewBox="0 0 2000 2000" xmlns="http://www.w3.org/2000/svg"><g fill="#0c00ff"><path d="m1704.2 664.7c-.8 27.5-13.1 55.4-36.5 78.8-81 80.7-161.8 161.7-242.6 242.5-12 12-11.9 12-.2 23.7 81.6 82 163.2 163.9 244.7 246 32.2 32.5 45.2 71 32.7 115.9-24 85.9-129.3 112.7-193.4 49.1-89.4-88.8-178.3-178.1-267.4-267.2-39.7-39.7-79.4-79.3-119-119-24.7-24.8-24.8-48.4 0-73 127.8-127.3 255.6-254.5 383.6-381.7 35.2-35 83.4-44.7 127.5-26.3 42.1 17.6 70.6 60.2 70.6 111.2z"/><path d="m1025.7 889c-14.3 14.1-37.2 14.1-51.5 0-46.6-46.2-104.5-103.2-147.1-145.4-23.5-23.3-35.9-51.2-36.8-78.7-.2-51 28.1-93.6 70.4-111.4 44.1-18.6 92.3-9.1 127.6 25.8 41.1 40.6 100.6 101.3 147.7 148.5 14.3 14.3 14.3 37.6-.1 51.8z"/><path d="m295.8 664.7c.8 27.5 13.1 55.4 36.5 78.8 81 80.7 161.8 161.7 242.6 242.5 12 12 11.9 12 .2 23.7-81.6 82-163.2 163.9-244.7 246-32.2 32.5-45.2 71-32.7 115.9 24 85.9 129.3 112.7 193.4 49.1 89.4-88.8 178.3-178.1 267.4-267.2 39.7-39.7 79.4-79.3 119-119 24.7-24.8 24.8-48.4 0-73-127.6-127.3-255.4-254.6-383.4-381.7-35.2-35-83.4-44.7-127.5-26.3-42.3 17.6-70.8 60.2-70.8 111.2z"/><path d="m1025 1108.6c-14.3-14.1-37.2-14.1-51.5 0-46.6 46.2-104.5 103.2-147.1 145.4-23.5 23.3-35.9 51.2-36.8 78.7-.2 51 28.1 93.6 70.4 111.4 44.1 18.6 92.3 9.1 127.6-25.8 41.1-40.6 100.6-101.3 147.7-148.5 14.3-14.3 14.3-37.6-.1-51.8z"/></g></svg>