<svg fill="none" height="256" viewBox="0 0 256 256" width="256" xmlns="http://www.w3.org/2000/svg"><circle cx="128.991" cy="127.009" fill="#f0b90b" r="89.2035"/><path d="m241.982 127.009c0 14.838-2.922 29.531-8.601 43.24-5.678 13.708-14.001 26.164-24.493 36.657-10.492 10.492-22.948 18.815-36.657 24.493s-28.402 8.601-43.24 8.601-29.531-2.923-43.2397-8.601-26.1648-14.001-36.657-24.493c-10.4922-10.493-18.815-22.949-24.4934-36.657-5.6783-13.709-8.6009-28.402-8.6009-43.24h27.0811c0 11.282 2.2222 22.453 6.5395 32.876 4.3174 10.423 10.6455 19.894 18.623 27.871 7.9775 7.978 17.4481 14.306 27.8712 18.623 10.4232 4.318 21.5942 6.54 32.8762 6.54s22.453-2.222 32.877-6.54c10.423-4.317 19.893-10.645 27.871-18.623 7.977-7.977 14.305-17.448 18.623-27.871 4.317-10.423 6.539-21.594 6.539-32.876z" fill="#c73238"/><path d="m218.195 127.009c0 11.714-2.308 23.314-6.791 34.137-4.482 10.822-11.053 20.656-19.336 28.939-8.284 8.284-18.117 14.854-28.94 19.337s-22.422 6.791-34.137 6.791c-11.714 0-23.314-2.308-34.1366-6.791-10.8227-4.483-20.6564-11.053-28.9397-19.337-8.2833-8.283-14.854-18.117-19.3369-28.939-4.4829-10.823-6.7902-22.423-6.7902-34.137h89.2034z" fill="#070b09"/><g fill="#fff"><path d="m89.1236 128.517.0644 23.588 20.042 11.793v13.81l-31.7714-18.634v-37.454zm0-23.587v13.745l-11.6722-6.905v-13.7449l11.6722-6.9047 11.7294 6.9047zm28.4764-6.9049 11.672-6.9047 11.73 6.9047-11.73 6.9049z"/><path d="m97.5579 147.216v-13.81l11.6721 6.905v13.745zm20.0421 21.629 11.672 6.904 11.73-6.904v13.745l-11.73 6.904-11.672-6.904zm40.141-70.8199 11.673-6.9047 11.729 6.9047v13.7449l-11.729 6.905v-13.745zm11.673 54.0799.064-23.588 11.672-6.905v37.454l-31.771 18.635v-13.81z"/><path d="m161.044 147.215-11.672 6.841v-13.745l11.672-6.905z"/><path d="m161.044 109.819.064 13.809-20.099 11.794v23.644l-11.672 6.841-11.673-6.841v-23.644l-20.099-11.794v-13.809l11.722-6.905 19.978 11.851 20.1-11.851 11.729 6.905zm-63.4861-23.5808 31.7141-18.6984 31.772 18.6984-11.672 6.9047-20.1-11.8509-20.042 11.8509z"/></g></svg>