<svg fill="none" height="2048" viewBox="0 0 2048 2048" width="2048" xmlns="http://www.w3.org/2000/svg" xmlns:xlink="http://www.w3.org/1999/xlink"><linearGradient id="a" gradientUnits="userSpaceOnUse" x1="446.373" x2="1599.15" y1="1066.74" y2="1066.74"><stop offset="0" stop-color="#5433ff"/><stop offset=".5" stop-color="#20bdff"/><stop offset="1" stop-color="#a5fecb"/></linearGradient><rect fill="#000" height="2048" rx="1024" width="2048"/><g fill="#000" opacity=".25"><path d="m816.666 1615.38c-5.86-5.22-9.529-12.49-10.26-20.34l-58.247-624.754h207.292v699.924c0 26.69-31.239 40.9-51.086 23.23z"/><path d="m955.451 957.888v-87.213l-218.352-19.021 9.904 106.234z"/><path d="m955.451 858.231-219.522-19.122-34.311-368.022c-1.695-18.182 12.492-33.894 30.606-33.894h192.486c16.978 0 30.741 13.877 30.741 30.994z"/><path d="m1360.61 957.886h158.01c8.49 0 15.37-6.938 15.37-15.497v-91.393c0-9.154-7.82-16.313-16.86-15.423l-146.73 14.446z"/><path d="m1357.94 851.245-218.66 21.527v85.114h208.98z"/><path d="m1126.99 873.982v83.904h-582.235c-8.489 0-15.37-6.938-15.37-15.497v-91.598c0-9.08 7.707-16.214 16.68-15.44l517.455 44.621c.93.08 1.87.074 2.8-.017z"/><path d="m1191.91 1691.34c-19.31 19.73-52.63 5.94-52.63-21.77v-961.489h231.94l-80.68 872.479c-.66 7.12-3.74 13.8-8.73 18.89z"/><path d="m1372.37 695.683h-233.09v-133.628l246.88-15.528z"/><path d="m1139.28 468.191v81.442l248.04-15.6 5.82-62.964c1.68-18.175-12.5-33.871-30.6-33.871h-192.52c-16.97 0-30.74 13.876-30.74 30.993z"/><path d="m955.452 695.684v-133.24l-246.576-12.235 13.49 145.475z"/><path d="m967.749 695.684h621.581c6.79 0 12.29-5.551 12.29-12.398v-137.728c0-7.156-5.99-12.826-13.07-12.372l-533.8 34.185-87.001-4.317z"/><path d="m695.455 549.544 14.729 146.14h-249.044c-6.791 0-12.296-5.551-12.296-12.398v-132.956c0-7.086 5.881-12.731 12.9-12.383z"/></g><g fill="url(#a)"><path d="m814.195 1612.89c-5.86-5.22-9.529-12.49-10.26-20.33l-58.247-624.761h207.293v699.921c0 26.7-31.24 40.9-51.087 23.24z"/><path d="m952.981 955.402v-87.213l-218.353-19.021 9.904 106.234z"/><path d="m952.981 855.745-219.523-19.122-34.311-368.022c-1.695-18.183 12.492-33.894 30.606-33.894h192.487c16.977 0 30.741 13.876 30.741 30.993z"/><path d="m1358.14 955.4h158.01c8.49 0 15.37-6.938 15.37-15.497v-91.393c0-9.154-7.82-16.313-16.86-15.424l-146.73 14.446z"/><path d="m1355.47 848.759-218.66 21.526v85.115h208.98z"/><path d="m1124.52 871.496v83.904h-582.236c-8.488 0-15.37-6.938-15.37-15.497v-91.598c0-9.08 7.707-16.214 16.68-15.441l517.456 44.621c.93.081 1.87.075 2.8-.017z"/><path d="m1189.44 1688.85c-19.31 19.73-52.63 5.95-52.63-21.77v-961.486h231.94l-80.68 872.476c-.66 7.13-3.74 13.8-8.73 18.89z"/><path d="m1369.9 693.197h-233.09v-133.629l246.88-15.527z"/><path d="m1136.81 465.705v81.442l248.04-15.6 5.82-62.965c1.68-18.175-12.5-33.871-30.61-33.871h-192.51c-16.98 0-30.74 13.877-30.74 30.994z"/><path d="m952.982 693.198v-133.24l-246.577-12.235 13.491 145.475z"/><path d="m965.278 693.198h621.582c6.79 0 12.29-5.551 12.29-12.398v-137.728c0-7.156-5.99-12.826-13.07-12.373l-533.81 34.186-86.992-4.317z"/><path d="m692.985 547.057 14.728 146.141h-249.044c-6.791 0-12.296-5.551-12.296-12.398v-132.957c0-7.086 5.881-12.73 12.901-12.382z"/></g><path d="m744.72 837.604-11.262-.981-13.371-143.425h-.191l-13.491-145.475.12.006-7.378-79.128c-1.695-18.183 12.492-33.894 30.606-33.894h192.487c11.657 0 21.799 6.542 27.01 16.183-4.362-2.396-9.365-3.757-14.682-3.757h-192.486c-18.115 0-32.302 15.711-30.606 33.894l7.377 79.128-.12-.006 13.491 145.475h.191z" fill="#fff"/><path d="m965.31 693.198h12.296v-120.204l86.994 4.317 533.81-34.186c.25-.016.5-.024.74-.025v-.028c0-7.156-5.99-12.826-13.07-12.373l-188.79 12.091-.11 1.183-248.04 15.6v-.892l-96.87 6.204-86.961-4.315z" fill="#fff"/><path d="m1387.07 450.889c-4.35-2.388-9.34-3.752-14.68-3.752h-192.51c-16.98 0-30.74 13.877-30.74 30.994v68.241l-12.33.775v-81.442c0-17.117 13.76-30.994 30.74-30.994h192.51c11.74 0 21.82 6.592 27.01 16.178z" fill="#fff"/><path d="m1136.81 705.624h231.94l-1.15 12.396h-218.46v961.49c0 5.51 1.32 10.47 3.58 14.73-9.17-5.05-15.91-14.69-15.91-27.16v-699.254h.03v-83.904l-.03.003z" fill="#fff"/><path d="m1124.52 885.136v-13.64l-60.67 5.972c-.93.092-1.87.098-2.8.017l-326.422-28.317.016.171-191.05-16.474c-8.973-.774-16.68 6.36-16.68 15.44v91.598c0 7.599 5.424 13.92 12.582 15.243-.167-.914-.254-1.855-.254-2.817v-91.598c0-9.08 7.708-16.214 16.681-15.441l191.049 16.475-.016-.171 326.424 28.317c.93.081 1.87.075 2.8-.017z" fill="#fff"/><path d="m745.691 967.826 58.244 624.734c.731 7.84 4.4 15.11 10.26 20.33l6.99 6.22c-2.739-4.2-4.448-9.04-4.922-14.13l-58.247-624.754h194.965v-12.398z" fill="#fff"/><path d="m1359.24 955.4h12.35l8.66-95.442 146.74-14.446c1.47-.144 2.9-.076 4.28.179-1.41-7.754-8.53-13.401-16.61-12.605l-145.54 14.329-3.79 40.888z" fill="#fff"/><path d="m694.181 558.931-1.196-11.874-233.711-11.596c-7.02-.348-12.901 5.296-12.901 12.382v132.957c0 6.847 5.505 12.398 12.296 12.398h.032v-132.929c0-7.086 5.881-12.73 12.901-12.382z" fill="#fff"/></svg>