<svg fill="none" height="25" viewBox="0 0 24 25" width="24" xmlns="http://www.w3.org/2000/svg" xmlns:xlink="http://www.w3.org/1999/xlink"><linearGradient id="a"><stop offset="0" stop-color="#fda9ff"/><stop offset=".028" stop-color="#f9aaff"/><stop offset=".243" stop-color="#dcb3ff"/><stop offset=".367" stop-color="#d1b6ff"/><stop offset=".89" stop-color="#4dffe5"/></linearGradient><linearGradient id="b" gradientUnits="userSpaceOnUse" x1="-1.86202" x2="28.5532" xlink:href="#a" y1="15.503" y2="-.711852"/><linearGradient id="c"><stop offset="0" stop-color="#16183c" stop-opacity=".3"/><stop offset=".867" stop-color="#16183c" stop-opacity="0"/></linearGradient><linearGradient id="d" gradientUnits="userSpaceOnUse" x1="10.6539" x2="13.7029" xlink:href="#c" y1="10.5726" y2="-.825445"/><linearGradient id="e" gradientUnits="userSpaceOnUse" x1="-.830481" x2="27.2429" xlink:href="#a" y1="16.3964" y2="4.77853"/><linearGradient id="f" gradientUnits="userSpaceOnUse" x1="9.24882" x2="13.937" xlink:href="#c" y1="13.5699" y2="4.55841"/><linearGradient id="g" gradientUnits="userSpaceOnUse" x1="-2.00936" x2="23.0914" xlink:href="#a" y1="18.2621" y2="9.26428"/><path d="m0 1.39704v7.31025-.28641c.0556199 6.24642 5.39513 11.57912 12 11.57912 6.6049 0 11.9444-5.0463 12-11.29271v-7.31025s-1.6686-.791036-3.5597 1.10472c-1.2097 1.21383-2.1831 5.60544-4.7833 5.63271-3.4762.05456-5.84008-4.47343-8.66279-6.16461-2.96176-1.773012-6.99421-.57282-6.99421-.57282z" fill="url(#b)"/><path d="m0 1.39704v7.31025-.28641c.0556199 6.24642 5.39513 11.57912 12 11.57912 6.6049 0 11.9444-5.0463 12-11.29271v-7.31025s-1.6686-.791036-3.5597 1.10472c-1.2097 1.21383-2.1831 5.60544-4.7833 5.63271-3.4762.05456-5.84008-4.47343-8.66279-6.16461-2.96176-1.773012-6.99421-.57282-6.99421-.57282z" fill="url(#d)"/><path d="m24 8.8329v-5.5284c-.6809.11889-1.5148.47556-2.3903 1.33752-1.3619 1.33751-2.4458 6.16748-5.3642 6.21198-3.8911.0595-6.54544-4.93391-9.71394-6.80644-2.20961-1.27807-4.94731-1.12945-6.53156-.87681v5.67701-.34181c.0555877 7.28205 5.40591 13.49405 11.9931 13.49405 6.601 0 11.9513-5.8851 12.0069-13.1671z" fill="url(#e)"/><path d="m24 8.8329v-5.5284c-.6809.11889-1.5148.47556-2.3903 1.33752-1.3619 1.33751-2.4458 6.16748-5.3642 6.21198-3.8911.0595-6.54544-4.93391-9.71394-6.80644-2.20961-1.27807-4.94731-1.12945-6.53156-.87681v5.67701-.34181c.0555877 7.28205 5.40591 13.49405 11.9931 13.49405 6.601 0 11.9513-5.8851 12.0069-13.1671z" fill="url(#f)"/><path d="m24 8.81421v-1.265c-.5142.20835-1.084.55065-1.6676 1.08642-1.4731 1.33941-2.6404 6.17617-5.7812 6.22087-4.1968.0595-7.0457-4.94099-10.46434-6.81617-1.97337-1.05665-4.36364-1.13106-6.08686-.98224v1.77101-.3423c.0555877 7.2924 5.40591 13.5132 11.9931 13.5132 6.601 0 11.9513-5.8934 12.0069-13.18579z" fill="url(#g)"/></svg>