<svg fill="none" height="80" viewBox="0 0 80 80" width="80" xmlns="http://www.w3.org/2000/svg" xmlns:xlink="http://www.w3.org/1999/xlink"><clipPath id="a"><path d="m0 0h80v80h-80z"/></clipPath><g clip-path="url(#a)"><circle cx="40" cy="40" fill="#122a5f" r="40"/><path clip-rule="evenodd" d="m62 40c0-12.1503-9.8498-22-22-22v-8c2.071 0 4.0931.2099 6.046.6095 13.6705 2.7974 23.954 14.893 23.954 29.3905 0 16.5685-13.4315 30-30 30-13.0622 0-24.1746-8.3481-28.293-20h8.6918c3.6414 7.1234 11.0518 12 19.6012 12 12.1502 0 22-9.8497 22-22zm-48.5398-14c5.03 9.5156 15.0276 16 26.5398 16v-8c-9.8596 0-18.2044-6.486-21.0003-15.424-2.2076 2.1642-4.0821 4.6669-5.5395 7.424zm8.9235-10.2857c1.7116 8.1591 8.9485 14.2857 17.6163 14.2857 5.5229 0 10 4.4772 10 10 0 5.5229-4.4771 10-10 10h-14.9689c3.229 4.8239 8.7281 8 14.9689 8 9.9411 0 18-8.0589 18-18s-8.0589-18-18-18c-5.5228 0-10-4.4772-10-10v-.2929c-2.744.9698-5.3047 2.3275-7.6163 4.0072z" fill="#fff" fill-rule="evenodd"/></g></svg>