<svg height="100" viewBox="0 0 100 100" width="100" xmlns="http://www.w3.org/2000/svg" xmlns:xlink="http://www.w3.org/1999/xlink"><linearGradient id="a" x1="97.930916%" x2="4.146868%" y1="2.069084%" y2="95.853132%"><stop offset="0" stop-color="#282a2d"/><stop offset="1" stop-color="#354252"/></linearGradient><radialGradient id="b" cx="50%" cy="119.460446%" gradientTransform="matrix(-.02517631 -.90081837 1.01219406 -.0229704 -.696583 1.672454)" r="121.762496%"><stop offset="0" stop-color="#1e89dd"/><stop offset="1" stop-color="#60fbd0"/></radialGradient><g fill="none" fill-rule="evenodd"><circle cx="50" cy="50" fill="url(#a)" r="50"/><path d="m43.4794843 51.3453473v.6348192 27.2937226c0 .7153978-.0008758.7167992-.7243315.7169743-2.5659028.0005255-5.1318056.0008759-7.6977084-.0003503-.5961064-.0001752-.6159008-.0199695-.6159008-.6146746-.0008758-5.6569678-.0003503-11.3141109-.0008758-16.9710787-.0001752-.6789623-.0325818-.7015593-.6875456-.5600213-3.7018859.7994798-7.4465134 1.2032487-11.2338827 1.2296995-.4128777.0028027-.5206078-.1385602-.5186809-.5321691.0136633-2.6534882.0134881-5.3069765.0003503-7.9606399-.0019269-.3918572.1129852-.5404021.5199072-.5442559 4.0422428-.0388879 8.0273799-.5531895 11.9081152-1.6814651 2.023749-.5883989 3.9870641-1.3854263 5.975954-2.0925911.1289258-.0458948.2438379-.130152.4621008-.2494433-.2324518-.1298016-.3685595-.2226422-.5171044-.2864044-3.1446673-1.349166-6.3972399-2.3346773-9.7636736-2.9617889-2.6589185-.4950329-5.3379817-.744301-8.0371895-.797553-.4179577-.008233-.5514379-.1329547-.5490186-.5526641.0154481-2.6534882.0136964-5.3069764.0016096-7.9606398-.0016096-.39466.1248968-.5458325.5293664-.5358477 2.5371747.0628863 5.0682186.2045996 7.5768405.605916 1.3080008.209154 2.6095203.459298 3.9110399.7059386.3564727.0676159.4267162-.084082.4253148-.3948351-.0073572-1.7932242-.0033282-3.5866235-.0031531-5.3800228 0-3.9366148-.0003503-7.8732296.0003504-11.8096692.0001751-.6327172.0022772-.6341186.6320164-.6342937 2.6096956-.0003504 5.2192159-.0007007 7.8289114.0001751.574035.0003504.5766625.0026276.5766625.5908514.0005255 6.6776884.0047296 13.3553769-.009284 20.0328902-.0008759.4344238.1523986.6300896.5339208.8152452 1.9004287.9217491 3.7894712 1.8680221 5.6655512 2.8379432.362954.187608.5990843.2003955.9278801-.0597333 7.8166494-6.186159 13.169871-14.0434481 16.014821-23.5991939.1432897-.4810191.3468383-.634644.8441484-.6301874 2.6823914.0247969 5.364958.0113088 8.0475246.012535.583319.0001752.6372716.0684918.4971349.6320165-2.8545844 11.4810487-8.7510108 21.1054614-17.6414576 28.9016159-.5283154.4633269-.5302422.4610497.0084082.9315586 7.6714327 6.7027379 13.157609 14.8678022 16.3779502 24.5382849.4780413 1.4360507.8474766 2.908537 1.2542233 4.3678855.1476691.529016.0760242.6057408-.4885515.6060912-2.7263593.002102-5.4525435-.0070069-8.1789028.0100124-.4169066.0024247-.5801659-.1578566-.6957786-.5390284-3.7533861-12.3688147-11.3029-21.6719641-22.5952897-27.9462341-.1140362-.0632366-.2340283-.1170141-.3545458-.167113-.0364356-.0150647-.0842572-.0022772-.2072272-.0022772" fill="url(#b)" fill-rule="nonzero"/></g></svg>