<svg clip-rule="evenodd" fill-rule="evenodd" height="1230" image-rendering="optimizeQuality" shape-rendering="geometricPrecision" text-rendering="geometricPrecision" width="1256" xmlns="http://www.w3.org/2000/svg"><path d="m592.5-.5h70c175.851 12.5149 323.018 83.5149 441.5 213 91.14 105.169 141.64 227.503 151.5 367v69c-14.65 181.829-92.32 329.995-233 444.5-111.051 85.97-237.051 131.47-378 136.5-11.333 0-22.667 0-34 0-187.959-8.24-343.792-82.57-467.5-223-86.2608-103.579-134.09414-222.912-143.5-358 0-22.667 0-45.333 0-68 12.1849-164.523 78.1849-303.023 198-415.5 112.245-100.3922 243.912-155.55886 395-165.5z" fill="#0390ff" opacity=".997"/><path d="m595.5 34.5c165.328-6.0577 309.995 44.7756 434 152.5 147.5 138.131 209.33 307.964 185.5 509.5-26.16 158.344-102.99 285.511-230.5 381.5-141.977 100.29-298.977 135.62-471 106-168.881-35.12-300.048-124.62-393.5-268.5-79.0602-131.719-103.3935-273.052-73-424 32.6344-136.849 104.134-248.349 214.5-334.5 98.763-74.5379 210.096-115.3712 334-122.5z" fill="#fefeff"/><path d="m604.5 74.5c90.754-2.8168 177.087 15.0165 259 53.5-3.358 7.736-6.524 15.57-9.5 23.5-.481 1.978-1.647 3.311-3.5 4-150.609-65.6261-300.942-65.2928-451 1-3.904-9.548-7.904-19.048-12-28.5 68.761-32.7739 141.094-50.6073 217-53.5z" fill="#0991ff"/><path d="m317.5 164.5c6.47 8.341 12.47 17.174 18 26.5-56.301 40.63-103.301 89.964-141 148-1 .667-2 .667-3 0-7.492-5.58-15.159-10.913-23-16 16.139-27.145 34.973-52.312 56.5-75.5 28.643-30.496 59.476-58.163 92.5-83z" fill="#0a91ff"/><path d="m923.5 165.5c2.516.255 4.85 1.089 7 2.5 59.757 39.088 110.42 87.754 152 146-7.63 5.819-15.63 11.152-24 16-1 .667-2 .667-3 0-40.51-56.353-89.847-103.186-148-140.5 5.344-8.029 10.677-16.029 16-24z" fill="#0a91ff"/><path d="m792.5 259.5c19.474-1.634 38.474.532 57 6.5 14.902 6.243 26.735 16.077 35.5 29.5 1.816 11.582.15 22.582-5 33-11.544 9.465-23.044 9.298-34.5-.5-8.833-10.167-17.667-20.333-26.5-30.5-14.496-14.721-30.663-16.888-48.5-6.5-27.712 25.241-45.212 56.408-52.5 93.5-12.412 44.731-24.912 89.398-37.5 134 47.984 6.797 95.984 13.463 144 20-2.848 12.726-6.015 25.392-9.5 38-.674 1.078-1.674 1.745-3 2-45.866-6.862-91.699-13.862-137.5-21-5.388 28.271-10.388 56.605-15 85 49.668 6.667 99.335 13.334 149 20-2.848 12.726-6.015 25.392-9.5 38-.388.928-1.055 1.595-2 2-48.793-7.328-97.626-14.328-146.5-21-17.228 74.852-41.728 147.186-73.5 217-31.017 56.271-78.851 83.104-143.5 80.5-21.681-2.33-40.181-11.163-55.5-26.5-9.99-16.436-7.823-31.269 6.5-44.5 9.216-1.032 18.216-.032 27 3 8.85 9.532 16.35 20.032 22.5 31.5 18.244 18.817 37.744 19.984 58.5 3.5 18.676-19.172 31.842-41.672 39.5-67.5 17.091-64.695 32.757-129.695 47-195 .499-4.321.666-8.654.5-13-46.37-6.407-92.703-13.074-139-20 1.466-13.322 2.799-26.655 4-40 48.664 6.999 97.331 13.999 146 21 5.793-27.38 11.793-54.713 18-82-49.972-7.853-99.972-15.52-150-23 1.503-14.022 3.169-28.022 5-42 50.762 5.876 101.428 12.543 152 20 1.333-.333 2.667-.667 4-1 10.858-36.099 22.025-72.099 33.5-108 14.477-39.796 36.977-74.296 67.5-103.5 20.72-18.195 44.72-29.029 72-32.5z" fill="#0590ff"/><path d="m130.5 376.5c10.188 3.097 19.854 7.264 29 12.5-69.1578 148.41-69.3245 296.91-.5 445.5.49 1.293.657 2.627.5 4-9.082 3.371-18.082 7.038-27 11-6.202-9.742-11.368-20.076-15.5-31-50.9328-125.446-54.9328-252.446-12-381 7.442-20.838 15.942-41.171 25.5-61z" fill="#0990ff"/><path d="m1116.5 376.5c1.89-.203 3.39.463 4.5 2 63.84 133.954 71.84 271.287 24 412-5.15 14.287-10.82 28.287-17 42-2.66 5.993-5.83 11.66-9.5 17-9.33-3.667-18.33-7.834-27-12.5 69.23-149.457 69.23-298.79 0-448 8.2-4.455 16.54-8.622 25-12.5z" fill="#0991ff"/><path d="m1055.5 883.5c9.14 4.786 17.81 10.453 26 17-13.72 24.102-29.88 46.435-48.5 67-30.92 33.93-64.588 64.6-101 92-5.084-8.5-10.417-16.84-16-25-.667-1-.667-2 0-3 44.883-32.548 84.22-70.882 118-115 7.81-10.631 14.98-21.631 21.5-33z" fill="#0a91ff"/><path d="m193.5 899.5c1.871.359 3.371 1.359 4.5 3 39.846 55.851 88.679 102.02 146.5 138.5-5.912 7.82-11.579 15.82-17 24-7.971-3.49-15.638-7.83-23-13-52.48-37.98-97.813-83.146-136-135.5 8.189-5.924 16.522-11.591 25-17z" fill="#0a91ff"/><path d="m398.5 1069.5c150.964 66.65 301.964 66.65 453 0 4.186 9.22 8.186 18.55 12 28-70.374 34.01-144.708 51.84-223 53.5-88.702 2.48-173.035-15.19-253-53 4.087-9.34 7.753-18.84 11-28.5z" fill="#0991ff"/></svg>