<svg height="400" viewBox="0 0 400 400" width="400" xmlns="http://www.w3.org/2000/svg"><g fill-rule="evenodd"><path d="m160.733.386c-.073.213-1.213.506-2.533.653s-2.717.543-3.105.881c-.42.365-1.699.668-3.16.747-2.346.128-3.738.68-3.34 1.325.102.165-.395.237-1.105.158-.709-.078-1.11-.009-.89.154s.458.561.53.885c.094.428-.105.376-.732-.191-.854-.773-.873-.773-2.33.05-.953.538-1.938.771-2.808.664-.983-.122-1.26-.035-1.038.323.199.323.135.386-.191.184-.292-.18-.815.042-1.285.547-.437.469-.963.747-1.17.619s-.376-.042-.376.191-.191.424-.424.424-.322-.164-.198-.365-.09-.312-.476-.247-.653.333-.592.595c.06.262-.083.358-.318.212-.235-.145-.668-.064-.963.181s-1.189.469-1.988.499c-.798.03-1.651.296-1.895.59s-.749.535-1.123.535c-.373 0-1.081.462-1.572 1.027-.722.83-1.119.978-2.072.768-.683-.15-1.179-.093-1.179.136 0 .217-.36.3-.8.185-.556-.146-.8-.012-.8.437 0 .356-.315.674-.7.706-.385.033-.97.082-1.3.11-1.142.097-2.327.664-2.539 1.215-.124.324-.539.468-1 .348-.48-.126-1.113.12-1.624.631-.46.46-1.182.837-1.604.837-1.066 0-2.033.412-2.033.866 0 .21.225.254.5.099.38-.214.39-.163.042.215-.253.273-1.118.516-1.925.538-1.023.029-1.821.381-2.641 1.165-.647.618-1.176.927-1.176.687 0-.578-.986-.237-1.05.363-.028.257-.072.608-.1.781-.027.173-.688.294-1.468.268-1.533-.051-2.221.494-1.333 1.057.535.339-.354.521-2.049.42-.368-.022-.415.047-.122.178.937.421.041 1.363-1.297 1.363-.734 0-1.462.208-1.619.462-.176.284-.11.353.172.179.28-.173.377-.075.251.254-.113.295-.579.564-1.035.599-.457.034-1.037.329-1.29.656-.253.326-.91.651-1.46.722-.683.087-1.041.414-1.128 1.028-.083.589-.403.9-.923.9-.438 0-.686-.178-.552-.395.451-.731-1.176.113-2.099 1.088-.508.536-1.105.826-1.368.664-.311-.192-.382-.071-.215.365.297.775-.332 1.298-.749.623-.193-.312-.115-.361.234-.145s.427.167.234-.145c-.349-.565-1.034-.218-1.034.524 0 .293-.311.507-.69.477-.38-.031-.695.198-.7.508-.006.311-.582.761-1.281 1-.698.24-1.626.848-2.061 1.352-.554.643-.847.762-.98.4-.104-.284-.321-.022-.481.581-.161.604-.466.99-.679.858-.213-.131-.779.122-1.258.563-.478.441-1.215.865-1.637.942-1.007.184-1.317 1.142-.366 1.134.619-.005.64-.066.133-.394-.513-.331-.498-.389.1-.394.385-.003.7.178.7.404 0 .58-1.863 1.218-2.662.911-.386-.148-.568-.093-.43.13.321.52-.102 1.061-1.308 1.673-2.191 1.113-2.952 1.649-3.331 2.347-.353.651-.292.643.568-.071l.963-.8-.767.906c-.521.615-1.018.826-1.55.657-.438-.139-.682-.086-.555.121.126.203-.302.682-.95 1.065s-1.178.866-1.178 1.074c0 .207-.233.377-.519.377-.747 0-3.556 2.986-3.189 3.389.169.187.107.225-.139.085-.514-.294-1.89 1.056-1.487 1.458.147.148.012.275-.299.284-.948.027-3.29 2.261-2.95 2.812.194.313.142.394-.141.219-.582-.36-2.189 1.247-1.829 1.829.175.283.094.335-.219.141-.551-.34-2.785 2.002-2.812 2.95-.009.311-.136.446-.284.299-.328-.329-1.734.89-1.726 1.496.003.241.181.168.394-.162s.388-.42.388-.2c0 .753-.698 1.503-1.143 1.228-.245-.152-.445-.074-.445.172s-.18.336-.4.2-.4-.079-.4.126c0 .206-.81 1.219-1.8 2.252-.99 1.034-1.8 2.057-1.8 2.274s-.199.272-.443.122c-.292-.181-.358-.008-.194.509.169.532-.042 1.029-.657 1.55l-.906.767.8-.958.8-.958-.847.444c-.466.244-.957.99-1.09 1.658-.152.757-.489 1.214-.896 1.214-.394 0-.568.221-.439.557.118.307-.213.959-.736 1.45-.522.491-1.004 1.261-1.071 1.711-.154 1.04-1.123 1.401-1.115.415.005-.619.066-.64.394-.133s.389.486.394-.133c.008-.951-.95-.641-1.134.366-.077.422-.501 1.159-.942 1.637-.441.479-.694 1.045-.563 1.258.132.213-.254.518-.858.679-.603.16-.865.377-.581.481.362.133.243.426-.4.98-.504.435-1.112 1.363-1.352 2.061-.239.699-.689 1.275-1 1.281-.31.005-.539.32-.508.7.03.379-.184.69-.477.69-.742 0-1.089.685-.524 1.034.312.193.361.115.145-.234s-.167-.427.145-.234c.657.406.161 1.05-.588.762-.387-.148-.588-.03-.54.318.194 1.389-.055 1.954-.864 1.954-.644 0-.797.187-.641.786.115.441.018.749-.22.7-.545-.11-1.478 1.645-1.486 2.794-.003.484-.285 1.036-.625 1.227-.341.19-.649.735-.685 1.209-.035.475-.306.956-.601 1.069-.329.126-.427.029-.254-.251.18-.291.105-.348-.206-.155-.269.166-.394.551-.277.855.117.305-.126.735-.54.957-.414.221-.872.944-1.017 1.606-.146.662-.452 1.203-.682 1.203-.265 0-.247.205.051.564s.325.654.074.809c-.217.134-.55-.034-.741-.374-.241-.431-.357-.115-.382 1.042-.02.913-.275 1.807-.567 1.988-.745.46-1.06.017-.342-.481.514-.357.512-.388-.012-.243-.33.091-.627.6-.661 1.13-.033.531-.078 1.26-.1 1.621-.021.36-.335.63-.696.6-.361-.031-.735.214-.83.544-.155.533-.127.533.25 0 .369-.521.426-.511.431.076.003.372-.174.788-.394.924s-.4.586-.4 1-.208.881-.462 1.038c-.286.177-.353.11-.176-.176.157-.254.114-.462-.096-.462-.475 0-.866.981-.866 2.171 0 .498-.363 1.233-.806 1.634-.465.421-.714 1.017-.589 1.409.285.898-.463 2.82-1.046 2.689-.253-.057-.55.147-.661.453-.116.318-.023.445.216.297.275-.17.262.156-.035.944-.25.662-.706 1.203-1.013 1.203-.362 0-.486.282-.35.8.115.44.025.8-.2.8s-.323.45-.218 1c.122.637.009 1-.311 1-.276 0-.609.279-.74.621-.161.419-.077.527.258.331.272-.159.18.071-.205.511s-.7 1.079-.7 1.42c0 .34-.241.819-.535 1.063s-.56 1.097-.59 1.895c-.03.799-.254 1.693-.499 1.988s-.326.728-.181.963c.146.235.05.378-.212.318-.262-.061-.53.206-.595.592s.046.6.247.476.365-.035.365.198-.191.424-.424.424-.319.169-.191.376-.15.733-.619 1.17c-.505.47-.727.993-.547 1.285.202.326.139.39-.184.191-.359-.222-.443.054-.317 1.038.107.83-.095 1.797-.53 2.54-.888 1.518-1.46 4.015-.831 3.626.244-.15.443-.083.443.15s-.191.424-.424.424-.295.208-.138.462c.166.268.111.354-.131.204-.229-.141-.593-.034-.808.238-.572.723-1.016 4.696-.525 4.696.22 0 .304-.252.186-.56-.118-.307-.053-.659.145-.781.818-.506.16 1.429-.842 2.475-1.009 1.053-1.501 3.984-.574 3.411.178-.11.22-.368.094-.573-.127-.204-.062-.372.143-.372.206 0 .374.447.374.993 0 .588-.17.887-.418.734-.265-.164-.32.021-.149.507.261.743.251.742-.332-.01-.452-.585-.601-.629-.601-.18 0 .328.225.825.5 1.105.275.279.32.474.1.432-1.172-.222-1.4.102-1.4 1.986 0 1.198.195 2.046.5 2.169.376.153.352.309-.1.634-.533.382-.533.474 0 .824.401.263.434.396.1.4-.396.005-.5 6.916-.5 33.206s.104 33.201.5 33.206c.334.004.301.137-.1.4-.533.35-.533.442 0 .824.452.325.476.481.1.634-.601.244-.695 4.136-.1 4.136.22 0 .4.484.4 1.076 0 1.042.02 1.052.63.3.346-.427.522-.562.391-.301-.859 1.717-.685 3.815.413 4.961.614.64.896 1.164.627 1.164-.904 0-.123 4.074.974 5.078.543.498.786.985.561 1.125-.49.303-.117 2.053.724 3.394.344.548.586 1.657.538 2.464-.064 1.091.172 1.746.92 2.554.554.597.91 1.243.791 1.435-.119.193-.026.35.207.35s.424.191.424.424-.15.331-.333.217c-.184-.113-.334.056-.334.377 0 .32.235.582.521.582.287 0 .424.252.306.56-.118.307-.022.678.213.823s.427.952.427 1.792c0 .869.258 1.741.6 2.025.33.274.6.777.6 1.117 0 .341.315.98.7 1.42s.477.67.205.511c-.335-.196-.419-.088-.258.331.131.342.464.621.74.621.32 0 .433.363.311 1-.116.608-.007 1 .279 1 .259 0 .359.18.223.4s-.074.4.137.4c.533 0 1.281 2.287.994 3.035-.155.404.056.689.617.836.805.21 1.043.909.88 2.586-.035.361.389 1.013.941 1.447.696.548.951 1.071.83 1.7-.096.501-.006 1.199.201 1.553.301.515.378.527.388.063.026-1.24.764.243.885 1.78.098 1.236.286 1.587.827 1.544.385-.03.723.195.75.5.099 1.097.154 1.294.45 1.589.165.165.297.495.294.734-.003.238-.197.163-.431-.167-.377-.533-.405-.533-.25 0 .095.33.469.575.83.544.63-.053.845.678.684 2.323-.037.367.29.78.726.918.458.146.903.76 1.057 1.46.146.665.518 1.306.828 1.425.309.118.562.546.562.949 0 .404.208.862.462 1.019.286.177.353.11.176-.176-.157-.254-.189-.462-.072-.462.426 0 1.289 2.218 1.132 2.91-.093.41.043.664.321.6.264-.06.663.43.885 1.09.483 1.437 1.081 2.256 1.471 2.015.156-.096.271.221.255.705-.021.602.191.862.67.824.661-.052.895.539.717 1.81-.047.343.153.466.526.323.433-.166.56-.013.453.546-.097.499.071.777.47.777.402 0 .534.223.375.637-.16.418.016.705.514.835.45.118.857.688.999 1.4.143.711.55 1.282.997 1.399.543.142.696.442.543 1.064-.116.476-.074.739.095.584.305-.28 1.411.578 1.411 1.095 0 .578 1.929 2.526 2.242 2.264.183-.153.104.021-.175.386-.512.672-.026 1.405.653.985.176-.108.549.17.829.619.282.45.318.697.081.55-.237-.146-.43-.075-.43.158s.36.424.8.424c.533 0 .8.267.8.8 0 .44.216.755.48.7.265-.055.686.507.936 1.248.251.742.799 1.535 1.22 1.763.708.385.72.358.164-.367-.33-.431-.181-.343.33.194.729.766.816 1.05.4 1.313-.521.331.05.551 1 .386.181-.031.215.128.076.353-.139.226-.063.41.17.41s.379.162.324.36.059.333.254.3.511.364.703.882c.231.624.556.862.966.704.354-.135.514-.068.374.159-.134.217-.059.395.167.395s.296.3.155.666c-.176.458-.104.572.231.365.581-.359 1.741.498 1.406 1.04-.397.642 1.116 2.044 1.552 1.438.268-.371.311-.33.159.148-.24.755 1.415 2.512 1.927 2.047.184-.167.206-.08.048.193-.348.605 3.577 4.662 4.161 4.301.218-.135.397.008.397.316 0 .75 1.378 1.967 1.797 1.587.182-.166.219-.104.081.138-.137.241.264.931.892 1.532.628.602 1.222.944 1.32.762.099-.183.132-.129.075.121-.058.25.433.97 1.091 1.599.971.931 1.146.996.932.346-.144-.439.132-.214.614.501s1.101 1.3 1.376 1.3.695.405.934.9.446.653.461.351c.037-.759 1.227.221 1.227 1.011 0 .309.315.678.7.819.385.14 1.129.585 1.654.987.525.403 1.273.732 1.662.732.527 0 .658.231.512.9-.125.568-.07.724.148.421.458-.636 1.516.02 1.521.943.001.384.363.796.803.917 1.641.449 4.34 2.542 3.881 3.009-.155.158-.01.225.321.15.331-.074 1.006.268 1.5.762s1.238.898 1.653.898 1.174.527 1.687 1.17c.512.644 1.073 1.082 1.247.975.174-.108.42.073.545.401.128.331.575.529 1.008.446.429-.083.694-.012.589.158-.476.77 2.238 2.221 2.905 1.554.312-.312.542-.15.818.576.212.556.777 1.113 1.256 1.238.558.147.762.404.568.718-.216.349-.056.425.559.264.475-.124.863-.079.863.1s.335.237.745.13c.453-.118.843.061.995.459.165.429.094.556-.206.37-.282-.174-.348-.105-.172.179.157.254.839.462 1.516.462 1.231 0 2.721 1.178 3.257 2.575.14.364.482.633.76.596 1.443-.189 2.229.096 2.434.881.147.561.432.772.836.617.336-.129.886.039 1.22.373.335.335.778.505.984.377.207-.128.506-.021.665.236.196.318.109.364-.272.143-.321-.187-.424-.175-.24.027.178.194.973.395 1.768.446.794.051 1.729.38 2.077.732.578.585.564.618-.167.381-.648-.21-.686-.177-.2.172.33.238 1.005.435 1.5.438s1.277.383 1.737.843c.511.511 1.144.757 1.624.631.461-.12.876.024 1 .348.3.779 1.659 1.248 3.882 1.338.841.034 1.082.204.912.646-.166.435.07.619.858.668.598.038 1.357.109 1.687.158s.915.108 1.3.131c.385.024.7.301.7.616 0 .585 1.482 1.279 1.88.881.121-.121.512.128.87.553.369.439 1.298.835 2.149.916.824.078 1.619.262 1.767.409.466.466.994.289.693-.232-.167-.29-.135-.36.077-.167.2.184.364.544.364.8 0 .262.634.485 1.442.509.897.026 1.765.365 2.297.897.606.606 1.3.838 2.377.796.842-.033 1.977.238 2.54.607.56.367 1.721.71 2.581.763.86.052 1.833.391 2.163.754.863.948 4.245 1.337 3.526.406-.471-.612-.449-.615.281-.04.436.344 1.063.609 1.393.589s.847.3 1.148.711c.421.575.945.716 2.262.611.943-.075 1.615.023 1.495.218-.12.194.328.273.997.175.887-.13 1.161-.037 1.014.346-.15.391.32.525 1.841.525 1.124 0 2.043-.18 2.043-.4s.36-.4.8-.4.8.18.8.4c0 .263 11.467.4 33.6.4s33.6-.137 33.6-.4c0-.22.36-.4.8-.4s.8.18.8.4.9.4 2 .4 2-.18 2-.4.461-.4 1.024-.4.94-.135.838-.3.585-.239 1.528-.164c1.307.104 1.844-.038 2.262-.6.417-.56 1.159-.758 3.108-.828 1.617-.058 2.807-.316 3.231-.7.37-.334.981-.608 1.358-.608s.634-.225.571-.5.064-.527.283-.56c.218-.033.352.102.297.3-.159.571 1.27.418 2.124-.227.427-.323 1.181-.593 1.676-.6.661-.01.902-.252.906-.913.005-.728.08-.785.394-.3.319.494.389.5.394.033.003-.311.122-.451.263-.309.141.141.029.531-.249.866-.86 1.037.598.752 1.785-.349.644-.596 1.332-.881 1.819-.754.471.123 1.065-.1 1.486-.56.386-.42.522-.502.302-.18-.347.506-.266.512.6.046.55-.296 1.36-.592 1.8-.657 1.793-.266 2.229-.405 2.684-.86.262-.262.789-.476 1.172-.476s.81-.183.948-.407c.138-.223.449-.284.692-.134.283.175.349.035.185-.393-.175-.456-.039-.679.432-.709.378-.023.957-.082 1.287-.131s1.095-.12 1.7-.158c.681-.042 1.1-.297 1.1-.668 0-.553.966-.809 2.34-.621.335.046.424-.114.235-.42-.215-.347-.104-.417.37-.235.417.16.921-.026 1.312-.483.36-.419.955-.658 1.37-.55.446.117 1.094-.194 1.654-.793.595-.637 1.245-.934 1.843-.84.54.084.823-.021.68-.252-.147-.237.033-.29.445-.132.529.203.63.108.433-.405-.191-.498-.03-.677.631-.7 1.584-.054 2.4-.305 2.741-.842.183-.29.337-.379.34-.198.003.18.281.053.618-.283.336-.337.887-.506 1.223-.377.404.155.689-.056.836-.617.127-.489.543-.852.976-.852.414 0 .753-.18.753-.4s.191-.4.424-.4.312.18.176.4-.04.4.214.4c.253 0 .549-.338.657-.75.108-.413.625-.98 1.149-1.261.524-.28.841-.69.705-.911-.137-.221-.07-.291.147-.157.781.483 2.735-.354 2.598-1.112-.1-.552.062-.668.7-.501.456.119.83.043.83-.169s.192-.268.427-.123c.234.145.67-.069.967-.476.298-.407.736-.762.974-.79.237-.027.592-.072.788-.1.195-.027.33-.365.3-.75-.043-.53.215-.68 1.06-.617 1.147.085 2.802-.969 2.44-1.554-.112-.181.122-.356.52-.39.398-.033.962-.08 1.254-.103.291-.023.707-.359.924-.747.218-.388.576-.594.798-.457.221.137.503-.139.627-.612.145-.556.651-.946 1.426-1.101.677-.135 1.283-.551 1.388-.952.103-.394.425-.62.722-.506.295.113.771-.169 1.057-.628.286-.458.719-.833.962-.833s.768-.36 1.166-.8 1.078-.8 1.511-.8c.66 0 .705-.099.281-.61-.278-.335-.39-.725-.249-.866.141-.142.257-.047.257.209 0 .257.191.467.424.467s.312-.179.177-.398.208-.606.764-.859c.555-.253.915-.614.799-.801-.116-.188.135-.342.558-.342.424 0 1.228-.36 1.787-.8.56-.44 1.196-.8 1.415-.8.218 0 .77-.632 1.225-1.404.456-.772.969-1.364 1.14-1.315.567.162 2.138-.914 1.899-1.301-.13-.209.09-.383.488-.388.398-.004 2.073-1.379 3.722-3.055 1.649-1.675 3.413-3.319 3.92-3.651.519-.34.828-.85.707-1.166-.119-.309-.044-.456.165-.326.496.307 2.111-1.308 1.804-1.804-.13-.209.017-.284.326-.165.324.124.844-.216 1.228-.802.366-.559 1.293-1.587 2.059-2.284s1.393-1.599 1.393-2.003c0-.405.135-.715.3-.689.908.144 1.361-.11 1.155-.647-.126-.33-.043-.6.186-.6.554 0 1.559-1.028 1.559-1.595 0-.249.171-.347.38-.217.387.239 1.463-1.332 1.301-1.899-.049-.171.531-.677 1.289-1.124.892-.527 1.468-1.227 1.635-1.989.142-.647.514-1.176.827-1.176.312 0 .568-.36.568-.8 0-.532.267-.8.795-.8.587 0 .771-.236.7-.9-.057-.544.103-.86.405-.8.275.055.5-.08.5-.3s-.21-.4-.467-.4c-.256 0-.351-.116-.209-.257.141-.141.531-.029.866.249.511.424.61.379.61-.281 0-.433.36-1.113.8-1.511s.8-.923.8-1.166.375-.676.833-.962c.459-.286.741-.762.628-1.057-.115-.299.116-.62.524-.727.413-.108.845-.716.995-1.399.164-.743.58-1.29 1.083-1.421.45-.118.704-.397.566-.621s.107-.599.545-.833c.47-.252.703-.67.568-1.02-.125-.327-.028-.594.215-.594.244 0 .443-.469.443-1.043 0-.774.159-.982.615-.807.374.144.712-.035.861-.457.135-.381.484-.972.775-1.314.292-.341.594-1.042.673-1.556.078-.515.461-1.169.849-1.453.389-.284.588-.709.443-.943-.145-.235-.078-.427.148-.427s.311-.259.19-.576c-.125-.326.14-.801.613-1.096.458-.286.833-.728.833-.981 0-.254.253-.559.562-.677.31-.119.682-.76.828-1.425s.592-1.312.991-1.439c.54-.171.731-.65.748-1.874.024-1.772.574-2.736 1.088-1.905.198.32.142.395-.155.211-.254-.157-.462-.08-.462.172 0 1.086.968.011 1.11-1.233.086-.754.342-1.486.569-1.626.259-.16.21-.348-.134-.507-.3-.139-.14-.178.355-.086.807.15.9.007.9-1.383 0-1.285.114-1.506.669-1.293.513.197.608.096.405-.433-.162-.424-.107-.593.144-.438.253.156.34-.128.229-.741-.126-.693.115-1.271.798-1.912.538-.506.952-1.198.92-1.539-.151-1.629.089-2.34.86-2.541.453-.119.792-.455.752-.747-.186-1.369.071-2.331.623-2.331.567 0 .819-1.095.668-2.9-.032-.385.19-.7.494-.7s.66-.279.791-.621c.161-.419.077-.527-.258-.331-.272.159-.18-.071.205-.511s.7-1.065.7-1.388c0-.324.214-.803.476-1.065.455-.455.594-.891.86-2.684.065-.44.361-1.25.657-1.8.466-.866.46-.947-.046-.6-.322.22-.24.084.18-.302.46-.421.683-1.015.56-1.486-.127-.487.158-1.175.754-1.819 1.101-1.187 1.386-2.645.349-1.785-.335.278-.725.39-.866.249-.142-.141-.002-.26.309-.263.467-.005.461-.075-.033-.394-.485-.314-.428-.389.3-.394.671-.004.9-.24.9-.926 0-.506.183-1.103.407-1.327.796-.796 1.169-2.877.557-3.112-.31-.119-.55-.447-.532-.728.024-.402.075-.405.233-.013.111.275.397.5.635.5s.312-.122.163-.27c-.149-.149.068-.644.482-1.1.857-.945 1.48-4.399.717-3.971-.288.161-.274.056.038-.28.275-.297.5-.841.5-1.21s.27-.895.6-1.169c.783-.65.769-1.85-.025-2.154-.344-.132-.502-.441-.35-.686.194-.314.39-.285.663.097.29.407.328.359.15-.19-.131-.403-.238-.818-.238-.923s-.225-.056-.5.109c-.34.204-.324.084.049-.376.581-.717 1.057-.934.668-.305-.126.205-.065.475.137.599.201.125.33-.293.286-.929-.056-.805.078-1.095.44-.956.711.273.731-3.734.02-4.022-.376-.153-.352-.309.1-.634.533-.382.533-.474 0-.824-.401-.263-.434-.396-.1-.4.396-.005.5-6.916.5-33.206s-.104-33.201-.5-33.206c-.334-.004-.301-.137.1-.4.533-.35.533-.442 0-.824-.452-.325-.476-.481-.1-.634.711-.288.691-4.295-.02-4.022-.362.139-.496-.151-.44-.956.044-.636-.085-1.054-.286-.929-.202.124-.24.439-.084.699.166.277.007.248-.384-.07-.727-.589-.694-2.122.051-2.37.639-.213.582-1.491-.092-2.05-.306-.255-.68-1.663-.836-3.149-.197-1.889-.529-2.957-1.115-3.589-.458-.495-.667-.903-.464-.906.204-.003.1-.181-.23-.394-.353-.228-.406-.39-.128-.394.555-.007.057-2.128-.72-3.064-.265-.319-.454-1.293-.42-2.164.045-1.142-.176-1.822-.793-2.439-.532-.532-.871-1.4-.897-2.297-.024-.808-.247-1.442-.509-1.442-.256 0-.616-.164-.8-.364-.193-.212-.123-.244.167-.077.521.301.698-.227.232-.693-.147-.148-.331-.943-.409-1.767s-.457-1.769-.843-2.099c-.385-.33-.637-.916-.56-1.301.076-.386-.144-.81-.49-.943-.347-.133-.63-.413-.63-.622 0-.21.178-.271.395-.137.227.14.294-.02.158-.376-.131-.342-.464-.621-.74-.621-.311 0-.434-.357-.323-.937.102-.532-.093-1.209-.452-1.568-.472-.471-.506-.681-.134-.831.292-.118.208-.214-.204-.232-.405-.019-.721-.37-.75-.832-.09-1.439-.142-1.559-.912-2.123-.481-.352-.781-1.086-.812-1.988-.028-.788-.36-1.774-.738-2.192s-.691-1.196-.694-1.728c-.003-.533-.2-1.239-.438-1.569-.349-.486-.382-.448-.172.2.23.711.193.733-.34.2-.329-.33-.658-1.05-.731-1.6s-.292-1.253-.485-1.562c-.256-.408-.209-.473.172-.238.357.221.427.168.221-.165-.166-.269-.554-.393-.861-.275-.571.219-.599.14-.708-1.96-.047-.9-.236-1.171-.757-1.082-.535.09-.695-.167-.695-1.118 0-.861-.174-1.199-.574-1.118-.315.065-.574-.062-.574-.282s.304-.358.674-.306c.439.061.367-.062-.206-.352-.483-.245-.993-.962-1.131-1.592s-.551-1.313-.917-1.518-.667-.701-.669-1.102c-.002-.494-.247-.688-.758-.6-.589.102-.707-.051-.537-.7.119-.456.071-.83-.108-.83s-.229-.368-.111-.817c.138-.528.037-.776-.286-.7-.274.064-.717-.513-.984-1.283s-.921-1.622-1.453-1.894c-.531-.272-.726-.497-.433-.5.294-.003.455-.231.359-.506s-.471-.447-.833-.382c-.489.087-.659-.186-.659-1.058 0-.72-.254-1.272-.657-1.427-.362-.138-.545-.365-.407-.503.139-.138-.365-.777-1.118-1.421-.756-.645-1.277-1.411-1.163-1.708s-.211-.957-.722-1.468-.867-1.2-.793-1.531c.075-.331.008-.476-.15-.321-.464.457-2.545-2.219-3.018-3.881-.125-.44-.53-.775-.9-.744-.46.038-.672-.251-.672-.918 0-.705-.193-.941-.7-.856-.467.079-.742-.181-.828-.782-.083-.589-.403-.9-.923-.9-.438 0-.694-.165-.57-.366.357-.577-.498-2.434-1.12-2.434-.788 0-1.765-1.19-1.008-1.227.302-.015.144-.222-.351-.461s-.9-.67-.9-.959c0-.625-1.377-1.443-1.769-1.051-.15.15-.155-.034-.011-.411.168-.438.032-.773-.378-.93-.353-.136-.642-.492-.642-.791 0-.312-.248-.45-.58-.322-.388.148-.828-.288-1.325-1.313-.443-.913-.977-1.481-1.32-1.402-.316.074-.44-.002-.274-.167.387-.388-.851-1.766-1.587-1.766-.308 0-.451-.179-.316-.397.361-.584-3.696-4.509-4.301-4.161-.273.158-.36.136-.193-.048.378-.416-1.221-2.175-1.847-2.031-.251.058-.307.026-.124-.073.182-.098-.16-.692-.762-1.32-.601-.628-1.291-1.029-1.532-.892-.242.138-.301.099-.133-.086.423-.467-1.693-2.592-2.581-2.592-.399 0-.68-.225-.625-.5s-.125-.455-.4-.4-.5-.091-.5-.324-.184-.309-.41-.17c-.225.139-.384.105-.353-.076.165-.95-.055-1.521-.386-1-.263.416-.547.329-1.313-.4-.537-.511-.625-.66-.194-.33.72.552.751.542.387-.129-.379-.698-1.14-1.234-3.331-2.347-1.181-.6-1.63-1.152-1.33-1.637.12-.194-.205-.292-.721-.22-.614.087-.954-.075-.983-.467-.089-1.208-.179-1.288-.866-.762-.385.295-.575.387-.422.204.262-.313-1.686-2.242-2.264-2.242-.517 0-1.375-1.106-1.095-1.411.155-.169-.108-.211-.584-.095-.622.153-.922 0-1.064-.543-.117-.447-.688-.854-1.399-.997-.712-.142-1.282-.549-1.4-.999-.13-.498-.417-.674-.835-.514-.414.159-.637.027-.637-.375 0-.399-.278-.567-.777-.47-.534.102-.71-.025-.563-.408.151-.393-.035-.508-.634-.393-.466.09-.762.025-.657-.145.104-.169-.124-.576-.507-.904-.884-.757-2.191-1.278-1.859-.741.134.217-.026.395-.356.395-.829 0-1.323-.908-.621-1.142.335-.112-.005-.388-.83-.676-.768-.267-1.347-.7-1.287-.961s-.21-.428-.6-.371c-.99.144-2.565-.436-2.308-.851.29-.469-.308-.786-1.665-.884-1.291-.092-1.928-.734-1.215-1.221.342-.234.308-.309-.121-.263-1.174.125-1.509-.041-1.722-.856-.119-.453-.455-.792-.747-.752-1.627.221-2.639-.059-2.587-.715.038-.464-.256-.711-.888-.748-.519-.03-1.084-.282-1.255-.559s-.499-.387-.729-.246c-.229.142-.547.047-.706-.21-.193-.312-.115-.361.234-.145.316.195.426.166.279-.073-.135-.218-.915-.421-1.733-.452-1.42-.053-3.015-.868-1.726-.881.493-.005.49-.063-.02-.387-.33-.21-1.095-.294-1.7-.188-.791.138-1.1.026-1.1-.399 0-.705-1.45-1.563-2.172-1.286-.281.108-.818-.163-1.194-.602-.378-.442-.95-.697-1.279-.57-.385.148-.495.064-.31-.235.19-.307.067-.379-.368-.212-.78.3-3.077-.43-3.077-.978 0-.211-.18-.273-.4-.137s-.4.056-.4-.178-.585-.379-1.3-.324c-1.008.079-1.289-.049-1.249-.571.037-.483-.382-.746-1.477-.931-.84-.142-1.74-.514-2-.827s-1.159-.569-1.999-.569-1.647-.192-1.792-.427-.516-.331-.823-.213c-.308.118-.56-.019-.56-.306 0-.286-.262-.521-.582-.521-.321 0-.49.15-.377.334.114.183.016.333-.217.333s-.424-.191-.424-.424-.157-.326-.35-.207c-.192.119-.838-.237-1.435-.791-.808-.748-1.463-.984-2.554-.92-.848.05-1.911-.204-2.517-.6-.577-.378-1.704-.747-2.505-.818-.8-.072-1.785-.429-2.188-.793-.491-.445-1.574-.693-3.291-.755-1.949-.07-2.691-.268-3.108-.828-.418-.562-.955-.704-2.262-.6-.943.075-1.63.001-1.528-.164s-.275-.3-.838-.3-1.024-.18-1.024-.4-.9-.4-2-.4-2 .18-2 .4-.36.4-.8.4-.8-.18-.8-.4c0-.263-11.467-.4-33.6-.4s-33.6.137-33.6.4c0 .22-.36.4-.8.4s-.8-.18-.8-.4c0-.514-3.89-.527-4.067-.014m-19.103 6.124c-.049.478-.598.386-.77-.13-.088-.264.056-.408.32-.32s.467.291.45.45m117.736.164c-.376.275-.84.404-1.031.286-.573-.354.021-.914.898-.848.754.057.764.101.133.562m-119.588 94.226c.918.808 2.367 4.252 4.418 10.5.289.88.812 2.14 1.162 2.8s.638 1.532.64 1.938c.001.406.25 1.216.553 1.8.703 1.354 2.245 5.354 2.263 5.87.007.215.361 1.112.786 1.992s.779 1.965.786 2.411c.008.446.263 1.167.568 1.602s.745 1.42.978 2.189.988 2.928 1.678 4.798 1.411 3.85 1.602 4.4.822 2.26 1.401 3.8c.58 1.54 1.301 3.52 1.604 4.4s1.02 2.86 1.593 4.4 1.222 3.34 1.442 4 .543 1.472.718 1.805c.175.332.611 1.614.97 2.847.359 1.234.906 2.455 1.217 2.713.853.707 71.005.649 71.698-.06.272-.278 1.123-2.305 1.891-4.505.769-2.2 1.871-5.26 2.449-6.8s1.296-3.52 1.595-4.4.984-2.77 1.524-4.2c.539-1.43 2.014-5.39 3.279-8.8 1.264-3.41 2.738-7.37 3.275-8.8.536-1.43 1.152-3.176 1.367-3.88s.654-1.784.976-2.4c.321-.616.585-1.339.587-1.606.001-.268.256-1.078.565-1.8.31-.723 1.128-2.844 1.819-4.714.69-1.87 1.408-3.76 1.595-4.2s.83-2.24 1.428-4c.695-2.042 1.47-3.525 2.142-4.098l1.053-.898 16.856-.002c16.001-.002 16.903.037 17.8.763l.944.764.2 32.085.2 32.086 13.482.05c16.441.061 14.739-.922 14.611 8.439l-.093 6.788-1 .506c-.98.495-.982.505-.1.511 1.918.013.289 2.094-2.174 2.778-.881.245-5.666.425-11.326.427-10.868.004-12.022.249-12.677 2.689l-.299 1.112-.261-1.4c-.144-.77-.24 6.07-.213 15.2l.05 16.6 13.715.2c16.198.236 14.471-.685 14.479 7.726.006 6.629-.255 7.874-1.652 7.874-.801 0-.797.027.114.772 2.286 1.868-.808 2.516-13.325 2.793-11.466.253-12.605.503-12.778 2.805-.026.346-.185.09-.353-.57s-.327 11.903-.353 27.918l-.047 29.118-.951.951c-.708.709-.836 1.068-.5 1.41 3.072 3.13-20.038 4.095-23.956 1.001-.726-.574-.737-.665-.132-1.085.597-.415.568-.532-.3-1.215l-.961-.756-.032-29.671c-.017-16.319-.121-29.401-.231-29.071s-.275.836-.366 1.126c-.111.351-.487.152-1.133-.6l-.968-1.126-14.517-.115c-17.171-.135-17.517-.048-19.121 4.815-.272.825-.69 1.5-.93 1.5-.239 0-.333.102-.208.227.348.349-.496 3.086-1.196 3.873-.342.385-.505.7-.362.7.144 0-.114.945-.572 2.1s-1.051 2.898-1.318 3.873c-.266.975-.73 1.855-1.029 1.955-.391.13-.462-.032-.253-.573.776-2.006.712-3.201-.083-1.555-.626 1.297-.678 1.714-.274 2.2.565.679-.297 4.4-1.019 4.4-.213 0-.358.135-.321.3.124.55-.553 3.306-.858 3.494-.165.102-.239-.665-.166-1.704l.135-1.89-.535 1.4c-.294.77-.68 1.745-.857 2.166-.228.541-.185.681.146.476.623-.385.718.707.249 2.858-.337 1.546-1.035 1.022-.799-.6.121-.825.104-1.23-.036-.9-.141.33-.503 1.09-.806 1.689-.481.954-.474 1.061.055.857.728-.279.785.592.181 2.764-.524 1.888-1.281 1.544-.971-.441l.23-1.469-.627 1.37c-.455.991-.503 1.448-.175 1.651.497.306.198 2.967-.447 3.987-.275.435-.38.221-.396-.808l-.022-1.4-.624 1.152c-.415.765-.483 1.238-.205 1.41.469.29.201 2.704-.403 3.638-.265.41-.319-.032-.168-1.4l.219-2-.991 2.4c-.546 1.32-.917 2.58-.826 2.8.092.22.181.085.198-.3.018-.385.212-.7.432-.7.513 0 .505 1.006-.024 2.91-.498 1.794-1.239 1.617-.944-.226l.205-1.284-.569 1.2c-.455.959-.469 1.307-.07 1.734.394.422.397.876.012 2.179-.45 1.524-1.41 2.543-1.41 1.497 0-.252.135-.375.3-.274.165.1.328-.564.363-1.477.062-1.642.059-1.646-.306-.379-.203.704-.556 1.396-.783 1.536-.277.171-.258.442.059.823.619.747.231 3.606-.617 4.543-.358.396-.741 1.214-.85 1.817-.748 4.125-3.597 5.201-13.766 5.201-10.088 0-13.6-1.367-13.6-5.293 0-.467-.277-1.127-.615-1.465-1.049-1.049-1.807-4.126-1.15-4.671.423-.351.446-.645.102-1.29-.246-.459-.601-1.295-.789-1.858-.264-.789-.292-.673-.122.505.122.841.32 1.786.44 2.1.121.315.024.572-.216.572-.4 0-.759-.898-.992-2.483-.051-.35-.288-.879-.527-1.177-.935-1.165-1.485-4.396-.82-4.811.384-.239.382-.478-.011-1.111-.275-.444-.507-1.035-.516-1.313s-.467-1.495-1.019-2.705c-.649-1.424-.944-1.809-.837-1.09.09.61.014 1.202-.17 1.316-.339.209-.824-1.238-.931-2.781-.033-.465-.269-.803-.526-.751-.417.085-1.264-2.81-.864-2.952.09-.032-.134-.392-.497-.8-1.092-1.227-1.587-3.638-.889-4.335.484-.485.499-.747.085-1.498-.502-.907-.503-.906-.734.291l-.231 1.2-.485-1.36c-.268-.748-.486-1.768-.486-2.266 0-.499-.208-.977-.462-1.061-.838-.28-1.522-3.382-.925-4.199.286-.391.38-.892.208-1.113-.173-.22-.519-.941-.77-1.601l-.456-1.2.222 1.2c.121.66.321 1.536.444 1.947.146.491.05.69-.281.58-.834-.278-1.681-3.639-1.04-4.127.432-.33.428-.611-.026-1.6l-.551-1.2.215 1.332c.31 1.924-.637 1.434-1.237-.64-.384-1.326-.374-1.732.05-2.085.417-.345.431-.698.068-1.672l-.459-1.234-.221 1.55-.221 1.549-.639-2c-.562-1.759-.568-2.056-.048-2.466.518-.41.512-.604-.054-1.6l-.643-1.134.245 1.3c.365 1.939-.289 1.57-1.419-.801-.608-1.276-1.541-2.458-2.38-3.013l-1.379-.914-14.759.114-14.759.114-.932 1.17-.932 1.169-.389-1.369c-.26-.919-.397 8.435-.414 28.43l-.026 29.8-.962.835c-.861.748-.894.883-.315 1.286.586.408.572.51-.146 1.077-3.943 3.114-27.027 2.125-23.931-1.025.368-.375.278-.644-.4-1.193l-.876-.709-.208-28.935c-.114-15.915-.256-28.666-.316-28.336-.073.405-.293.26-.676-.445-.935-1.72-2.148-1.913-13-2.067-11.949-.17-15.154-.838-12.891-2.687l.908-.743-.885-.129c-1.651-.241-2.323-14.135-.732-15.138.346-.219 6.312-.381 14.1-.385l13.5-.006-.028-16.3c-.016-8.965-.169-15.94-.341-15.5-.3.768-.324.763-.608-.128-.708-2.23-1.931-2.469-12.626-2.471-10.237-.001-11.914-.208-13.461-1.661-1.22-1.147-1.181-1.528.164-1.594.975-.049.995-.075.178-.231-1.397-.267-1.678-1.621-1.678-8.097 0-5.243.089-6.039.765-6.874l.765-.944 13.252-.05c7.288-.027 13.339-.138 13.446-.245.108-.107.235-14.546.284-32.085l.088-31.891.944-.764c.897-.726 1.801-.765 17.878-.765h16.933zm-132.948 40.41c-.049.478-.598.386-.77-.13-.088-.264.056-.408.32-.32s.466.291.45.45m123.003 14.803c.074 5.012.243 9.287.375 9.5.35.566 8.077.497 8.43-.075.168-.272.111-.354-.14-.199-.719.445-1.698-.177-1.704-1.082-.003-.471-.28-1.645-.615-2.608-.52-1.492-.529-1.847-.059-2.4.47-.552.467-.798-.016-1.649-.568-1-.568-1-.346.3.332 1.945-.371 1.57-1.502-.8-1.543-3.236-1.963-3.685-2.954-3.155-.804.431-.844.335-1.092-2.649-.449-5.398-.517-4.53-.377 4.817m140.258-5.863c-.184 3.336-.512 4.255-1.271 3.568-1.253-1.134-5.309 6.609-5.402 10.312-.01.402-.468.974-1.018 1.272-.898.487-.586.544 3.06.56 5.306.023 4.981.64 4.84-9.213-.065-4.482-.159-7.406-.209-6.499m-6.338 7.92c-.361.779-.341.924.1.754.301-.115.547-.55.547-.967 0-.987-.107-.952-.647.213m-131.266 27.834c-.723.44-1.43 1.104-1.573 1.475-.198.518-.37.355-.74-.702-.392-1.121-.493 1.608-.539 14.669-.035 9.893.097 16.45.344 17.1l.401 1.054h14.01 14.01v-.849c0-.698-.104-.763-.582-.366-.796.661-1.309.25-1.611-1.29-.139-.712-.42-1.655-.624-2.095s-.988-2.6-1.743-4.8c-7.022-20.46-8.778-24.128-11.844-24.741-2.942-.588-8.14-.29-9.509.545m41.345-.19c-.801.418-1.298.48-1.58.198-.776-.776-1.004-.412-.431.688.316.605.575 1.375.577 1.711.001.336.249.966.551 1.4s.683 1.419.846 2.189c.164.77.433 1.58.599 1.8s.518 1.12.782 2 .638 1.96.831 2.4c.821 1.872 2.436 6.265 3.6 9.794.689 2.087 1.398 3.977 1.576 4.2.179.223.458 1.036.622 1.806.163.77.544 1.755.846 2.189s.549 1.193.549 1.686c0 1.636.87 1.725 16.912 1.725 16.464 0 16.654-.023 16.702-2.031.007-.313.361-1.289.786-2.169s.779-1.843.786-2.14c.008-.296.276-1.106.596-1.8.65-1.406 1.562-3.919 2.442-6.723.322-1.025.852-2.375 1.178-3s.6-1.407.609-1.737.364-1.32.789-2.2.779-1.875.786-2.211c.008-.336.261-.966.563-1.4s.683-1.419.847-2.189.494-1.76.734-2.2c1.081-1.988 1.798-4.658 1.074-4.004-.609.551-.831.552-2.129.01-2.184-.913-50.292-.905-52.043.008m83.871-.349c-1.793.379-5.703 6.599-5.703 9.073 0 .149-.348 1.034-.773 1.966-.425.933-1.436 3.586-2.245 5.896-.81 2.31-2.181 6.18-3.046 8.6-.866 2.42-1.722 4.964-1.902 5.653-.456 1.741-.824 2.237-1.474 1.987-.323-.124-.56.034-.56.373 0 .505 1.95.587 13.953.587h13.954l.241-.9c.424-1.581.242-33.003-.184-31.936l-.386.965-1.214-1.165c-1.21-1.16-7.365-1.795-10.661-1.099m-108.057 9.802c-.065.945.367 1.933.846 1.933.275 0 .275-.162 0-.5-.223-.275-.494-.86-.603-1.3-.145-.59-.208-.625-.243-.133m100.092.946c-.259.552-.297.987-.088.987.445 0 .884-1.005.688-1.574-.076-.22-.346.044-.6.587m-98.518 3.787c-.009.714.656 1.857.926 1.588.103-.104-.06-.639-.365-1.189-.32-.579-.556-.747-.561-.399m96.861.818c-.309.495-.335.782-.072.782.229 0 .523-.278.653-.617.36-.938-.029-1.049-.581-.165m-95.281 3.666c0 .34.299.865.665 1.167.609.502.622.464.146-.451-.697-1.341-.811-1.442-.811-.716m93.753.486c-.361.779-.341.924.1.754.301-.115.547-.55.547-.967 0-.987-.107-.952-.647.213m-1.388 3.93c-.282.715-.591 1.48-.687 1.7s.095.13.424-.2c.56-.561 1.315-2.8.945-2.8-.093 0-.4.585-.682 1.3m-90.759.176c-.003.482.186.995.421 1.14.655.405.69.082.112-1.016-.506-.959-.527-.964-.533-.124m89.592 2.957c-.002.312-.268 1.076-.593 1.698-.399.766-.437 1.08-.116.973.521-.174 1.29-2.658.934-3.015-.123-.122-.224.033-.225.344m-87.984 1.443c-.008.482.178.995.413 1.14.69.427.746.053.154-1.017-.533-.963-.553-.968-.567-.123m36.686 25.845c-1.619.453-1.805.863-.951 2.09.302.434.679 1.419.839 2.189s.53 1.779.822 2.242c.293.462.655 1.499.806 2.304s.429 1.558.618 1.675c.19.117.538.97.774 1.896.237.926.672 2.223.968 2.883.835 1.861 2.159 5.482 2.449 6.7.144.605.377 1.097.518 1.094.65-.016 1.202-.708 1.591-1.994.232-.77.897-2.66 1.478-4.2.58-1.54 1.309-3.59 1.619-4.556.311-.966.725-1.956.921-2.2.195-.244.49-1.074.655-1.844s.636-2.027 1.046-2.794c.411-.767.747-1.677.747-2.024 0-.346.264-.978.587-1.406.931-1.23.733-1.578-1.193-2.093-2.187-.585-12.164-.558-14.294.038m-190.4 2.479c0 .55-.142 1-.315 1s-.254-.315-.18-.7c.073-.385.148-.835.164-1 .076-.74.331-.2.331.7m230.217 1.815c-.246.652-.287 1.185-.09 1.185.377 0 .988-1.918.703-2.203-.091-.092-.367.367-.613 1.018m-.919 2.485c-.002.275-.26.992-.573 1.593-.486.931-.204 2.087.295 1.214.308-.539.725-3.307.498-3.307-.12 0-.219.225-.22.5m-2.054 5.306c-.357.993-.503 1.896-.325 2.006.336.208.541-.315.983-2.512.366-1.819.106-1.619-.658.506m-222.757 7.818c-.542 1.013-.699.98-.583-.124.123-1.179.129-1.188.597-.899.267.165.262.507-.014 1.023m166.045-.35c-.049 1.043.696 2.726 1.207 2.726.311 0 .332-.161.064-.5-.218-.275-.586-1.04-.818-1.7s-.436-.897-.453-.526m53.968.237c0 .391-.28 1.111-.623 1.6-.574.82-.567.889.1.887.561-.002.743-.36.814-1.6.05-.879.005-1.598-.1-1.598s-.191.32-.191.711m-50.619 9.276c.129.764.408 1.562.62 1.774.723.723.686.042-.085-1.561l-.769-1.6zm1.648 4.413c.26 1.424.792 2.313 1.163 1.942.113-.113-.16-.911-.606-1.774l-.811-1.568zm2.719 6.9c.292 1.091.331 3.312.052 3.034-.362-.363-.903-3.934-.595-3.934.166 0 .41.405.543.9m1.959 6.149c.063 1.128.251 1.588.593 1.457.616-.236.621-.139-.093-1.76l-.594-1.346zm31.435 8.141c-.517 1.22-.541 1.508-.113 1.343.3-.115.523-.327.495-.471s.085-.571.25-.949c.166-.378.239-.864.164-1.081-.076-.217-.434.304-.796 1.158m-28.129.41c.342 1.195.508 1.413.828 1.093.132-.133-.064-.658-.437-1.167l-.678-.926zm1.005 2.074c-.022.824.739 2.903.975 2.666.094-.094-.083-.884-.393-1.755-.311-.872-.573-1.282-.582-.911m25.874.626c-.111.385-.319.985-.464 1.333-.166.4-.058.634.292.634.353 0 .574-.487.606-1.334.055-1.463-.121-1.72-.434-.633" fill="#db3333"/><path d="m104.984 102.5c-.105.275-.234 14.78-.287 32.232-.094 30.892-.118 31.748-.873 32.3-.633.463-3.174.568-13.727.568-15.968 0-14.497-.644-14.497 6.346 0 7.073-1.483 6.422 14.933 6.551 12.474.098 13.161.142 13.7.879.788 1.08.835 36.671.049 38.224l-.505 1-13.189.097c-16.479.121-14.988-.531-14.988 6.557 0 6.981-1.411 6.345 14.074 6.351 13.18.006 14.073.076 14.598 1.134.181.364.418 14.701.528 31.861l.2 31.2 11.252.106 11.251.106.243-.906c.134-.498.246-14.699.249-31.557.005-28.019.062-30.698.666-31.2 1.076-.892 36.256-.803 37.154.094.629.63 1.097 1.788 4.182 10.357.831 2.31 2.908 7.98 4.614 12.6s3.768 10.29 4.582 12.6 2.067 5.73 2.785 7.6c1.396 3.637 1.729 4.536 3.417 9.2.597 1.65 1.338 3.591 1.646 4.314.307.722.559 1.51.559 1.75s.475 1.493 1.055 2.786l1.054 2.35h10.337 10.338l.757-1.5c.416-.825.887-1.95 1.046-2.5.28-.965 2.889-8.232 4.883-13.6.531-1.43 1.293-3.5 1.693-4.6s1.486-4.07 2.413-6.6c.928-2.53 1.837-5.05 2.022-5.6.184-.55.966-2.71 1.738-4.8.771-2.09 2.952-8.03 4.845-13.2 4.034-11.015 4.019-10.98 5.282-11.556 1.833-.835 35.056-.6 36.112.256l.864.7-.029 30.451c-.017 19.35.118 30.833.371 31.5l.399 1.049h11.02 11.02l.401-1.055c.256-.674.388-12.03.366-31.497l-.034-30.442.868-.703c.787-.638 2.053-.703 13.65-.703 15.785 0 14.329.65 14.329-6.4 0-7.057 1.512-6.4-14.725-6.4-10.437 0-13.268-.11-13.616-.529-.475-.573-.717-37.534-.253-38.743.401-1.043 1.35-1.117 14.52-1.123 15.493-.006 14.074.639 14.074-6.405 0-7.054 1.486-6.4-14.545-6.4-11.283 0-13.081-.083-13.626-.629-.561-.56-.629-3.993-.629-31.774 0-19.268-.149-31.536-.39-32.171l-.39-1.026h-16.571-16.57l-.757 1.3c-.417.715-1.265 2.74-1.885 4.5-1.286 3.651-2.914 8.021-3.427 9.2-.192.44-1.376 3.68-2.632 7.2-4 11.208-4.967 13.859-5.194 14.226-.121.196-1.105 2.836-2.186 5.866-1.844 5.168-4.683 12.965-6.375 17.508-1.414 3.797-2.024 4.973-2.796 5.386-1.075.575-71.779.575-72.854 0-.978-.524-1.768-2.403-6.384-15.186-2.359-6.531-4.712-12.973-5.847-16-.536-1.43-1.221-3.32-1.523-4.2-.301-.88-1.027-2.86-1.613-4.4s-1.671-4.51-2.41-6.6c-2.386-6.743-2.623-7.38-3.214-8.66-.32-.694-.582-1.476-.582-1.74s-.254-1.046-.566-1.74c-.311-.693-.761-1.89-1-2.66s-.792-1.985-1.229-2.7l-.793-1.3h-16.619c-12.926 0-16.66.111-16.809.5m25.91 35.812c1.36 3.346 2.306 5.926 2.306 6.288 0 .36 1.079 3.285 2.213 6 .276.66.861 2.19 1.301 3.4.439 1.21 1.466 4 2.283 6.2 1.946 5.244 2.108 6.188 1.182 6.865-1.114.814-10.102.744-11.29-.088l-.889-.622v-14.604c0-16.958.507-19.312 2.894-13.439m141.106 13.005c0 17.954.645 16.283-6.288 16.283-6.565 0-7.411-.533-5.93-3.74.644-1.394 1.571-3.911 2.454-6.66.317-.99.844-2.367 1.171-3.06.326-.694.593-1.41.593-1.593 0-.317 1.224-3.63 2.123-5.747.234-.55.646-1.72.917-2.6 4.059-13.209 4.96-11.916 4.96 7.117m-125.749 29.961c.7.702.884 1.14 3.148 7.522.742 2.09 2.901 7.94 4.799 13 5.562 14.833 6.447 17.622 5.83 18.367-.735.885-30.852.969-31.583.087-.326-.393-.424-5.886-.349-19.688l.104-19.143 1-.518c1.633-.847 16.15-.529 17.051.373m84.323-.488c1.413.537 1.332 1.12-1.007 7.267-1.118 2.939-3.111 8.313-4.428 11.943s-2.84 7.77-3.385 9.2c-.544 1.43-1.356 3.59-1.805 4.8-1.487 4.016-2.093 5.393-2.686 6.1-.859 1.024-33.377 1.082-34.505.062-.786-.711-3.047-6.449-7.946-20.162-1.061-2.97-2.867-7.83-4.014-10.8-2.618-6.782-2.816-7.861-1.541-8.371 1.292-.518 59.96-.555 61.317-.039m40.537.233.889.622v19.098c0 14.32-.12 19.217-.48 19.577-.779.779-30.856.68-31.506-.104-.453-.545 1.832-8.698 2.807-10.016.163-.22.485-1.03.716-1.8.23-.77 1.608-4.55 3.06-8.4 1.453-3.85 3.241-8.71 3.975-10.8 2.461-7.009 2.812-7.768 3.838-8.287 1.578-.799 15.535-.707 16.701.11m-59.946 53.342c.817.817.61 3.049-.461 4.987-.444.804-1.24 2.87-2.482 6.448-.305.88-1.026 2.86-1.602 4.4s-1.693 4.6-2.483 6.8-1.759 4.891-2.153 5.98c-1.168 3.233-2.501 3.824-3.429 1.52-.333-.825-.844-2.04-1.136-2.7s-1.011-2.64-1.6-4.4c-.588-1.76-1.314-3.74-1.613-4.4s-.673-1.74-.83-2.4c-.158-.66-.423-1.38-.59-1.6-.168-.22-.581-1.3-.918-2.4-.338-1.1-.986-2.945-1.441-4.1-3.739-9.493-4.384-8.9 9.662-8.9 9.622 0 10.362.051 11.076.765" fill="#faf7f7"/><path d="m104.4 101.6c-.786.786-.8 1.333-.8 32.226 0 20.898-.139 31.686-.414 32.2-.397.742-.977.774-13.986.774-16.063 0-14.4-.832-14.4 7.2 0 8.03-1.653 7.2 14.334 7.2 9.971 0 13.632.126 13.986.48.508.508.734 36.392.237 37.687-.214.56-1.781.633-13.511.633-16.602 0-15.046-.747-15.046 7.223 0 8.358-1.521 7.577 14.751 7.577 10.6 0 13.239.106 13.603.544.324.391.478 9.262.548 31.632.095 30.253.119 31.104.874 31.656 1.449 1.059 22.679.813 23.662-.274.735-.813.764-1.95.808-31.571.025-16.901.155-31.012.287-31.358.343-.892 35.091-.964 35.83-.074.253.305 1.257 2.78 2.231 5.5.973 2.72 2.506 6.925 3.406 9.345 2.785 7.488 4.845 13.13 5.404 14.8.295.88 1.017 2.77 1.604 4.2.588 1.43 1.217 3.14 1.398 3.8s.897 2.64 1.591 4.4c.693 1.76 1.865 4.91 2.604 7 .738 2.09 1.815 5.06 2.392 6.6.578 1.54 1.238 3.43 1.468 4.2s.859 1.985 1.399 2.7l.981 1.3h10.31c11.853 0 11.322.166 12.814-4.019.427-1.2 1.164-3.171 1.638-4.381.473-1.21 1.552-4.18 2.397-6.6s1.927-5.39 2.405-6.6c.477-1.21 1.114-2.92 1.415-3.8s.983-2.77 1.516-4.2c4.851-13.025 9.366-25.29 10.508-28.547.761-2.171 1.652-4.466 1.98-5.1l.597-1.153h17.575c16.967 0 17.59.027 17.99.774.275.514.414 11.108.414 31.577v30.804l.889.622c1.533 1.074 22.418.916 23.511-.177.786-.786.8-1.333.8-31.426 0-20.347.139-30.886.414-31.4.397-.741.973-.774 13.6-.774 16.304 0 14.788.769 14.78-7.5-.008-7.922 1.658-7.08-14.279-7.21-12.068-.098-13.569-.181-14.015-.776-.96-1.28-.699-37.179.274-37.7.488-.261 5.643-.414 13.986-.414 15.646 0 14.04.823 14.04-7.2 0-8.026 1.624-7.2-14.152-7.2-12.4 0-13.37-.051-13.986-.731-.604-.668-.662-3.49-.662-32.339 0-30.111-.035-31.637-.731-32.268-.657-.594-2.453-.662-17.419-.662h-16.686l-.952.952c-.524.524-1.227 1.829-1.562 2.9-.824 2.63-1.792 5.375-2.24 6.348-.606 1.317-5.213 13.749-7.041 19-.498 1.43-1.292 3.59-1.765 4.8-.871 2.228-1.905 5.05-2.786 7.6-.266.77-.64 1.76-.83 2.2-.552 1.277-2.097 5.451-4.96 13.4-1.613 4.478-2.991 7.676-3.491 8.1-1.268 1.075-70.445 1.067-71.822-.009-.838-.655-1.408-2.045-5.12-12.491-.742-2.09-1.827-5.06-2.41-6.6s-1.686-4.51-2.451-6.6-1.726-4.7-2.135-5.8c-.8-2.148-3.519-9.652-4.566-12.6-.351-.99-.793-2.16-.982-2.6s-.706-1.79-1.148-3-1.35-3.64-2.018-5.4c-.669-1.76-1.607-4.414-2.084-5.898-1.477-4.586-.194-4.302-19.455-4.302-16.013 0-16.572.026-17.346.8m34.805 1.7c.437.715.99 1.93 1.229 2.7s.689 1.967 1 2.66c.312.694.566 1.476.566 1.74s.262 1.046.582 1.74c.591 1.28.828 1.917 3.214 8.66.739 2.09 1.824 5.06 2.41 6.6s1.312 3.52 1.613 4.4c.302.88.987 2.77 1.523 4.2 1.135 3.027 3.488 9.469 5.847 16 4.616 12.783 5.406 14.662 6.384 15.186 1.075.575 71.779.575 72.854 0 .772-.413 1.382-1.589 2.796-5.386 1.692-4.543 4.531-12.34 6.375-17.508 1.081-3.03 2.065-5.67 2.186-5.866.227-.367 1.194-3.018 5.194-14.226 1.256-3.52 2.44-6.76 2.632-7.2.513-1.179 2.141-5.549 3.427-9.2.62-1.76 1.468-3.785 1.885-4.5l.757-1.3h16.57 16.571l.39 1.026c.241.635.39 12.903.39 32.171 0 27.781.068 31.214.629 31.774.545.546 2.343.629 13.626.629 16.031 0 14.545-.654 14.545 6.4 0 7.044 1.419 6.399-14.074 6.405-13.17.006-14.119.08-14.52 1.123-.464 1.209-.222 38.17.253 38.743.348.419 3.179.529 13.616.529 16.237 0 14.725-.657 14.725 6.4 0 7.05 1.456 6.4-14.329 6.4-11.597 0-12.863.065-13.65.703l-.868.703.034 30.442c.022 19.467-.11 30.823-.366 31.497l-.401 1.055h-11.02-11.02l-.399-1.049c-.253-.667-.388-12.15-.371-31.5l.029-30.451-.864-.7c-1.056-.856-34.279-1.091-36.112-.256-1.263.576-1.248.541-5.282 11.556-1.893 5.17-4.074 11.11-4.845 13.2-.772 2.09-1.554 4.25-1.738 4.8-.185.55-1.094 3.07-2.022 5.6-.927 2.53-2.013 5.5-2.413 6.6s-1.162 3.17-1.693 4.6c-1.994 5.368-4.603 12.635-4.883 13.6-.159.55-.63 1.675-1.046 2.5l-.757 1.5h-10.338-10.337l-1.054-2.35c-.58-1.293-1.055-2.546-1.055-2.786s-.252-1.028-.559-1.75c-.308-.723-1.049-2.664-1.646-4.314-1.688-4.664-2.021-5.563-3.417-9.2-.718-1.87-1.971-5.29-2.785-7.6s-2.876-7.98-4.582-12.6-3.783-10.29-4.614-12.6c-3.085-8.569-3.553-9.727-4.182-10.357-.898-.897-36.078-.986-37.154-.094-.604.502-.661 3.181-.666 31.2-.003 16.858-.115 31.059-.249 31.557l-.243.906-11.251-.106-11.252-.106-.2-31.2c-.11-17.16-.347-31.497-.528-31.861-.525-1.058-1.418-1.128-14.598-1.134-15.485-.006-14.074.63-14.074-6.351 0-7.088-1.491-6.436 14.988-6.557l13.189-.097.505-1c.786-1.553.739-37.144-.049-38.224-.539-.737-1.226-.781-13.7-.879-16.416-.129-14.933.522-14.933-6.551 0-6.99-1.471-6.346 14.497-6.346 10.553 0 13.094-.105 13.727-.568.755-.552.779-1.408.873-32.3.053-17.452.182-31.957.287-32.232.149-.389 3.883-.5 16.809-.5h16.619zm-10.773 33.041c-.287.535-.432 5.722-.432 15.41v14.604l.889.622c1.188.832 10.176.902 11.29.088.926-.677.764-1.621-1.182-6.865-.817-2.2-1.844-4.99-2.283-6.2-.44-1.21-1.025-2.74-1.301-3.4-1.134-2.715-2.213-5.64-2.213-6 0-.362-.946-2.942-2.306-6.288-.902-2.219-1.901-3.019-2.462-1.971m141.592.425c-.8 1.124-1.845 3.726-2.984 7.434-.271.88-.683 2.05-.917 2.6-.899 2.117-2.123 5.43-2.123 5.747 0 .183-.267.899-.593 1.593-.327.693-.854 2.07-1.171 3.06-.883 2.749-1.81 5.266-2.454 6.66-1.481 3.207-.635 3.74 5.93 3.74 6.933 0 6.288 1.671 6.288-16.283 0-16.167-.132-17.14-1.976-14.551m-138.786 5.07c.379 1.08 1.403 3.944 2.274 6.364s2.489 6.92 3.595 10 2.133 5.901 2.283 6.269c.73 1.795-.356 2.331-4.728 2.331-5.954 0-5.416 1.361-5.646-14.284l-.197-13.283.865.32c.553.205 1.112 1.026 1.554 2.283m139.962 10.475c0 15.606.41 14.491-5.323 14.483-5.317-.008-5.866-.398-4.775-3.394.77-2.113 3.79-10.494 5.767-16 .868-2.42 1.855-5.165 2.193-6.1.429-1.191.842-1.7 1.376-1.7.733 0 .762.476.762 12.711m-142 28.594-1 .518-.104 19.143c-.075 13.802.023 19.295.349 19.688.731.882 30.848.798 31.583-.087.617-.745-.268-3.534-5.83-18.367-1.898-5.06-4.057-10.91-4.799-13-2.264-6.382-2.448-6.82-3.148-7.522-.901-.902-15.418-1.22-17.051-.373m40.057-.076c-1.275.51-1.077 1.589 1.541 8.371 1.147 2.97 2.953 7.83 4.014 10.8 4.899 13.713 7.16 19.451 7.946 20.162 1.128 1.02 33.646.962 34.505-.062.593-.707 1.199-2.084 2.686-6.1.449-1.21 1.261-3.37 1.805-4.8.545-1.43 2.068-5.57 3.385-9.2s3.31-9.004 4.428-11.943c2.339-6.147 2.42-6.73 1.007-7.267-1.357-.516-60.025-.479-61.317.039m85.153.084c-1.026.519-1.377 1.278-3.838 8.287-.734 2.09-2.522 6.95-3.975 10.8-1.452 3.85-2.83 7.63-3.06 8.4-.231.77-.553 1.58-.716 1.8-.975 1.318-3.26 9.471-2.807 10.016.65.784 30.727.883 31.506.104.36-.36.48-5.257.48-19.577v-19.098l-.889-.622c-1.166-.817-15.123-.909-16.701-.11m-109.099.787c.364.275 1.1 1.76 1.634 3.3s1.632 4.6 2.44 6.8 1.795 4.9 2.194 6c1.557 4.301 4.022 11.033 5.821 15.9 1.037 2.805 1.782 5.37 1.655 5.7-.255.666-29.199.937-29.607.278-.581-.941-.435-37.715.152-38.086.94-.595 14.906-.498 15.711.108m84.431-.122.994.378-1.19 3.122c-.654 1.717-1.74 4.562-2.412 6.322s-1.944 5.18-2.828 7.6c-2.881 7.891-4.793 13.162-5.515 15.2-.389 1.1-1.081 2.857-1.537 3.904l-.829 1.905-16.488-.105-16.488-.104-1.686-4.2c-.927-2.31-3.314-8.7-5.304-14.2s-3.997-10.99-4.461-12.2-1.265-3.337-1.781-4.728l-.938-2.527.861-.347c1.19-.48 58.341-.499 59.602-.02m40.684.036c.878.47 1.232 35.13.382 37.365l-.392 1.031-14.708-.105-14.708-.105.111-.989c.11-.976 4.921-14.598 7.492-21.211.727-1.87 2.278-6.1 3.446-9.4 1.169-3.3 2.401-6.219 2.738-6.487.783-.623 14.499-.709 15.639-.099m-81.537 52.609c-1.324.927-1.294 1.086 1.538 8.277.455 1.155 1.103 3 1.441 4.1.337 1.1.75 2.18.918 2.4.167.22.432.94.59 1.6.157.66.531 1.74.83 2.4s1.025 2.64 1.613 4.4c.589 1.76 1.308 3.74 1.6 4.4s.803 1.875 1.136 2.7c.928 2.304 2.261 1.713 3.429-1.52.394-1.089 1.363-3.78 2.153-5.98s1.907-5.26 2.483-6.8 1.297-3.52 1.602-4.4c1.242-3.578 2.038-5.644 2.482-6.448 1.071-1.938 1.278-4.17.461-4.987-1.06-1.06-20.785-1.187-22.276-.142m21.789 1.236c.139.362.059 1.127-.177 1.7-.237.573-1.01 2.571-1.718 4.441s-1.977 5.2-2.82 7.4-2.355 6.333-3.36 9.184c-1.636 4.642-2.238 5.79-3.049 5.81-.231.006-2.887-7.09-3.966-10.594-.271-.88-.63-1.78-.799-2-.168-.22-.493-1.03-.721-1.8-.637-2.146-3.575-9.859-4.259-11.183-.633-1.224-.803-2.889-.342-3.35.665-.666 20.949-.291 21.211.392" fill="#d97d7e"/><path d="m146.661 4.347c-.718.283-.718.306 0 .859.407.312.606.41.442.218-.163-.193-.096-.592.149-.887.495-.596.465-.606-.591-.19m-5.458 1.642c-.475.301-.495.479-.1.874.274.274.511.416.528.317.016-.099.091-.495.164-.88.156-.812.181-.799-.592-.311m116.998.409c-.372.602.452.798 1.165.276.631-.461.621-.505-.133-.562-.449-.033-.914.095-1.032.286m-131.832 4.187c-.24.117-.206 1.415.038 1.415.329 0 1.593-1.114 1.593-1.404 0-.108-1.411-.117-1.631-.011m146.647.188c-.296.48.052 1.227.572 1.227.369 0 .319-1.027-.07-1.415-.131-.131-.357-.046-.502.188m-173.154 12.913c-.103.393.023.714.279.714.257 0 .667-.321.913-.714.366-.587.317-.715-.28-.715-.399 0-.81.322-.912.715m199.061-.037c.502.803.909.947 1.227.432.291-.471-.253-1.074-1.023-1.132-.56-.043-.594.075-.204.7m-205.89 3.851c-.165.165-.493.3-.728.3-.236 0-.475.315-.531.7-.169 1.152 1.302.862 1.524-.3.208-1.088.185-1.149-.265-.7m214.204.477c-.297.183-.416.534-.265.778.403.652 1.372.543 1.271-.143-.124-.846-.391-1.015-1.006-.635m66.775 69.28c-.015.794 1.052 1.287 1.437.664.161-.26.093-.333-.163-.174-.24.148-.622-.049-.849-.439-.363-.623-.414-.629-.425-.051m-368.135 44.087c-.122.317-.009.546.251.508.599-.088.856-.791.351-.959-.209-.07-.48.133-.602.451m123.878.891c-.243.969-.022 5.259.517 10.051.219 1.947.289 2.056 1.05 1.649.968-.518 1.401-.051 2.934 3.165.551 1.155 1.152 2.1 1.335 2.1.532 0-.033-3.262-.847-4.884-.409-.816-.744-1.753-.744-2.081s-.559-2.18-1.241-4.116c-.683-1.935-1.444-4.284-1.691-5.219-.514-1.943-.938-2.157-1.313-.665m139.701-.757c-.141.14-.256.594-.256 1.009 0 .414-.286 1.305-.635 1.981-.623 1.204-1.261 3.244-2.325 7.426-.293 1.152-.72 2.322-.949 2.6s-.542 1.349-.695 2.379-.518 1.965-.809 2.077c-.292.112-.654 1.024-.804 2.027-.16 1.063-.485 1.823-.782 1.823-.595 0-1.09 2.045-.613 2.537.499.515 2.009-.467 1.919-1.248-.342-2.954 4.039-11.424 5.313-10.271.893.809 1.125-.317 1.453-7.058.227-4.68.007-6.106-.817-5.282m-268.176 16.202c-.671.671-.6.995.27 1.223.578.151.75-.022.75-.754 0-1.053-.299-1.19-1.02-.469m396.69-.38c-.322 1.083-.236 1.914.239 2.307.325.27.604.424.621.342.299-1.5.315-1.939.067-1.901-.788.124-1.036-.1-.497-.448.4-.258.433-.39.1-.394-.275-.003-.513.039-.53.094m-261.902 2.018c-.394.475-.372.946.113 2.339.334.958.61 2.129.613 2.6.006.869.977 1.532 1.642 1.121.583-.361.424-1.193-.436-2.287-.44-.56-.813-1.439-.828-1.954-.052-1.714-.533-2.507-1.104-1.819m-60.168 22.566c-1.344.207-1.375.519-.164 1.656 1.545 1.452 3.224 1.66 13.381 1.66 10.613 0 11.514.163 12.627 2.288l.565 1.077.473-2.276c.26-1.253.415-2.775.345-3.383l-.127-1.106-13-.043c-7.15-.023-13.495.034-14.1.127m53.967-.017c-.428.427-.25 3.411.291 4.91.384 1.061.557 1.222.756.702.581-1.512 2.706-2.276 6.336-2.278 7.745-.003 7.359-.474 13.607 16.599.885 2.42 2.227 6.2 2.983 8.4.755 2.2 1.539 4.36 1.743 4.8s.485 1.383.624 2.095c.277 1.412.858 2 1.42 1.438.443-.443-.315-3.347-1.023-3.92-.281-.227-.608-1.209-.728-2.181s-.48-1.915-.801-2.094c-.32-.179-.709-1.184-.864-2.232s-.512-2.176-.792-2.506c-.281-.33-.619-1.305-.751-2.168-.132-.862-.445-1.694-.696-1.849s-.614-1.124-.806-2.153-.623-2.144-.958-2.479c-.334-.334-.608-1.198-.608-1.918 0-.736-.351-1.715-.8-2.233-.452-.521-.8-1.497-.8-2.241 0-.726-.235-1.463-.523-1.639-.287-.176-.73-1.466-.984-2.866-.834-4.602-.534-4.454-9.036-4.454-4.028 0-7.444.12-7.59.267m40.65.052c-1.705 1.084 1.524 4.829 3.345 3.879 1.704-.888 49.858-.893 51.984-.004 1.288.538 1.506.529 2.329-.092 1.177-.888 1.957-3.566 1.132-3.883-.893-.342-58.247-.245-58.79.1m84.082.882c-.346.67-.817 2.231-1.046 3.469-.229 1.237-.672 2.506-.984 2.818-.313.313-.569 1.177-.569 1.921 0 .825-.25 1.491-.642 1.711-.39.218-.727 1.106-.856 2.254-.118 1.041-.444 1.982-.724 2.09-.281.108-.635 1.095-.786 2.194-.151 1.1-.511 2.09-.8 2.2-.289.111-.645 1.075-.792 2.142s-.497 2.028-.777 2.136c-.281.108-.63 1.092-.775 2.188-.145 1.095-.511 2.196-.813 2.447-.301.25-.668 1.256-.815 2.235s-.497 1.919-.779 2.087c-.695.417-1.48 3.636-.964 3.954.567.351 1.134-.35 1.535-1.898.192-.742 1.058-3.329 1.924-5.749.865-2.42 2.236-6.29 3.046-8.6.809-2.31 1.82-4.963 2.245-5.896.425-.932.773-1.817.773-1.966 0-1.032 2.741-6.818 3.671-7.748 2.158-2.157 10.519-2.308 12.689-.228l1.213 1.162.432-1.138c.238-.625.379-1.958.314-2.962l-.119-1.824-7.485-.109-7.485-.109zm42.671-.864c-.435.285-.441.925-.029 3.617.482 3.145.52 3.225.998 2.09.892-2.124 1.448-2.227 13.161-2.444 9.189-.17 10.987-.302 12.052-.885 1.238-.678 1.993-1.803 1.525-2.272-.387-.388-27.121-.49-27.707-.106m-221.326 54.035c-2.306 1.884.835 2.543 13.045 2.736 11.035.174 12.267.379 12.826 2.14.375 1.182.858.329 1.193-2.106.524-3.811 1.528-3.542-13.191-3.542-12.177 0-12.983.045-13.873.772m53.899-.139c-.356.927-.295 2.165.195 3.929l.434 1.561.926-1.161.925-1.162 14.759-.114 14.759-.114 1.379.914c.839.555 1.772 1.737 2.38 3.013.55 1.154 1.132 2.099 1.292 2.1.417.002-.097-3.547-.745-5.148-.301-.742-.547-1.687-.547-2.1s-.36-1.111-.8-1.551c-1.111-1.111-34.534-1.27-34.957-.167m60.024-.366c-1.087 1.086 1.155 4.238 2.733 3.843 1.654-.414 13.303-.379 14.9.045 1.034.274 1.3.225 1.3-.243 0-.323.36-.914.8-1.312.959-.868 1.041-2.022.167-2.357-.864-.332-19.567-.31-19.9.024m45.836.061c-.661.42-2.503 5.744-2.503 7.236 0 .648-.243 1.422-.541 1.72-.297.297-.712 1.435-.922 2.528s-.577 1.949-.816 1.902-.558.741-.71 1.752c-.339 2.264-.603 2.986-1.002 2.74-.169-.105-.4.571-.514 1.502s-.345 2.032-.515 2.447c-.223.547-.158.704.237.573.299-.1.763-.98 1.029-1.955.267-.975.86-2.718 1.318-3.873s.716-2.1.572-2.1c-.143 0 .02-.315.362-.7.7-.787 1.544-3.524 1.196-3.873-.125-.125-.031-.227.208-.227.24 0 .658-.675.93-1.5 1.604-4.863 1.95-4.95 19.121-4.815l14.517.115.968 1.126c1.057 1.229 1.099 1.189 1.721-1.68.745-3.439 1.773-3.247-17.355-3.24-9.242.003-17.028.148-17.301.322m61.519.43c-.283.529-.241 1.588.14 3.5.299 1.508.566 2.458.591 2.112.171-2.302 1.312-2.552 12.778-2.805 12.517-.277 15.611-.925 13.325-2.793-1.451-1.186-26.2-1.198-26.834-.014m100.735 4.709c-.369.454-.388.585-.057.386.275-.165.5-.12.5.1s-.183.513-.407.651c-.451.279-.151.996.418.996.2 0 .249-.3.108-.666-.172-.448-.102-.571.214-.375.311.192.428.016.345-.524-.181-1.186-.492-1.343-1.121-.568m-395.957.52c0 .214-.27.284-.6.158-.719-.276-.791.304-.12.975.729.729 1.02.581 1.02-.52 0-.55-.068-1-.15-1s-.15.174-.15.387m165.073 3.913c-.096.165.108 1.2.453 2.3.501 1.597.659 1.808.785 1.048.332-2.001-.583-4.476-1.238-3.348m1.857 4.165c-.302.379-.294.991.026 2.103.615 2.133 1.483 2.401 1.163.358-.386-2.466-.687-3.091-1.189-2.461m1.315 4.263c-.329.531.784 3.815 1.357 4.006.357.119.441-.046.261-.514-.146-.38-.377-1.394-.515-2.255-.238-1.486-.658-1.958-1.103-1.237m1.898 4.221c-.499.87.227 3.908.995 4.164.254.084.47.634.48 1.22.01.587.279 1.607.599 2.267.558 1.155.571 1.111.342-1.185-.138-1.382-.482-2.563-.819-2.809-.319-.234-.712-1.321-.874-2.415-.248-1.685-.359-1.876-.723-1.242m54.986 1.102c-.04.742-.07 1.664-.069 2.049.002.413-.297.7-.728.7-.549 0-.745.326-.784 1.3-.028.715-.081 1.783-.118 2.373-.036.59.056.997.206.904.261-.16.915-3.008.767-3.332-.039-.086.133-.282.383-.436.888-.549 1.633-3.895.987-4.431-.477-.396-.585-.249-.644.873m-220.78-.775c-.134.324-.224 1.924-.108 1.924.421 0 .913-1.581.56-1.799-.221-.137-.424-.193-.452-.125m386.796.682c.461.291.461.379 0 .562-.3.119-.342.231-.094.248.248.018.675-.238.949-.568.419-.505.347-.599-.451-.594-.688.005-.799.101-.404.352m-218.048 8.142c-.237.695.472 3.175 1.114 3.9.293.33.516.69.497.8-.14.808.618 3.17.993 3.094.257-.052.493.286.526.751.103 1.481.603 3.059.881 2.781.455-.456.049-3.208-.522-3.533-.296-.168-.667-1.158-.823-2.2-.156-1.041-.539-2.079-.85-2.307s-.668-1.173-.792-2.1c-.221-1.648-.685-2.185-1.024-1.186m49.159-.089c-.103.324-.293 1.2-.423 1.946s-.484 1.556-.787 1.8c-.671.54-1.196 3.703-.668 4.029.373.231 1.215-2.152 1.22-3.453.001-.366.192-.73.423-.807.579-.193 1.152-2.923.749-3.574-.264-.428-.363-.417-.514.059m-3.213 8.222c-.416 1.082-.277 4.066.155 3.329.593-1.016.962-3.962.496-3.962-.225 0-.518.285-.651.633m-40.991 5.634c.192 1.027.439 1.957.548 2.067.279.278.24-1.943-.052-3.034-.451-1.681-.846-.909-.496.967m39.398-.617c-.137.688-.245 1.633-.238 2.1.018 1.266.651.03.947-1.85.285-1.805-.353-2.03-.709-.25m-38.041 4.45c.316 1.867.628 2.824 1.122 3.44.239.298.476.827.527 1.177.233 1.585.592 2.483.992 2.483.24 0 .326-.286.192-.635s-.358-1.349-.497-2.222c-.165-1.028-.429-1.52-.75-1.396-.273.104-.49-.021-.482-.279.072-2.561-.17-3.868-.719-3.868-.462 0-.553.309-.385 1.3m36.248.6c-.499 2.327.105 3.221.709 1.048.528-1.903.552-2.948.066-2.948-.202 0-.551.855-.775 1.9m-1.257 2.991c0 1.404-.81 3.55-1.239 3.285-.199-.123-.361.381-.361 1.12s-.216 1.56-.48 1.824-.32.48-.124.48c.197 0 .052.225-.321.5-.424.313-.701 1.121-.74 2.165-.052 1.361-.193 1.639-.773 1.528-.391-.076-.887.076-1.103.336-.492.592-21.538.654-22.459.066-.33-.21-.78-.386-1-.389s-.57-.771-.777-1.706-.509-1.7-.671-1.7-.516-.989-.786-2.197c-.373-1.667-.611-2.098-.986-1.787-.6.499.217 3.638 1.205 4.626.338.338.615.998.615 1.465 0 3.926 3.512 5.293 13.6 5.293 10.169 0 13.018-1.076 13.766-5.201.109-.603.492-1.421.85-1.817.359-.396.754-1.499.878-2.451s.414-1.853.643-2.002c.828-.538 1.43-3.459.817-3.967-.447-.371-.554-.269-.554.529m-194.431 8.009c-.342 1.12-.251 1.5.259 1.077.31-.257.465-.627.344-.822-.207-.335-.536-.474-.603-.255m85.031 3.841c-3.312.306-3.688 1.015-1.2 2.259 4.641 2.32 25.213.698 22.759-1.794-.513-.521-17.096-.879-21.559-.465m167.431.001c-3.639.316-4.03.935-1.367 2.165 5.187 2.393 25.232.885 22.687-1.707-.519-.529-16.531-.873-21.32-.458m100.049 2.138c-.264.264-.475.669-.468.9s.198.101.425-.288c.227-.39.581-.604.788-.477.206.128.375.042.375-.191 0-.564-.527-.537-1.12.056m-5.82 10.107c-.124.323-.025.711.219.862.269.166.332.092.159-.187-.157-.254-.095-.462.138-.462s.424-.18.424-.4c0-.612-.685-.476-.94.187m-44.476 47.575c-.719.526-.698.549.324.354.6-.115 1.092-.368 1.092-.563 0-.513-.537-.434-1.416.209m-12.784 9.252-1.2.55 1.1.018c.605.01 1.1-.173 1.1-.406s.208-.295.462-.138c.286.177.353.11.176-.176-.157-.254-.32-.447-.362-.43-.042.018-.616.28-1.276.582m-219.62 2.527c.053.363.259.662.458.665s.585.148.857.32c.369.235.411.089.166-.573-.388-1.049-1.625-1.393-1.481-.412m215.157-.239c-.318.514.5 1.246 1.028.92.239-.148.435-.499.435-.779 0-.585-1.122-.693-1.463-.141m-209.629 3.135c.39.227.587.609.439.849-.159.256-.086.324.174.163.623-.385.13-1.452-.664-1.437-.578.011-.572.062.051.425m2.554 1.88c.103.394.537.743.964.775.648.049.707-.069.361-.717-.529-.988-1.58-1.034-1.325-.058m199.444-.478c.155.155.002.486-.339.736-.539.394-.516.454.177.454.438 0 .719-.126.624-.281-.095-.154.044-.352.309-.44.284-.095.167-.282-.285-.456-.422-.162-.641-.168-.486-.013m-173.13 12.876c.11.752 1.424 1.025 1.424.296 0-.285-.341-.607-.757-.716-.523-.136-.73-.006-.667.42m146.939-.361c-.49.176-.58.417-.317.843.279.451.481.484.83.135.644-.644.313-1.275-.513-.978m-14.709 5.195c-.005.798.089.87.594.451.33-.274.586-.701.568-.949-.017-.248-.129-.206-.248.094-.183.461-.271.461-.562 0-.251-.395-.347-.284-.352.404m-5.352 1.164c-.111.179-.058.557.117.84.248.401.37.378.556-.107.252-.656-.329-1.289-.673-.733" fill="#b72a31"/><path d="m164.8.4c0 .22.36.4.8.4s.8-.18.8-.4-.36-.4-.8-.4-.8.18-.8.4m68.8 0c0 .22.36.4.8.4s.8-.18.8-.4-.36-.4-.8-.4-.8.18-.8.4m-129.656 100.365-.944.764-.088 31.891c-.049 17.539-.176 31.978-.284 32.085-.107.107-6.158.218-13.446.245l-13.252.05-.765.944c-.862 1.065-1.154 11.78-.377 13.825l.388 1.021 13.912.105 13.912.105-.018 1.7c-.01.935-.055 9.44-.1 18.9l-.082 17.2-13.5.006c-7.808.004-13.753.166-14.1.386-.647.409-.919 13.031-.313 14.508.266.648 1.322.7 14.1.7 10.776 0 13.816.11 13.827.5.008.275.053 14.511.1 31.635.085 30.864.093 31.141.907 31.8 1.375 1.114 23.872.95 25.004-.182.785-.785.799-1.336.795-31.664-.002-16.976.102-31.141.231-31.477.416-1.085 33.856-.905 34.949.188.44.44.8 1.172.8 1.626 0 .455.208 1.216.463 1.691.254.475.599 1.408.767 2.074.168.665.865 2.649 1.547 4.409.683 1.76 1.803 4.82 2.487 6.8.685 1.98 1.376 3.78 1.536 4 .159.22.418.934.574 1.586s.631 1.948 1.055 2.878c.424.931.771 2.026.771 2.434s.177.919.393 1.135.651 1.197.966 2.18c1.024 3.193 2.331 6.578 2.69 6.967.193.209.351.7.351 1.092 0 .61 1.305 4.296 2.453 6.928.466 1.07 3.075 8.353 3.78 10.556.31.966.726 1.956.926 2.2.199.244.565 1.2.812 2.124.827 3.092 1.114 3.161 13.103 3.124 12.266-.038 11.343.302 13.284-4.898.72-1.928 1.474-3.819 1.676-4.201.201-.383.902-2.273 1.555-4.2.654-1.928 1.666-4.765 2.25-6.305.583-1.54 1.691-4.51 2.46-6.6.77-2.09 1.842-4.97 2.383-6.4s1.176-3.32 1.41-4.2.58-1.8.769-2.044.601-1.234.915-2.2c1.028-3.157 3.414-9.738 3.828-10.556.222-.44 1.3-3.398 2.396-6.574 1.095-3.175 2.219-5.918 2.496-6.094 1.126-.715 34.196-.391 34.476.338.141.369.247 14.558.235 31.532-.021 30.653-.015 30.866.802 31.606 1.399 1.266 23.798 1.178 25.1-.098l.909-.892-.028-31.017c-.015-17.059.081-31.193.215-31.409.151-.244 5.369-.392 13.805-.392 16.113 0 14.392.942 14.384-7.874-.008-8.411 1.719-7.49-14.479-7.726l-13.715-.2-.2-18.6c-.131-12.171-.062-18.702.2-18.894.22-.162 6.439-.297 13.82-.3 9.897-.004 13.546-.132 13.9-.486.769-.769.637-13.478-.15-14.52-.583-.77-1.104-.802-14.088-.85l-13.482-.05-.2-32.086-.2-32.085-.944-.764c-.897-.726-1.799-.765-17.8-.763l-16.856.002-1.053.898c-.672.573-1.447 2.056-2.142 4.098-.598 1.76-1.241 3.56-1.428 4s-.905 2.33-1.595 4.2c-.691 1.87-1.509 3.991-1.819 4.714-.309.722-.564 1.532-.565 1.8-.002.267-.266.99-.587 1.606-.322.616-.761 1.696-.976 2.4s-.831 2.45-1.367 3.88c-.537 1.43-2.011 5.39-3.275 8.8-1.265 3.41-2.74 7.37-3.279 8.8-.54 1.43-1.225 3.32-1.524 4.2s-1.017 2.86-1.595 4.4-1.68 4.6-2.449 6.8c-.768 2.2-1.619 4.227-1.891 4.505-.693.709-70.845.767-71.698.06-.311-.258-.858-1.479-1.217-2.713-.359-1.233-.795-2.515-.97-2.847-.175-.333-.498-1.145-.718-1.805s-.869-2.46-1.442-4-1.29-3.52-1.593-4.4-1.024-2.86-1.604-4.4c-.579-1.54-1.21-3.25-1.401-3.8s-.912-2.53-1.602-4.4-1.445-4.029-1.678-4.798-.673-1.754-.978-2.189-.56-1.156-.568-1.602c-.007-.446-.361-1.531-.786-2.411s-.779-1.777-.786-1.992c-.018-.516-1.56-4.516-2.263-5.87-.303-.584-.552-1.394-.553-1.8-.002-.406-.29-1.278-.64-1.938s-.873-1.92-1.162-2.8c-2.051-6.248-3.5-9.692-4.418-10.5l-1.023-.9h-16.933c-16.077 0-16.981.039-17.878.765m35.368.837c.647.509 1.338 1.79 1.889 3.5.477 1.484 1.415 4.138 2.084 5.898.668 1.76 1.576 4.19 2.018 5.4s.959 2.56 1.148 3 .631 1.61.982 2.6c1.047 2.948 3.766 10.452 4.566 12.6.409 1.1 1.37 3.71 2.135 5.8s1.868 5.06 2.451 6.6 1.668 4.51 2.41 6.6c3.712 10.446 4.282 11.836 5.12 12.491 1.377 1.076 70.554 1.084 71.822.009.5-.424 1.878-3.622 3.491-8.1 2.863-7.949 4.408-12.123 4.96-13.4.19-.44.564-1.43.83-2.2.881-2.55 1.915-5.372 2.786-7.6.473-1.21 1.267-3.37 1.765-4.8 1.828-5.251 6.435-17.683 7.041-19 .448-.973 1.416-3.718 2.24-6.348.335-1.071 1.038-2.376 1.562-2.9l.952-.952h16.686c14.966 0 16.762.068 17.419.662.696.631.731 2.157.731 32.268 0 28.849.058 31.671.662 32.339.616.68 1.586.731 13.986.731 15.776 0 14.152-.826 14.152 7.2 0 8.023 1.606 7.2-14.04 7.2-8.343 0-13.498.153-13.986.414-.973.521-1.234 36.42-.274 37.7.446.595 1.947.678 14.015.776 15.937.13 14.271-.712 14.279 7.21.008 8.269 1.524 7.5-14.78 7.5-12.627 0-13.203.033-13.6.774-.275.514-.414 11.053-.414 31.4 0 30.093-.014 30.64-.8 31.426-1.093 1.093-21.978 1.251-23.511.177l-.889-.622v-30.804c0-20.469-.139-31.063-.414-31.577-.4-.747-1.023-.774-17.99-.774h-17.575l-.597 1.153c-.328.634-1.219 2.929-1.98 5.1-1.142 3.257-5.657 15.522-10.508 28.547-.533 1.43-1.215 3.32-1.516 4.2s-.938 2.59-1.415 3.8c-.478 1.21-1.56 4.18-2.405 6.6s-1.924 5.39-2.397 6.6c-.474 1.21-1.211 3.181-1.638 4.381-1.492 4.185-.961 4.019-12.814 4.019h-10.31l-.981-1.3c-.54-.715-1.169-1.93-1.399-2.7s-.89-2.66-1.468-4.2c-.577-1.54-1.654-4.51-2.392-6.6-.739-2.09-1.911-5.24-2.604-7-.694-1.76-1.41-3.74-1.591-4.4s-.81-2.37-1.398-3.8c-.587-1.43-1.309-3.32-1.604-4.2-.559-1.67-2.619-7.312-5.404-14.8-.9-2.42-2.433-6.625-3.406-9.345-.974-2.72-1.978-5.195-2.231-5.5-.739-.89-35.487-.818-35.83.074-.132.346-.262 14.457-.287 31.358-.044 29.621-.073 30.758-.808 31.571-.983 1.087-22.213 1.333-23.662.274-.755-.552-.779-1.403-.874-31.656-.07-22.37-.224-31.241-.548-31.632-.364-.438-3.003-.544-13.603-.544-16.272 0-14.751.781-14.751-7.577 0-7.97-1.556-7.223 15.046-7.223 11.73 0 13.297-.073 13.511-.633.497-1.295.271-37.179-.237-37.687-.354-.354-4.015-.48-13.986-.48-15.987 0-14.334.83-14.334-7.2 0-8.032-1.663-7.2 14.4-7.2 13.009 0 13.589-.032 13.986-.774.275-.514.414-11.302.414-32.2 0-30.893.014-31.44.8-32.226 1.249-1.249 33.324-1.247 34.912.002m-10.296 50.914c.23 15.645-.308 14.284 5.646 14.284 4.372 0 5.458-.536 4.728-2.331-.15-.368-1.177-3.189-2.283-6.269s-2.724-7.58-3.595-10-1.895-5.284-2.274-6.364c-.442-1.257-1.001-2.078-1.554-2.283l-.865-.32zm140.046-11.216c-.338.935-1.325 3.68-2.193 6.1-1.977 5.506-4.997 13.887-5.767 16-1.091 2.996-.542 3.386 4.775 3.394 5.733.008 5.323 1.123 5.323-14.483 0-12.235-.029-12.711-.762-12.711-.534 0-.947.509-1.376 1.7m-137.994 1.6c.575 2.176 3.199 9.714 3.954 11.36.318.694.584 1.504.592 1.8.007.297.361 1.26.786 2.14s.779 1.835.786 2.122c.008.287.385 1.335.838 2.33 1.348 2.96 1.171 3.13-3.393 3.263-2.178.064-4.12-.044-4.316-.24-.412-.412-.891-22.491-.514-23.679.39-1.229.775-.954 1.267.904m139.332 10.475c0 13.69.422 12.604-4.892 12.589-4.524-.012-5.235-.835-3.246-3.753.296-.434.538-1.037.538-1.34 0-.302.261-1.117.579-1.811.611-1.329 1.545-3.98 3.265-9.26.573-1.76 1.383-3.97 1.799-4.911s.757-2.036.757-2.433c0-.862.38-1.316.856-1.022.189.117.344 5.491.344 11.941m-140.8 28.217c-.587.371-.733 37.145-.152 38.086.408.659 29.352.388 29.607-.278.127-.33-.618-2.895-1.655-5.7-1.799-4.867-4.264-11.599-5.821-15.9-.399-1.1-1.386-3.8-2.194-6s-1.906-5.26-2.44-6.8-1.27-3.025-1.634-3.3c-.805-.606-14.771-.703-15.711-.108m40.54.006-.861.347.938 2.527c.516 1.391 1.317 3.518 1.781 4.728s2.471 6.7 4.461 12.2 4.377 11.89 5.304 14.2l1.686 4.2 16.488.104 16.488.105.829-1.905c.456-1.047 1.148-2.804 1.537-3.904.722-2.038 2.634-7.309 5.515-15.2.884-2.42 2.156-5.84 2.828-7.6s1.758-4.605 2.412-6.322l1.19-3.122-.994-.378c-1.261-.479-58.412-.46-59.602.02m84.647.115c-.337.268-1.569 3.187-2.738 6.487-1.168 3.3-2.719 7.53-3.446 9.4-2.571 6.613-7.382 20.235-7.492 21.211l-.111.989 14.708.105 14.708.105.392-1.031c.85-2.235.496-36.895-.382-37.365-1.14-.61-14.856-.524-15.639.099m-109.584.491c.275.332.824 1.727 1.22 3.1.991 3.444 2.303 7.122 2.729 7.653.196.244.489 1.073.653 1.843.163.77.544 1.755.846 2.189s.549 1.118.549 1.52.299 1.307.663 2.011c.365.704.805 1.82.977 2.48.428 1.637 1.873 5.82 2.349 6.8.214.44.674 1.61 1.022 2.6s.983 2.773 1.411 3.963c.428 1.189.778 2.404.778 2.7 0 .439-2.549.537-14.01.537h-14.01l-.395-1.04c-.428-1.126-.52-36.292-.096-36.716.591-.591 14.802-.257 15.314.36m84.133-.373c.67.257.42 1.378-.981 4.395-.415.895-.755 1.846-.755 2.114 0 .269-.252.887-.561 1.374-.308.487-.691 1.516-.851 2.286s-.537 1.755-.839 2.189-.555 1.064-.563 1.4c-.007.336-.361 1.331-.786 2.211s-.78 1.87-.789 2.2-.283 1.112-.609 1.737-.856 1.975-1.178 3c-.88 2.804-1.792 5.317-2.442 6.723-.32.694-.588 1.504-.596 1.8-.007.297-.361 1.26-.786 2.14s-.779 1.856-.786 2.169c-.048 2.008-.238 2.031-16.702 2.031-16.042 0-16.912-.089-16.912-1.725 0-.493-.247-1.252-.549-1.686s-.683-1.419-.846-2.189c-.164-.77-.443-1.583-.622-1.806-.178-.223-.887-2.113-1.576-4.2-1.164-3.529-2.779-7.922-3.6-9.794-.193-.44-.567-1.52-.831-2.4s-.616-1.78-.782-2-.435-1.03-.599-1.8c-.163-.77-.544-1.755-.846-2.189s-.55-1.064-.551-1.4c-.002-.336-.286-1.151-.633-1.811-1.244-2.369-1.772-4.348-1.248-4.681.554-.352 57.906-.438 58.819-.088m40.979 17.569c.063 9.68.01 18.185-.118 18.9l-.233 1.3h-13.982-13.982v-.94c0-.993.537-2.865 1.395-4.86.284-.66.641-1.65.793-2.2s.622-1.763 1.044-2.696c.423-.932.768-2.047.768-2.476s.162-.881.36-1.003.576-1.124.84-2.225.637-2.1.829-2.218c.192-.119.542-.973.777-1.899s.595-2.043.8-2.483.628-1.52.941-2.4c.312-.88.792-2.23 1.066-3s.833-2.14 1.243-3.044c.409-.904.748-1.984.753-2.4s.358-1.525.784-2.465l.776-1.709 7.515.109 7.516.109zm-80.848 35.667c-.461.461-.291 2.126.342 3.35.684 1.324 3.622 9.037 4.259 11.183.228.77.553 1.58.721 1.8.169.22.528 1.12.799 2 1.079 3.504 3.735 10.6 3.966 10.594.811-.02 1.413-1.168 3.049-5.81 1.005-2.851 2.517-6.984 3.36-9.184s2.112-5.53 2.82-7.4 1.481-3.868 1.718-4.441c.97-2.348.922-2.359-10.422-2.359-5.69 0-10.466.12-10.612.267m20.3.376c.857.329.796 1.224-.167 2.448-.44.559-.806 1.398-.813 1.863s-.277 1.195-.6 1.622c-.323.428-.587 1.06-.587 1.406 0 .347-.336 1.257-.747 2.024-.41.767-.881 2.024-1.046 2.794s-.46 1.6-.655 1.844c-.196.244-.61 1.234-.921 2.2-.31.966-1.039 3.016-1.619 4.556-.581 1.54-1.246 3.43-1.478 4.2-.389 1.286-.941 1.978-1.591 1.994-.141.003-.374-.489-.518-1.094-.29-1.218-1.614-4.839-2.449-6.7-.296-.66-.731-1.957-.968-2.883-.236-.926-.584-1.779-.774-1.896-.189-.117-.467-.87-.618-1.675s-.513-1.842-.806-2.304c-.292-.463-.663-1.469-.823-2.236-.161-.767-.521-1.757-.8-2.2-.28-.443-.628-1.379-.773-2.078-.146-.7-.524-1.487-.84-1.749-.599-.497-.767-1.653-.307-2.112.333-.334 19.036-.356 19.9-.024m-44.967 164.157c0 .22.36.4.8.4s.8-.18.8-.4-.36-.4-.8-.4-.8.18-.8.4m68.8 0c0 .22.36.4.8.4s.8-.18.8-.4-.36-.4-.8-.4-.8.18-.8.4" fill="#d76163"/></g></svg>