<svg fill="none" height="512" viewBox="0 0 512 512" width="512" xmlns="http://www.w3.org/2000/svg" xmlns:xlink="http://www.w3.org/1999/xlink"><radialGradient id="a" cx="0" cy="0" gradientTransform="matrix(0 -243.386 318.092 0 255.694 512.129)" gradientUnits="userSpaceOnUse" r="1"><stop offset=".203695" stop-color="#56f2ff"/><stop offset="1" stop-color="#4a8cea"/></radialGradient><radialGradient id="b" cx="0" cy="0" gradientTransform="matrix(-.20665804 73.68141019 -139.49545132 -.39125007 255.984 198.293)" gradientUnits="userSpaceOnUse" r="1"><stop offset="0" stop-color="#eeff83"/><stop offset=".689596" stop-color="#5699ec"/></radialGradient><radialGradient id="c" cx="0" cy="0" gradientTransform="matrix(-.23972722 85.84576528 -161.86636886 -.45201735 255.934 229.777)" gradientUnits="userSpaceOnUse" r="1"><stop offset="0" stop-color="#56f2ff"/><stop offset="1" stop-color="#5699ec"/></radialGradient><linearGradient id="d" gradientUnits="userSpaceOnUse" x1="191.385" x2="191.385" y1=".097656" y2="272.176"><stop offset=".377179" stop-color="#ffe336"/><stop offset="1" stop-color="#13c0b6" stop-opacity=".7"/></linearGradient><linearGradient id="e" gradientUnits="userSpaceOnUse" x1="320.672" x2="320.672" y1="0" y2="272.189"><stop offset=".408817" stop-color="#ff7f72"/><stop offset="1" stop-color="#2978ef" stop-opacity=".7"/></linearGradient><path d="m255.838 315.784-149.986-85.673-4.096 6.283c-46.1957 70.864-35.8786 163.672 24.804 223.13 71.409 69.968 187.186 69.968 258.595 0 60.683-59.458 71-152.266 24.804-223.13l-4.097-6.285z" fill="url(#a)"/><path d="m256.03 124.412-129.29 73.928 129.29 73.835 129.197-73.834z" fill="url(#b)" opacity=".6"/><path d="m256.2 143.698-150.236 86.445 149.9 85.713 150.04-85.741z" fill="url(#c)"/><path d="m256.03.0976562-129.29 198.2433438 129.29 73.835z" fill="url(#d)"/><path d="m256.021 272.189 129.302-73.847-129.295-198.342z" fill="url(#e)"/></svg>