<svg fill="none" height="116" viewBox="0 0 116 116" width="116" xmlns="http://www.w3.org/2000/svg"><path d="m116 58c0 32.0325-25.9675 58-58 58s-58-25.9675-58-58 25.9675-58 58-58 58 25.9675 58 58z" fill="#17438c"/><path d="m68 58c0 5.5228-4.4772 10-10 10s-10-4.4772-10-10 4.4772-10 10-10 10 4.4772 10 10z" fill="#3682ff"/><path d="m68 34c0 5.5228-4.4772 10-10 10s-10-4.4772-10-10 4.4772-10 10-10 10 4.4772 10 10z" fill="#ffbf60"/><g fill="#3682ff"><path d="m68 82c0 5.5228-4.4772 10-10 10s-10-4.4772-10-10 4.4772-10 10-10 10 4.4772 10 10z"/><path d="m34 48c5.5228 0 10 4.4772 10 10s-4.4772 10-10 10-10-4.4772-10-10 4.4772-10 10-10z"/><path d="m34 72c5.5228 0 10 4.4772 10 10s-4.4772 10-10 10-10-4.4772-10-10 4.4772-10 10-10z"/><path d="m82 48c5.5228 0 10 4.4772 10 10s-4.4772 10-10 10-10-4.4772-10-10 4.4772-10 10-10z"/><path d="m82 72c5.5228 0 10 4.4772 10 10s-4.4772 10-10 10-10-4.4772-10-10 4.4772-10 10-10z"/></g><path d="m82 24c5.5228 0 10 4.4772 10 10s-4.4772 10-10 10-10-4.4772-10-10 4.4772-10 10-10z" fill="#ffbf60"/><path clip-rule="evenodd" d="m75.5 37h-15v-6h15z" fill="#ffbf60" fill-rule="evenodd"/><path clip-rule="evenodd" d="m55 37h-15v-6h15z" fill="#ffbf60" fill-rule="evenodd"/><path d="m34 24c5.5228 0 10 4.4772 10 10s-4.4772 10-10 10-10-4.4772-10-10 4.4772-10 10-10z" fill="#ffbf60"/></svg>