<?xml version="1.0" encoding="UTF-8" standalone="no"?>
<svg
   height="980"
   viewBox="0 0 980 980"
   width="980"
   version="1.1"
   id="svg15"
   sodipodi:docname="axelar.svg"
   inkscape:export-filename="axelar.png"
   inkscape:export-xdpi="96"
   inkscape:export-ydpi="96"
   xmlns:inkscape="http://www.inkscape.org/namespaces/inkscape"
   xmlns:sodipodi="http://sodipodi.sourceforge.net/DTD/sodipodi-0.dtd"
   xmlns="http://www.w3.org/2000/svg"
   xmlns:svg="http://www.w3.org/2000/svg">
  <defs
     id="defs19" />
  <sodipodi:namedview
     id="namedview17"
     pagecolor="#ffffff"
     bordercolor="#000000"
     borderopacity="0.25"
     inkscape:showpageshadow="2"
     inkscape:pageopacity="0.0"
     inkscape:pagecheckerboard="0"
     inkscape:deskcolor="#d1d1d1"
     showgrid="false" />
  <path
     d="m 488.16367,973.04546 c 266.47402,0 482.49675,-216.02273 482.49675,-482.49675 0,-266.47545 -216.02273,-482.4967496 -482.49675,-482.4967496 -266.47545,0 -482.4967499,216.0212996 -482.4967499,482.4967496 0,266.47402 216.0212999,482.49675 482.4967499,482.49675 z"
     fill="#ffffff"
     id="path11"
     style="stroke-width:7.1481" />
  <circle
     style="fill:#ffffff;stroke-width:1.633;stroke-dasharray:none"
     id="path3642"
     cx="490"
     cy="-490"
     r="490"
     transform="scale(1,-1)" />
  <path
     d="M 531.75174,431.33633 760.69533,202.39925 673.8384,115.55186 488.32857,301.05992 302.81875,115.55186 215.96712,202.39925 444.90541,431.33633 c 11.99195,11.98905 27.70756,17.98624 43.42316,17.98624 15.71561,0 31.43122,-5.99186 43.42317,-17.98624 z M 863.17252,675.90552 677.66269,490.39745 863.17252,304.88406 776.32089,218.03668 547.38789,446.97376 c -23.97861,23.98343 -23.97861,62.86396 0,86.84739 l 228.933,228.93708 86.85163,-86.84739 z m -375.16175,4.13838 185.50982,185.50806 86.84634,-86.84739 -228.933,-228.93708 c -23.9892,-23.98343 -62.86242,-23.98343 -86.85163,0 l -228.93299,228.93708 86.85163,86.84739 z M 428.95145,534.13539 c 11.52054,-11.52036 17.98793,-27.13648 17.98793,-43.4237 0,-16.28721 -6.46739,-31.90866 -17.98793,-43.42369 l -228.933,-228.93708 -86.85163,86.85271 185.50983,185.50806 -185.50983,185.51339 86.85163,86.84739 228.93829,-228.93708 z"
     id="path13"
     style="stroke-width:5.31143" />
</svg>
