<svg enable-background="new 0 0 500 500" viewBox="0 0 500 500" xmlns="http://www.w3.org/2000/svg"><circle cx="250" cy="250" fill="#7b2bf9" r="250"/><path d="m429.7 211.8c-7.2-34.5-24.3-66.1-49.8-91.6-34.7-34.7-80.8-53.8-129.9-53.8s-95.2 19-129.9 53.7c-8.5 8.5-15.9 17.6-22.4 27.2-1.9 2.6-3.7 5.3-5.2 8.2-17 28.3-26.1 60.6-26.1 94.5 0 49.1 19.1 95.2 53.8 129.9s80.8 53.8 129.9 53.8 95.2-19.1 129.9-53.8c16.3-16.3 29.3-35.3 38.4-55.8 1.1-2.2 2-4.6 2.9-7 8.3-21 12.6-43.7 12.6-67 0-12.3-1.2-24-3.6-35.8-.1-.6-.5-2.1-.6-2.5zm-63.7-83.9c1 1 2.1 2 3.2 3.1 16.2 16.2 28.8 35.2 37.1 55.8.8 2-.9 4.3-3.2 3.9-4.8-.9-10.3-1.2-16.3-1.1-4.2.1-7.9-2.9-8.6-6.9-3.3-18.4-8.1-35.3-14.1-50.1-.3-.8-.7-1.6-1-2.6-.8-1.9 1.5-3.6 2.9-2.1zm17.5 107.7c0-1.9 2.4-2.8 3.6-1.2 1.3 1.9 2.7 3.9 4 5.8 1.7 2.6 3.3 5.2 4.7 7.8.9 1.6.7 3.6-.5 5-1.9 2.1-4.1 4.4-6.4 6.7-.8.8-1.7 1.7-2.6 2.6-1.1 1-3 .2-2.9-1.2.1-2.8.2-5.5.2-8.4.1-5.9.1-11.5-.1-17.1zm-231.3-122.8c28.4-20.3 62.2-31.2 97.8-31.2 9.4 0 18.7.8 27.8 2.2 2.4.4 3.3 3.5 1.3 5-8.8 6.9-16.9 17.1-24.2 30.3-1.7 3.3-5.5 4.8-9.1 3.8-24-6.7-47.6-9.9-69.4-9.2-8.1.3-15.6 1.1-22.8 2.4-2 .5-3-2.1-1.4-3.3zm-24 251.7c-3.6-6.6 1-22.1 24.3-45.7 2.4-2.4 2.2-6.4-.5-8.6-.9-.7-1.8-1.4-2.8-2.2-2.3-1.8-5.7-1.7-7.8.4-.5.5-.8.8-.9.9-11.6 11.9-19.8 23-24.3 33-1.3 2.9-5.2 3.2-6.9.5-18.1-27.2-27.8-59.2-27.8-92.7 0-11.9 1.2-23.8 3.7-35.2.4-1.7 2.8-1.8 3.4-.1 3.5 11.5 9.2 23.5 17 35.5 10.6 16.2 24.5 31.8 41.1 46.2 5.6 4.9 11.6 9.6 17.9 14.2 12.7 9.3 26.3 17.8 40.9 25.3 6.4 3.4 12.8 6.5 19.2 9.5 3.6 1.6 7.7 1.7 11.3.3 3.1-1.2 6.1-2.4 9.2-3.7 3.4-1.4 5.2-5 4.3-8.6-.1-.4-.2-.8-.2-1-5.1-21.3-7.9-45.4-8.3-70.5 0-.3 0-6 0-11.9s.2-8.6.4-12.9c1.5-30.4 6.7-58.9 14.9-83 .7-2.2-.4-4.6-2.7-5.4-2.1-.7-4.3-1.4-6.5-2.1-2.1-.7-4.5.5-5.3 2.7-8.9 26.1-14.4 57-15.8 89.7-.2 4.2-2.4 8-6 10.1-19.4 11.5-37.1 23.7-52.6 35.9-3.2 2.6-7.8 2.4-10.9-.2-15.4-13.4-28.4-27.9-38.2-43-19.3-29.6-23.9-57.4-12.9-78.5l.1-.1c1.4-2.3 2.9-4.6 4.4-6.8 12.6-16.6 36-26.3 67.1-27.4 1.9-.1 4-.1 5.9-.1 19.1 0 39.5 3.2 60.3 9.2.4.1 3.4 1 4 1.2 5.3 1.7 14.3 4.8 15.5 5.2.5.2 3.3 1.3 3.7 1.4 10.2 4 20.3 8.5 30.3 13.7 19.4 10.1 37.1 21.9 52.7 34.9-29.5 6.7-63.8 19.8-98.3 37.3-1.6.8-2.7 2.4-2.8 4.2-.1 2.1-.3 6.4-.4 9.9-.1 2.1 2.2 3.6 4.1 2.6 34.2-18 68.3-31.3 97.6-38.5 5.5-1.3 9-6.5 8.3-12.1-.5-3.9-1.1-7.8-1.8-11.5-.8-4.7-3.5-9-7.2-11.8-13.7-10.4-28.8-20-45-28.5-10.9-5.7-21.9-10.6-33.1-14.9-2.3-.9-3.4-3.7-2.1-5.9 11.4-20.4 25-31.8 38.3-31.8h.4c15.6.3 31.1 16.5 42.7 44.6 5.8 14.2 10.3 30.6 13.5 48.4.9 5 1.6 10.1 2.2 15.3.3 2.7.8 6.8 1.1 8.6 1.3 13.5 1.8 27.6 1.6 41.9-.2 9.1-.6 18.1-1.4 26.8-20.9 16.8-46.7 33.7-75.1 48.7-7.7 4-15.4 7.9-23 11.5-1.6.8-8.2 3.7-8.6 3.9-7.2 3.3-14.3 6.2-21.4 9-.4.2-8.4 3.2-8.9 3.4-.6.2-4.7 1.7-5.2 1.9-15.3 5.4-30 9.5-43.4 12.1-33.9 6.5-49.8 1.5-53.3-5.2zm46.1-65.4c14.8-12 32.2-24.2 51.3-35.6.4 24.4 3.1 47.9 7.9 69-7-3.1-14.1-6.3-21.1-10-13.6-7-26.4-14.9-38.1-23.4zm97.4 118c-7.1.9-14.4 1.4-21.7 1.4-32.8 0-64.1-9.3-90.9-26.6-1.8-1.2-1-4.1 1.1-4.2.4 0 .9 0 1.2-.1 6.8-.4 14.3-1.4 22.4-3 17.2-3.4 36.4-9 56.5-16.7 1.8-.7 3.8.2 4.6 2 7.8 19 17.3 33.3 28.2 42.4 1.9 1.6 1 4.5-1.4 4.8zm71.3-45c-12 23.7-26.8 36.9-41.2 36.6-15.6-.3-31.1-16.5-42.7-44.6-.7-1.7.1-3.8 1.8-4.6.1-.1.2-.1.4-.2.7-.3 1.6-.4 2.4-.2 21.5 6 42.8 9.2 62.7 9.2 2.1 0 4.3 0 6.4-.1 2.4-.1 4.9-.2 7.3-.4 2.3 0 3.9 2.3 2.9 4.3zm5.2-20.4c-5 .7-10.3 1.2-15.8 1.4-13.5.5-27.8-.7-42.4-3.4-1.8-.3-2.1-2.8-.5-3.6 3.2-1.6 6.4-3.3 9.6-5 22.4-11.9 43.4-24.9 61.7-38.2 1.3-1 3.3.2 3 1.8-2.6 15.3-6 29.7-10.5 42.7-.9 2.4-2.8 4-5.1 4.3zm24.9 13.4c-1.2 1.3-2.6 2.7-3.9 4-2.2 2.2-4.7 4.5-7 6.6-1.5 1.3-3.8-.3-3-2.1.2-.5.5-1 .7-1.6 1-2.2 1.9-4.5 3-6.8.2-.5.7-.9 1.2-1.1 2.3-.6 4.7-1.3 6.9-2 2-.6 3.4 1.7 2.1 3zm33.8-53.4c-.7 1.7-1.3 3.4-2.1 5.1-.2.3-1.2 2.4-1.3 2.7-5.6 10.3-14.8 18.4-26.8 24.1-2.8 1.3-5.8-1.2-5-4.2 4.2-14.8 7.2-30.8 9.3-47.7.4-3.2 1.9-6 4.3-8.1 5.1-4.4 9.9-8.9 14.3-13.3 2.1-2.1 5.8-1.2 6.7 1.7 4.3 14.5 4.6 28 .6 39.7zm3.4-78.9c-1.2 2.2-4.5 2.3-5.9.2-.2-.3-.4-.7-.6-1-5-7.8-10.8-15.3-17.2-22.7-1.6-1.8-.3-4.6 2.1-4.7h.1c15.1 0 23 3.8 25.4 8.3 1.9 3.8 1.3 10.5-3.9 19.9zm8.2 22.2c0 1.1-1.6 1.4-2 .4-.2-.4-.4-.9-.6-1.3-.4-.8-.3-1.8.3-2.6.1-.1.3-.4.6-.8.7-.9 1.8-.8 1.8.2-.1 1.4-.1 2.7-.1 4.1z" fill="#fff"/></svg>