<svg fill="none" height="800" viewBox="0 0 800 800" width="800" xmlns="http://www.w3.org/2000/svg" xmlns:xlink="http://www.w3.org/1999/xlink"><clipPath id="a"><path d="m0 0h800v800h-800z"/></clipPath><mask id="b" height="442" maskUnits="userSpaceOnUse" width="532" x="95" y="95"><path clip-rule="evenodd" d="m95.2378 95.2376h531.4042v440.9904h-531.4042z" fill="#fff" fill-rule="evenodd"/></mask><g clip-path="url(#a)"><circle cx="400" cy="400" fill="#fff" r="400"/><g mask="url(#b)"><path clip-rule="evenodd" d="m157.462 519.85c-15.791-34.824-24.612-73.676-24.612-114.649 0-149.79 117.878-271.218 263.288-271.218 80.966 0 153.394 37.651 201.692 96.881l28.812-24.905c-55.196-67.692-137.971-110.7214-230.504-110.7214-166.183 0-300.9002 138.7754-300.9002 309.9634 0 46.826 10.0802 91.228 28.1272 131.027z" fill="#000" fill-rule="evenodd"/></g><g clip-rule="evenodd" fill="#000" fill-rule="evenodd"><path d="m396.137 589.279c-98.67 0-178.658-82.398-178.658-184.04 0-101.643 79.988-184.041 178.658-184.041 54.942 0 104.082 25.555 136.855 65.747l28.821-24.912c-39.673-48.653-99.167-79.58-165.676-79.58-119.443 0-216.271 99.744-216.271 222.786 0 123.041 96.828 222.785 216.271 222.785z"/><path d="m460.963 461.233c-15.524 19.038-38.801 31.143-64.826 31.143-46.739 0-84.628-39.031-84.628-87.178 0-48.146 37.889-87.177 84.628-87.177 26.025 0 49.302 12.106 64.826 31.144l32.413-28.017c-23.286-28.557-58.201-46.715-97.239-46.715-70.108 0-126.942 58.546-126.942 130.765 0 72.22 56.834 130.767 126.942 130.767 35.776 0 68.083-15.258 91.156-39.787z"/></g></g></svg>