<svg fill="none" viewBox="0 0 44 44" xmlns="http://www.w3.org/2000/svg" xmlns:xlink="http://www.w3.org/1999/xlink"><linearGradient id="a"><stop offset="0" stop-color="#fff"/><stop offset="1"/></linearGradient><linearGradient id="b" gradientUnits="userSpaceOnUse" x1="17.8496" x2="17.3605" xlink:href="#a" y1="8.95993" y2="68.6337"/><linearGradient id="c" gradientUnits="userSpaceOnUse" x1="28.5492" x2="14.9514" xlink:href="#a" y1="22.8649" y2="-4.23279"/><linearGradient id="d" gradientUnits="userSpaceOnUse" x1="18.5687" x2="39.4056" xlink:href="#a" y1="18.1255" y2="39.0602"/><rect fill="#000" height="44" rx="22" width="44"/><path d="m21.3343 7.63147v4.27083c0 1.0703-.425 2.0968-1.1818 2.8537l-2.3832 2.384c-.3253.3264-.612.6903-.8513 1.0806-.5292.8778-.8072 1.89-.8072 2.9287 0 1.5152.5878 2.9354 1.6585 4.0028l4.5356 4.5379c.742.7426 1.1587 1.7494 1.1587 2.7991v4.3031l-8.6671-8.6661c-1.8272-1.826-2.8516-4.2564-2.888-6.8422-.0353-2.6498 1.0763-5.3006 3.049-7.2734z" fill="url(#b)"/><path d="m32.6065 20.9958c.032 2.1812-.6285 4.2575-1.9131 6.002-.0441.0595-.0894.119-.1368.1786-.2514.3253-.5359.644-.8402.9505l-.3452.3451c-.0022.0011-.0033.0023-.0055.0045l-1.7257 1.7257-2.9684-2.9685 2.0752-2.0807c.29-.2878.558-.6208.7962-.9903.0187-.0286.0375-.0584.0562-.0882.5282-.8711.8072-1.8823.8072-2.9254 0-1.5151-.5888-2.9376-1.6595-4.0094l-2.3793-2.3771c-.7577-.757-1.1835-1.7843-1.1835-2.8554v-4.26719l6.38 6.38019c1.9232 1.9231 3.0038 4.4008 3.0424 6.9756z" fill="url(#c)"/><path d="m30.5561 27.1768c-.2514.3253-.5359.644-.8403.9505l-.3451.3451c-.0022.0011-.0034.0022-.0055.0045l-1.7257 1.7257-6.1019-6.1019c-.7247-.7247-1.1318-1.7076-1.1318-2.7325v-4.3417z" fill="url(#d)"/></svg>