<?xml version="1.0" encoding="UTF-8" standalone="no"?>
<svg
   height="249.7867pt"
   preserveAspectRatio="xMidYMid"
   viewBox="0 0 249.37699 249.7867"
   width="249.37698pt"
   version="1.1"
   id="svg53"
   sodipodi:docname="immutable.svg"
   inkscape:version="1.2.1 (9c6d41e, 2022-07-14)"
   inkscape:export-filename="immutable.svg"
   inkscape:export-xdpi="96"
   inkscape:export-ydpi="96"
   xmlns:inkscape="http://www.inkscape.org/namespaces/inkscape"
   xmlns:sodipodi="http://sodipodi.sourceforge.net/DTD/sodipodi-0.dtd"
   xmlns="http://www.w3.org/2000/svg"
   xmlns:svg="http://www.w3.org/2000/svg">
  <defs
     id="defs57" />
  <sodipodi:namedview
     id="namedview55"
     pagecolor="#ffffff"
     bordercolor="#000000"
     borderopacity="0.25"
     inkscape:showpageshadow="2"
     inkscape:pageopacity="0.0"
     inkscape:pagecheckerboard="0"
     inkscape:deskcolor="#d1d1d1"
     inkscape:document-units="pt"
     showgrid="false"
     inkscape:zoom="1.0417931"
     inkscape:cx="211.65431"
     inkscape:cy="93.1087"
     inkscape:window-width="1440"
     inkscape:window-height="900"
     inkscape:window-x="0"
     inkscape:window-y="0"
     inkscape:window-maximized="0"
     inkscape:current-layer="svg53" />
  <ellipse
     style="fill:#ffffff;stroke-width:0.830275"
     id="path365"
     cx="124.59782"
     cy="124.83331"
     rx="124.59782"
     ry="124.55888" />
  <g
     transform="matrix(0.09760066,0,0,-0.09739435,-0.4020033,249.32954)"
     id="g51">
    <path
       d="m 1335,2546 c 11,-7 241,-140 510,-296 270,-155 503,-292 519,-303 l 29,-20 -19,29 c -173,274 -461,485 -770,563 -80,20 -214,41 -262,41 -25,0 -26,-1 -7,-14 z"
       id="path11" />
    <path
       d="M 785,2064 C 571,1940 385,1832 372,1824 l -22,-14 v -475 c 0,-261 2,-475 4,-475 2,0 36,18 75,41 l 71,41 v 382 c 0,322 2,385 15,403 8,12 161,106 340,209 l 325,188 v 83 c 0,46 -1,83 -2,83 -2,0 -178,-102 -393,-226 z"
       id="path13" />
    <path
       d="m 1380,1813 v -478 l 407,-235 c 223,-129 410,-236 414,-238 5,-2 9,210 9,471 0,368 -3,477 -12,485 -12,9 -745,434 -795,461 l -23,12 z"
       id="path15" />
    <path
       d="m 993,1792 c -100,-59 -183,-111 -184,-116 0,-6 83,-58 185,-117 l 186,-108 v 224 c 0,124 -1,225 -2,224 -2,-1 -85,-49 -185,-107 z"
       id="path17" />
    <path
       d="M 2400,1278 V 651 l -22,-25 C 2365,613 2135,475 1865,320 1596,165 1362,29 1345,18 l -30,-19 105,5 c 436,21 879,352 1054,787 73,180 81,228 81,484 0,219 -1,235 -27,326 -27,96 -98,273 -118,293 -7,7 -10,-180 -10,-616 z"
       id="path19" />
    <path
       d="M 121,1819 C 35,1626 5,1488 5,1275 5,1060 39,905 125,725 l 33,-70 1,618 c 1,339 -1,617 -3,617 -2,0 -18,-32 -35,-71 z"
       id="path21" />
    <path
       d="m 700,1280 v -222 l 59,34 c 257,147 321,184 321,188 0,4 -64,41 -321,188 l -59,34 z"
       id="path23" />
    <path
       d="M 955,979 C 784,880 603,776 553,747 502,718 460,693 460,690 460,687 645,578 870,448 l 410,-237 410,237 c 226,130 410,239 410,242 -1,9 -807,470 -821,470 -8,-1 -153,-82 -324,-181 z"
       id="path25" />
    <path
       d="m 198,591 c 9,-14 44,-62 78,-106 C 488,210 828,22 1145,3 1200,0 1243,0 1240,3 1237,6 998,145 708,313 319,538 185,611 198,591 Z"
       id="path27" />
    <path
       d="m 1078.6798,2544.0709 c -341.00151,-55.4735 -627.00294,-232.1676 -839.00396,-517.7542 -31.00015,-41.0912 -56.00028,-79.1012 -56.00028,-84.2379 0,-5.1363 21.0001,4.1095 48.00023,20.5461 26.00014,16.4364 252.00124,151.0116 502.0024,298.9409 536.00271,317.433 506.00241,297.9146 460.00231,296.8874 -19.0001,-1.0272 -71.0002,-7.1919 -115.0007,-14.3823 z"
       id="path31"
       style="stroke-width:1.01356" />
    <path
       d="m 789.19378,2060.3062 c -214,-124 -400,-232 -413,-240 l -22,-14 v -475 c 0,-261 2,-475.00002 4,-475.00002 2,0 36,18 75,41 l 71,41 v 382.00002 c 0,322 2,385 15,403 8,12 161,106 340,209 l 325.00002,188 v 83 c 0,46 -1,83 -2,83 -2,0 -178,-102 -393.00002,-226 z"
       id="path35" />
    <path
       d="m 1384.1938,1809.3062 v -478 l 407,-235 c 223,-129.00002 410,-236.00002 414,-238.00002 5,-2 9,210.00002 9,471.00002 0,368 -3,477 -12,485 -12,9 -745,434 -795,461 l -23,12 z"
       id="path37" />
    <path
       d="m 997.19378,1788.3062 c -100,-59 -183,-111 -184,-116 0,-6 83,-58 185,-117 l 186.00002,-108 v 224 c 0,124 -1,225 -2,224 -2,-1 -85,-49 -185.00002,-107 z"
       id="path39" />
    <path
       d="M 2404.1938,1274.3062 V 647.30618 l -22,-25 c -13,-13 -243,-151 -513,-306 -269,-155 -503,-291.000001 -520,-302.000001 l -30,-18.9999999 105,5.00000005 c 436,20.99999985 879,352.00000085 1054,787.00000085 73,180 81,228.00002 81,484.00002 0,219 -1,235 -27,326 -27,96 -98,273 -118,293 -7,7 -10,-180 -10,-616 z"
       id="path41" />
    <path
       d="m 125.19378,1815.3062 c -86.000002,-193 -116.0000022,-331 -116.0000022,-544 0,-215 34.0000002,-370.00002 120.0000022,-550.00002 l 33,-70 1,618.00002 c 1,339 -1,617 -3,617 -2,0 -18,-32 -35,-71 z"
       id="path43" />
    <path
       d="m 704.19378,1276.3062 v -222 l 59,34 c 257.00002,147 321.00002,184 321.00002,188 0,4 -64,41 -321.00002,188 l -59,34 z"
       id="path45" />
    <path
       d="m 959.19378,975.30618 c -171,-99 -352,-203 -402,-232 -51,-29 -93,-54 -93,-57 0,-3 185,-112 410,-242 l 410.00002,-237 410,237 c 226,130 410,239 410,242 -1,9 -807,470.00002 -821,470.00002 -8,-1 -153,-82 -324.00002,-181.00002 z"
       id="path47" />
    <path
       d="m 202.19378,587.30618 c 9,-14 44,-62 78,-106 212,-275 552,-463.000001 869.00002,-482.00000085 55,-3.00000005 98,-3.00000005 95,0 -3,2.99999995 -242,142.00000085 -532.00002,310.00000085 -389,225 -523,298 -510,278 z"
       id="path49" />
  </g>
</svg>
