<svg enable-background="new 0 0 2500 2500" viewBox="0 0 2500 2500" xmlns="http://www.w3.org/2000/svg" xmlns:xlink="http://www.w3.org/1999/xlink"><linearGradient id="a"><stop offset="0" stop-color="#0082fa"/><stop offset="1" stop-color="#00f2fe"/></linearGradient><linearGradient id="b" gradientTransform="matrix(1 0 0 -1 0 2500)" gradientUnits="userSpaceOnUse" x1="136" x2="2381" xlink:href="#a" y1="1139.9177" y2="1139.9177"/><linearGradient id="c" gradientTransform="matrix(1 0 0 -1 0 2500)" gradientUnits="userSpaceOnUse" x1="94" x2="2339" xlink:href="#a" y1="1360.0823" y2="1360.0823"/><path d="m303 432 48-57c1-1 2-1 3-2 2-2 4-3 5-5l1-2c11-11 24-22 38-32 50-38 101-67 156-85 175-61 369-24 522 120 213 200 194 521 24 735-215 319-584 763-73 1161 92 72 160 131 450 214-189 35-365 24-560-26-138-78-355-245-430-471-112-342 197-854 346-1051 205-273-127-568-370-238-128 172-350 658-273 1018 45 204 106 353 345 558-44-26-88-56-129-89-556-518-492-1320-103-1749z" fill="url(#b)"/><path d="m2197 2068c-16 19-32 38-48 57-1 1-2 1-3 2-1 2-4 3-5 5l-2 2c-11 11-24 22-38 32-50 38-102 67-156 85-175 61-369 24-522-120-213-200-194-521-24-735 215-319 584-763 73-1161-92-72-160-131-450-214 189-35 365-24 560 26 138 78 355 245 430 471 112 342-197 854-346 1051-205 273 127 568 370 238 128-172 350-658 273-1018-45-204-106-353-345-558 44 26 88 56 129 89 556 518 492 1320 103 1749z" fill="url(#c)"/></svg>