<svg fill="none" height="32" viewBox="0 0 32 32" width="32" xmlns="http://www.w3.org/2000/svg"><path d="m24.3569 19.4167-8.0383-4.0313-.3202.2004-.2436-.2382-8.11478 4.0691-.32016.5223.19522.4591 7.76342 3.8924h.7199.72l7.7618-3.8924.1968-.4591z" fill="#95001a"/><path d="m7.31987 19.939 8.67853 4.3515v.3613l-5.6238 2.8212h-.7215l-2.33323-1.1866-.32016-.4828v-5.344z" fill="#40004d"/><path d="m24.677 19.939-8.6754 4.3515v.3613l5.6238 2.8212h.7215l2.3332-1.1866.3202-.4828v-5.344z" fill="#520033"/><path d="m24.6801 11.2847-.3201.202v7.93l.317.5223.3233.5206 5.2459 2.6302h.7199l1.0339-.5254z" fill="#ffa80a"/><path d="m7.31986 11.2847.32016.202v7.93l-.32016.5223-.32015.5206-5.24588 2.6302h-.71996l-1.03387-.5254z" fill="#ff3417"/><path d="m7.31987 26.2864-6.286-3.1966 6.286-3.1508z" fill="#6d0044"/><path d="m15.9984 30.698 6.3438-3.2251-6.3438-3.1824-6.3453 3.1824z" fill="#6d0074"/><path d="m24.6801 26.2864 6.286-3.1966-6.2891-3.1508z" fill="#6d0044"/><path d="m16 1.30197h-2.2005l-6.47964 9.98273.32016.202 8.35838-4.19225v-.36132l.3202-.22562.0016-5.12311z" fill="#ffa80a"/><path d="m15.9984 6.93314-8.67854 4.35156v8.6542l8.67854-4.3531.3202-.2004v-7.93159z" fill="#d7001f"/><path d="m16 1.30197h2.2005l6.4796 9.98273-.3201.202-8.0414-4.03289-.3202-.52068z" fill="#ffe50a"/><path d="m24.677 19.9389-8.6786-4.3531v-8.65266l8.6786 4.35156z" fill="#ef8109"/></svg>