<?xml version="1.0" encoding="UTF-8" standalone="no"?>
<svg
   fill="none"
   height="102"
   viewBox="0 0 97 102"
   width="97"
   version="1.1"
   id="svg18"
   sodipodi:docname="Linea.svg"
   inkscape:export-filename="Linea.png"
   inkscape:export-xdpi="640"
   inkscape:export-ydpi="640"
   inkscape:version="1.2.1 (9c6d41e, 2022-07-14)"
   xmlns:inkscape="http://www.inkscape.org/namespaces/inkscape"
   xmlns:sodipodi="http://sodipodi.sourceforge.net/DTD/sodipodi-0.dtd"
   xmlns="http://www.w3.org/2000/svg"
   xmlns:svg="http://www.w3.org/2000/svg">
  <defs
     id="defs22">
    <clipPath
       id="a-7">
      <path
         d="M 0,0.256104 H 96.5545 V 101.1141 H 0 Z"
         id="path9-6" />
    </clipPath>
    <clipPath
       id="a-9">
      <path
         d="M 0,0.256104 H 96.5545 V 101.1141 H 0 Z"
         id="path308" />
    </clipPath>
  </defs>
  <sodipodi:namedview
     id="namedview20"
     pagecolor="#ffffff"
     bordercolor="#000000"
     borderopacity="0.25"
     inkscape:showpageshadow="2"
     inkscape:pageopacity="0.0"
     inkscape:pagecheckerboard="0"
     inkscape:deskcolor="#d1d1d1"
     showgrid="false"
     inkscape:zoom="1.5534511"
     inkscape:cx="29.289625"
     inkscape:cy="47.635873"
     inkscape:window-width="1440"
     inkscape:window-height="900"
     inkscape:window-x="0"
     inkscape:window-y="0"
     inkscape:window-maximized="0"
     inkscape:current-layer="svg18" />
  <clipPath
     id="a">
    <path
       d="m0 .256104h96.5545v100.858h-96.5545z"
       id="path9" />
  </clipPath>
  <circle
     style="fill:#ffffff;stroke-width:1.17448"
     id="path240"
     cy="50.210793"
     cx="48.638813"
     r="48" />
  <g
     clip-path="url(#a-9)"
     fill="#121212"
     id="g315"
     transform="matrix(0.68296286,0,0,0.68296286,17.383052,12.807588)">
    <path
       d="M 80.1886,101.114 H 0 V 16.6219 H 18.3473 V 84.739 h 61.8413 v 16.366 z"
       id="path311" />
    <path
       d="m 80.1885,32.9879 c 9.0387,0 16.3659,-7.3273 16.3659,-16.3659 0,-9.03863 -7.3272,-16.365896 -16.3659,-16.365896 -9.0386,0 -16.3659,7.327266 -16.3659,16.365896 0,9.0386 7.3273,16.3659 16.3659,16.3659 z"
       id="path313" />
  </g>
</svg>
