<svg enable-background="new 0 0 1579.4 1579.4" viewBox="0 0 1579.4 1579.4" xmlns="http://www.w3.org/2000/svg"><path d="m0 0h1579.4v1579.4h-1579.4z"/><g fill="#fff"><path d="m557.3 671.7-119.8-61c-9.4 18.4-17.3 37.7-23.7 57.4l127.9 41.4c4.2-13 9.4-25.7 15.6-37.8z"/><path d="m659 564.2 66.3 114.3c9.7-5.6 20.1-9.9 30.8-12.8l-34.3-127.6c8.7-2.3 17.6-4.3 26.6-5.7l-21.1-132.8c-20.4 3.2-40.7 8.1-60.3 14.5l41 125.8c-13.1 4.3-25.8 9.6-38 15.8l-60.2-117.7c-18.3 9.4-36.1 20.3-52.7 32.5l79.2 108.5c7.3-5.3 14.9-10.2 22.7-14.8z"/><path d="m1015.1 658.9-114.3 66.4c5.6 9.7 10 20.1 12.9 30.8l127.6-34.4c2.4 8.7 4.3 17.6 5.7 26.5l132.8-21.1c-3.2-20.4-8.1-40.7-14.6-60.3l-125.7 41.2c-4.3-13.1-9.6-25.8-15.8-38l117.7-60.4c-9.4-18.3-20.3-36.1-32.5-52.7l-108.5 79.3c5.2 7.3 10.1 14.9 14.7 22.7z"/><path d="m968.5 437.4c-18.4-9.4-37.7-17.3-57.4-23.7l-41.3 127.9c12.9 4.2 25.6 9.4 37.8 15.6z"/><path d="m920.7 561.9-67.1 116.5c9.7 5.6 18.7 12.5 26.6 20.4l188.2-188.9c-14.6-14.6-30.5-28.1-47.1-40.2l-77.6 107.1c-7.4-5.4-15-10.4-23-14.9z"/><path d="m561.9 658.5 116.4 67.2c5.6-9.7 12.5-18.7 20.4-26.7l-188.7-188.3c-14.6 14.6-28.1 30.5-40.2 47.1l107 77.7c-5.3 7.4-10.3 15.1-14.9 23z"/><path d="m830.4 530.1 20.3-130.7c-20.1-3.1-40.6-4.7-61.1-4.7h-.3v266.6h.3c11.2 0 22.4 1.4 33.1 4.3l34.5-129.9c-8.8-2.4-17.7-4.2-26.8-5.6z"/><path d="m665.6 756.6-129.9-34.6c-2.3 8.8-4.2 17.8-5.6 26.8l-130.7-20.4c-3.1 20.1-4.7 40.8-4.7 61.3h266.6c0-11.3 1.5-22.4 4.3-33.1z"/><path d="m1022.1 907.7 119.8 61c9.4-18.4 17.3-37.7 23.7-57.4l-127.9-41.4c-4.2 13-9.4 25.7-15.6 37.8z"/><path d="m920.3 1015.1-66.3-114.3c-9.7 5.6-20.1 9.9-30.8 12.8l34.3 127.6c-8.7 2.3-17.6 4.3-26.6 5.7l21.1 132.8c20.4-3.2 40.7-8.1 60.3-14.5l-41-125.8c13.1-4.3 25.8-9.6 38-15.8l60.3 117.7c18.3-9.4 36.1-20.3 52.7-32.5l-79.2-108.6c-7.3 5.5-14.9 10.4-22.8 14.9z"/><path d="m564.3 920.5 114.3-66.5c-5.6-9.7-10-20.1-12.9-30.8l-127.6 34.4c-2.4-8.7-4.3-17.6-5.7-26.5l-132.8 21.1c3.2 20.4 8.1 40.7 14.6 60.3l125.7-41.1c4.3 13 9.6 25.8 15.8 38l-117.7 60.4c9.4 18.3 20.3 36.1 32.5 52.7l108.5-79.3c-5.2-7.3-10.1-14.9-14.7-22.7z"/><path d="m610.9 1142c18.4 9.4 37.7 17.3 57.4 23.7l41.3-127.9c-12.9-4.2-25.6-9.4-37.8-15.6z"/><path d="m658.6 1017.5 67.1-116.5c-9.7-5.6-18.7-12.5-26.6-20.4l-188.2 188.9c14.6 14.6 30.5 28.1 47.1 40.2l77.6-107.1c7.4 5.3 15.1 10.3 23 14.9z"/><path d="m1017.4 920.9-116.4-67.2c-5.6 9.7-12.5 18.7-20.4 26.7l188.8 188.3c14.6-14.6 28.1-30.5 40.2-47.1l-107-77.7c5.3-7.5 10.3-15.1 14.8-23z"/><path d="m756.6 913.8-34.5 129.9c8.8 2.3 17.8 4.2 26.8 5.6l-20.3 130.7c20.1 3.1 40.6 4.7 61.1 4.7h.3v-266.6h-.3c-11.2 0-22.4-1.5-33.1-4.3z"/><path d="m918.1 789.7c0 11.3-1.4 22.4-4.3 33.1l129.9 34.6c2.3-8.8 4.2-17.8 5.6-26.8l130.7 20.4c3.1-20.1 4.7-40.8 4.7-61.3z"/></g></svg>