<svg fill="none" height="510" viewBox="0 0 511 510" width="511" xmlns="http://www.w3.org/2000/svg"><circle cx="256.62433" cy="-254.4859" fill="#fff" r="250" stroke-width="1.75339" transform="scale(1 -1)"/><g transform="matrix(.84195756 0 0 .84409587 63.930752 13.602101)"><path d="m481.43444 159.51111s-6.305 25.951-50.457 25.951c-14.813 0-19.866 4.406-23.225 8.412-2.423 2.878-3.992 5.562-7.668 6.264-5.865-1.129-6.347-7.255-13.492-11.22-3.593-1.996-8.88-3.456-17.401-3.456-44.151 0-53.279-25.951-53.279-25.951-9.94 37.833 21.518 65.133 41.219 78.914 9.898 6.924 13.56 19.865 8.742 30.948-22.95 52.797-49.273 69.262-85.026 69.262-6.484 0-13.189-.509-20.155-1.376-1.9-.234-3.813-.51-5.755-.799-1.294-.193-2.588-.399-3.896-.619-1.308-.221-2.615-.441-3.951-.675-11.922-2.134-24.519-5.039-37.859-8.15-1.308-.303-2.63-.62-3.952-.923-19.645-4.598-40.874-9.513-63.851-12.996-2.272-.344-4.516-.661-6.719-.963-.55-.083-1.101-.152-1.652-.221-1.087-.137-2.175-.275-3.263-.399-.537-.069-1.073-.124-1.61-.193-1.074-.124-2.134-.234-3.194-.358-2.107-.22-4.186-.426-6.237-.605-9.196-.799-17.759-1.171-25.717-1.171-15.46 0-28.6491 1.391-39.828 3.607-1.184.234-2.3267.469-3.4556.716-1.1289.248-2.244.51-3.3316.785-1.6383.399-3.2215.812-4.7634 1.253-1.0188.289-2.0375.578-3.015.881-.9912.303-1.9549.606-2.8911.922-.9499.317-1.8723.634-2.781.95-.4543.165-.8948.317-1.3354.496-.8811.33-1.7484.661-2.5882.991-.4268.165-.8398.331-1.2528.51-.826.344-1.6383.688-2.423 1.032-.3855.179-.7847.358-1.1702.523-.771.358-1.5144.702-2.244 1.046-6.209 3.002-11.0963 6.141-14.8684998 9.004-.4406.331-.8674.661-1.2804.991-.6883.551-1.3491 1.102-1.9549 1.625-.1101.11-.2203.193-.3304.289-.0138.014-.0413.028-.0551.041-.0413.028-.0688.069-.1101.097-.0826.069-.1514.137-.234.206-.2203.207-.4544.399-.6609.592-3.34540002 3.029-5.6858 5.645-7.5443 8.908-2.8085 4.914-3.7309 8.315-3.7309 8.315 10.9861 25.056 26.6805998 48.102 46.5878998 68.023.1101.11.234.22.3441.331 0 0 .0138.013.0276.027.1101.124.2202.234.3304.344 40.3098 40.338 93.3688 63.301 150.0748 65.174 4.117 9.127 12.418 21.559 26.777 19.976 0 0 9.142 25.4 33.909 19.756 0 0 2.161 24.161 56.583 23.817 0 0-34.625-18.366-34.804-50.085-.055-9.018-1.597-17.181-4.763-24.561 32.091-10.614 61.525-28.553 86.251-52.975.372-.372.743-.73 1.115-1.102 14.263-14.263 26.35-30.136 36.111-47.193 17.085-29.875 26.997-63.425 28.842-98.463.028-.482.055-.963.069-1.445.496-3.69.881-7.035 1.198-9.981.798-7.572 5.039-14.304 11.413-18.462 22.798-14.869 63.301-51.558 50.14-86.623h.013z" fill="#141414"/><path d="m-8.5355598 263.99711c0-54.696 21.2839998-106.103 59.9281998-144.7882 10.9862-11 23.0188-20.595598 35.8498-28.690698 41.934-26.4604 97.526 1.8861 98.971 51.447898.028.95.042 1.913.042 2.891v154.384l19.59 3.607v-157.991c0-.991.014-1.969.042-2.946 1.487-49.548098 57.023-77.880798 98.971-51.447998 12.859 8.1089 24.905 17.718298 35.919 28.731998 13.67 13.6845 25.166 28.966 34.321 45.418 8.192.578 15.089 2.409 20.981 5.52 1.115.592 2.148 1.212 3.112 1.845-10.932-24.147-26.254-46.3675-45.542-65.669-22.316-22.330298-48.543-39.346398-77.123-50.401398-1.432-.5507-2.864-1.0876-4.296-1.6107-3.799-1.3768-7.64-2.6571-11.523-3.8273-7.434-2.24404-14.978-4.08883-22.647-5.54815-10.669-2.02376-21.545-3.27657-32.559-3.717115-3.125-.137671-6.264-.206507-9.417-.206507-3.152 0-6.332.06884-9.485.206507-10.972.454315-21.793 1.693355-32.408 3.703355-7.682 1.44554-15.254 3.3041-22.688 5.54811-3.91 1.1702-7.778 2.4506-11.606 3.8548-1.431.5232-2.877 1.0601-4.295 1.6108-28.567 11.055-54.7793 28.0573-77.0958 50.387598-42.0721998 42.127-65.256044 98.132-65.256044 157.688 0 21.505 3.014994 42.527 8.866014 62.627 1.78973-2.12 4.28153-4.763 7.58563-7.655 2.3955002-2.092 4.9287002-4.088 7.6270002-5.988-3.8685-15.846-5.8648-32.257-5.8648-48.97z" fill="#3ccd64"/></g></svg>