<svg width="65" height="64" viewBox="0 0 65 64" fill="none" xmlns="http://www.w3.org/2000/svg">
<g clip-path="url(#clip0)">
<rect x="0.45752" width="63.9829" height="63.9803" rx="3.7939" fill="white"/>
<path d="M49.328 33.9651C49.328 36.5311 48.7391 38.8868 47.5613 41.0321C46.3834 43.1354 44.5746 44.8391 42.1348 46.1431C39.695 47.4472 36.6663 48.0992 33.0486 48.0992H26.3602V64H15.5703V19.7048H33.0486C36.5821 19.7048 39.5688 20.3148 42.0086 21.5347C44.4484 22.7546 46.2783 24.4372 47.4982 26.5826C48.7181 28.7279 49.328 31.1888 49.328 33.9651ZM32.2283 39.5178C34.2895 39.5178 35.8249 39.034 36.8345 38.0665C37.8441 37.099 38.3489 35.7319 38.3489 33.9651C38.3489 32.1983 37.8441 30.8312 36.8345 29.8637C35.8249 28.8962 34.2895 28.4124 32.2283 28.4124H26.3602V39.5178H32.2283Z" fill="black"/>
<path d="M49.3285 8.48315H15.5708V15.6118H49.3285V8.48315Z" fill="#E50913"/>
</g>
<defs>
<clipPath id="clip0">
<rect x="0.45752" width="64" height="64" fill="white"/>
</clipPath>
</defs>
</svg>
