<svg height="10.17701mm" viewBox="0 0 10.175247 10.17701" width="10.175247mm" xmlns="http://www.w3.org/2000/svg" xmlns:xlink="http://www.w3.org/1999/xlink"><linearGradient id="a" gradientTransform="matrix(1 0 0 -1 0 102)" gradientUnits="userSpaceOnUse" x1="6.2482" x2="41.542301" y1="82.106697" y2="73.283203"><stop offset="0" stop-color="#5084e9"/><stop offset="1" stop-color="#6f50e9"/></linearGradient><linearGradient id="b" gradientTransform="matrix(1 0 0 -1 0 102)" gradientUnits="userSpaceOnUse" x1="-2.2372" x2="33.0569" y1="90.592102" y2="81.7686"><stop offset="0" stop-color="#e95062"/><stop offset="1" stop-color="#e950d0"/></linearGradient><linearGradient id="c" gradientTransform="matrix(1 0 0 -1 0 102)" gradientUnits="userSpaceOnUse" x1="6.9969" x2="32.3083" y1="85.101799" y2="78.773903"><stop offset="0" stop-color="#5084e9"/><stop offset="1" stop-color="#e95062"/></linearGradient><g fill="none" stroke-width="4" transform="matrix(.26458333 0 0 .26458333 -.11188 -.22036)"><path d="m33.09 33.5c-5.08 5.08-13.31 5.08-18.38 0-5.08-5.08-5.08-13.31 0-18.38 5.08-5.08 13.31-5.08 18.38 0 5.07 5.07 5.07 13.3 0 18.38z" stroke="url(#a)"/><path d="m24.6 25.01c-5.08 5.08-13.31 5.08-18.38 0-5.08-5.08-5.08-13.31 0-18.38 5.08-5.08 13.31-5.08 18.38 0 5.08 5.07 5.08 13.31 0 18.38z" stroke="url(#b)"/><path d="m24.6 25.01c-3.54 3.54-8.63 4.62-13.11 3.21-1.41-4.48-.34-9.56 3.21-13.11 3.54-3.54 8.63-4.62 13.11-3.21 1.41 4.48.34 9.57-3.21 13.11z" stroke="url(#c)"/></g></svg>