<svg viewBox="0 0 53 53" fill="none" xmlns="http://www.w3.org/2000/svg" color="white">
    <path
        d="M10.555 35.18C9.2 36.375 7.902 37.483 6.604 38.62c-.113.114-.254.142-.395.17-.79.085-1.524.341-2.173.824-.254.2-.396.142-.565-.142a28.323 28.323 0 01-1.75-3.608.667.667 0 010-.569c.48-1.278.932-2.557 1.383-3.836.057-.199.085-.454.424-.256 2.314 1.308 4.656 2.615 7.027 3.979zM18.57 1.963c.197 0 .281.114.394.227 1.327 1.137 2.625 2.302 3.98 3.439.253.227.225.312-.057.454-2.23 1.25-4.43 2.5-6.632 3.751-.226.142-.339.114-.423-.142a338.342 338.342 0 01-1.75-4.887c-.17-.455.17-1.194.62-1.393 1.158-.54 2.371-.994 3.613-1.335.085-.057.198-.086.254-.114zM49.583 33.703l-.084.34A26.04 26.04 0 0147.1 39.5c-.198.312-.282.37-.593.113a343.76 343.76 0 00-4.854-4.205c-.254-.199-.225-.284.029-.426 2.2-1.25 4.43-2.5 6.631-3.751.142-.085.31-.228.424.085.254.767.536 1.506.818 2.273 0 .029 0 .057.028.114zM33.865 28.702c.112.284-.057.454-.34.597a226.031 226.031 0 00-4.458 2.529c-.339.198-.451.198-.593-.2-.197-.51-.112-.852.198-1.278 1.213-1.563 2.399-3.183 3.612-4.774.113-.17.198-.454.424-.398.225.086.451.256.536.54.225.966.564 1.904.62 2.984zM29.688 12.164c.198-.795.593-1.506.988-2.188a22.53 22.53 0 013.527-4.631c.254-.256.367-.285.508.085.339.966.678 1.932 1.044 2.898.085.227.085.341-.14.483a400.758 400.758 0 00-5.927 3.353zM39.17 23.559c1.1-1.535 2.173-3.04 3.274-4.575.112-.17.282-.228.451-.256 1.92-.37 3.81-.767 5.729-1.137.141-.028.31-.142.395.114.085.256-.085.284-.226.37-3.189 1.847-6.378 3.722-9.566 5.569-.029-.028-.029-.057-.057-.085zM37.138 22.394c0 .596-.084.653-.593.37-2.793-1.62-5.587-3.24-8.353-4.86l-.17-.085c-.112-.057-.197-.142-.168-.256.056-.17.197-.057.282-.057 1.298.256 2.596.512 3.866.767.762.143 1.524.313 2.286.455.226.057.423.142.564.341.706.995 1.411 1.96 2.117 2.955.113.114.197.228.17.37zM18.795 29.497c-.085-.028-.17-.085-.254-.113-.734-.398-1.44-.824-2.173-1.222-.339-.17-.282-.284-.028-.511l5.503-4.774c.169-.17.282-.2.48 0 .169.17.282.284.14.568-.846 1.392-1.665 2.813-2.483 4.234-.31.511-.593 1.051-.903 1.563-.056.085-.113.227-.282.255zM34.034 18.302c-2.145-.426-4.205-.853-6.265-1.25-.198-.029-.395-.057-.564-.114-.452-.114-.678-.597-.424-.995.452-.738.931-1.449 1.383-2.188.17-.255.31-.34.564-.113 1.722 1.477 3.415 2.983 5.136 4.461.085.028.085.057.17.199zM42.472 18.387c-.282-.256-.621-.483-.875-.796-.17-.198.113-.34.226-.454a25.286 25.286 0 003.386-5.37c.226-.455.282-.484.593-.057.508.71.96 1.449 1.41 2.188.114.198.114.312-.056.454-1.495 1.279-2.991 2.586-4.487 3.865-.028.028-.084.085-.197.17zM15.352 10.204c.028.17-.113.198-.226.284-.508.312-1.044.596-1.58.88-.17.086-.31.114-.508.029-.536-.313-1.072-.625-1.609-.91-.169-.085-.197-.198-.14-.397.62-1.677 1.213-3.353 1.805-5.03.029-.085.029-.255.198-.255.113 0 .141.113.17.199a365.61 365.61 0 011.805 5.086c.057.057.057.085.085.114zM24.27 19.098c-.537.767-1.101 1.42-1.524 2.16-.452.766-1.073 1.107-1.947 1.25-1.891.312-3.726.738-5.588 1.108-.141.028-.282.085-.48 0 .931-.54 1.834-1.08 2.737-1.592 1.355-.795 2.738-1.534 4.036-2.387.818-.54 1.721-.54 2.766-.54zM36.884 23.644c-.903-.17-1.75-.341-2.624-.54-.283-.085-.254-.426-.339-.653-.226-.682-.282-.74-.79-.313-.706.625-1.468.483-2.286.34-.705-.113-1.213-.425-1.58-1.05-.48-.768-1.044-1.478-1.553-2.188-.056-.086-.112-.142-.169-.228a.733.733 0 01.113-.795c.141-.17.339.056.48.142 2.794 1.62 5.588 3.24 8.353 4.859.198.085.395.113.395.426zM38.465 2.134v4.83c0 .2-.085.284-.226.37-.508.284-.988.54-1.496.852-.226.142-.339.142-.452-.142-.366-1.051-.733-2.131-1.128-3.183-.057-.17-.057-.312.084-.426.96-.88 2.004-1.62 3.218-2.301zM25.06 25.462l-.141.285c-.96 1.705-1.948 3.41-2.907 5.114-.141.285-.282.341-.564.17-.424-.255-.847-.51-1.27-.738-.226-.113-.283-.199-.113-.426 1.241-1.762 2.483-3.524 3.697-5.314.113-.17.197-.227.366-.057.255.256.509.455.762.682.085.086.17.142.17.284zM12.643 4.492c-.65 1.847-1.27 3.552-1.891 5.285-.085.228-.197.2-.367.114-.818-.483-1.637-.938-2.455-1.392-.198-.114-.282-.2-.085-.398 1.44-1.364 2.963-2.558 4.798-3.609zM43.262 18.188c.931-.795 1.862-1.62 2.794-2.415.395-.341.818-.682 1.213-1.051.198-.2.31-.228.452.056.31.71.649 1.421.988 2.132.084.198.056.284-.17.34-1.75.341-3.5.71-5.249 1.052 0-.057 0-.085-.028-.114zM38.606 23.587c.112-.852.338-1.648.282-2.5-.028-.71.197-1.222.762-1.677.508-.398.903-.88 1.354-1.335.198-.2.31-.256.537-.057.705.625.705.596.169 1.364-.931 1.278-1.834 2.585-2.766 3.864-.084.114-.14.256-.338.341zM26.81 24.866c-.057-1.932.169-3.666.564-5.513.734 1.023 1.41 1.96 2.088 2.899.057.085.085.17 0 .255a88.515 88.515 0 00-2.653 2.359zM26.414 27.793c.198.568.395 1.08.565 1.562.084.2.028.341-.085.512-.592.938-1.185 1.875-1.75 2.841-.14.256-.282.285-.507.114 0 0-.029-.028-.057-.028-.875-.512-.762-.284-.451-1.165.197-.597.366-1.25.705-1.762.451-.71 1.016-1.336 1.58-2.074zM39.988 39.358c1.411.284 2.822.568 4.262.852.564.114 1.157.227 1.721.341.31.057.339.17.17.398-.283.398-.593.796-.875 1.193-.113.17-.198.256-.424.142-1.608-.937-3.245-1.875-4.854-2.813v-.113zM1.298 34.555c-.395-1.08-.62-2.074-.818-3.068-.085-.455-.141-.938-.226-1.393-.028-.17-.028-.312.141-.426.17-.085.282-.085.452 0 .508.313 1.044.597 1.58.91.141.085.282.141.198.369-.424 1.165-.847 2.33-1.327 3.608zM20.037 34.356c-.48-.738-.932-1.42-1.383-2.102-.085-.142-.057-.256.028-.398.282-.398.564-.767.818-1.165.113-.17.226-.227.424-.114.48.284.96.569 1.439.824.141.086.254.142.141.341-.452.824-.931 1.705-1.468 2.614zM34.485 23.53c.734.142 1.44.284 2.145.455.198.028.141.17.113.313a21.31 21.31 0 01-.931 2.67c-.085.228-.198.285-.367.086-.113-.114-.226-.227-.282-.398-.254-.966-.536-1.932-.79-2.87-.057-.114-.113-.256.112-.256zM27.487 28.9c-.198-.567-.424-1.05-.536-1.562-.085-.37.225-.654.536-.767.536-.228 1.129-.37 1.806-.597a265.286 265.286 0 01-1.806 2.927zM30.76 23.502c-1.1.568-2.173.994-3.302 1.279.734-.682 1.496-1.336 2.23-2.018.113-.114.198-.028.282.057.254.199.508.426.79.682zM23.338 16.142c.819-.596 1.552-1.108 2.456-1.563 0 .455.028.853 0 1.25-.029.228-.762.654-.988.626a19.76 19.76 0 01-1.468-.313zM.395 22.11c.113.454.057.795.057 1.108v5.598c0 .198.084.454-.283.511-.282-2.387-.197-4.745.226-7.218zM21.673 17.591c.367-.454.734-.71 1.073-.994.084-.085.197-.114.31-.085.593.113 1.185.199 1.778.34.226.058.282.228.056.37-.197.142-.423.256-.677.256-.79 0-1.608.028-2.54.113zM17.948 31.089l-1.58-2.472c.028-.029.028-.057.056-.057.706.398 1.383.795 2.089 1.165.169.085.14.199.056.312-.17.341-.367.682-.62 1.052zM32.764 50.78c.395-.596.762-1.221 1.157-1.818.17-.256.367-.057.536.028a.218.218 0 01.057.142c.451.967.451.967-.537 1.308-.366.142-.761.255-1.157.397l-.056-.056zM24.975 19.126c-.705 1.193-1.383 2.33-2.032 3.495-.084.142-.17.17-.282.028-.141-.142-.31-.227-.113-.454.508-.654.96-1.336 1.468-2.018.197-.284.395-.568.592-.824.057-.142.085-.284.367-.227zM27.769 13.699A97.057 97.057 0 0026.302 16c-.057 0-.085-.028-.142-.028v-1.478c0-.057.085-.142.142-.17.451-.228.902-.455 1.467-.625zM50.317 30.123c-.056.852-.254 1.59-.452 2.472-.225-.625-.423-1.137-.592-1.648-.056-.142 0-.256.113-.341.31-.142.592-.313.931-.483zM25.173 24.866c-1.044-.767-1.044-.767-.395-1.705.113-.142.225-.313.395-.568v2.273zM11.966 39.471c-.452.256-.904.569-1.383.796-.367.17-.424-.256-.762-.455.762-.17 1.41-.284 2.088-.426 0 .028.028.057.056.085zM24.608 45.836c-.564-.113-1.1-.199-1.665-.312-.084-.029-.254-.029-.226-.114.029-.17.113-.37.226-.511.057-.114.17 0 .254.056.48.285.96.569 1.468.853-.028-.029-.057 0-.057.028zM26.612 33.078c.367-.483.734-.966 1.1-1.478.396.739.396.739-.225 1.08-.282.17-.565.313-.847.455 0 0 0-.029-.028-.057zM24.721 1.707c-.705-.142-1.326-.255-1.975-.397.705-.285 1.326-.2 1.975.397zM31.607 22.99c-.536.54-.762.114-1.016-.198.339.056.65.113 1.016.198zM47.072 24.78c.056 0 .14 0 .197.029.029-.057.085-.142.113-.199.621-1.307 1.214-2.643 1.89-3.921.368-.682.34-1.25.114-1.933-.141-.397-.254-.426-.593-.227-2.709 1.591-5.418 3.154-8.155 4.746-.452.255-.875.511-1.44.852 2.088.398 4.036.767 5.955 1.137.31.056.62.142.903.142.226-.37.592-.625 1.016-.625zM49.865 20.518a748.835 748.835 0 01-2.003 4.234.639.639 0 00-.085.284c.254.2.423.512.423.881 0 .341-.169.654-.395.853 0 .085.029.17.057.284.31.852.62 1.705.931 2.586.282.767.254.71.96.397.536-.255.733-.596.733-1.165 0-.596.085-1.221.085-1.818.056-2.188-.17-4.29-.706-6.536zM46.564 26.912c0 .028-.029.028-.029.056-.31.455-.592.938-.902 1.393l-3.895 6.052.085.086c2.173-1.222 4.318-2.444 6.49-3.666.142-.085.198-.199.142-.37-.424-1.136-.819-2.301-1.242-3.438H47.1c-.198.029-.367-.028-.536-.113zM38.295 40.324l-3.132 6.649c-.085.199-.057.313.056.483.198.256.282.625.113.88-.31.427-.141.768 0 1.166.085.284.198.34.48.199.79-.37 1.552-.796 2.342-1.222.254-.142.31-.313.31-.597v-3.58-4.092c-.028 0-.056-.028-.112-.028 0 .085-.057.113-.057.142zM46.62 40.324c-.056-.142-.056-.2-.084-.228-1.75-1.506-3.472-3.012-5.221-4.518-.226-.199-.31-.028-.395.114-.508.767-.988 1.535-1.468 2.302-.028.028-.028.056-.056.113.282.2.451.483.48.853 1.75.37 3.527.71 5.277 1.051.48.114.96.2 1.467.313zM38.831 48.053c.96-.597 1.806-1.25 2.625-1.932.226-.2.056-.37 0-.512-.452-.938-.875-1.904-1.327-2.842-.395-.852-.79-1.676-1.185-2.529-.028 0-.084 0-.113.029v7.786zM39.226 37.653l4.149-6.479c.96-1.478 1.89-2.984 2.85-4.461l.028-.029a1.16 1.16 0 01-.282-.767v-.085h-.056c-2.173-.426-4.346-.88-6.491-1.307-.564-.114-.564-.114-.564.483v12.56c0 .113-.029.227 0 .369.056 0 .112.028.197.028.057-.113.113-.199.17-.312zM44.504 42.569c-1.58-.91-3.161-1.819-4.741-2.757-.029-.028-.057-.028-.085-.057a1.622 1.622 0 01-.31.313v.028c.846 1.762 1.693 3.496 2.54 5.257.112.228.197.228.366.057.819-.739 1.58-1.563 2.314-2.387.226-.256.141-.34-.084-.455zM30.676 36.26c.056-.056.084-.17.14-.255.876-1.364 1.722-2.785 2.682-4.12.536-.768.677-1.507.423-2.416-.085.028-.113.028-.17.057-1.58.88-3.132 1.79-4.712 2.671-.254.142-.226.313-.141.511.395 1.052.762 2.132 1.129 3.183.028.085.056.142.084.199h.029c.197.028.366.085.536.17zM38.465 24.951a.399.399 0 00-.17-.057c-.705 2.899-2.399 5.257-3.95 7.758-.198-.341-.114-.654-.227-1.052-1.072 1.648-2.088 3.268-3.104 4.86 0 .028-.028.028-.028.056.141.17.198.398.198.625v.029c.056.028.113.056.197.085 2.06.426 4.149.852 6.209 1.25.028 0 .056 0 .084.029.17-.313.452-.54.79-.626v-.17-12.36-.427zM26.245 47.229a.551.551 0 00-.085.284v2.017c0 .654.029 1.307 0 1.96-.028.399.142.484.508.484 1.75-.085 3.443-.37 5.137-.824.225-.057.395-.142.507-.341.424-.682.875-1.336 1.299-2.017.225-.37.056-.768-.367-.853a458.633 458.633 0 00-6.068-1.222h-.14c-.227.256-.48.455-.791.512zM25.257 45.154s0-.028-.028-.028l-1.778-3.666-1.185-2.472c-.395.284-.48.483-.141.91.988 1.164 1.326 2.528 1.044 4.034-.056.341.028.54.339.682.48.256.93.54 1.41.796.029 0 .057.029.057.057a.981.981 0 01.282-.313zM24.919 48.28c-.057.085-.085.17-.029.284.395 1.052.424 2.103.142 3.183-.029.085-.085.227.056.255.197.029.395.057.593 0 .225-.056.14-.255.14-.426v-3.438-.88a.4.4 0 01-.169-.058c-.282.37-.508.71-.733 1.08zM24.806 46.263c-.79-.171-1.58-.313-2.37-.483-.029.028-.029.085-.057.113.96.455 1.665 1.165 2.23 2.075.112-.143.169-.228.253-.342.113-.17.226-.312.31-.483.029-.028.029-.085.029-.142a1.451 1.451 0 01-.395-.738zM37.703 39.699c-.085.028-.142.085-.198.113-.903.512-1.806 1.052-2.71 1.563-2.539 1.478-5.107 2.955-7.647 4.433h-.028c.028.085.028.17.028.227 0 .086 0 .17-.028.256h.113l2.201.426c1.354.256 2.68.512 4.12.767.282 0 .423-.426.762-.426.198 0 .31-.142.395-.312 1.044-2.217 2.117-4.405 3.19-6.621.027-.057.055-.114.084-.2a.388.388 0 01-.282-.226zM29.434 38.25c.056-.114.085-.2.056-.285-.225-.199-.395-.483-.395-.795 0-.313.141-.626.395-.796 0-.028 0-.057-.028-.085-.423-1.165-.846-2.359-1.298-3.58-.536.312-1.044.625-1.58.88-.339.17-.48.398-.48.796 0 3.438 0 6.876-.028 10.343 0 .057-.029.142 0 .199.056 0 .113.028.169.028 1.1-2.244 2.145-4.46 3.189-6.706zM26.979 45.467l.028-.029c2.314-1.335 4.656-2.699 6.97-4.035 1.158-.681 2.315-1.335 3.472-2.017a.213.213 0 01.112-.057c-.028-.085-.028-.142-.028-.227 0-.057 0-.142.028-.199-.056 0-.14 0-.197-.028a27.813 27.813 0 00-1.637-.313c-1.524-.284-3.048-.568-4.6-.88h-.084c-.17.312-.508.539-.903.539h-.057a1.194 1.194 0 00-.254.398c-1.044 2.188-2.088 4.347-3.132 6.535v.029c.112.057.197.17.282.284zM25.737 34.243c-1.044 1.42-2.032 2.7-2.991 3.978-.141.199-.085.37 0 .54.338.71.677 1.42.987 2.131.621 1.336 1.27 2.7 1.891 4.035.028 0 .057-.028.113-.028V34.243zM14.11 25.036a.855.855 0 00.113.228c.423.682.875 1.335 1.298 2.017.198.341.339.313.621.085 1.016-.909 2.06-1.79 3.104-2.7.706-.624 1.411-1.22 2.23-1.931-.226.028-.282.056-.367.056-2.145.427-4.261.853-6.406 1.28a.52.52 0 00-.198.056c0 .398-.14.71-.395.91zM3.697 26.002c0-.369.17-.71.451-.909a.76.76 0 00-.084-.34c-.593-1.223-1.157-2.445-1.75-3.695-.367-.71-.705-1.449-1.1-2.302-.254.768-.452 1.393-.452 2.103.028 2.33.085 4.689 0 7.019-.028.966.17 1.648 1.129 1.96.17.057.338.171.508.285.31.227.451.199.592-.2.31-.965.678-1.931 1.045-2.898.028-.056.028-.113.056-.17a1.068 1.068 0 01-.395-.853zM4.656 27.139a101.611 101.611 0 01-1.128 3.126c-.113.312-.085.483.225.653.988.512 1.92 1.08 2.907 1.62l3.471 1.96c.028-.028.057-.056.057-.085-1.58-2.472-3.19-4.972-4.77-7.444-.169.113-.367.17-.592.17h-.17zM5.785 25.434h.057c2.088-.398 4.148-.796 6.236-1.193v-.114c0-.142.029-.256.057-.37-1.1-.625-2.173-1.278-3.274-1.903-2.286-1.336-4.571-2.643-6.857-3.978-.141-.086-.283-.285-.452-.086a.432.432 0 00-.028.54.218.218 0 01.056.142c.847 1.762 1.694 3.524 2.568 5.286.198.369.31.824.593 1.108h.056c.424.028.79.227.988.568zM16.368 15.176c0-.37.17-.682.423-.88 0-.03-.028-.086-.028-.114-.395-1.052-.762-2.132-1.129-3.183-.085-.256-.226-.284-.423-.142-.48.284-.988.568-1.496.853a.441.441 0 00-.254.426v10.968c.057-.057.085-.057.113-.085 1.072-2.273 2.117-4.518 3.189-6.791.028-.057.028-.086.056-.114-.282-.256-.451-.597-.451-.938zM18.033 14.153c.028-.028.028-.085.056-.113.537-.824 1.073-1.677 1.609-2.501 1.044-1.62 2.088-3.24 3.132-4.887-.084-.029-.112-.057-.112-.029-2.145 1.194-4.29 2.415-6.407 3.609-.197.114-.197.227-.113.398.424 1.108.819 2.245 1.214 3.353 0 .028.028.028.028.057h.085c.17 0 .339.028.508.113zM17.497 16.313c-.057 0-.141 0-.198-.029-.028.057-.084.143-.113.2l-2.37 4.944c-.283.568-.536 1.136-.819 1.704.113.086.198.171.254.256l6.604-3.836c0-.028-.028-.085-.028-.113-1.13.227-2.23.454-3.359.71-.028-.029-.056-.085-.084-.114 1.129-1.307 2.258-2.614 3.386-3.978-.762-.142-1.467-.284-2.173-.426-.028 0-.084 0-.113-.029-.14.427-.536.71-.987.71zM8.212 14.38C7.45 13.16 6.66 11.938 5.87 10.716c-.17-.256-.254-.199-.423 0-.31.426-.65.853-.96 1.307-.903 1.336-1.721 2.756-2.37 4.29.056.03.084.058.112.03 1.891-.37 3.782-.74 5.645-1.137v-.057c.028-.284.14-.569.338-.767zM9.2 14.04a.218.218 0 00.056-.142c.367-1.08.762-2.16 1.157-3.24.113-.256.029-.37-.197-.511-.875-.483-1.722-.966-2.596-1.478-.057-.028-.142-.085-.226-.114-.141 0-.198.114-.282.2-.31.34-.621.681-.932.994-.197.199-.225.398-.056.653.79 1.194 1.552 2.387 2.314 3.58a.216.216 0 01.056.114c.141-.056.31-.113.48-.113.113.057.17.057.226.057zM8.015 15.66h-.17c-1.862.369-3.725.71-5.616 1.079-.225.057-.395.114-.451.37-.085.312.197.312.339.369 2.37 1.392 4.74 2.756 7.083 4.12 1.016.597 2.06 1.194 3.076 1.79a.802.802 0 01.282-.256c-.028-.028-.028-.056-.056-.085-.903-1.847-1.778-3.722-2.681-5.57-.198-.397-.339-.852-.621-1.193-.057 0-.113.029-.198.029-.423 0-.818-.284-.987-.654zM13.038 11.88c-.282-.483-1.044-.682-1.58-1.023-.283-.199-.396-.142-.508.199-.367 1.023-.734 2.074-1.101 3.097a.486.486 0 00-.028.2c.226.198.367.51.367.823 0 .341-.142.625-.367.853 0 .113.056.199.084.312.339.682.65 1.364.96 2.046.705 1.506 1.41 3.04 2.116 4.547.029 0 .085-.029.142-.029V13.7c0-.597.197-1.336-.085-1.819zM37.872 14.437c0-.397-.282-.71-.367-1.136-.818.852-1.637 1.023-2.37.597-.706-.427-1.045-1.25-.79-2.046.253-.853.987-1.25 2.2-1.165-.169-.483-.338-.938-.48-1.393-.084-.256-.197-.284-.422-.142-.65.398-1.327.767-2.004 1.137-1.355.767-2.738 1.534-4.092 2.301-.565.313-.621.74-.141 1.137 1.665 1.45 3.358 2.87 4.995 4.348.31.255.451.227.705-.029a58.343 58.343 0 011.976-1.762c.225-.198.48-.397.592-.653a.94.94 0 01-.113-.483c.029-.256.142-.512.31-.71zM43.657 10.317c-.677-.37-1.383-.739-2.032-1.165-.282-.17-.367-.114-.48.17-.564 1.62-1.157 3.24-1.721 4.831a1.969 1.969 0 00-.085.228c.198.198.31.454.31.738 0 .2-.056.37-.14.512.084.199.367.284.508.483.197.256.366.227.564-.029a22.263 22.263 0 003.274-5.228c.113-.227.084-.398-.198-.54zM38.747 14.125c.056-.085.056-.2.113-.284a320.331 320.331 0 011.721-4.746c.028-.113.085-.227.113-.34.028-.114-.085-.143-.17-.2-.564-.312-1.128-.625-1.693-.966-.14-.085-.282-.057-.395.029-.536.312-1.072.625-1.608.909-.226.114-.254.227-.17.455.593 1.62 1.157 3.239 1.75 4.83.028.086.028.228.085.313h.253zM38.013 16c-.028.029-.056.029-.113.085-.875.796-1.778 1.592-2.653 2.387-.112.114-.197.2-.084.37.649.91 1.298 1.818 2.032 2.841a7.768 7.768 0 00.056-1.96c-.028-.256.056-.427.254-.597.677-.54 1.326-1.165 1.947-1.79.65-.682.65-.682-.113-1.25-.056-.029-.084-.057-.14-.086-.17.142-.396.2-.622.2-.197 0-.395-.086-.564-.2zM19.641 34.442c-.366-.54-.733-1.08-1.044-1.648-.197-.341-.31-.313-.536 0-.96 1.42-1.947 2.813-2.935 4.234-.282.426-.592.824-.875 1.25.057.085.085.17.113.256 1.185-.228 2.37-.483 3.556-.71.197-.03.254-.171.339-.313.451-.824.903-1.62 1.382-2.416.142-.255.142-.454 0-.653zM12.473 38.05c-.028-.056-.028-.113-.084-.17-.452-.71-.931-1.42-1.355-2.16-.17-.312-.31-.255-.536-.056a112.24 112.24 0 01-2.766 2.415c-.225.199-.423.37-.705.625.847.085 1.58.284 2.201.682.17.114.339.085.508.057l2.201-.426c.085-.029.17-.057.226-.114v-.057c0-.312.113-.597.31-.795zM13.066 39.954c-.339.512-.734.966-1.129 1.45-.226.255-.592.511-.508.909.113.511.17 1.023.17 1.591.592-.256 1.157-.483 1.777-.568.226-.029.226-.2.198-.37-.028-.511.028-1.051.254-1.477.339-.625.141-1.052-.254-1.535l-.028-.028c-.113.028-.198.057-.31.057-.029 0-.085-.029-.17-.029zM12.473 39.642c-.31.17-.62.34-.93.54-.876.511-.876.511-.368 1.42 0 .029.057.029.085.057l1.355-1.875a.342.342 0 00-.142-.142zM15.07 39.5c.423-.398.903-.682 1.354-1.023-.677.142-1.354.256-2.032.398a.914.914 0 01-.084.397c.226.2.649.341.762.228zM13.94 39.755c.114.142.199.285.283.398.085.142.17.17.282 0 .085-.113.17-.227-.028-.312-.141-.057-.254-.17-.423-.228 0 .057-.057.114-.113.142zM14.082 37.71c1.157-1.961 2.286-3.922 3.443-5.883.17-.255.141-.454-.028-.71-1.214-1.847-2.399-3.722-3.584-5.57-.057-.085-.085-.227-.17-.283-.084.028-.197.056-.282.085-.056.113 0 .256 0 .37V37.51c0 .056 0 .142.028.17.198.029.367.114.508.227.029-.028.057-.142.085-.199zM13.094 37.482V31.63 26.57c0-.427.057-.853-.14-1.222a1.172 1.172 0 01-.763-.654c-.113-.056-.254-.056-.423-.028a389.32 389.32 0 01-5.588 1.136l-.254.086v.142c0 .256-.084.511-.254.71 0 .029.029.057.029.057l6.942 10.826.113.228c.084-.057.197-.086.31-.114.056-.085.028-.199.028-.256zM21.843 36.118c.028-.057.056-.085.084-.17.367-1.08.79-2.16 1.157-3.24.029-.113.198-.284 0-.397-.225-.114-.282.113-.366.227-.509.654-1.017 1.307-1.524 1.989-.593.796-.593.938.056 1.676l.028.029c.141-.085.31-.114.508-.114h.057zM22.83 36.43c.593-.937 1.157-1.903 1.75-2.812.198-.284.057-.37-.17-.512-.648-.398-.648-.398-.93.341 0 .029-.029.057-.029.085-.31.881-.62 1.79-.96 2.672a.53.53 0 00-.056.198c.085.086.17.17.226.256.113-.057.141-.142.17-.227zM20.94 36.516c-.113-.256-.31-.511-.48-.767-.085-.142-.17-.029-.226.057a74.28 74.28 0 00-1.41 1.847c.648-.142 1.184-.285 1.749-.341.056 0 .084-.029.113-.029v-.056c0-.285.084-.54.254-.71zM20.799 37.681c-.734.114-1.468.256-2.202.398.79.114 1.524.256 2.173.682.395.256.593.17.734-.227.028-.086.113-.2.141-.285-.367 0-.677-.227-.846-.568zM26.189 3.327c-.029.085-.029.142-.029.227v7.73c0 .397-.169.937.113 1.164.141.142.678-.227 1.073-.34.423-.114.649-.342.818-.74A24.184 24.184 0 0131.635 5.8c.564-.682 1.157-1.307 1.778-1.989-.113-.028-.17-.085-.254-.085-1.947-.398-3.894-.796-5.842-1.165-.113-.029-.254 0-.366.028-.142.37-.424.625-.762.739zM24.806 2.304c0-.057 0-.114.028-.17a1.058 1.058 0 00-.451-.114c-.367-.028-.706-.114-1.045-.199-1.383-.341-2.737-.568-4.148.114l4.148 3.58c.17.142.226.085.31-.057.509-.795.989-1.563 1.496-2.358a1.126 1.126 0 01-.338-.796zM34.175 2.673c-1.637-.596-3.302-1.05-5.051-1.307-.706-.113-1.383-.199-1.976.313-.085.085-.226.114-.282.199.028.085.056.17.056.256.085.056.198.056.31.056 2.033.398 4.065.768 6.096 1.165.17.029.31.086.452-.085.17-.227.423-.284.705-.398-.084-.142-.225-.17-.31-.199zM26.612 1.48c.197.028.367-.142.564-.341-.903-.085-1.693-.085-2.596-.085.226.17.423.34.62.37.198-.143.424-.228.678-.228.282 0 .536.114.734.284zM25.342 3.47l-4.91 7.671c-.678 1.052-1.355 2.103-2.032 3.183-.028.028-.028.057-.057.085.17.199.282.455.282.767v.029c.029 0 .057.028.085.028.734.17 1.468.313 2.201.455.254.056.424-.029.621-.2a19.878 19.878 0 013.866-2.557c.283-.142.396-.312.396-.625-.029-1.449 0-2.87 0-4.319V3.611c0-.057.028-.142.028-.227-.141 0-.254-.057-.367-.085-.057.028-.085.113-.113.17zM41.738 3.782c0-.341.17-.654.395-.853 0-.028-.028-.057-.028-.085-.282-.568-.536-1.137-.79-1.677-.057-.085-.057-.227-.198-.227-.084.029-.17.057-.226.085-.592.256-1.157.512-1.75.768-.281.113-.338.284-.338.568.028.994 0 1.96 0 2.955 0 .625-.226 1.364.085 1.819.338.483 1.072.71 1.608 1.051.226.142.339.142.452-.142a140.4 140.4 0 011.129-3.154c.028-.114.056-.2.056-.284a1.053 1.053 0 01-.395-.824zM42.782 4.861c-.028.057-.084.114-.113.2l-1.185 3.324c-.085.227-.028.34.141.426.762.426 1.496.853 2.258 1.279.113.057.226.114.31-.057.31-.824.565-1.648.762-2.5.028-.114-.028-.2-.084-.313a103 103 0 00-1.468-2.273c-.056-.057-.085-.142-.141-.17a1.163 1.163 0 01-.452.084h-.028zM43.826 3.355h.254c.226-.056.452-.085.678-.142.677-.113.677-.113.705-.795L45.21.372c-.056-.17-.056-.398-.339-.37-.987.143-1.975.341-2.934.654-.17.057-.254.142-.142.313.367.54.48 1.221.875 1.733h.141c.452-.029.847.256 1.016.653zM44.306 3.725c-.084.028-.197.028-.282.057a.214.214 0 00-.113.056.995.995 0 01-.282.682c0 .029.028.029.028.057.452.74.931 1.45 1.44 2.245.197-.767.253-1.45.31-2.16.056-1.164.028-1.164-1.1-.937z"
        fill="#EE0707"></path>
</svg>