<?xml version="1.0" encoding="UTF-8" standalone="no"?>
<svg
   width="78.908997"
   height="74.407402"
   viewBox="0 0 78.908997 74.407402"
   fill="none"
   version="1.1"
   id="svg57"
   sodipodi:docname="logo.083f34b9ee03b73ac0f753f9d4c40330.svg"
   inkscape:export-filename="hon.svg"
   inkscape:export-xdpi="96"
   inkscape:export-ydpi="96"
   xmlns:inkscape="http://www.inkscape.org/namespaces/inkscape"
   xmlns:sodipodi="http://sodipodi.sourceforge.net/DTD/sodipodi-0.dtd"
   xmlns="http://www.w3.org/2000/svg"
   xmlns:svg="http://www.w3.org/2000/svg">
  <sodipodi:namedview
     id="namedview59"
     pagecolor="#ffffff"
     bordercolor="#000000"
     borderopacity="0.25"
     inkscape:showpageshadow="2"
     inkscape:pageopacity="0.0"
     inkscape:pagecheckerboard="0"
     inkscape:deskcolor="#d1d1d1"
     showgrid="false" />
  <g
     filter="url(#filter0_d_16_600)"
     id="g36"
     transform="translate(-139.703,-42.2976)">
    <path
       d="m 156.576,58.5826 c -3.059,3.3204 -5.394,7.3233 -6.766,11.7468 h 4.387 c 1.061,-2.9217 2.624,-5.5976 4.572,-7.9404 z"
       fill="#ffffff"
       id="path22"
       inkscape:export-filename="path22.svg"
       inkscape:export-xdpi="96"
       inkscape:export-ydpi="96" />
    <path
       d="m 154.192,88.6677 h -4.387 c 1.371,4.4235 3.712,8.4265 6.771,11.7473 l 2.193,-3.8069 c -1.954,-2.3373 -3.51,-5.0187 -4.577,-7.9404 z"
       fill="#ffffff"
       id="path24" />
    <path
       d="m 179.163,106.176 c -1.557,0 -3.086,-0.137 -4.567,-0.393 l -2.193,3.812 c 2.177,0.491 4.441,0.748 6.76,0.748 2.319,0 4.588,-0.257 6.76,-0.748 l -2.194,-3.812 c -1.48,0.256 -3.009,0.393 -4.566,0.393 z"
       fill="#ffffff"
       id="path26" />
    <path
       d="m 201.75,100.42 c 3.059,-3.3204 5.394,-7.3233 6.765,-11.7468 h -4.386 c -1.062,2.9162 -2.624,5.5976 -4.572,7.9404 z"
       fill="#ffffff"
       id="path28" />
    <path
       d="m 199.557,62.3945 c 1.948,2.3428 3.51,5.0187 4.572,7.9404 h 4.386 c -1.371,-4.4235 -3.712,-8.4265 -6.77,-11.7468 z"
       fill="#ffffff"
       id="path30" />
    <path
       d="m 179.163,52.8321 c 1.557,0 3.086,0.1365 4.566,0.3932 l 2.194,-3.8118 c -2.177,-0.4915 -4.441,-0.7482 -6.76,-0.7482 -2.319,0 -4.588,0.2567 -6.76,0.7482 l 2.193,3.8118 c 1.481,-0.2621 3.01,-0.3932 4.567,-0.3932 z"
       fill="#ffffff"
       id="path32" />
    <path
       d="m 162.868,96.1549 -8.469,14.7171 10.069,5.833 8.469,-14.712 c 1.981,0.551 4.071,0.846 6.226,0.846 2.155,0 4.245,-0.295 6.226,-0.846 l 8.464,14.712 10.069,-5.833 -10.543,-18.3215 c -3.521,3.8665 -8.588,6.2858 -14.221,6.2858 -9.944,0 -18.125,-7.5527 -19.159,-17.2516 h 9.411 c 0.958,4.5218 4.958,7.9186 9.748,7.9186 4.789,0 8.795,-3.3968 9.747,-7.9186 h 4.888 l 3.739,3.7517 h 21.08 V 73.6661 H 201.68 c -1.073,-4.1723 -3.261,-7.8913 -6.232,-10.8184 l 8.468,-14.7177 -10.069,-5.8324 -8.468,14.7122 c -1.982,-0.5516 -4.072,-0.8465 -6.227,-0.8465 -2.155,0 -4.245,0.2949 -6.226,0.8465 l -8.464,-14.7122 -10.069,5.8324 10.543,18.322 c 3.521,-3.8665 8.588,-6.2857 14.222,-6.2857 9.943,0 18.124,7.5527 19.158,17.2516 h -9.411 c -0.957,-4.5218 -4.958,-7.9186 -9.747,-7.9186 -4.79,0 -8.796,3.3968 -9.748,7.9186 h -4.888 l -3.739,-3.7518 h -21.08 v 11.6703 h 16.933 c 1.072,4.1723 3.26,7.8913 6.232,10.8185 z"
       fill="#ffffff"
       id="path34" />
  </g>
  <defs
     id="defs55">
    <filter
       id="filter0_d_16_600"
       x="0.093994103"
       y="0.297607"
       width="365.81201"
       height="202.78"
       filterUnits="userSpaceOnUse"
       color-interpolation-filters="sRGB">
      <feFlood
         flood-opacity="0"
         result="BackgroundImageFix"
         id="feFlood38" />
      <feColorMatrix
         in="SourceAlpha"
         type="matrix"
         values="0 0 0 0 0 0 0 0 0 0 0 0 0 0 0 0 0 0 127 0"
         result="hardAlpha"
         id="feColorMatrix40" />
      <feOffset
         dy="4"
         id="feOffset42" />
      <feGaussianBlur
         stdDeviation="23"
         id="feGaussianBlur44" />
      <feComposite
         in2="hardAlpha"
         operator="out"
         id="feComposite46" />
      <feColorMatrix
         type="matrix"
         values="0 0 0 0 0.797333 0 0 0 0 0.366667 0 0 0 0 1 0 0 0 1 0"
         id="feColorMatrix48" />
      <feBlend
         mode="normal"
         in2="BackgroundImageFix"
         result="effect1_dropShadow_16_600"
         id="feBlend50" />
      <feBlend
         mode="normal"
         in="SourceGraphic"
         in2="effect1_dropShadow_16_600"
         result="shape"
         id="feBlend52" />
    </filter>
  </defs>
</svg>
