<svg id="svg" version="1.1" xmlns="http://www.w3.org/2000/svg"
    xmlns:xlink="http://www.w3.org/1999/xlink" width="400" height="400" viewBox="0, 0, 400,400">
    <g id="svgg">
        <path id="path0"
            d="M188.400 60.678 C 125.092 65.550,72.431 113.805,61.775 176.706 C 60.648 183.358,60.586 184.754,61.368 185.824 C 61.926 186.588,63.547 186.603,163.868 186.800 C 276.331 187.021,267.544 186.804,268.722 189.389 C 269.374 190.820,269.388 208.749,268.738 210.176 C 267.533 212.820,277.166 212.579,164.068 212.800 C 63.549 212.997,61.926 213.012,61.368 213.776 C 59.437 216.416,63.868 236.738,69.484 251.000 C 95.700 317.582,167.798 353.628,236.802 334.651 C 306.913 315.370,350.848 244.123,336.586 172.834 C 322.690 103.371,259.094 55.238,188.400 60.678 "
            stroke="none" fill="#fbfbfc" fill-rule="evenodd"></path>
        <path id="path1"
            d="M152.800 0.289 C 151.650 0.494,150.720 1.205,151.620 1.190 C 151.939 1.185,152.897 1.019,153.749 0.822 C 154.787 0.581,155.165 0.595,154.896 0.864 C 154.674 1.086,153.257 1.318,151.747 1.381 C 148.812 1.504,144.060 2.320,143.400 2.814 C 143.180 2.979,141.830 3.431,140.400 3.820 C 138.970 4.208,137.620 4.655,137.400 4.814 C 137.180 4.973,135.920 5.403,134.600 5.770 C 130.852 6.811,130.925 6.776,131.611 7.248 C 132.067 7.561,132.007 7.598,131.348 7.415 C 130.449 7.163,127.689 7.950,124.974 9.232 C 124.079 9.654,123.199 10.000,123.018 10.000 C 122.836 10.000,121.948 10.337,121.044 10.749 C 120.140 11.161,118.715 11.793,117.879 12.153 C 117.042 12.513,116.466 12.984,116.599 13.199 C 116.742 13.430,116.559 13.483,116.155 13.327 C 115.721 13.161,115.565 13.220,115.732 13.490 C 115.877 13.724,115.717 14.023,115.377 14.154 C 115.023 14.289,114.863 14.222,115.003 13.995 C 115.515 13.167,114.152 13.689,108.696 16.410 C 102.240 19.630,100.322 20.750,100.571 21.153 C 100.668 21.310,100.562 21.700,100.336 22.019 C 100.005 22.486,99.971 22.458,100.160 21.874 C 100.355 21.271,100.242 21.196,99.497 21.431 C 97.831 21.959,96.851 22.827,97.007 23.638 C 97.091 24.070,96.985 24.315,96.773 24.183 C 96.560 24.052,96.502 23.758,96.644 23.530 C 97.096 22.797,95.127 23.637,93.064 25.056 C 91.990 25.795,90.900 26.400,90.644 26.400 C 90.388 26.400,89.894 26.715,89.548 27.100 C 89.201 27.485,88.359 28.102,87.676 28.471 C 86.767 28.963,86.478 29.367,86.597 29.982 C 86.687 30.454,86.589 30.717,86.373 30.583 C 86.160 30.452,86.091 30.177,86.217 29.972 C 86.649 29.274,84.744 30.101,83.588 31.115 C 83.264 31.398,81.869 32.440,80.486 33.430 C 79.103 34.420,78.069 35.387,78.188 35.580 C 78.307 35.772,77.645 36.531,76.717 37.265 C 75.789 37.999,75.169 38.375,75.339 38.100 C 75.518 37.809,75.451 37.600,75.179 37.600 C 74.579 37.600,68.327 42.860,68.601 43.135 C 68.862 43.395,67.189 45.200,66.686 45.200 C 66.480 45.200,66.736 44.846,67.256 44.413 C 67.866 43.905,68.000 43.622,67.634 43.613 C 66.960 43.597,65.834 44.635,55.515 54.787 C 51.162 59.070,47.600 62.751,47.600 62.969 C 47.600 63.186,50.749 60.195,54.597 56.322 C 58.445 52.449,62.540 48.520,63.697 47.592 C 65.592 46.071,65.652 46.047,64.306 47.352 C 63.484 48.148,62.927 48.800,63.068 48.800 C 63.209 48.800,63.002 49.156,62.609 49.591 C 62.215 50.025,61.770 50.305,61.620 50.212 C 61.260 49.990,49.505 61.771,49.795 62.062 C 49.919 62.185,49.745 62.514,49.410 62.792 C 49.074 63.070,48.800 63.189,48.800 63.055 C 48.800 62.921,48.215 63.403,47.500 64.126 C 46.785 64.849,46.546 65.027,46.970 64.521 C 47.393 64.014,47.573 63.600,47.370 63.600 C 46.950 63.601,44.000 66.548,44.000 66.967 C 44.000 67.117,42.560 68.943,40.800 71.024 C 39.040 73.106,37.606 74.942,37.613 75.104 C 37.620 75.267,38.093 74.867,38.665 74.217 C 39.237 73.566,40.086 72.978,40.553 72.911 C 41.216 72.815,41.134 72.952,40.174 73.543 C 39.500 73.958,38.280 75.228,37.463 76.366 C 36.646 77.503,35.823 78.338,35.634 78.221 C 35.146 77.920,31.200 83.239,31.200 84.197 C 31.200 84.335,31.425 84.316,31.700 84.155 C 31.975 83.994,31.857 84.253,31.438 84.731 C 30.544 85.751,30.048 85.913,30.851 84.923 C 31.238 84.446,31.251 84.336,30.893 84.551 C 30.314 84.899,27.200 89.581,27.200 90.103 C 27.200 90.292,27.408 90.319,27.662 90.162 C 27.950 89.984,28.015 90.052,27.834 90.345 C 27.675 90.602,27.389 90.717,27.199 90.599 C 26.849 90.383,24.000 94.359,24.000 95.063 C 24.000 95.271,23.483 96.153,22.850 97.021 C 21.529 98.836,20.809 100.689,21.619 100.188 C 21.949 99.984,22.024 100.038,21.834 100.345 C 21.675 100.602,21.385 100.714,21.189 100.593 C 20.994 100.473,20.556 100.911,20.217 101.567 C 19.502 102.950,19.441 103.346,19.995 103.003 C 20.219 102.865,20.291 103.018,20.162 103.354 C 20.037 103.682,19.706 103.862,19.428 103.755 C 18.948 103.571,15.398 110.166,14.129 113.600 C 13.502 115.297,13.501 115.308,13.995 115.003 C 14.222 114.863,14.289 115.023,14.154 115.377 C 14.023 115.717,13.771 115.906,13.594 115.797 C 13.417 115.687,12.913 116.363,12.473 117.299 C 11.537 119.292,10.934 121.309,11.535 120.439 C 11.826 120.018,11.908 120.144,11.862 120.938 C 11.828 121.522,11.654 122.000,11.476 122.000 C 11.298 122.000,11.252 122.161,11.374 122.358 C 11.496 122.555,11.322 122.821,10.988 122.949 C 10.499 123.137,10.461 123.034,10.791 122.417 C 11.304 121.458,11.313 121.083,10.815 121.391 C 10.603 121.522,10.262 122.207,10.058 122.914 C 9.854 123.622,9.560 124.560,9.406 125.000 C 9.170 125.669,9.202 125.702,9.600 125.200 C 10.006 124.688,10.041 124.708,9.838 125.333 C 9.707 125.736,9.600 126.231,9.600 126.433 C 9.600 126.635,9.389 126.755,9.131 126.700 C 8.479 126.561,7.182 129.981,7.425 131.200 C 7.574 131.945,7.525 132.050,7.234 131.611 C 6.890 131.093,6.820 131.093,6.652 131.611 C 5.753 134.381,5.579 135.302,5.814 136.044 C 5.975 136.552,5.930 136.804,5.703 136.664 C 5.220 136.365,4.622 137.575,3.825 140.462 C 3.109 143.051,3.050 143.654,3.595 142.800 C 3.877 142.358,3.955 142.544,3.889 143.505 C 3.812 144.638,3.736 144.722,3.311 144.144 C 2.747 143.376,2.729 143.411,1.988 146.713 C 1.727 147.876,1.606 149.181,1.720 149.614 C 1.833 150.047,1.801 150.324,1.649 150.231 C 1.498 150.137,1.359 151.048,1.342 152.255 C 1.324 153.462,1.119 154.641,0.886 154.874 C 0.588 155.172,0.568 154.840,0.822 153.749 C 1.307 151.656,1.287 151.353,0.700 151.940 C -0.033 152.673,-0.033 247.327,0.700 248.060 C 1.287 248.647,1.307 248.344,0.822 246.251 C 0.568 245.160,0.588 244.828,0.886 245.126 C 1.119 245.359,1.324 246.538,1.342 247.745 C 1.359 248.952,1.512 249.854,1.682 249.749 C 1.852 249.644,1.880 249.847,1.745 250.199 C 1.466 250.927,2.335 255.602,2.857 256.180 C 3.062 256.407,3.200 256.287,3.200 255.880 C 3.200 254.639,3.798 255.178,3.889 256.501 C 3.955 257.458,3.877 257.642,3.595 257.200 C 3.050 256.346,3.109 256.949,3.825 259.538 C 4.622 262.425,5.220 263.635,5.703 263.336 C 5.930 263.196,5.975 263.448,5.814 263.956 C 5.579 264.698,5.753 265.619,6.652 268.389 C 6.820 268.907,6.890 268.907,7.234 268.389 C 7.525 267.950,7.574 268.055,7.425 268.800 C 7.182 270.019,8.479 273.439,9.131 273.300 C 9.389 273.245,9.600 273.365,9.600 273.567 C 9.600 273.769,9.707 274.264,9.838 274.667 C 10.041 275.292,10.006 275.312,9.600 274.800 C 9.202 274.298,9.170 274.331,9.406 275.000 C 9.560 275.440,9.854 276.378,10.058 277.086 C 10.262 277.793,10.634 278.497,10.883 278.651 C 11.183 278.836,11.245 278.706,11.068 278.266 C 10.189 276.081,10.202 276.184,10.882 276.813 C 11.231 277.136,11.434 277.535,11.334 277.700 C 11.235 277.865,11.298 278.000,11.476 278.000 C 11.654 278.000,11.828 278.478,11.862 279.062 C 11.908 279.856,11.826 279.982,11.535 279.561 C 10.934 278.691,11.537 280.708,12.473 282.701 C 12.913 283.637,13.417 284.313,13.594 284.203 C 13.771 284.094,14.023 284.283,14.154 284.623 C 14.289 284.977,14.222 285.137,13.995 284.997 C 13.502 284.692,13.503 284.701,14.122 286.400 C 15.474 290.115,19.208 296.658,19.697 296.169 C 19.810 296.057,20.011 296.253,20.146 296.604 C 20.288 296.973,20.224 297.139,19.995 296.997 C 19.441 296.654,19.502 297.050,20.217 298.433 C 20.556 299.089,20.994 299.527,21.189 299.407 C 21.385 299.286,21.675 299.398,21.834 299.655 C 22.024 299.962,21.949 300.016,21.619 299.812 C 20.809 299.311,21.529 301.164,22.850 302.979 C 23.483 303.847,24.000 304.729,24.000 304.937 C 24.000 305.641,26.849 309.617,27.199 309.401 C 27.389 309.283,27.675 309.398,27.834 309.655 C 28.015 309.948,27.950 310.016,27.662 309.838 C 26.481 309.108,29.047 313.596,30.728 315.200 C 31.296 315.743,31.302 315.724,30.785 315.000 C 30.220 314.208,30.223 314.208,31.107 314.962 C 32.022 315.743,32.316 316.243,31.600 315.800 C 30.827 315.322,31.213 316.332,32.539 318.256 C 33.441 319.564,34.161 320.200,34.739 320.200 C 35.213 320.200,35.600 320.335,35.600 320.500 C 35.600 320.665,35.600 320.912,35.600 321.049 C 35.600 321.186,35.330 321.074,35.000 320.800 C 34.665 320.522,34.400 320.479,34.400 320.702 C 34.400 321.236,35.412 322.055,35.707 321.759 C 35.836 321.631,36.507 322.307,37.200 323.263 C 37.892 324.218,38.670 325.000,38.929 325.000 C 39.188 325.000,39.400 325.217,39.400 325.483 C 39.400 325.748,39.760 326.246,40.200 326.589 C 40.640 326.931,40.753 327.164,40.450 327.106 C 39.388 326.901,39.600 327.850,40.878 329.019 C 41.588 329.669,41.941 329.899,41.662 329.532 C 41.153 328.861,41.190 328.849,42.749 329.169 C 42.831 329.186,42.668 329.477,42.388 329.814 C 41.962 330.328,42.053 330.611,42.939 331.536 C 43.523 332.145,44.000 332.793,44.000 332.975 C 44.000 333.436,46.916 336.399,47.370 336.400 C 47.573 336.400,47.393 335.986,46.970 335.479 C 46.546 334.973,46.785 335.151,47.500 335.874 C 48.215 336.597,48.800 337.079,48.800 336.945 C 48.800 336.811,49.068 336.924,49.396 337.196 C 49.723 337.468,49.913 337.817,49.817 337.972 C 49.595 338.331,61.364 350.102,61.655 349.812 C 61.774 349.693,62.198 349.956,62.598 350.398 C 62.997 350.839,63.209 351.200,63.068 351.200 C 62.927 351.200,63.484 351.852,64.306 352.648 C 65.671 353.972,65.620 353.952,63.714 352.422 C 62.566 351.502,58.471 347.569,54.614 343.684 C 50.756 339.798,47.600 336.801,47.600 337.023 C 47.600 337.245,51.162 340.930,55.515 345.213 C 65.834 355.365,66.960 356.403,67.634 356.387 C 68.000 356.378,67.866 356.095,67.256 355.587 C 66.736 355.154,66.480 354.800,66.686 354.800 C 67.191 354.800,68.861 356.605,68.599 356.868 C 68.323 357.144,76.970 364.400,77.576 364.400 C 77.835 364.400,77.919 364.192,77.762 363.938 C 77.584 363.650,77.652 363.585,77.945 363.766 C 78.202 363.925,78.314 364.216,78.192 364.413 C 78.071 364.609,79.103 365.578,80.486 366.565 C 81.869 367.552,83.285 368.639,83.634 368.980 C 84.558 369.885,85.470 369.819,84.749 368.900 C 84.254 368.268,84.267 368.253,84.887 368.738 C 85.265 369.034,85.535 369.462,85.487 369.688 C 85.439 369.915,85.650 370.191,85.956 370.302 C 86.278 370.419,86.401 370.326,86.249 370.080 C 86.105 369.846,86.160 369.548,86.373 369.417 C 86.589 369.283,86.687 369.546,86.597 370.018 C 86.478 370.633,86.767 371.037,87.676 371.529 C 88.359 371.898,89.201 372.515,89.548 372.900 C 89.894 373.285,90.388 373.600,90.644 373.600 C 90.900 373.600,91.990 374.205,93.064 374.944 C 95.127 376.363,97.096 377.203,96.644 376.470 C 96.502 376.242,96.560 375.948,96.773 375.817 C 96.985 375.685,97.091 375.930,97.007 376.362 C 96.851 377.173,97.831 378.041,99.497 378.569 C 100.242 378.804,100.355 378.729,100.160 378.126 C 99.971 377.542,100.005 377.514,100.336 377.981 C 100.562 378.300,100.668 378.690,100.571 378.847 C 100.322 379.250,102.240 380.370,108.696 383.590 C 114.152 386.311,115.515 386.833,115.003 386.005 C 114.863 385.778,115.023 385.711,115.377 385.846 C 115.717 385.977,115.877 386.276,115.732 386.510 C 115.565 386.780,115.721 386.839,116.155 386.673 C 116.559 386.517,116.742 386.570,116.599 386.801 C 116.466 387.016,117.042 387.487,117.879 387.847 C 118.715 388.207,120.140 388.839,121.044 389.251 C 121.948 389.663,122.836 390.000,123.018 390.000 C 123.199 390.000,124.079 390.346,124.974 390.768 C 127.689 392.050,130.449 392.837,131.348 392.585 C 132.007 392.402,132.067 392.439,131.611 392.752 C 130.925 393.224,130.852 393.189,134.600 394.230 C 135.920 394.597,137.180 395.027,137.400 395.186 C 137.620 395.345,138.970 395.792,140.400 396.180 C 141.830 396.569,143.180 397.021,143.400 397.186 C 144.060 397.680,148.812 398.496,151.747 398.619 C 153.257 398.682,154.674 398.914,154.896 399.136 C 155.165 399.405,154.787 399.419,153.749 399.178 C 151.481 398.652,150.923 398.683,151.540 399.300 C 152.273 400.033,247.727 400.033,248.460 399.300 C 249.077 398.683,248.519 398.652,246.251 399.178 C 245.213 399.419,244.835 399.405,245.104 399.136 C 245.326 398.914,246.743 398.682,248.253 398.619 C 251.188 398.496,255.940 397.680,256.600 397.186 C 256.820 397.021,258.170 396.569,259.600 396.180 C 261.030 395.792,262.380 395.345,262.600 395.186 C 262.820 395.027,264.080 394.597,265.400 394.230 C 269.148 393.189,269.075 393.224,268.389 392.752 C 267.933 392.439,267.993 392.402,268.652 392.585 C 269.551 392.837,272.311 392.050,275.026 390.768 C 275.921 390.346,276.801 390.000,276.982 390.000 C 277.164 390.000,278.052 389.663,278.956 389.251 C 279.860 388.839,281.285 388.207,282.121 387.847 C 282.958 387.487,283.534 387.016,283.401 386.801 C 283.258 386.570,283.441 386.517,283.845 386.673 C 284.279 386.839,284.435 386.780,284.268 386.510 C 284.123 386.276,284.283 385.977,284.623 385.846 C 284.977 385.711,285.137 385.778,284.997 386.005 C 284.485 386.833,285.848 386.311,291.304 383.590 C 297.760 380.370,299.678 379.250,299.429 378.847 C 299.332 378.690,299.438 378.300,299.664 377.981 C 299.995 377.514,300.029 377.542,299.840 378.126 C 299.645 378.729,299.758 378.804,300.503 378.569 C 302.169 378.041,303.149 377.173,302.993 376.362 C 302.909 375.930,303.015 375.685,303.227 375.817 C 303.440 375.948,303.498 376.242,303.356 376.470 C 302.904 377.203,304.873 376.363,306.936 374.944 C 308.010 374.205,309.100 373.600,309.356 373.600 C 309.612 373.600,310.106 373.285,310.452 372.900 C 310.799 372.515,311.641 371.898,312.324 371.529 C 313.233 371.037,313.522 370.633,313.403 370.018 C 313.313 369.546,313.411 369.283,313.627 369.417 C 313.840 369.548,313.895 369.846,313.751 370.080 C 313.599 370.326,313.722 370.419,314.044 370.302 C 314.350 370.191,314.561 369.915,314.513 369.688 C 314.465 369.462,314.735 369.034,315.113 368.738 C 315.733 368.253,315.746 368.268,315.251 368.900 C 314.530 369.819,315.442 369.885,316.366 368.980 C 316.715 368.639,318.131 367.552,319.514 366.565 C 320.897 365.578,321.931 364.613,321.812 364.420 C 321.693 364.228,322.355 363.469,323.283 362.735 C 324.211 362.001,324.831 361.625,324.661 361.900 C 324.482 362.191,324.549 362.400,324.821 362.400 C 325.421 362.400,331.673 357.140,331.399 356.865 C 331.138 356.605,332.811 354.800,333.314 354.800 C 333.520 354.800,333.264 355.154,332.744 355.587 C 332.134 356.095,332.000 356.378,332.366 356.387 C 333.040 356.403,334.166 355.365,344.485 345.213 C 348.838 340.930,352.400 337.251,352.400 337.037 C 352.400 336.823,349.050 340.011,344.956 344.121 C 340.862 348.231,337.341 351.487,337.130 351.357 C 336.913 351.223,337.047 350.790,337.438 350.358 C 337.818 349.938,338.226 349.693,338.345 349.812 C 338.636 350.102,350.405 338.331,350.183 337.972 C 350.087 337.817,350.277 337.468,350.604 337.196 C 350.932 336.924,351.200 336.811,351.200 336.945 C 351.200 337.079,351.785 336.597,352.500 335.874 C 353.215 335.151,353.454 334.973,353.030 335.479 C 352.607 335.986,352.427 336.400,352.630 336.400 C 353.084 336.399,356.000 333.436,356.000 332.975 C 356.000 332.793,356.477 332.145,357.061 331.536 C 357.947 330.611,358.038 330.328,357.612 329.814 C 357.332 329.477,357.169 329.186,357.251 329.169 C 358.794 328.852,358.842 328.868,358.379 329.532 C 358.123 329.899,358.755 329.300,359.784 328.200 C 360.812 327.100,361.833 325.840,362.051 325.400 C 362.293 324.913,362.026 325.064,361.371 325.784 C 360.778 326.436,360.002 327.009,359.647 327.059 C 359.148 327.129,359.183 327.014,359.800 326.557 C 360.240 326.232,360.600 325.748,360.600 325.483 C 360.600 325.217,360.812 325.000,361.071 325.000 C 361.330 325.000,362.101 324.228,362.785 323.285 C 363.468 322.341,364.181 321.665,364.369 321.781 C 364.854 322.081,368.800 316.758,368.800 315.803 C 368.800 315.665,368.575 315.684,368.300 315.845 C 368.025 316.006,368.143 315.747,368.562 315.269 C 369.473 314.230,369.919 314.107,369.171 315.100 C 368.697 315.729,368.707 315.739,369.272 315.200 C 370.953 313.596,373.519 309.108,372.338 309.838 C 372.050 310.016,371.985 309.948,372.166 309.655 C 372.325 309.398,372.611 309.283,372.801 309.401 C 373.151 309.617,376.000 305.641,376.000 304.937 C 376.000 304.729,376.517 303.847,377.150 302.979 C 378.471 301.164,379.191 299.311,378.381 299.812 C 378.051 300.016,377.976 299.962,378.166 299.655 C 378.325 299.398,378.615 299.286,378.811 299.407 C 379.006 299.527,379.444 299.089,379.783 298.433 C 380.498 297.050,380.559 296.654,380.005 296.997 C 379.781 297.135,379.709 296.982,379.838 296.646 C 379.963 296.318,380.294 296.138,380.572 296.245 C 381.052 296.429,384.602 289.834,385.871 286.400 C 386.498 284.703,386.499 284.692,386.005 284.997 C 385.778 285.137,385.711 284.977,385.846 284.623 C 385.977 284.283,386.226 284.092,386.399 284.199 C 386.573 284.307,387.070 283.631,387.505 282.697 C 388.451 280.666,389.047 278.718,388.465 279.561 C 388.174 279.982,388.092 279.856,388.138 279.062 C 388.172 278.478,388.346 278.000,388.524 278.000 C 388.702 278.000,388.765 277.865,388.666 277.700 C 388.566 277.535,388.769 277.136,389.118 276.813 C 389.798 276.184,389.811 276.081,388.932 278.266 C 388.755 278.706,388.817 278.836,389.117 278.651 C 389.366 278.497,389.738 277.793,389.942 277.086 C 390.146 276.378,390.440 275.440,390.594 275.000 C 390.830 274.331,390.798 274.298,390.400 274.800 C 389.994 275.312,389.959 275.292,390.162 274.667 C 390.293 274.264,390.400 273.769,390.400 273.567 C 390.400 273.365,390.611 273.245,390.869 273.300 C 391.521 273.439,392.818 270.019,392.575 268.800 C 392.426 268.055,392.475 267.950,392.766 268.389 C 393.110 268.907,393.180 268.907,393.348 268.389 C 394.247 265.619,394.421 264.698,394.186 263.956 C 394.025 263.448,394.070 263.196,394.297 263.336 C 394.780 263.635,395.378 262.425,396.175 259.538 C 396.891 256.949,396.950 256.346,396.405 257.200 C 396.123 257.642,396.045 257.456,396.111 256.495 C 396.188 255.362,396.264 255.278,396.689 255.856 C 397.253 256.624,397.271 256.589,398.012 253.287 C 398.273 252.124,398.394 250.819,398.280 250.386 C 398.167 249.953,398.199 249.676,398.351 249.769 C 398.502 249.863,398.641 248.952,398.658 247.745 C 398.676 246.538,398.881 245.359,399.114 245.126 C 399.412 244.828,399.432 245.160,399.178 246.251 C 398.693 248.344,398.713 248.647,399.300 248.060 C 400.033 247.327,400.033 152.673,399.300 151.940 C 398.713 151.353,398.693 151.656,399.178 153.749 C 399.432 154.840,399.412 155.172,399.114 154.874 C 398.881 154.641,398.676 153.462,398.658 152.255 C 398.641 151.048,398.488 150.146,398.318 150.251 C 398.148 150.356,398.120 150.153,398.255 149.801 C 398.508 149.141,397.697 144.512,397.203 143.800 C 397.050 143.580,396.618 142.230,396.242 140.800 C 395.413 137.641,394.805 136.349,394.297 136.664 C 394.070 136.804,394.025 136.552,394.186 136.044 C 394.421 135.302,394.247 134.381,393.348 131.611 C 393.180 131.093,393.110 131.093,392.766 131.611 C 392.475 132.050,392.426 131.945,392.575 131.200 C 392.818 129.981,391.521 126.561,390.869 126.700 C 390.611 126.755,390.400 126.635,390.400 126.433 C 390.400 126.231,390.293 125.736,390.162 125.333 C 389.959 124.708,389.994 124.688,390.400 125.200 C 390.798 125.702,390.830 125.669,390.594 125.000 C 390.440 124.560,390.146 123.622,389.942 122.914 C 389.738 122.207,389.366 121.503,389.117 121.349 C 388.676 121.076,388.695 121.164,389.515 123.187 C 389.724 123.703,389.676 123.703,389.118 123.187 C 388.769 122.864,388.566 122.465,388.666 122.300 C 388.765 122.135,388.702 122.000,388.524 122.000 C 388.346 122.000,388.172 121.522,388.138 120.938 C 388.092 120.144,388.174 120.018,388.465 120.439 C 389.066 121.309,388.463 119.292,387.527 117.299 C 387.087 116.363,386.583 115.687,386.406 115.797 C 386.229 115.906,385.977 115.717,385.846 115.377 C 385.711 115.023,385.778 114.863,386.005 115.003 C 386.498 115.308,386.497 115.298,385.876 113.600 C 384.576 110.048,380.773 103.360,380.314 103.819 C 380.196 103.938,379.989 103.747,379.854 103.396 C 379.712 103.027,379.776 102.861,380.005 103.003 C 380.559 103.346,380.498 102.950,379.783 101.567 C 379.444 100.911,379.006 100.473,378.811 100.593 C 378.615 100.714,378.325 100.602,378.166 100.345 C 377.976 100.038,378.051 99.984,378.381 100.188 C 379.191 100.689,378.471 98.836,377.150 97.021 C 376.517 96.153,376.000 95.271,376.000 95.063 C 376.000 94.359,373.151 90.383,372.801 90.599 C 372.611 90.717,372.325 90.602,372.166 90.345 C 371.985 90.052,372.050 89.984,372.338 90.162 C 373.519 90.892,370.953 86.404,369.272 84.800 C 368.704 84.257,368.698 84.276,369.215 85.000 C 369.780 85.792,369.777 85.792,368.893 85.038 C 367.978 84.257,367.684 83.757,368.400 84.200 C 369.173 84.678,368.787 83.668,367.461 81.744 C 366.559 80.436,365.839 79.800,365.261 79.800 C 364.787 79.800,364.400 79.665,364.400 79.500 C 364.400 79.335,364.400 79.088,364.400 78.951 C 364.400 78.814,364.670 78.926,365.000 79.200 C 365.335 79.478,365.600 79.521,365.600 79.298 C 365.600 78.764,364.588 77.945,364.293 78.241 C 364.164 78.369,363.493 77.693,362.800 76.737 C 362.108 75.782,361.330 75.000,361.071 75.000 C 360.812 75.000,360.600 74.783,360.600 74.517 C 360.600 74.252,360.240 73.768,359.800 73.443 C 359.183 72.986,359.148 72.871,359.647 72.941 C 360.002 72.991,360.778 73.564,361.371 74.216 C 362.026 74.936,362.293 75.087,362.051 74.600 C 361.833 74.160,360.812 72.900,359.784 71.800 C 358.755 70.700,358.123 70.101,358.379 70.468 C 358.842 71.132,358.794 71.148,357.251 70.831 C 357.169 70.814,357.332 70.523,357.612 70.186 C 358.038 69.672,357.947 69.389,357.061 68.464 C 356.477 67.855,356.000 67.207,356.000 67.025 C 356.000 66.564,353.084 63.601,352.630 63.600 C 352.427 63.600,352.607 64.014,353.030 64.521 C 353.454 65.027,353.228 64.864,352.529 64.158 C 351.830 63.453,351.181 62.953,351.086 63.047 C 350.991 63.142,350.686 62.945,350.408 62.610 C 350.130 62.274,350.057 62.000,350.246 62.000 C 350.435 62.000,347.904 59.310,344.622 56.022 C 341.339 52.734,338.530 50.119,338.380 50.212 C 338.230 50.305,337.785 50.025,337.391 49.591 C 336.998 49.156,336.791 48.800,336.932 48.800 C 337.073 48.800,336.516 48.148,335.694 47.352 C 334.329 46.028,334.380 46.048,336.286 47.578 C 337.434 48.498,341.529 52.431,345.386 56.316 C 349.244 60.202,352.400 63.199,352.400 62.977 C 352.400 62.755,348.838 59.070,344.485 54.787 C 334.166 44.635,333.040 43.597,332.366 43.613 C 332.000 43.622,332.134 43.905,332.744 44.413 C 333.264 44.846,333.520 45.200,333.314 45.200 C 332.809 45.200,331.139 43.395,331.401 43.132 C 331.677 42.856,323.030 35.600,322.424 35.600 C 322.165 35.600,322.081 35.808,322.238 36.062 C 322.416 36.350,322.348 36.415,322.055 36.234 C 321.798 36.075,321.686 35.784,321.808 35.587 C 321.929 35.391,320.897 34.422,319.514 33.435 C 318.131 32.448,316.715 31.361,316.366 31.020 C 315.442 30.115,314.530 30.181,315.251 31.100 C 315.746 31.732,315.733 31.747,315.113 31.262 C 314.735 30.966,314.465 30.538,314.513 30.312 C 314.561 30.085,314.350 29.809,314.044 29.698 C 313.722 29.581,313.599 29.674,313.751 29.920 C 313.895 30.154,313.840 30.452,313.627 30.583 C 313.411 30.717,313.313 30.454,313.403 29.982 C 313.522 29.367,313.233 28.963,312.324 28.471 C 311.641 28.102,310.799 27.485,310.452 27.100 C 310.106 26.715,309.612 26.400,309.356 26.400 C 309.100 26.400,308.010 25.795,306.936 25.056 C 304.873 23.637,302.904 22.797,303.356 23.530 C 303.498 23.758,303.440 24.052,303.227 24.183 C 303.015 24.315,302.909 24.070,302.993 23.638 C 303.149 22.827,302.169 21.959,300.503 21.431 C 299.758 21.196,299.645 21.271,299.840 21.874 C 300.029 22.458,299.995 22.486,299.664 22.019 C 299.438 21.700,299.332 21.310,299.429 21.153 C 299.678 20.750,297.760 19.630,291.304 16.410 C 285.848 13.689,284.485 13.167,284.997 13.995 C 285.137 14.222,284.977 14.289,284.623 14.154 C 284.283 14.023,284.123 13.724,284.268 13.490 C 284.435 13.220,284.279 13.161,283.845 13.327 C 283.441 13.483,283.258 13.430,283.401 13.199 C 283.534 12.984,282.958 12.518,282.121 12.165 C 281.285 11.812,279.934 11.180,279.121 10.761 C 278.307 10.343,277.450 10.000,277.216 10.000 C 276.983 10.000,276.028 9.652,275.096 9.227 C 272.225 7.919,269.544 7.165,268.652 7.415 C 267.993 7.598,267.933 7.561,268.389 7.248 C 269.075 6.776,269.148 6.811,265.400 5.770 C 264.080 5.403,262.820 4.973,262.600 4.814 C 262.380 4.654,261.300 4.291,260.200 4.006 C 259.100 3.721,257.660 3.256,257.000 2.972 C 255.134 2.169,249.749 1.198,248.303 1.404 C 247.245 1.554,247.187 1.531,247.996 1.278 C 248.811 1.022,248.884 0.896,248.396 0.583 C 247.806 0.204,154.880 -0.082,152.800 0.289 M144.200 3.600 C 143.760 3.789,143.130 3.944,142.800 3.944 C 142.422 3.944,142.496 3.817,143.000 3.600 C 143.440 3.411,144.070 3.256,144.400 3.256 C 144.778 3.256,144.704 3.383,144.200 3.600 M257.000 3.600 C 257.504 3.817,257.578 3.944,257.200 3.944 C 256.870 3.944,256.240 3.789,255.800 3.600 C 255.296 3.383,255.222 3.256,255.600 3.256 C 255.930 3.256,256.560 3.411,257.000 3.600 M139.594 5.500 C 139.589 6.104,139.530 6.118,139.163 5.600 C 138.860 5.171,138.683 5.136,138.544 5.478 C 138.436 5.740,138.058 5.844,137.703 5.708 C 137.145 5.493,137.162 5.420,137.829 5.158 C 139.095 4.662,139.600 4.760,139.594 5.500 M262.171 5.158 C 262.860 5.428,262.871 5.487,262.271 5.717 C 261.899 5.860,261.600 5.783,261.600 5.545 C 261.600 5.308,261.330 5.218,261.000 5.345 C 260.670 5.471,260.400 5.401,260.400 5.187 C 260.400 4.739,261.072 4.728,262.171 5.158 M122.946 10.998 C 122.819 11.326,122.555 11.496,122.358 11.374 C 122.161 11.252,122.000 11.298,122.000 11.476 C 122.000 11.654,121.505 11.823,120.900 11.851 C 119.944 11.895,121.230 11.060,123.087 10.430 C 123.136 10.413,123.072 10.669,122.946 10.998 M279.926 11.801 C 279.995 11.866,279.590 11.892,279.026 11.859 C 278.462 11.827,278.000 11.654,278.000 11.476 C 278.000 11.298,277.839 11.252,277.642 11.374 C 277.445 11.496,277.186 11.340,277.066 11.028 C 276.876 10.532,279.253 11.175,279.926 11.801 M112.900 15.288 C 112.405 15.527,112.000 15.885,112.000 16.085 C 112.000 16.284,111.820 16.336,111.600 16.200 C 111.380 16.064,111.197 16.278,111.194 16.676 C 111.189 17.286,111.128 17.306,110.810 16.802 C 110.443 16.222,112.304 14.816,113.400 14.844 C 113.620 14.850,113.395 15.049,112.900 15.288 M288.456 15.593 C 289.920 16.259,290.023 16.374,289.100 16.306 C 288.495 16.262,288.000 16.112,288.000 15.974 C 288.000 15.835,287.595 15.527,287.100 15.288 C 285.494 14.514,286.660 14.776,288.456 15.593 M293.032 17.901 C 292.849 18.084,290.400 16.870,290.400 16.596 C 290.400 16.495,291.028 16.712,291.795 17.078 C 292.562 17.444,293.119 17.814,293.032 17.901 M108.300 17.503 C 107.695 17.878,107.200 18.334,107.200 18.516 C 107.200 18.698,107.003 18.725,106.762 18.577 C 106.316 18.301,108.223 16.798,109.000 16.813 C 109.220 16.818,108.905 17.128,108.300 17.503 M94.758 25.118 C 94.511 25.513,93.933 25.865,93.474 25.900 C 92.769 25.953,92.823 25.840,93.819 25.184 C 95.271 24.227,95.317 24.224,94.758 25.118 M306.795 25.569 C 307.276 25.889,307.227 25.952,306.540 25.901 C 306.073 25.865,305.482 25.503,305.227 25.094 C 304.744 24.321,305.065 24.418,306.795 25.569 M312.505 29.754 C 312.345 30.013,312.195 29.985,312.093 29.678 C 312.004 29.412,311.776 29.291,311.586 29.409 C 311.396 29.526,311.034 29.237,310.782 28.766 C 310.324 27.911,310.326 27.911,311.540 28.628 C 312.209 29.023,312.643 29.530,312.505 29.754 M89.038 28.862 C 89.216 29.149,89.148 29.215,88.859 29.036 C 88.599 28.876,88.289 29.024,88.155 29.372 C 88.024 29.715,87.744 29.889,87.534 29.759 C 87.324 29.629,87.478 29.276,87.876 28.974 C 88.767 28.299,88.695 28.306,89.038 28.862 M83.123 32.774 C 82.857 33.200,82.507 33.466,82.345 33.366 C 82.182 33.265,81.883 33.480,81.680 33.843 C 81.455 34.244,81.211 34.341,81.056 34.090 C 80.916 33.864,81.386 33.303,82.100 32.846 C 83.701 31.821,83.719 31.820,83.123 32.774 M318.297 33.115 C 318.790 33.430,319.080 33.871,318.941 34.095 C 318.791 34.339,318.541 34.238,318.320 33.843 C 318.117 33.480,317.791 33.282,317.595 33.403 C 317.400 33.524,317.033 33.236,316.780 32.763 C 316.288 31.843,316.315 31.849,318.297 33.115 M76.198 36.402 C 75.133 37.579,75.614 37.677,77.000 36.566 C 77.808 35.919,77.991 35.603,77.562 35.602 C 77.211 35.601,76.597 35.961,76.198 36.402 M73.937 39.600 C 72.922 40.973,72.838 41.024,72.959 40.200 C 73.030 39.714,74.256 38.465,74.712 38.413 C 74.774 38.406,74.425 38.940,73.937 39.600 M327.040 40.190 C 327.163 41.030,327.082 40.978,326.016 39.536 L 325.081 38.271 326.016 38.926 C 326.530 39.286,326.991 39.855,327.040 40.190 M71.330 41.300 C 71.155 41.575,70.987 41.935,70.956 42.100 C 70.925 42.265,70.877 42.501,70.850 42.624 C 70.823 42.747,70.608 42.729,70.374 42.584 C 70.095 42.412,70.186 42.058,70.636 41.560 C 71.417 40.697,71.805 40.552,71.330 41.300 M329.836 42.298 C 329.569 42.564,329.001 42.431,328.994 42.100 C 328.991 41.935,328.825 41.530,328.625 41.200 C 328.407 40.838,328.609 40.904,329.134 41.364 C 329.613 41.785,329.929 42.205,329.836 42.298 M209.796 56.410 C 320.021 64.357,380.675 189.138,318.771 280.600 C 256.854 372.083,120.026 362.637,70.324 263.449 C 61.685 246.209,54.357 217.664,56.967 211.418 C 58.264 208.314,47.497 208.624,161.668 208.400 C 258.778 208.209,263.605 208.166,264.286 207.486 C 265.653 206.120,265.546 193.203,264.156 191.813 C 263.608 191.266,252.710 191.200,162.359 191.200 C 52.424 191.200,59.519 191.349,57.678 189.008 C 55.885 186.729,56.533 178.546,59.448 166.652 C 76.357 97.658,139.520 51.344,209.796 56.410 M44.226 67.912 L 43.095 69.000 44.019 67.705 C 44.527 66.993,45.036 66.503,45.150 66.617 C 45.264 66.731,44.849 67.314,44.226 67.912 M355.988 67.700 L 356.927 69.000 355.863 68.030 C 355.279 67.497,354.800 66.912,354.800 66.730 C 354.800 66.175,355.012 66.348,355.988 67.700 M42.433 70.567 C 42.415 70.695,42.265 70.815,42.100 70.834 C 41.935 70.853,41.530 71.075,41.200 71.327 C 40.870 71.580,40.944 71.383,41.364 70.891 C 42.052 70.084,42.523 69.942,42.433 70.567 M36.221 76.377 C 35.834 76.804,35.585 77.355,35.667 77.600 C 35.748 77.845,36.222 77.496,36.720 76.823 C 37.715 75.477,37.339 75.141,36.221 76.377 M363.280 76.823 C 363.778 77.496,364.252 77.845,364.333 77.600 C 364.497 77.109,363.284 75.600,362.726 75.600 C 362.534 75.600,362.783 76.150,363.280 76.823 M35.633 79.367 C 35.615 79.495,35.465 79.615,35.300 79.634 C 35.135 79.653,34.730 79.875,34.400 80.127 C 34.070 80.380,34.144 80.183,34.564 79.691 C 35.252 78.884,35.723 78.742,35.633 79.367 M33.843 81.680 C 33.480 81.883,33.282 82.209,33.403 82.405 C 33.524 82.600,33.219 82.976,32.726 83.240 C 31.853 83.707,31.846 83.694,32.444 82.760 C 32.782 82.232,33.192 81.572,33.357 81.293 C 33.521 81.015,33.846 80.905,34.079 81.049 C 34.346 81.214,34.259 81.447,33.843 81.680 M367.653 82.918 C 368.005 83.559,367.961 83.583,367.250 83.138 C 366.811 82.864,366.542 82.495,366.651 82.317 C 366.761 82.140,366.570 81.887,366.228 81.755 C 365.885 81.624,365.721 81.328,365.863 81.097 C 366.119 80.683,366.813 81.389,367.653 82.918 M29.609 87.995 C 29.346 88.157,29.147 88.404,29.166 88.545 C 29.185 88.685,29.110 88.800,29.000 88.800 C 28.777 88.800,28.807 88.448,29.093 87.702 C 29.198 87.429,29.464 87.316,29.685 87.452 C 29.939 87.610,29.911 87.808,29.609 87.995 M371.337 88.902 C 371.231 89.073,370.974 89.108,370.766 88.979 C 370.557 88.850,370.491 88.577,370.617 88.372 C 370.744 88.168,370.646 88.000,370.400 88.000 C 370.154 88.000,370.071 87.809,370.215 87.576 C 370.380 87.308,370.671 87.418,371.003 87.872 C 371.292 88.267,371.443 88.731,371.337 88.902 M25.893 93.555 C 25.862 93.970,25.496 94.522,25.079 94.783 C 24.340 95.244,24.340 95.226,25.047 94.028 C 25.896 92.591,25.969 92.550,25.893 93.555 M375.237 94.518 C 375.597 95.148,375.557 95.180,374.906 94.773 C 374.497 94.518,374.135 93.927,374.099 93.460 C 374.033 92.572,374.230 92.755,375.237 94.518 M24.238 96.862 C 24.415 97.148,24.348 97.215,24.062 97.038 C 23.658 96.789,23.430 97.235,23.540 98.062 C 23.559 98.206,23.308 98.426,22.983 98.551 C 22.469 98.749,22.472 98.621,23.006 97.589 C 23.688 96.270,23.823 96.190,24.238 96.862 M376.994 97.589 C 377.528 98.621,377.531 98.749,377.017 98.551 C 376.692 98.426,376.441 98.206,376.460 98.062 C 376.570 97.235,376.342 96.789,375.938 97.038 C 375.652 97.215,375.585 97.148,375.762 96.862 C 376.177 96.190,376.312 96.270,376.994 97.589 M17.613 108.179 C 16.423 110.104,16.192 109.976,17.220 107.961 C 17.680 107.060,18.154 106.420,18.274 106.540 C 18.393 106.660,18.096 107.397,17.613 108.179 M383.065 108.600 L 383.701 109.800 382.724 108.800 C 382.186 108.250,381.814 107.665,381.897 107.500 C 381.980 107.335,381.846 107.200,381.600 107.200 C 381.354 107.200,381.276 107.001,381.426 106.757 C 381.727 106.271,381.985 106.561,383.065 108.600 M15.447 112.665 C 14.734 113.980,14.617 113.734,15.211 112.171 C 15.437 111.576,15.721 111.188,15.842 111.309 C 15.964 111.430,15.786 112.040,15.447 112.665 M385.172 113.400 C 385.172 113.620,384.914 113.350,384.600 112.800 C 384.286 112.250,384.028 111.620,384.028 111.400 C 384.028 111.180,384.286 111.450,384.600 112.000 C 384.914 112.550,385.172 113.180,385.172 113.400 M13.221 117.745 C 12.661 119.218,12.347 119.072,12.867 117.580 C 13.101 116.908,13.367 116.433,13.457 116.524 C 13.548 116.615,13.442 117.164,13.221 117.745 M387.586 118.580 C 387.611 119.267,386.901 118.243,386.628 117.200 L 386.367 116.200 386.969 117.200 C 387.301 117.750,387.578 118.371,387.586 118.580 M5.528 138.445 C 5.291 138.591,5.221 138.911,5.372 139.155 C 5.524 139.400,5.457 139.600,5.224 139.600 C 4.738 139.600,4.713 139.366,5.061 138.066 C 5.243 137.387,5.399 137.275,5.634 137.656 C 5.817 137.951,5.771 138.294,5.528 138.445 M395.172 139.100 C 395.187 139.375,395.026 139.600,394.813 139.600 C 394.599 139.600,394.529 139.330,394.655 139.000 C 394.782 138.670,394.692 138.400,394.455 138.400 C 394.217 138.400,394.140 138.101,394.283 137.729 C 394.554 137.022,395.103 137.868,395.172 139.100 M396.744 144.400 C 396.744 144.778,396.617 144.704,396.400 144.200 C 396.211 143.760,396.056 143.130,396.056 142.800 C 396.056 142.422,396.183 142.496,396.400 143.000 C 396.589 143.440,396.744 144.070,396.744 144.400 M5.345 261.000 C 5.218 261.330,5.308 261.600,5.545 261.600 C 5.783 261.600,5.860 261.899,5.717 262.271 C 5.487 262.871,5.428 262.860,5.158 262.171 C 4.728 261.072,4.739 260.400,5.187 260.400 C 5.401 260.400,5.471 260.670,5.345 261.000 M395.172 260.900 C 395.103 262.132,394.554 262.978,394.283 262.271 C 394.140 261.899,394.217 261.600,394.455 261.600 C 394.692 261.600,394.782 261.330,394.655 261.000 C 394.529 260.670,394.599 260.400,394.813 260.400 C 395.026 260.400,395.187 260.625,395.172 260.900 M13.372 282.800 L 13.633 283.800 13.031 282.800 C 12.359 281.686,12.184 280.809,12.755 281.420 C 12.950 281.629,13.228 282.250,13.372 282.800 M387.133 282.420 C 386.899 283.092,386.633 283.567,386.543 283.476 C 386.344 283.278,387.099 281.200,387.369 281.200 C 387.473 281.200,387.367 281.749,387.133 282.420 M15.972 288.600 C 15.972 288.820,15.714 288.550,15.400 288.000 C 15.086 287.450,14.828 286.820,14.828 286.600 C 14.828 286.380,15.086 286.650,15.400 287.200 C 15.714 287.750,15.972 288.380,15.972 288.600 M384.800 287.800 C 384.568 288.411,384.286 288.819,384.174 288.707 C 384.062 288.595,384.186 288.029,384.450 287.450 C 384.714 286.871,384.996 286.462,385.076 286.543 C 385.157 286.623,385.032 287.189,384.800 287.800 M18.192 292.486 C 18.509 292.864,18.625 293.261,18.449 293.370 C 18.273 293.479,17.727 292.810,17.235 291.884 C 16.744 290.958,16.628 290.560,16.978 291.000 C 17.329 291.440,17.875 292.109,18.192 292.486 M382.780 292.039 C 382.320 292.940,381.846 293.580,381.726 293.460 C 381.511 293.244,383.104 290.400,383.441 290.400 C 383.537 290.400,383.240 291.137,382.780 292.039 M23.540 301.938 C 23.436 302.725,23.649 303.217,24.000 303.000 C 24.220 302.864,24.400 302.843,24.400 302.953 C 24.400 303.745,23.523 303.411,23.012 302.424 C 22.475 301.385,22.471 301.252,22.983 301.449 C 23.308 301.574,23.559 301.794,23.540 301.938 M377.000 302.400 C 376.312 303.730,376.177 303.810,375.762 303.138 C 375.585 302.852,375.652 302.785,375.938 302.962 C 376.347 303.214,376.476 302.968,376.366 302.145 C 376.336 301.925,377.191 301.224,377.510 301.206 C 377.571 301.203,377.341 301.740,377.000 302.400 M25.901 306.540 C 25.967 307.428,25.770 307.245,24.763 305.482 C 24.403 304.852,24.443 304.820,25.094 305.227 C 25.503 305.482,25.865 306.073,25.901 306.540 M375.227 305.500 C 374.299 307.121,373.960 307.448,374.083 306.600 C 374.147 306.160,374.470 305.581,374.800 305.313 C 375.618 304.648,375.696 304.682,375.227 305.500 M29.383 311.628 C 29.256 311.832,29.354 312.000,29.600 312.000 C 29.846 312.000,29.929 312.191,29.785 312.424 C 29.620 312.692,29.329 312.582,28.997 312.128 C 28.439 311.365,28.597 310.627,29.234 311.021 C 29.443 311.150,29.509 311.423,29.383 311.628 M371.112 311.993 C 370.852 312.408,370.477 312.647,370.277 312.524 C 370.078 312.401,370.159 312.145,370.457 311.956 C 370.756 311.767,370.854 311.609,370.676 311.606 C 370.498 311.603,370.466 311.417,370.604 311.193 C 370.742 310.970,371.019 310.888,371.219 311.012 C 371.428 311.141,371.382 311.560,371.112 311.993 M33.366 317.655 C 33.265 317.818,33.480 318.117,33.843 318.320 C 34.238 318.541,34.339 318.791,34.095 318.941 C 33.733 319.165,33.302 318.686,32.229 316.870 C 31.972 316.435,32.062 316.432,32.732 316.851 C 33.181 317.131,33.466 317.493,33.366 317.655 M367.753 316.900 C 366.708 318.672,366.266 319.164,365.914 318.947 C 365.670 318.796,365.726 318.569,366.057 318.365 C 366.356 318.180,366.600 317.836,366.600 317.600 C 366.600 317.364,366.870 317.000,367.200 316.792 C 368.001 316.285,368.103 316.305,367.753 316.900 M365.409 320.391 C 364.717 321.155,363.746 321.135,364.221 320.366 C 364.350 320.157,364.610 320.083,364.800 320.200 C 364.990 320.317,365.258 320.230,365.396 320.007 C 365.534 319.783,365.754 319.600,365.886 319.600 C 366.017 319.600,365.802 319.956,365.409 320.391 M35.602 322.438 C 35.600 323.077,37.062 324.673,37.367 324.364 C 37.456 324.274,37.095 323.660,36.566 323.000 C 35.919 322.192,35.603 322.009,35.602 322.438 M363.280 323.177 C 362.783 323.850,362.534 324.400,362.726 324.400 C 363.284 324.400,364.497 322.891,364.333 322.400 C 364.252 322.155,363.778 322.504,363.280 323.177 M37.913 325.433 C 38.477 326.492,39.600 327.450,39.600 326.873 C 39.600 326.639,39.417 326.334,39.193 326.196 C 38.970 326.058,38.909 325.732,39.058 325.472 C 39.206 325.213,39.181 325.133,39.001 325.297 C 38.821 325.460,38.403 325.370,38.071 325.097 C 37.551 324.667,37.529 324.713,37.913 325.433 M45.150 333.383 C 45.036 333.497,44.527 333.007,44.019 332.295 L 43.095 331.000 44.226 332.088 C 44.849 332.686,45.264 333.269,45.150 333.383 M355.940 332.395 C 355.454 333.052,354.968 333.502,354.860 333.394 C 354.680 333.214,356.353 331.200,356.682 331.200 C 356.760 331.200,356.426 331.738,355.940 332.395 M336.800 351.725 C 336.800 351.794,336.215 352.379,335.500 353.025 L 334.200 354.200 335.375 352.900 C 336.470 351.688,336.800 351.416,336.800 351.725 M70.733 357.705 C 70.660 357.800,70.867 358.220,71.193 358.639 C 71.775 359.386,71.769 359.386,70.903 358.647 C 70.417 358.232,70.123 357.725,70.249 357.520 C 70.376 357.315,70.567 357.234,70.673 357.340 C 70.780 357.446,70.807 357.611,70.733 357.705 M329.767 357.547 C 329.885 357.737,329.594 358.232,329.122 358.647 C 328.591 359.112,328.401 359.171,328.625 358.800 C 328.825 358.470,329.013 358.065,329.044 357.900 C 329.156 357.299,329.203 357.200,329.376 357.200 C 329.473 357.200,329.649 357.356,329.767 357.547 M73.984 360.464 L 74.919 361.729 73.984 361.074 C 73.470 360.714,73.009 360.145,72.960 359.810 C 72.837 358.970,72.918 359.022,73.984 360.464 M327.040 359.810 C 326.991 360.145,326.530 360.714,326.016 361.074 L 325.081 361.729 326.016 360.464 C 327.082 359.022,327.163 358.970,327.040 359.810 M323.000 363.434 C 322.192 364.081,322.009 364.397,322.438 364.398 C 323.077 364.400,324.673 362.938,324.364 362.633 C 324.274 362.544,323.660 362.905,323.000 363.434 M82.405 366.597 C 82.600 366.476,82.976 366.781,83.240 367.274 C 83.707 368.147,83.694 368.154,82.760 367.556 C 82.232 367.218,81.572 366.808,81.293 366.643 C 81.015 366.479,80.905 366.154,81.049 365.921 C 81.214 365.654,81.447 365.741,81.680 366.157 C 81.883 366.520,82.209 366.718,82.405 366.597 M318.561 366.690 C 316.899 367.932,316.316 368.124,316.862 367.250 C 317.136 366.811,317.505 366.542,317.683 366.651 C 317.860 366.761,318.113 366.570,318.245 366.228 C 318.376 365.885,318.672 365.721,318.903 365.863 C 319.161 366.023,319.029 366.340,318.561 366.690 M88.545 370.834 C 88.780 370.803,88.925 371.168,88.700 371.226 C 88.238 371.345,87.258 370.630,87.452 370.315 C 87.610 370.061,87.808 370.089,87.995 370.391 C 88.157 370.654,88.404 370.853,88.545 370.834 M312.727 370.553 C 312.657 370.593,312.301 370.854,311.936 371.133 C 311.422 371.524,311.204 371.530,310.974 371.158 C 310.785 370.851,310.845 370.781,311.141 370.964 C 311.401 371.124,311.711 370.976,311.845 370.628 C 311.976 370.285,312.257 370.112,312.469 370.242 C 312.680 370.373,312.796 370.513,312.727 370.553 M94.773 374.906 C 95.180 375.557,95.148 375.597,94.518 375.237 C 92.755 374.230,92.572 374.033,93.460 374.099 C 93.927 374.135,94.518 374.497,94.773 374.906 M306.795 374.431 C 305.065 375.582,304.744 375.679,305.227 374.906 C 305.482 374.497,306.073 374.135,306.540 374.099 C 307.227 374.048,307.276 374.111,306.795 374.431 M292.428 382.501 C 291.734 382.940,291.061 383.194,290.932 383.065 C 290.802 382.936,291.170 382.614,291.748 382.351 C 292.327 382.087,292.800 381.710,292.800 381.512 C 292.800 381.315,293.000 381.276,293.245 381.428 C 293.518 381.597,293.204 382.010,292.428 382.501 M108.420 382.610 C 109.069 382.946,109.600 383.311,109.600 383.421 C 109.600 383.600,107.245 382.517,106.833 382.149 C 106.429 381.787,107.341 382.052,108.420 382.610 M288.147 384.528 C 287.365 384.929,286.638 385.171,286.532 385.065 C 286.426 384.960,286.713 384.754,287.170 384.610 C 287.626 384.465,288.000 384.168,288.000 383.949 C 288.000 383.731,288.180 383.664,288.400 383.800 C 288.620 383.936,288.803 383.722,288.806 383.324 C 288.811 382.713,288.871 382.693,289.191 383.199 C 289.484 383.662,289.246 383.964,288.147 384.528 M112.000 384.060 C 112.000 384.217,112.374 384.465,112.830 384.610 C 113.287 384.754,113.584 384.950,113.490 385.044 C 113.396 385.137,112.527 384.854,111.560 384.414 C 110.090 383.745,109.981 383.627,110.900 383.694 C 111.505 383.738,112.000 383.903,112.000 384.060 M122.000 388.524 C 122.000 388.702,122.161 388.748,122.358 388.626 C 122.555 388.504,122.814 388.660,122.934 388.972 C 123.117 389.448,122.915 389.441,121.676 388.927 C 119.796 388.148,119.724 388.068,120.974 388.141 C 121.538 388.173,122.000 388.346,122.000 388.524 M279.926 388.199 C 279.253 388.825,276.876 389.468,277.066 388.972 C 277.186 388.660,277.445 388.504,277.642 388.626 C 277.839 388.748,278.000 388.702,278.000 388.524 C 278.000 388.346,278.462 388.173,279.026 388.141 C 279.590 388.108,279.995 388.134,279.926 388.199 M139.194 394.400 C 139.526 393.894,139.589 393.917,139.594 394.547 C 139.599 395.127,139.399 395.239,138.700 395.052 C 138.205 394.919,137.620 394.806,137.400 394.799 C 137.180 394.793,137.265 394.620,137.589 394.415 C 137.978 394.169,138.285 394.205,138.489 394.521 C 138.721 394.878,138.900 394.848,139.194 394.400 M261.456 394.522 C 261.564 394.260,261.942 394.156,262.297 394.292 C 262.855 394.507,262.838 394.580,262.171 394.842 C 260.905 395.338,260.400 395.240,260.406 394.500 C 260.411 393.896,260.470 393.882,260.837 394.400 C 261.140 394.829,261.317 394.864,261.456 394.522 M144.200 396.400 C 144.704 396.617,144.778 396.744,144.400 396.744 C 144.070 396.744,143.440 396.589,143.000 396.400 C 142.496 396.183,142.422 396.056,142.800 396.056 C 143.130 396.056,143.760 396.211,144.200 396.400 M257.000 396.400 C 256.560 396.589,255.930 396.744,255.600 396.744 C 255.222 396.744,255.296 396.617,255.800 396.400 C 256.240 396.211,256.870 396.056,257.200 396.056 C 257.578 396.056,257.504 396.183,257.000 396.400 "
            stroke="none" fill="#0453fc" fill-rule="evenodd"></path>
        <path id="path2"
            d="M187.800 58.039 C 122.568 63.368,68.539 113.604,58.787 177.996 C 57.760 184.775,57.876 186.858,59.365 188.347 L 60.418 189.400 162.598 189.600 L 264.778 189.800 265.689 190.711 C 266.578 191.600,266.600 191.823,266.600 199.800 C 266.600 207.777,266.578 208.000,265.689 208.889 L 264.778 209.800 162.689 210.000 C 74.536 210.173,60.481 210.279,59.728 210.778 C 54.306 214.378,63.403 248.660,75.392 269.807 C 131.515 368.798,275.223 365.591,326.612 264.200 C 376.737 165.301,298.430 49.000,187.800 58.039 M217.800 59.769 C 327.919 75.484,378.537 202.249,309.333 289.000 C 274.459 332.717,214.876 351.393,160.106 335.773 C 108.587 321.081,69.187 276.892,60.175 223.694 C 58.535 214.010,58.867 211.962,62.200 211.190 C 63.159 210.968,104.184 210.815,164.656 210.810 C 263.354 210.800,265.532 210.784,266.456 210.035 C 267.942 208.832,267.942 190.768,266.456 189.565 C 265.532 188.816,263.351 188.800,164.856 188.783 C 109.495 188.773,63.397 188.610,62.415 188.421 C 58.867 187.736,58.540 185.960,60.178 176.292 C 70.643 114.517,121.278 66.494,183.200 59.618 C 185.290 59.386,187.630 59.125,188.400 59.038 C 191.964 58.635,213.625 59.173,217.800 59.769 "
            stroke="none" fill="#6385fc" fill-rule="evenodd"></path>
        <path id="path3"
            d="M191.000 56.265 C 123.203 60.356,66.495 112.219,57.170 178.662 C 56.210 185.504,56.296 187.251,57.678 189.008 C 59.519 191.349,52.424 191.200,162.359 191.200 C 252.710 191.200,263.608 191.266,264.156 191.813 C 265.546 193.203,265.653 206.120,264.286 207.486 C 263.605 208.166,258.778 208.209,161.668 208.400 C 47.497 208.624,58.264 208.314,56.967 211.418 C 54.357 217.664,61.685 246.209,70.324 263.449 C 126.946 376.446,289.770 368.340,334.425 250.301 C 370.985 153.662,294.381 50.027,191.000 56.265 M210.600 58.005 C 311.670 66.260,372.309 174.038,326.612 264.200 C 275.223 365.591,131.515 368.798,75.392 269.807 C 63.403 248.660,54.306 214.378,59.728 210.778 C 60.481 210.279,74.536 210.173,162.689 210.000 L 264.778 209.800 265.689 208.889 C 266.578 208.000,266.600 207.777,266.600 199.800 C 266.600 191.823,266.578 191.600,265.689 190.711 L 264.778 189.800 162.598 189.600 L 60.418 189.400 59.365 188.347 C 57.876 186.858,57.760 184.775,58.787 177.996 C 69.829 105.090,137.007 51.994,210.600 58.005 "
            stroke="none" fill="#295bfc" fill-rule="evenodd"></path>
        <path id="path4"
            d="M149.800 0.289 C 149.360 0.398,148.820 0.624,148.600 0.792 C 148.380 0.960,146.760 1.410,145.000 1.792 C 143.240 2.174,141.608 2.643,141.372 2.833 C 141.137 3.023,139.699 3.467,138.176 3.820 C 136.653 4.173,135.223 4.615,134.998 4.802 C 134.773 4.988,133.692 5.357,132.595 5.620 C 131.498 5.884,130.240 6.319,129.800 6.587 C 129.360 6.854,127.920 7.405,126.600 7.810 C 125.280 8.215,123.840 8.765,123.400 9.032 C 122.960 9.298,122.150 9.647,121.600 9.806 C 118.533 10.694,97.811 21.056,94.763 23.227 C 94.181 23.641,93.231 24.160,92.652 24.380 C 92.074 24.600,91.600 24.965,91.600 25.190 C 91.600 25.416,91.362 25.600,91.071 25.600 C 90.780 25.600,89.835 26.135,88.971 26.789 C 88.107 27.443,87.252 27.983,87.070 27.989 C 86.889 27.995,85.449 28.961,83.870 30.136 C 82.292 31.311,80.685 32.386,80.300 32.524 C 79.915 32.662,79.600 32.961,79.600 33.187 C 79.600 33.414,79.404 33.600,79.164 33.600 C 78.924 33.600,77.396 34.680,75.768 36.000 C 74.140 37.320,72.696 38.400,72.560 38.400 C 72.424 38.400,71.927 38.747,71.456 39.171 C 70.985 39.595,68.350 41.914,65.600 44.323 C 62.850 46.732,60.060 49.283,59.400 49.992 C 58.740 50.701,57.788 51.441,57.283 51.637 C 56.779 51.833,56.059 52.533,55.683 53.194 C 55.308 53.854,54.775 54.396,54.500 54.397 C 54.225 54.399,54.000 54.649,54.000 54.953 C 54.000 55.258,53.641 55.601,53.202 55.715 C 52.763 55.830,52.280 56.256,52.128 56.662 C 51.976 57.068,49.832 59.560,47.364 62.200 C 44.896 64.840,42.222 67.810,41.422 68.800 C 40.622 69.790,39.615 70.985,39.184 71.456 C 38.753 71.927,38.400 72.424,38.400 72.560 C 38.400 72.696,37.320 74.140,36.000 75.768 C 34.680 77.396,33.600 78.905,33.600 79.121 C 33.600 79.338,33.330 79.618,33.000 79.745 C 32.670 79.871,32.400 80.184,32.400 80.439 C 32.400 80.694,31.500 82.116,30.400 83.600 C 29.300 85.084,28.400 86.424,28.400 86.577 C 28.400 86.731,27.562 88.032,26.537 89.468 C 25.512 90.904,24.368 92.646,23.995 93.339 C 23.622 94.033,22.808 95.500,22.187 96.600 C 19.595 101.193,18.714 102.862,16.170 108.000 C 11.901 116.621,9.760 121.332,9.356 123.000 C 9.196 123.660,8.736 124.740,8.334 125.400 C 7.932 126.060,7.602 126.843,7.601 127.140 C 7.601 127.436,7.340 128.246,7.022 128.940 C 6.704 129.633,6.143 131.280,5.774 132.600 C 5.405 133.920,4.971 135.180,4.809 135.400 C 4.647 135.620,4.189 137.060,3.791 138.600 C 3.393 140.140,2.938 141.580,2.778 141.800 C 2.619 142.020,2.185 143.550,1.814 145.200 C 1.444 146.850,0.976 148.509,0.775 148.886 C 0.574 149.264,0.328 150.614,0.226 151.886 C 0.125 153.159,0.140 153.750,0.260 153.200 C 0.379 152.650,0.619 152.020,0.794 151.800 C 0.968 151.580,1.424 149.780,1.807 147.800 C 2.190 145.820,2.635 144.020,2.795 143.800 C 2.955 143.580,3.411 142.140,3.809 140.600 C 4.207 139.060,4.690 137.592,4.883 137.338 C 5.076 137.085,5.519 135.735,5.868 134.338 C 6.216 132.942,6.635 131.620,6.799 131.400 C 6.962 131.180,7.322 130.280,7.599 129.400 C 7.877 128.520,8.343 127.350,8.637 126.800 C 8.930 126.250,9.458 124.904,9.811 123.810 C 10.163 122.715,10.597 121.635,10.774 121.410 C 10.951 121.184,11.321 120.280,11.596 119.400 C 11.872 118.520,12.407 117.260,12.786 116.600 C 13.166 115.940,13.710 114.770,13.996 114.000 C 14.685 112.144,18.758 103.884,19.118 103.613 C 19.273 103.496,20.002 102.196,20.739 100.725 C 21.475 99.254,22.510 97.464,23.039 96.748 C 23.567 96.031,24.000 95.268,24.000 95.052 C 24.000 94.687,25.019 93.072,29.037 87.063 C 29.897 85.778,30.949 84.158,31.376 83.463 C 31.803 82.768,32.928 81.179,33.876 79.930 C 34.824 78.682,35.600 77.514,35.600 77.335 C 35.600 77.155,36.043 76.557,36.584 76.004 C 38.272 74.281,44.000 67.257,44.000 66.910 C 44.000 66.729,44.810 65.818,45.800 64.886 C 46.790 63.955,47.600 63.053,47.600 62.883 C 47.600 62.329,66.800 43.600,67.368 43.600 C 67.532 43.600,69.245 42.250,71.174 40.600 C 73.104 38.950,74.818 37.600,74.984 37.600 C 75.149 37.600,75.639 37.150,76.071 36.600 C 76.504 36.050,77.017 35.600,77.211 35.600 C 77.584 35.600,82.560 32.044,83.634 31.010 C 83.982 30.675,84.391 30.400,84.543 30.400 C 84.900 30.400,88.808 27.794,89.634 27.005 C 89.982 26.672,90.452 26.400,90.678 26.400 C 90.904 26.400,91.788 25.923,92.644 25.340 C 94.152 24.312,96.531 22.944,99.000 21.685 C 99.660 21.349,100.677 20.743,101.260 20.338 C 102.685 19.349,114.203 13.600,114.759 13.600 C 115.001 13.600,116.055 13.169,117.100 12.643 C 119.961 11.202,121.615 10.474,123.565 9.800 C 124.536 9.464,125.526 9.041,125.765 8.860 C 126.004 8.679,127.280 8.207,128.600 7.811 C 129.920 7.414,131.180 6.963,131.400 6.808 C 131.620 6.652,132.970 6.208,134.400 5.820 C 135.830 5.431,137.180 4.981,137.400 4.820 C 137.620 4.658,138.970 4.208,140.400 3.820 C 141.830 3.431,143.180 2.980,143.400 2.816 C 143.620 2.652,145.420 2.205,147.400 1.821 C 149.380 1.438,151.180 0.978,151.400 0.800 C 151.620 0.622,152.250 0.394,152.800 0.293 C 153.435 0.176,153.215 0.106,152.200 0.101 C 151.320 0.096,150.240 0.181,149.800 0.289 M247.200 0.260 C 247.750 0.379,248.380 0.622,248.600 0.800 C 248.820 0.978,250.620 1.438,252.600 1.821 C 254.580 2.205,256.380 2.652,256.600 2.816 C 256.820 2.980,258.170 3.431,259.600 3.820 C 261.030 4.208,262.380 4.658,262.600 4.820 C 262.820 4.981,264.170 5.431,265.600 5.820 C 267.030 6.208,268.380 6.649,268.600 6.802 C 268.820 6.954,269.990 7.386,271.200 7.762 C 272.410 8.138,274.163 8.795,275.096 9.223 C 276.028 9.650,276.983 10.000,277.216 10.000 C 277.628 10.000,278.216 10.272,282.700 12.539 C 283.855 13.122,284.999 13.600,285.241 13.600 C 285.797 13.600,297.315 19.349,298.740 20.338 C 299.323 20.743,300.340 21.349,301.000 21.685 C 303.469 22.944,305.848 24.312,307.356 25.340 C 308.212 25.923,309.096 26.400,309.322 26.400 C 309.548 26.400,310.018 26.672,310.366 27.005 C 311.192 27.794,315.100 30.400,315.457 30.400 C 315.609 30.400,316.018 30.675,316.366 31.010 C 317.263 31.874,322.387 35.600,322.679 35.600 C 322.812 35.600,325.044 37.400,327.639 39.600 C 330.234 41.800,332.486 43.600,332.644 43.600 C 333.202 43.600,352.400 62.338,352.400 62.883 C 352.400 63.053,353.210 63.955,354.200 64.886 C 355.190 65.818,356.000 66.729,356.000 66.910 C 356.000 67.257,361.728 74.281,363.416 76.004 C 363.957 76.557,364.400 77.155,364.400 77.335 C 364.400 77.514,365.176 78.682,366.124 79.930 C 367.072 81.179,368.197 82.785,368.624 83.500 C 369.051 84.215,370.044 85.745,370.832 86.900 C 374.158 91.777,376.000 94.683,376.000 95.052 C 376.000 95.268,376.455 96.061,377.011 96.815 C 377.568 97.569,378.680 99.539,379.484 101.193 C 380.288 102.847,381.253 104.650,381.629 105.200 C 382.509 106.490,385.347 112.188,386.011 114.000 C 386.293 114.770,386.834 115.940,387.214 116.600 C 387.593 117.260,388.128 118.520,388.404 119.400 C 388.679 120.280,389.049 121.184,389.226 121.410 C 389.403 121.635,389.837 122.715,390.189 123.810 C 390.542 124.904,391.070 126.250,391.363 126.800 C 391.657 127.350,392.123 128.520,392.401 129.400 C 392.678 130.280,393.038 131.180,393.201 131.400 C 393.365 131.620,393.784 132.942,394.132 134.338 C 394.481 135.735,394.924 137.085,395.117 137.338 C 395.310 137.592,395.793 139.060,396.191 140.600 C 396.589 142.140,397.045 143.580,397.205 143.800 C 397.365 144.020,397.810 145.820,398.193 147.800 C 398.576 149.780,399.032 151.580,399.206 151.800 C 399.381 152.020,399.621 152.650,399.740 153.200 C 399.860 153.750,399.875 153.159,399.774 151.886 C 399.672 150.614,399.426 149.264,399.225 148.886 C 399.024 148.509,398.556 146.850,398.186 145.200 C 397.815 143.550,397.377 142.020,397.213 141.800 C 397.048 141.580,396.589 140.140,396.191 138.600 C 395.793 137.060,395.337 135.620,395.177 135.400 C 395.017 135.180,394.569 133.830,394.180 132.400 C 393.792 130.970,393.347 129.620,393.190 129.400 C 393.033 129.180,392.681 128.280,392.408 127.400 C 392.134 126.520,391.689 125.440,391.419 125.000 C 391.148 124.560,390.798 123.660,390.640 123.000 C 390.250 121.367,388.475 117.463,383.823 108.000 C 381.319 102.908,380.555 101.458,377.813 96.600 C 377.192 95.500,376.378 94.033,376.005 93.339 C 375.632 92.646,374.488 90.904,373.463 89.468 C 372.438 88.032,371.600 86.751,371.600 86.622 C 371.600 86.493,370.729 85.176,369.664 83.694 C 368.599 82.212,367.615 80.685,367.476 80.300 C 367.338 79.915,367.039 79.600,366.813 79.600 C 366.586 79.600,366.400 79.404,366.400 79.164 C 366.400 78.924,365.320 77.396,364.000 75.768 C 362.680 74.140,361.600 72.696,361.600 72.560 C 361.600 72.424,361.247 71.927,360.816 71.456 C 360.385 70.985,359.378 69.790,358.578 68.800 C 357.778 67.810,355.104 64.840,352.636 62.200 C 350.168 59.560,348.024 57.068,347.872 56.662 C 347.720 56.256,347.237 55.830,346.798 55.715 C 346.359 55.601,346.000 55.258,346.000 54.953 C 346.000 54.649,345.775 54.399,345.500 54.397 C 345.225 54.396,344.692 53.854,344.317 53.194 C 343.941 52.533,343.221 51.833,342.717 51.637 C 342.212 51.441,341.260 50.701,340.600 49.992 C 339.940 49.283,337.150 46.732,334.400 44.323 C 331.650 41.914,329.015 39.595,328.544 39.171 C 328.073 38.747,327.576 38.400,327.440 38.400 C 327.304 38.400,325.860 37.320,324.232 36.000 C 322.604 34.680,321.095 33.600,320.879 33.600 C 320.662 33.600,320.382 33.330,320.255 33.000 C 320.129 32.670,319.818 32.400,319.565 32.400 C 319.313 32.400,317.790 31.410,316.183 30.200 C 314.575 28.990,313.111 27.995,312.930 27.989 C 312.748 27.983,311.893 27.443,311.029 26.789 C 310.165 26.135,309.220 25.600,308.929 25.600 C 308.638 25.600,308.400 25.416,308.400 25.190 C 308.400 24.965,307.926 24.600,307.348 24.380 C 306.769 24.160,305.819 23.641,305.237 23.227 C 302.189 21.056,281.467 10.694,278.400 9.806 C 277.850 9.647,277.040 9.298,276.600 9.032 C 276.160 8.765,274.720 8.215,273.400 7.810 C 272.080 7.405,270.640 6.854,270.200 6.587 C 269.760 6.319,268.502 5.884,267.405 5.620 C 266.308 5.357,265.227 4.988,265.002 4.802 C 264.777 4.615,263.347 4.173,261.824 3.820 C 260.301 3.467,258.863 3.023,258.628 2.833 C 258.392 2.643,256.760 2.174,255.000 1.792 C 253.240 1.410,251.587 0.928,251.328 0.722 C 251.068 0.516,249.808 0.279,248.528 0.195 C 247.247 0.112,246.650 0.141,247.200 0.260 M0.226 248.114 C 0.328 249.386,0.574 250.736,0.775 251.114 C 0.976 251.491,1.444 253.150,1.814 254.800 C 2.185 256.450,2.619 257.980,2.778 258.200 C 2.938 258.420,3.393 259.860,3.791 261.400 C 4.189 262.940,4.649 264.380,4.814 264.600 C 4.979 264.820,5.431 266.170,5.820 267.600 C 6.208 269.030,6.653 270.380,6.810 270.600 C 6.967 270.820,7.319 271.720,7.592 272.600 C 7.866 273.480,8.311 274.560,8.581 275.000 C 8.852 275.440,9.202 276.340,9.360 277.000 C 9.750 278.633,11.525 282.537,16.177 292.000 C 18.681 297.092,19.445 298.542,22.187 303.400 C 22.808 304.500,23.622 305.967,23.995 306.661 C 24.368 307.354,25.512 309.096,26.537 310.532 C 27.562 311.968,28.400 313.249,28.400 313.378 C 28.400 313.507,29.300 314.850,30.400 316.362 C 31.500 317.874,32.400 319.317,32.400 319.568 C 32.400 319.820,32.670 320.129,33.000 320.255 C 33.330 320.382,33.600 320.662,33.600 320.879 C 33.600 321.095,34.680 322.604,36.000 324.232 C 37.320 325.860,38.400 327.304,38.400 327.440 C 38.400 327.576,38.753 328.073,39.184 328.544 C 39.615 329.015,40.622 330.210,41.422 331.200 C 42.222 332.190,44.896 335.160,47.364 337.800 C 49.832 340.440,51.976 342.932,52.128 343.338 C 52.280 343.744,52.763 344.170,53.202 344.285 C 53.641 344.399,54.000 344.742,54.000 345.047 C 54.000 345.351,54.225 345.601,54.500 345.603 C 54.775 345.604,55.308 346.146,55.683 346.806 C 56.059 347.467,56.779 348.167,57.283 348.363 C 57.788 348.559,58.740 349.299,59.400 350.008 C 60.060 350.717,62.850 353.268,65.600 355.677 C 68.350 358.086,70.985 360.405,71.456 360.829 C 71.927 361.253,72.424 361.600,72.560 361.600 C 72.696 361.600,74.140 362.680,75.768 364.000 C 77.396 365.320,78.905 366.400,79.121 366.400 C 79.338 366.400,79.618 366.670,79.745 367.000 C 79.871 367.330,80.162 367.600,80.391 367.600 C 80.620 367.600,82.146 368.590,83.783 369.800 C 85.419 371.010,86.902 372.005,87.079 372.011 C 87.255 372.017,88.107 372.557,88.971 373.211 C 89.835 373.865,90.780 374.400,91.071 374.400 C 91.362 374.400,91.600 374.584,91.600 374.810 C 91.600 375.035,92.074 375.400,92.652 375.620 C 93.231 375.840,94.181 376.359,94.763 376.773 C 97.811 378.944,118.533 389.306,121.600 390.194 C 122.150 390.353,122.960 390.702,123.400 390.968 C 123.840 391.235,125.280 391.785,126.600 392.190 C 127.920 392.595,129.360 393.146,129.800 393.413 C 130.240 393.681,131.498 394.116,132.595 394.380 C 133.692 394.643,134.773 395.012,134.998 395.198 C 135.223 395.385,136.653 395.827,138.176 396.180 C 139.699 396.533,141.137 396.977,141.372 397.167 C 141.608 397.357,143.240 397.826,145.000 398.208 C 146.760 398.590,148.413 399.072,148.672 399.278 C 148.932 399.484,150.192 399.721,151.472 399.805 C 152.753 399.888,153.350 399.859,152.800 399.740 C 152.250 399.621,151.620 399.378,151.400 399.200 C 151.180 399.022,149.380 398.562,147.400 398.179 C 145.420 397.795,143.620 397.348,143.400 397.184 C 143.180 397.020,141.830 396.569,140.400 396.180 C 138.970 395.792,137.620 395.342,137.400 395.180 C 137.180 395.019,135.830 394.569,134.400 394.180 C 132.970 393.792,131.620 393.348,131.400 393.192 C 131.180 393.037,129.920 392.586,128.600 392.189 C 127.280 391.793,126.004 391.321,125.765 391.140 C 125.526 390.959,124.536 390.536,123.565 390.200 C 121.615 389.526,119.961 388.798,117.100 387.357 C 116.055 386.831,115.001 386.400,114.759 386.400 C 114.203 386.400,102.685 380.651,101.260 379.662 C 100.677 379.257,99.660 378.651,99.000 378.315 C 96.531 377.056,94.152 375.688,92.644 374.660 C 91.788 374.077,90.904 373.600,90.678 373.600 C 90.452 373.600,89.982 373.328,89.634 372.995 C 88.808 372.206,84.900 369.600,84.543 369.600 C 84.391 369.600,83.982 369.325,83.634 368.990 C 82.737 368.126,77.613 364.400,77.321 364.400 C 77.188 364.400,74.956 362.600,72.361 360.400 C 69.766 358.200,67.514 356.400,67.356 356.400 C 66.798 356.400,47.600 337.662,47.600 337.117 C 47.600 336.947,46.790 336.045,45.800 335.114 C 44.810 334.182,44.000 333.271,44.000 333.090 C 44.000 332.743,38.272 325.719,36.584 323.996 C 36.043 323.443,35.600 322.845,35.600 322.665 C 35.600 322.486,34.824 321.318,33.876 320.070 C 32.928 318.821,31.803 317.215,31.376 316.500 C 30.949 315.785,29.956 314.255,29.168 313.100 C 25.842 308.223,24.000 305.317,24.000 304.948 C 24.000 304.732,23.545 303.939,22.989 303.185 C 22.432 302.431,21.321 300.461,20.519 298.807 C 19.718 297.153,18.841 295.530,18.573 295.200 C 17.947 294.433,14.662 287.839,13.989 286.000 C 13.707 285.230,13.166 284.060,12.786 283.400 C 12.407 282.740,11.872 281.480,11.596 280.600 C 11.321 279.720,10.951 278.816,10.774 278.590 C 10.597 278.365,10.163 277.285,9.811 276.190 C 9.458 275.096,8.930 273.750,8.637 273.200 C 8.343 272.650,7.877 271.480,7.599 270.600 C 7.322 269.720,6.962 268.820,6.799 268.600 C 6.635 268.380,6.216 267.058,5.868 265.662 C 5.519 264.265,5.076 262.915,4.883 262.662 C 4.690 262.408,4.207 260.940,3.809 259.400 C 3.411 257.860,2.955 256.420,2.795 256.200 C 2.635 255.980,2.190 254.180,1.807 252.200 C 1.424 250.220,0.968 248.420,0.794 248.200 C 0.619 247.980,0.379 247.350,0.260 246.800 C 0.140 246.250,0.125 246.841,0.226 248.114 M399.600 246.920 C 399.600 247.426,399.438 248.011,399.241 248.220 C 399.043 248.429,398.570 250.220,398.189 252.200 C 397.808 254.180,397.365 255.980,397.205 256.200 C 397.045 256.420,396.589 257.860,396.191 259.400 C 395.793 260.940,395.310 262.408,395.117 262.662 C 394.924 262.915,394.481 264.265,394.132 265.662 C 393.784 267.058,393.365 268.380,393.201 268.600 C 393.038 268.820,392.681 269.720,392.408 270.600 C 392.134 271.480,391.694 272.560,391.429 273.000 C 391.163 273.440,390.627 274.835,390.236 276.099 C 389.846 277.364,389.383 278.487,389.207 278.595 C 389.032 278.704,388.773 279.251,388.633 279.812 C 388.492 280.373,387.752 282.167,386.988 283.798 C 386.225 285.429,385.600 286.886,385.600 287.035 C 385.600 287.440,381.211 296.139,380.882 296.387 C 380.727 296.504,379.998 297.804,379.261 299.275 C 378.525 300.746,377.490 302.536,376.961 303.252 C 376.433 303.969,376.000 304.732,376.000 304.948 C 376.000 305.317,374.158 308.223,370.832 313.100 C 370.044 314.255,369.051 315.785,368.624 316.500 C 368.197 317.215,367.072 318.821,366.124 320.070 C 365.176 321.318,364.400 322.486,364.400 322.665 C 364.400 322.845,363.957 323.443,363.416 323.996 C 361.728 325.719,356.000 332.743,356.000 333.090 C 356.000 333.271,355.190 334.182,354.200 335.114 C 353.210 336.045,352.400 336.947,352.400 337.117 C 352.400 337.671,333.200 356.400,332.632 356.400 C 332.468 356.400,330.755 357.750,328.826 359.400 C 326.896 361.050,325.182 362.400,325.016 362.400 C 324.851 362.400,324.361 362.850,323.929 363.400 C 323.496 363.950,322.983 364.400,322.789 364.400 C 322.416 364.400,317.440 367.956,316.366 368.990 C 316.018 369.325,315.609 369.600,315.457 369.600 C 315.100 369.600,311.192 372.206,310.366 372.995 C 310.018 373.328,309.548 373.600,309.322 373.600 C 309.096 373.600,308.212 374.077,307.356 374.660 C 305.848 375.688,303.469 377.056,301.000 378.315 C 300.340 378.651,299.323 379.257,298.740 379.662 C 297.315 380.651,285.797 386.400,285.241 386.400 C 284.999 386.400,283.945 386.831,282.900 387.357 C 280.039 388.798,278.385 389.526,276.435 390.200 C 275.464 390.536,274.474 390.959,274.235 391.140 C 273.996 391.321,272.720 391.793,271.400 392.189 C 270.080 392.586,268.820 393.037,268.600 393.192 C 268.380 393.348,267.030 393.792,265.600 394.180 C 264.170 394.569,262.820 395.019,262.600 395.180 C 262.380 395.342,261.030 395.792,259.600 396.180 C 258.170 396.569,256.820 397.020,256.600 397.184 C 256.380 397.348,254.580 397.795,252.600 398.179 C 250.620 398.562,248.820 399.022,248.600 399.200 C 248.380 399.378,247.750 399.621,247.200 399.740 C 246.650 399.859,247.247 399.888,248.528 399.805 C 249.808 399.721,251.068 399.484,251.328 399.278 C 251.587 399.072,253.240 398.590,255.000 398.208 C 256.760 397.826,258.392 397.357,258.628 397.167 C 258.863 396.977,260.301 396.533,261.824 396.180 C 263.347 395.827,264.777 395.385,265.002 395.198 C 265.227 395.012,266.308 394.643,267.405 394.380 C 268.502 394.116,269.760 393.681,270.200 393.413 C 270.640 393.146,272.080 392.595,273.400 392.190 C 274.720 391.785,276.160 391.235,276.600 390.968 C 277.040 390.702,277.850 390.353,278.400 390.194 C 281.467 389.306,302.189 378.944,305.237 376.773 C 305.819 376.359,306.769 375.840,307.348 375.620 C 307.926 375.400,308.400 375.035,308.400 374.810 C 308.400 374.584,308.638 374.400,308.929 374.400 C 309.220 374.400,310.165 373.865,311.029 373.211 C 311.893 372.557,312.748 372.017,312.930 372.011 C 313.111 372.005,314.551 371.039,316.130 369.864 C 317.708 368.689,319.315 367.614,319.700 367.476 C 320.085 367.338,320.400 367.039,320.400 366.813 C 320.400 366.586,320.596 366.400,320.836 366.400 C 321.076 366.400,322.604 365.320,324.232 364.000 C 325.860 362.680,327.304 361.600,327.440 361.600 C 327.576 361.600,328.073 361.253,328.544 360.829 C 329.015 360.405,331.650 358.086,334.400 355.677 C 337.150 353.268,339.940 350.717,340.600 350.008 C 341.260 349.299,342.212 348.559,342.717 348.363 C 343.221 348.167,343.941 347.467,344.317 346.806 C 344.692 346.146,345.225 345.604,345.500 345.603 C 345.775 345.601,346.000 345.351,346.000 345.047 C 346.000 344.742,346.359 344.399,346.798 344.285 C 347.237 344.170,347.720 343.744,347.872 343.338 C 348.024 342.932,350.168 340.440,352.636 337.800 C 355.104 335.160,357.782 332.190,358.586 331.200 C 359.391 330.210,360.353 329.040,360.724 328.600 C 361.096 328.160,361.580 327.506,361.800 327.147 C 362.390 326.185,366.279 321.102,366.989 320.366 C 367.325 320.018,367.600 319.590,367.600 319.415 C 367.600 319.241,368.500 317.884,369.600 316.400 C 370.700 314.916,371.600 313.576,371.600 313.423 C 371.600 313.269,372.438 311.968,373.463 310.532 C 374.488 309.096,375.632 307.354,376.005 306.661 C 376.378 305.967,377.192 304.500,377.813 303.400 C 380.555 298.542,381.319 297.092,383.823 292.000 C 388.457 282.574,390.246 278.639,390.644 277.000 C 390.804 276.340,391.264 275.260,391.666 274.600 C 392.068 273.940,392.398 273.157,392.399 272.860 C 392.399 272.564,392.660 271.754,392.978 271.060 C 393.296 270.367,393.857 268.720,394.226 267.400 C 394.595 266.080,395.029 264.820,395.191 264.600 C 395.353 264.380,395.811 262.940,396.209 261.400 C 396.607 259.860,397.062 258.420,397.222 258.200 C 397.381 257.980,397.815 256.450,398.186 254.800 C 398.556 253.150,399.024 251.491,399.225 251.114 C 399.678 250.261,400.203 246.000,399.855 246.000 C 399.715 246.000,399.600 246.414,399.600 246.920 "
            stroke="none" fill="#041efc" fill-rule="evenodd"></path>
        <path id="path5"
            d="M153.000 1.016 L 151.000 1.556 152.800 1.337 C 153.790 1.216,154.771 0.956,154.980 0.759 C 155.189 0.561,155.279 0.417,155.180 0.438 C 155.081 0.460,154.100 0.720,153.000 1.016 M143.000 3.600 C 142.496 3.817,142.422 3.944,142.800 3.944 C 143.130 3.944,143.760 3.789,144.200 3.600 C 144.704 3.383,144.778 3.256,144.400 3.256 C 144.070 3.256,143.440 3.411,143.000 3.600 M255.800 3.600 C 256.240 3.789,256.870 3.944,257.200 3.944 C 257.578 3.944,257.504 3.817,257.000 3.600 C 256.560 3.411,255.930 3.256,255.600 3.256 C 255.222 3.256,255.296 3.383,255.800 3.600 M137.829 5.158 C 137.162 5.420,137.145 5.493,137.703 5.708 C 138.058 5.844,138.436 5.740,138.544 5.478 C 138.683 5.136,138.860 5.171,139.163 5.600 C 139.530 6.118,139.589 6.104,139.594 5.500 C 139.600 4.760,139.095 4.662,137.829 5.158 M260.400 5.187 C 260.400 5.401,260.670 5.471,261.000 5.345 C 261.330 5.218,261.600 5.308,261.600 5.545 C 261.600 5.783,261.899 5.860,262.271 5.717 C 262.871 5.487,262.860 5.428,262.171 5.158 C 261.072 4.728,260.400 4.739,260.400 5.187 M121.400 11.180 C 119.968 11.826,119.916 11.896,120.900 11.851 C 121.505 11.823,122.000 11.654,122.000 11.476 C 122.000 11.298,122.161 11.252,122.358 11.374 C 122.555 11.496,122.819 11.326,122.946 10.998 C 123.072 10.669,123.136 10.413,123.087 10.430 C 123.039 10.446,122.280 10.784,121.400 11.180 M277.066 11.028 C 277.186 11.340,277.445 11.496,277.642 11.374 C 277.839 11.252,278.000 11.298,278.000 11.476 C 278.000 11.654,278.462 11.827,279.026 11.859 C 280.276 11.932,280.204 11.852,278.324 11.073 C 277.085 10.559,276.883 10.552,277.066 11.028 M111.716 15.519 C 110.734 16.043,110.521 16.345,110.810 16.802 C 111.128 17.306,111.189 17.286,111.194 16.676 C 111.197 16.278,111.380 16.064,111.600 16.200 C 111.820 16.336,112.000 16.284,112.000 16.085 C 112.000 15.885,112.405 15.527,112.900 15.288 C 113.395 15.049,113.620 14.850,113.400 14.844 C 113.180 14.838,112.422 15.142,111.716 15.519 M287.100 15.288 C 287.595 15.527,288.000 15.835,288.000 15.974 C 288.000 16.112,288.495 16.262,289.100 16.306 C 290.023 16.374,289.920 16.259,288.456 15.593 C 286.660 14.776,285.494 14.514,287.100 15.288 M290.400 16.596 C 290.400 16.870,292.849 18.084,293.032 17.901 C 293.119 17.814,292.562 17.444,291.795 17.078 C 291.028 16.712,290.400 16.495,290.400 16.596 M107.462 17.556 C 106.765 18.015,106.494 18.411,106.762 18.577 C 107.003 18.725,107.200 18.698,107.200 18.516 C 107.200 18.334,107.695 17.878,108.300 17.503 C 108.905 17.128,109.220 16.818,109.000 16.813 C 108.780 16.809,108.088 17.143,107.462 17.556 M93.819 25.184 C 92.823 25.840,92.769 25.953,93.474 25.900 C 93.933 25.865,94.511 25.513,94.758 25.118 C 95.317 24.224,95.271 24.227,93.819 25.184 M305.227 25.094 C 305.482 25.503,306.073 25.865,306.540 25.901 C 307.428 25.967,307.245 25.770,305.482 24.763 C 304.852 24.403,304.820 24.443,305.227 25.094 M310.782 28.766 C 311.034 29.237,311.396 29.526,311.586 29.409 C 311.776 29.291,312.004 29.412,312.093 29.678 C 312.195 29.985,312.345 30.013,312.505 29.754 C 312.643 29.530,312.209 29.023,311.540 28.628 C 310.326 27.911,310.324 27.911,310.782 28.766 M87.876 28.974 C 87.478 29.276,87.324 29.629,87.534 29.759 C 87.744 29.889,88.024 29.715,88.155 29.372 C 88.289 29.024,88.599 28.876,88.859 29.036 C 89.148 29.215,89.216 29.149,89.038 28.862 C 88.695 28.306,88.767 28.299,87.876 28.974 M82.100 32.846 C 81.386 33.303,80.916 33.864,81.056 34.090 C 81.211 34.341,81.455 34.244,81.680 33.843 C 81.883 33.480,82.182 33.265,82.345 33.366 C 82.507 33.466,82.857 33.200,83.123 32.774 C 83.719 31.820,83.701 31.821,82.100 32.846 M316.780 32.763 C 317.033 33.236,317.400 33.524,317.595 33.403 C 317.791 33.282,318.117 33.480,318.320 33.843 C 318.541 34.238,318.791 34.339,318.941 34.095 C 319.165 33.733,318.690 33.305,316.860 32.223 C 316.422 31.964,316.407 32.065,316.780 32.763 M76.567 37.036 L 75.000 38.473 76.700 37.203 C 78.217 36.069,78.676 35.600,78.267 35.600 C 78.193 35.600,77.428 36.246,76.567 37.036 M73.823 39.013 C 73.396 39.336,73.007 39.870,72.959 40.200 C 72.838 41.024,72.922 40.973,73.937 39.600 C 74.937 38.248,74.924 38.181,73.823 39.013 M326.016 39.536 C 327.082 40.978,327.163 41.030,327.040 40.190 C 326.991 39.855,326.530 39.286,326.016 38.926 L 325.081 38.271 326.016 39.536 M70.636 41.560 C 70.186 42.058,70.095 42.412,70.374 42.584 C 70.608 42.729,70.823 42.747,70.850 42.624 C 70.877 42.501,70.925 42.265,70.956 42.100 C 70.987 41.935,71.155 41.575,71.330 41.300 C 71.805 40.552,71.417 40.697,70.636 41.560 M328.625 41.200 C 328.825 41.530,328.991 41.935,328.994 42.100 C 328.997 42.265,329.150 42.415,329.333 42.433 C 330.045 42.504,329.968 42.096,329.134 41.364 C 328.609 40.904,328.407 40.838,328.625 41.200 M67.478 44.213 C 66.860 44.756,66.514 45.200,66.708 45.200 C 66.902 45.200,67.483 44.750,68.000 44.200 C 69.195 42.928,68.931 42.934,67.478 44.213 M332.088 44.213 C 332.686 44.843,333.247 45.277,333.335 45.179 C 333.423 45.080,332.933 44.565,332.247 44.034 L 331.000 43.069 332.088 44.213 M60.744 50.300 C 55.816 54.902,48.794 62.107,47.000 64.400 L 45.905 65.800 47.324 64.338 C 48.104 63.533,48.819 62.953,48.914 63.047 C 49.009 63.142,49.314 62.945,49.592 62.610 C 49.870 62.274,49.943 62.000,49.754 62.000 C 49.565 62.000,52.096 59.310,55.378 56.022 C 58.661 52.734,61.470 50.119,61.620 50.212 C 61.770 50.305,62.215 50.025,62.609 49.591 C 63.002 49.156,63.209 48.800,63.068 48.800 C 62.927 48.800,63.484 48.175,64.306 47.411 C 65.128 46.647,65.698 46.017,65.574 46.011 C 65.449 46.005,63.276 47.935,60.744 50.300 M335.694 47.352 C 336.516 48.148,337.073 48.800,336.932 48.800 C 336.791 48.800,336.998 49.156,337.391 49.591 C 337.785 50.025,338.230 50.305,338.380 50.212 C 338.740 49.990,350.495 61.771,350.205 62.062 C 350.081 62.185,350.255 62.514,350.590 62.792 C 350.926 63.070,351.200 63.189,351.200 63.055 C 351.200 62.921,351.851 63.484,352.647 64.306 L 354.095 65.800 353.019 64.400 C 351.382 62.270,338.686 49.504,336.302 47.590 C 334.406 46.069,334.346 46.045,335.694 47.352 M44.019 67.705 L 43.095 69.000 44.226 67.912 C 44.849 67.314,45.264 66.731,45.150 66.617 C 45.036 66.503,44.527 66.993,44.019 67.705 M354.800 66.730 C 354.800 66.912,355.279 67.497,355.863 68.030 L 356.927 69.000 355.988 67.700 C 355.012 66.348,354.800 66.175,354.800 66.730 M41.364 70.891 C 40.944 71.383,40.870 71.580,41.200 71.327 C 41.530 71.075,41.935 70.853,42.100 70.834 C 42.440 70.795,42.551 70.418,42.298 70.164 C 42.205 70.071,41.785 70.398,41.364 70.891 M357.400 70.400 C 357.264 70.620,357.208 70.814,357.276 70.831 C 358.593 71.157,358.817 71.103,358.373 70.568 C 357.813 69.893,357.723 69.877,357.400 70.400 M38.714 74.183 C 36.442 77.082,35.434 78.539,35.895 78.259 C 36.167 78.094,36.950 77.145,37.635 76.149 C 38.320 75.154,39.435 74.002,40.114 73.589 C 41.115 72.980,41.190 72.850,40.508 72.902 C 40.046 72.937,39.239 73.513,38.714 74.183 M359.800 73.443 C 360.240 73.768,360.600 74.252,360.600 74.517 C 360.600 74.783,360.812 75.000,361.071 75.000 C 361.330 75.000,362.096 75.765,362.774 76.700 C 363.451 77.635,364.115 78.400,364.250 78.400 C 364.496 78.400,363.099 76.431,361.282 74.217 C 360.749 73.566,360.017 72.993,359.656 72.942 C 359.139 72.870,359.170 72.976,359.800 73.443 M34.564 79.691 C 34.144 80.183,34.070 80.380,34.400 80.127 C 34.730 79.875,35.135 79.653,35.300 79.634 C 35.640 79.595,35.751 79.218,35.498 78.964 C 35.405 78.871,34.985 79.198,34.564 79.691 M364.200 79.200 C 364.064 79.420,364.008 79.614,364.076 79.631 C 365.393 79.957,365.617 79.903,365.173 79.368 C 364.613 78.693,364.523 78.677,364.200 79.200 M33.357 81.293 C 33.192 81.572,32.782 82.232,32.444 82.760 C 31.846 83.694,31.853 83.707,32.726 83.240 C 33.219 82.976,33.524 82.600,33.403 82.405 C 33.282 82.209,33.480 81.883,33.843 81.680 C 34.259 81.447,34.346 81.214,34.079 81.049 C 33.846 80.905,33.521 81.015,33.357 81.293 M365.863 81.097 C 365.721 81.328,365.885 81.624,366.228 81.755 C 366.570 81.887,366.761 82.140,366.651 82.317 C 366.542 82.495,366.811 82.864,367.250 83.138 C 367.961 83.583,368.005 83.559,367.653 82.918 C 366.813 81.389,366.119 80.683,365.863 81.097 M29.093 87.702 C 28.807 88.448,28.777 88.800,29.000 88.800 C 29.110 88.800,29.185 88.685,29.166 88.545 C 29.147 88.404,29.346 88.157,29.609 87.995 C 29.911 87.808,29.939 87.610,29.685 87.452 C 29.464 87.316,29.198 87.429,29.093 87.702 M370.215 87.576 C 370.071 87.809,370.154 88.000,370.400 88.000 C 370.646 88.000,370.744 88.168,370.617 88.372 C 370.491 88.577,370.557 88.850,370.766 88.979 C 371.403 89.373,371.561 88.635,371.003 87.872 C 370.671 87.418,370.380 87.308,370.215 87.576 M25.047 94.028 C 24.340 95.226,24.340 95.244,25.079 94.783 C 25.496 94.522,25.862 93.970,25.893 93.555 C 25.969 92.550,25.896 92.591,25.047 94.028 M374.099 93.460 C 374.135 93.927,374.497 94.518,374.906 94.773 C 375.557 95.180,375.597 95.148,375.237 94.518 C 374.230 92.755,374.033 92.572,374.099 93.460 M23.006 97.589 C 22.472 98.621,22.469 98.749,22.983 98.551 C 23.308 98.426,23.559 98.206,23.540 98.062 C 23.430 97.235,23.658 96.789,24.062 97.038 C 24.348 97.215,24.415 97.148,24.238 96.862 C 23.823 96.190,23.688 96.270,23.006 97.589 M375.762 96.862 C 375.585 97.148,375.652 97.215,375.938 97.038 C 376.342 96.789,376.570 97.235,376.460 98.062 C 376.441 98.206,376.692 98.426,377.017 98.551 C 377.531 98.749,377.528 98.621,376.994 97.589 C 376.312 96.270,376.177 96.190,375.762 96.862 M17.220 107.961 C 16.760 108.863,16.463 109.600,16.559 109.600 C 16.896 109.600,18.489 106.756,18.274 106.540 C 18.154 106.420,17.680 107.060,17.220 107.961 M381.426 106.757 C 381.276 107.001,381.354 107.200,381.600 107.200 C 381.846 107.200,381.980 107.335,381.897 107.500 C 381.814 107.665,382.186 108.250,382.724 108.800 L 383.701 109.800 383.065 108.600 C 381.985 106.561,381.727 106.271,381.426 106.757 M15.211 112.171 C 14.617 113.734,14.734 113.980,15.447 112.665 C 15.786 112.040,15.964 111.430,15.842 111.309 C 15.721 111.188,15.437 111.576,15.211 112.171 M384.028 111.400 C 384.028 111.620,384.286 112.250,384.600 112.800 C 384.914 113.350,385.172 113.620,385.172 113.400 C 385.172 113.180,384.914 112.550,384.600 112.000 C 384.286 111.450,384.028 111.180,384.028 111.400 M12.867 117.580 C 12.633 118.251,12.527 118.800,12.631 118.800 C 12.901 118.800,13.656 116.722,13.457 116.524 C 13.367 116.433,13.101 116.908,12.867 117.580 M386.628 117.200 C 386.772 117.750,387.050 118.371,387.245 118.580 C 387.816 119.191,387.641 118.314,386.969 117.200 L 386.367 116.200 386.628 117.200 M11.104 121.571 C 10.598 122.859,10.587 123.103,11.041 122.929 C 11.346 122.812,11.496 122.555,11.374 122.358 C 11.252 122.161,11.298 122.000,11.476 122.000 C 11.654 122.000,11.826 121.550,11.858 121.000 C 11.936 119.650,11.826 119.732,11.104 121.571 M388.149 120.900 C 388.177 121.505,388.346 122.000,388.524 122.000 C 388.702 122.000,388.765 122.135,388.666 122.300 C 388.566 122.465,388.735 122.832,389.042 123.116 C 389.762 123.781,389.709 123.374,388.820 121.400 C 388.174 119.968,388.104 119.916,388.149 120.900 M5.061 138.066 C 4.713 139.366,4.738 139.600,5.224 139.600 C 5.457 139.600,5.524 139.400,5.372 139.155 C 5.221 138.911,5.291 138.591,5.528 138.445 C 5.771 138.294,5.817 137.951,5.634 137.656 C 5.399 137.275,5.243 137.387,5.061 138.066 M394.283 137.729 C 394.140 138.101,394.217 138.400,394.455 138.400 C 394.692 138.400,394.782 138.670,394.655 139.000 C 394.529 139.330,394.599 139.600,394.813 139.600 C 395.261 139.600,395.272 138.928,394.842 137.829 C 394.572 137.140,394.513 137.129,394.283 137.729 M3.387 143.240 C 3.241 143.702,3.273 144.233,3.460 144.419 C 3.647 144.605,3.838 144.227,3.884 143.579 C 3.982 142.199,3.765 142.051,3.387 143.240 M396.056 142.800 C 396.056 143.130,396.211 143.760,396.400 144.200 C 396.617 144.704,396.744 144.778,396.744 144.400 C 396.744 144.070,396.589 143.440,396.400 143.000 C 396.183 142.496,396.056 142.422,396.056 142.800 M0.905 153.228 C 0.684 154.343,0.642 155.108,0.811 154.928 C 1.159 154.556,1.768 151.200,1.488 151.200 C 1.388 151.200,1.126 152.113,0.905 153.228 M398.646 152.800 C 398.776 153.790,399.030 154.757,399.210 154.948 C 399.389 155.140,399.365 154.510,399.156 153.548 C 398.612 151.053,398.370 150.699,398.646 152.800 M0.844 246.452 C 1.388 248.947,1.630 249.301,1.354 247.200 C 1.224 246.210,0.970 245.243,0.790 245.052 C 0.611 244.860,0.635 245.490,0.844 246.452 M399.070 245.100 C 398.972 245.265,398.784 246.210,398.651 247.200 C 398.371 249.289,398.612 248.948,399.145 246.500 C 399.495 244.893,399.470 244.424,399.070 245.100 M3.206 255.900 C 3.209 256.285,3.385 256.870,3.595 257.200 C 3.877 257.642,3.955 257.458,3.889 256.501 C 3.798 255.169,3.195 254.639,3.206 255.900 M396.132 256.521 C 396.068 257.721,396.090 257.743,396.499 256.887 C 396.763 256.333,396.789 255.830,396.567 255.608 C 396.345 255.387,396.173 255.747,396.132 256.521 M4.828 260.900 C 4.897 262.132,5.446 262.978,5.717 262.271 C 5.860 261.899,5.783 261.600,5.545 261.600 C 5.308 261.600,5.218 261.330,5.345 261.000 C 5.471 260.670,5.401 260.400,5.187 260.400 C 4.974 260.400,4.813 260.625,4.828 260.900 M394.655 261.000 C 394.782 261.330,394.692 261.600,394.455 261.600 C 394.217 261.600,394.140 261.899,394.283 262.271 C 394.513 262.871,394.572 262.860,394.842 262.171 C 395.272 261.072,395.261 260.400,394.813 260.400 C 394.599 260.400,394.529 260.670,394.655 261.000 M10.430 276.684 C 10.536 277.816,11.898 280.132,11.851 279.100 C 11.823 278.495,11.654 278.000,11.476 278.000 C 11.298 278.000,11.235 277.865,11.334 277.700 C 11.434 277.535,11.265 277.168,10.958 276.884 C 10.651 276.601,10.413 276.511,10.430 276.684 M388.924 276.998 C 388.662 277.282,388.557 277.624,388.691 277.757 C 388.824 277.891,388.768 278.000,388.567 278.000 C 388.365 278.000,388.177 278.495,388.148 279.100 C 388.104 280.028,388.214 279.925,388.856 278.442 C 389.669 276.563,389.688 276.168,388.924 276.998 M12.414 281.420 C 12.422 281.629,12.699 282.250,13.031 282.800 L 13.633 283.800 13.372 282.800 C 13.099 281.757,12.389 280.733,12.414 281.420 M386.779 282.255 C 386.558 282.836,386.452 283.385,386.543 283.476 C 386.633 283.567,386.899 283.092,387.133 282.420 C 387.653 280.928,387.339 280.782,386.779 282.255 M14.828 286.600 C 14.828 286.820,15.086 287.450,15.400 288.000 C 15.714 288.550,15.972 288.820,15.972 288.600 C 15.972 288.380,15.714 287.750,15.400 287.200 C 15.086 286.650,14.828 286.380,14.828 286.600 M384.450 287.450 C 384.186 288.029,384.062 288.595,384.174 288.707 C 384.286 288.819,384.568 288.411,384.800 287.800 C 385.032 287.189,385.157 286.623,385.076 286.543 C 384.996 286.462,384.714 286.871,384.450 287.450 M17.235 291.884 C 17.727 292.810,18.273 293.479,18.449 293.370 C 18.625 293.261,18.509 292.864,18.192 292.486 C 17.875 292.109,17.329 291.440,16.978 291.000 C 16.628 290.560,16.744 290.958,17.235 291.884 M382.387 291.821 C 381.904 292.603,381.607 293.340,381.726 293.460 C 381.846 293.580,382.320 292.940,382.780 292.039 C 383.808 290.024,383.577 289.896,382.387 291.821 M23.012 302.424 C 23.523 303.411,24.400 303.745,24.400 302.953 C 24.400 302.843,24.220 302.864,24.000 303.000 C 23.649 303.217,23.436 302.725,23.540 301.938 C 23.559 301.794,23.308 301.574,22.983 301.449 C 22.471 301.252,22.475 301.385,23.012 302.424 M376.866 301.551 C 376.572 301.737,376.347 302.004,376.366 302.145 C 376.476 302.968,376.347 303.214,375.938 302.962 C 375.652 302.785,375.585 302.852,375.762 303.138 C 376.177 303.810,376.312 303.730,377.000 302.400 C 377.673 301.098,377.665 301.044,376.866 301.551 M24.763 305.482 C 25.770 307.245,25.967 307.428,25.901 306.540 C 25.865 306.073,25.503 305.482,25.094 305.227 C 24.443 304.820,24.403 304.852,24.763 305.482 M374.800 305.313 C 374.470 305.581,374.147 306.160,374.083 306.600 C 373.960 307.448,374.299 307.121,375.227 305.500 C 375.696 304.682,375.618 304.648,374.800 305.313 M28.663 311.098 C 28.557 311.269,28.708 311.733,28.997 312.128 C 29.329 312.582,29.620 312.692,29.785 312.424 C 29.929 312.191,29.846 312.000,29.600 312.000 C 29.354 312.000,29.256 311.832,29.383 311.628 C 29.509 311.423,29.443 311.150,29.234 311.021 C 29.026 310.892,28.769 310.927,28.663 311.098 M370.604 311.193 C 370.466 311.417,370.498 311.603,370.676 311.606 C 370.854 311.609,370.756 311.767,370.457 311.956 C 370.159 312.145,370.078 312.401,370.277 312.524 C 370.477 312.647,370.852 312.408,371.112 311.993 C 371.382 311.560,371.428 311.141,371.219 311.012 C 371.019 310.888,370.742 310.970,370.604 311.193 M32.229 316.870 C 33.302 318.686,33.733 319.165,34.095 318.941 C 34.339 318.791,34.238 318.541,33.843 318.320 C 33.480 318.117,33.265 317.818,33.366 317.655 C 33.466 317.493,33.181 317.131,32.732 316.851 C 32.062 316.432,31.972 316.435,32.229 316.870 M367.200 316.792 C 366.870 317.000,366.600 317.364,366.600 317.600 C 366.600 317.836,366.356 318.180,366.057 318.365 C 365.726 318.569,365.670 318.796,365.914 318.947 C 366.133 319.082,366.570 318.790,366.885 318.297 C 368.211 316.221,368.227 316.142,367.200 316.792 M365.396 320.007 C 365.258 320.230,364.990 320.317,364.800 320.200 C 364.610 320.083,364.350 320.157,364.221 320.366 C 363.746 321.135,364.717 321.155,365.409 320.391 C 365.802 319.956,366.017 319.600,365.886 319.600 C 365.754 319.600,365.534 319.783,365.396 320.007 M34.823 320.628 C 35.080 320.938,35.462 321.085,35.672 320.956 C 36.138 320.668,35.792 320.275,34.966 320.154 C 34.484 320.083,34.454 320.183,34.823 320.628 M36.625 323.100 C 38.462 325.559,39.825 326.993,40.430 327.106 C 40.770 327.169,40.677 326.960,40.200 326.589 C 39.760 326.246,39.400 325.748,39.400 325.483 C 39.400 325.217,39.188 325.000,38.929 325.000 C 38.670 325.000,37.904 324.235,37.226 323.300 C 36.549 322.365,35.885 321.600,35.750 321.600 C 35.615 321.600,36.009 322.275,36.625 323.100 M362.774 323.300 C 362.096 324.235,361.330 325.000,361.071 325.000 C 360.812 325.000,360.600 325.217,360.600 325.483 C 360.600 325.748,360.240 326.232,359.800 326.557 C 359.170 327.024,359.139 327.130,359.656 327.058 C 360.017 327.007,360.749 326.434,361.282 325.783 C 363.099 323.569,364.496 321.600,364.250 321.600 C 364.115 321.600,363.451 322.365,362.774 323.300 M41.623 329.428 C 41.880 329.738,42.262 329.885,42.472 329.756 C 42.938 329.468,42.592 329.075,41.766 328.954 C 41.284 328.883,41.254 328.983,41.623 329.428 M357.376 329.239 C 357.030 329.799,357.902 330.000,358.348 329.462 C 358.680 329.063,358.638 328.933,358.176 328.933 C 357.840 328.933,357.480 329.071,357.376 329.239 M44.019 332.295 C 44.527 333.007,45.036 333.497,45.150 333.383 C 45.264 333.269,44.849 332.686,44.226 332.088 L 43.095 331.000 44.019 332.295 M355.601 332.198 C 355.086 332.748,354.752 333.285,354.860 333.394 C 354.968 333.502,355.454 333.052,355.940 332.395 C 357.017 330.939,356.866 330.852,355.601 332.198 M46.981 335.600 C 48.618 337.730,61.314 350.496,63.698 352.410 C 65.594 353.931,65.654 353.955,64.306 352.648 C 63.484 351.852,62.927 351.200,63.068 351.200 C 63.209 351.200,63.002 350.844,62.609 350.409 C 62.215 349.975,61.770 349.695,61.620 349.788 C 61.470 349.881,58.661 347.266,55.378 343.978 C 52.096 340.690,49.565 338.000,49.754 338.000 C 49.943 338.000,49.870 337.726,49.592 337.390 C 49.314 337.055,49.009 336.858,48.914 336.953 C 48.819 337.047,48.104 336.467,47.324 335.662 L 45.905 334.200 46.981 335.600 M352.441 335.814 C 351.759 336.592,351.200 337.110,351.200 336.965 C 351.200 336.820,350.932 336.924,350.604 337.196 C 350.277 337.468,350.087 337.817,350.183 337.972 C 350.405 338.331,338.636 350.102,338.345 349.812 C 338.226 349.693,337.818 349.938,337.438 350.358 C 337.053 350.783,336.915 351.224,337.126 351.354 C 337.511 351.592,349.574 339.765,352.481 336.300 C 354.323 334.104,354.291 333.708,352.441 335.814 M335.375 352.900 L 334.200 354.200 335.500 353.025 C 336.215 352.379,336.800 351.794,336.800 351.725 C 336.800 351.416,336.470 351.688,335.375 352.900 M66.433 354.900 C 66.525 354.955,67.140 355.450,67.800 356.000 L 69.000 357.000 68.030 355.900 C 67.497 355.295,66.882 354.800,66.664 354.800 C 66.445 354.800,66.342 354.845,66.433 354.900 M331.970 355.900 L 331.000 357.000 332.200 356.000 C 332.860 355.450,333.475 354.955,333.567 354.900 C 333.658 354.845,333.555 354.800,333.336 354.800 C 333.118 354.800,332.503 355.295,331.970 355.900 M70.249 357.520 C 70.123 357.725,70.417 358.232,70.903 358.647 C 71.769 359.386,71.775 359.386,71.193 358.639 C 70.867 358.220,70.660 357.800,70.733 357.705 C 70.807 357.611,70.780 357.446,70.673 357.340 C 70.567 357.234,70.376 357.315,70.249 357.520 M329.150 357.400 C 329.123 357.510,329.075 357.735,329.044 357.900 C 329.013 358.065,328.825 358.470,328.625 358.800 C 328.401 359.171,328.591 359.112,329.122 358.647 C 329.594 358.232,329.885 357.737,329.767 357.547 C 329.530 357.163,329.227 357.091,329.150 357.400 M72.960 359.810 C 73.009 360.145,73.470 360.714,73.984 361.074 L 74.919 361.729 73.984 360.464 C 72.918 359.022,72.837 358.970,72.960 359.810 M326.016 360.464 L 325.081 361.729 326.016 361.074 C 326.530 360.714,326.991 360.145,327.040 359.810 C 327.163 358.970,327.082 359.022,326.016 360.464 M323.000 363.039 C 321.773 364.134,321.688 364.277,322.636 363.652 C 323.752 362.916,325.120 361.591,324.749 361.606 C 324.667 361.609,323.880 362.254,323.000 363.039 M81.049 365.921 C 80.905 366.154,81.015 366.479,81.293 366.643 C 81.572 366.808,82.232 367.218,82.760 367.556 C 83.694 368.154,83.707 368.147,83.240 367.274 C 82.976 366.781,82.600 366.476,82.405 366.597 C 82.209 366.718,81.883 366.520,81.680 366.157 C 81.447 365.741,81.214 365.654,81.049 365.921 M318.245 366.228 C 318.113 366.570,317.860 366.761,317.683 366.651 C 317.505 366.542,317.136 366.811,316.862 367.250 C 316.417 367.961,316.441 368.005,317.082 367.653 C 318.611 366.813,319.317 366.119,318.903 365.863 C 318.672 365.721,318.376 365.885,318.245 366.228 M87.452 370.315 C 87.258 370.630,88.238 371.345,88.700 371.226 C 88.925 371.168,88.780 370.803,88.545 370.834 C 88.404 370.853,88.157 370.654,87.995 370.391 C 87.808 370.089,87.610 370.061,87.452 370.315 M311.845 370.628 C 311.711 370.976,311.401 371.124,311.141 370.964 C 310.845 370.781,310.785 370.851,310.974 371.158 C 311.204 371.530,311.422 371.524,311.936 371.133 C 312.301 370.854,312.657 370.593,312.727 370.553 C 312.796 370.513,312.680 370.373,312.469 370.242 C 312.257 370.112,311.976 370.285,311.845 370.628 M93.205 374.431 C 94.935 375.582,95.256 375.679,94.773 374.906 C 94.518 374.497,93.927 374.135,93.460 374.099 C 92.773 374.048,92.724 374.111,93.205 374.431 M305.227 374.906 C 304.820 375.557,304.852 375.597,305.482 375.237 C 307.245 374.230,307.428 374.033,306.540 374.099 C 306.073 374.135,305.482 374.497,305.227 374.906 M292.800 381.512 C 292.800 381.710,292.327 382.087,291.748 382.351 C 291.170 382.614,290.802 382.936,290.932 383.065 C 291.061 383.194,291.734 382.940,292.428 382.501 C 293.204 382.010,293.518 381.597,293.245 381.428 C 293.000 381.276,292.800 381.315,292.800 381.512 M106.833 382.149 C 107.245 382.517,109.600 383.600,109.600 383.421 C 109.600 383.190,107.382 382.000,106.953 382.000 C 106.796 382.000,106.742 382.067,106.833 382.149 M288.806 383.324 C 288.803 383.722,288.620 383.936,288.400 383.800 C 288.180 383.664,288.000 383.731,288.000 383.949 C 288.000 384.168,287.626 384.465,287.170 384.610 C 286.713 384.754,286.426 384.960,286.532 385.065 C 287.029 385.562,289.561 383.785,289.191 383.199 C 288.871 382.693,288.811 382.713,288.806 383.324 M111.560 384.414 C 112.527 384.854,113.396 385.137,113.490 385.044 C 113.584 384.950,113.287 384.754,112.830 384.610 C 112.374 384.465,112.000 384.217,112.000 384.060 C 112.000 383.903,111.505 383.738,110.900 383.694 C 109.981 383.627,110.090 383.745,111.560 384.414 M120.074 388.199 C 120.747 388.825,123.124 389.468,122.934 388.972 C 122.814 388.660,122.555 388.504,122.358 388.626 C 122.161 388.748,122.000 388.702,122.000 388.524 C 122.000 388.346,121.538 388.173,120.974 388.141 C 120.410 388.108,120.005 388.134,120.074 388.199 M278.000 388.524 C 278.000 388.702,277.839 388.748,277.642 388.626 C 277.445 388.504,277.186 388.660,277.066 388.972 C 276.883 389.448,277.085 389.441,278.324 388.927 C 280.204 388.148,280.276 388.068,279.026 388.141 C 278.462 388.173,278.000 388.346,278.000 388.524 M137.589 394.415 C 137.265 394.620,137.180 394.793,137.400 394.799 C 137.620 394.806,138.205 394.919,138.700 395.052 C 139.399 395.239,139.599 395.127,139.594 394.547 C 139.589 393.917,139.526 393.894,139.194 394.400 C 138.900 394.848,138.721 394.878,138.489 394.521 C 138.285 394.205,137.978 394.169,137.589 394.415 M260.406 394.500 C 260.400 395.240,260.905 395.338,262.171 394.842 C 262.838 394.580,262.855 394.507,262.297 394.292 C 261.942 394.156,261.564 394.260,261.456 394.522 C 261.317 394.864,261.140 394.829,260.837 394.400 C 260.470 393.882,260.411 393.896,260.406 394.500 M143.000 396.400 C 143.440 396.589,144.070 396.744,144.400 396.744 C 144.778 396.744,144.704 396.617,144.200 396.400 C 143.760 396.211,143.130 396.056,142.800 396.056 C 142.422 396.056,142.496 396.183,143.000 396.400 M255.800 396.400 C 255.296 396.617,255.222 396.744,255.600 396.744 C 255.930 396.744,256.560 396.589,257.000 396.400 C 257.504 396.183,257.578 396.056,257.200 396.056 C 256.870 396.056,256.240 396.211,255.800 396.400 M151.400 398.592 C 152.282 398.995,155.274 399.515,154.948 399.210 C 154.757 399.030,153.790 398.776,152.800 398.646 C 151.810 398.516,151.180 398.492,151.400 398.592 M246.400 398.688 C 245.850 398.787,245.243 399.018,245.052 399.202 C 244.747 399.495,247.522 399.039,248.600 398.619 C 249.126 398.414,247.673 398.460,246.400 398.688 "
            stroke="none" fill="#0431fc" fill-rule="evenodd"></path>
        <path id="path6"
            d="M188.400 59.038 C 187.630 59.125,185.290 59.386,183.200 59.618 C 121.278 66.494,70.643 114.517,60.178 176.292 C 58.540 185.960,58.867 187.736,62.415 188.421 C 63.397 188.610,109.495 188.773,164.856 188.783 C 263.351 188.800,265.532 188.816,266.456 189.565 C 267.942 190.768,267.942 208.832,266.456 210.035 C 265.532 210.784,263.354 210.800,164.656 210.810 C 61.531 210.819,61.196 210.824,59.900 212.425 C 56.327 216.835,65.502 249.737,75.200 267.290 C 100.948 313.896,146.682 340.994,199.600 340.999 C 293.028 341.008,360.022 253.470,335.944 162.843 C 321.478 108.395,275.119 67.949,217.800 59.769 C 213.625 59.173,191.964 58.635,188.400 59.038 M211.400 60.801 C 294.581 68.366,352.860 145.816,336.586 227.166 C 321.435 302.906,247.737 352.072,172.000 336.966 C 115.470 325.691,71.429 280.277,61.778 223.308 C 60.653 216.669,60.575 214.860,61.368 213.776 C 61.926 213.012,63.549 212.997,164.068 212.800 C 277.166 212.579,267.533 212.820,268.738 210.176 C 269.388 208.749,269.374 190.820,268.722 189.389 C 267.544 186.804,276.331 187.021,163.868 186.800 C 63.547 186.603,61.926 186.588,61.368 185.824 C 60.586 184.754,60.648 183.358,61.775 176.706 C 73.885 105.225,139.655 54.276,211.400 60.801 "
            stroke="none" fill="#8494fc" fill-rule="evenodd"></path>
    </g>
</svg>