<svg enable-background="new 0 0 400 400" viewBox="0 0 400 400" xmlns="http://www.w3.org/2000/svg" xmlns:xlink="http://www.w3.org/1999/xlink"><radialGradient id="a" cx="-105.0925" cy="597.0593" gradientTransform="matrix(-1132.6895 1.028 2.9871 3291.1685 -120471.2891 -1964605.625)" gradientUnits="userSpaceOnUse" r="1"><stop offset=".1042" stop-color="#24537e"/><stop offset=".5203" stop-color="#4fc1c0"/><stop offset="1" stop-color="#dafff4"/></radialGradient><linearGradient id="b"><stop offset="0" stop-color="#04171e"/><stop offset="1" stop-color="#04171e" stop-opacity="0"/></linearGradient><linearGradient id="c" gradientTransform="matrix(1 0 0 -1 0 402)" gradientUnits="userSpaceOnUse" x1="190.2592" x2="138.7952" xlink:href="#b" y1="43.1118" y2="310.7999"/><linearGradient id="d"><stop offset=".1042" stop-color="#3a78b1"/><stop offset=".5203" stop-color="#4fc1c0"/><stop offset="1" stop-color="#8cf2fd"/></linearGradient><radialGradient id="e" cx="-105.4798" cy="596.9409" gradientTransform="matrix(121.0179 -190.2545 -2756.8948 -1753.6176 1658574.375 1027024)" gradientUnits="userSpaceOnUse" r="1" xlink:href="#d"/><radialGradient id="f" cx="-104.8708" cy="597.9974" gradientTransform="matrix(-180.0001 129.5005 128.5812 178.7224 -95449.0078 -93222.7266)" gradientUnits="userSpaceOnUse" r="1"><stop offset=".2165" stop-color="#fff"/><stop offset=".9063" stop-color="#fff" stop-opacity="0"/></radialGradient><linearGradient id="g"><stop offset="0" stop-color="#fff"/><stop offset=".7324" stop-color="#fff" stop-opacity="0"/></linearGradient><linearGradient id="h" gradientTransform="matrix(1 0 0 -1 0 402)" gradientUnits="userSpaceOnUse" x1="250.7183" x2="118.7183" xlink:href="#g" y1="349.5163" y2="292.0163"/><linearGradient id="i" gradientTransform="matrix(1 0 0 -1 0 402)" gradientUnits="userSpaceOnUse" x1="293.3822" x2="161.3822" xlink:href="#g" y1="251.5749" y2="194.0749"/><linearGradient id="j" gradientTransform="matrix(1 0 0 -1 0 402)" gradientUnits="userSpaceOnUse" x1="598.7853" x2="58.9142" xlink:href="#b" y1="466.1639" y2="16.378"/><linearGradient id="k" gradientTransform="matrix(1 0 0 -1 0 402)" gradientUnits="userSpaceOnUse" x1="306.3591" x2="103.8583" y1="174.6578" y2="103.1578"><stop offset="0" stop-color="#0e6585"/><stop offset="1" stop-color="#04171e"/></linearGradient><radialGradient id="l" cx="-105.2137" cy="596.9243" gradientTransform="matrix(144.3669 -115.0948 -1795.1154 -2251.6665 1086829 1332290)" gradientUnits="userSpaceOnUse" r="1" xlink:href="#d"/><linearGradient id="m" gradientTransform="matrix(1 0 0 -1 0 402)" gradientUnits="userSpaceOnUse" x1="262.7789" x2="237.4619" y1="193.9802" y2="209.6302"><stop offset="0" stop-color="#8cf2fd"/><stop offset="1" stop-color="#8cf2fd" stop-opacity="0"/></linearGradient><circle cx="200" cy="200" fill="#161515" r="200"/><circle cx="200" cy="200" fill="#063c4f" r="200"/><path d="m50.6 230.9c1.5 0 3 .1 4.4.1 30.5 0 59-8.8 83-23.9 9.8 50.7 54.4 88.9 108 88.9 43.8 0 81.6-25.6 99.3-62.7 1.4-.7 2.7-1.5 4.1-2.3-19.3 64.2-78.9 111-149.4 111s-130.1-46.8-149.4-111.1z" fill="url(#a)"/><path d="m50.6 230.9c1.5 0 3 .1 4.4.1 30.5 0 59-8.8 83-23.9 9.8 50.7 54.4 88.9 108 88.9 43.8 0 81.6-25.6 99.3-62.7 1.4-.7 2.7-1.5 4.1-2.3-19.3 64.2-78.9 111-149.4 111s-130.1-46.8-149.4-111.1z" fill="#04171e" fill-opacity=".88"/><path d="m51.3 233.4h3.7c30.7 0 59.3-8.9 83.5-24.2 10.6 49.6 54.7 86.8 107.5 86.8 43.8 0 81.6-25.6 99.3-62.7 1.4-.7 2.7-1.5 4.1-2.3-19.3 64.2-78.9 111-149.4 111-69.7 0-128.6-45.6-148.7-108.6z" fill="url(#a)"/><path d="m51.3 233.4h3.7c30.7 0 59.3-8.9 83.5-24.2 10.6 49.6 54.7 86.8 107.5 86.8 43.8 0 81.6-25.6 99.3-62.7 1.4-.7 2.7-1.5 4.1-2.3-19.3 64.2-78.9 111-149.4 111-69.7 0-128.6-45.6-148.7-108.6z" fill="#04171e" fill-opacity=".4"/><path d="m273.8 292.5c-22.2 18.4-50.7 29.5-81.8 29.5-58.1 0-107.1-38.7-122.8-91.6 25.1-2.3 48.5-10.5 68.8-23.3 9.8 50.7 54.4 88.9 108 88.9 9.6 0 18.9-1.2 27.8-3.5z" fill="url(#c)" fill-opacity=".64"/><path d="m328 186c0 70.7-57.3 128-128 128s-128-57.3-128-128 57.3-128 128-128 128 57.3 128 128z" fill="url(#e)"/><path d="m319.5 162c0 49.7-40.3 90-90 90s-90-40.3-90-90 40.3-90 90-90 90 40.3 90 90z" fill="url(#f)" fill-opacity=".6"/><g fill-opacity=".64"><path d="m208.4 72.1c-2-.1-4-.2-6.1-.2-19.1 0-37.2 4.8-52.9 13.3 8.4-1.9 17.2-2.8 26.2-2.8 9.2 0 18.1 1 26.6 2.9z" fill="url(#h)"/><path d="m215.8 89.3c47.1 16.6 80.8 61.4 80.8 114.2 0 21.7-5.7 42-15.7 59.6 20.5-20.2 33.1-48.3 33.1-79.4 0-54.7-39.2-100.1-91-109.8z" fill="url(#i)"/><path d="m268.4 294.2c-19.8 12.5-43.2 19.8-68.4 19.8-39.9 0-75.5-18.2-99-46.8 6.5 1.2 13.1 1.8 20 1.8 49.5 0 91.3-32.7 105.2-77.6 4.6.4 9.2.6 13.8.6 32 0 61.7-9.6 86.4-26.1 1 6.6 1.6 13.3 1.6 20.1 0 4.2-.2 8.4-.6 12.6-7.2 38.8-28.8 72.6-59 95.6z" fill="url(#j)"/></g><path d="m50.6 231.1c19.3 64.2 78.9 111 149.4 111 85.8 0 155.5-69.3 156-155-8.6-.1-17-.8-25.1-2.2-19.2 8.5-40.5 13.2-62.9 13.2-7.8 0-15.4-.6-22.8-1.7-13.8 45-55.7 77.7-105.2 77.7-34.5 0-65.3-15.9-85.5-40.8-1.3-.8-2.6-1.5-3.9-2.2z" fill="url(#k)"/><path d="m356 187.1c-22.9 13.3-49.6 20.9-78 20.9-5.4 0-10.8-.3-16-.8-9.9 50.6-54.5 88.8-108 88.8-43.8 0-81.6-25.6-99.3-62.7-1.4-.7-2.7-1.5-4.1-2.3 19.3 64.2 78.9 111 149.4 111 85.8 0 155.4-69.2 156-154.9z" fill="url(#l)"/><path clip-rule="evenodd" d="m245.1 196.6c.2-.2.5-.3.7-.1 5.2 4.1 10.8 7.8 16.9 10.9.3.1.4.5.2.7s-.4.4-.7.2c-6.1-3.1-11.8-6.8-17-11-.2-.1-.3-.5-.1-.7z" fill="url(#m)" fill-rule="evenodd" opacity=".2"/></svg>