<svg width="72" height="72" viewBox="0 0 72 72" fill="none" xmlns="http://www.w3.org/2000/svg">
<path d="M60 12H12V60H60V12Z" fill="#131415"/>
<path d="M50.442 49.7172H43.488C43.032 49.7172 42.6 49.5372 42.276 49.2132L29.67 36.6072C29.334 36.2712 29.334 35.7312 29.67 35.3952L42.276 22.7892C42.6 22.4652 43.032 22.2852 43.488 22.2852H50.442C50.826 22.2852 51.018 22.7472 50.748 23.0172L38.07 35.6952C37.902 35.8632 37.902 36.1332 38.07 36.3012L50.748 48.9792C51.018 49.2492 50.826 49.7112 50.442 49.7112V49.7172Z" fill="#FFF7EF"/>
<path d="M30.4794 29.6472L24.7314 35.3952C24.3954 35.7312 24.3954 36.2712 24.7314 36.6072L30.4794 42.3552C30.8034 42.6792 30.9834 43.1112 30.9834 43.5672V48.8592C30.9834 49.3332 30.5994 49.7172 30.1254 49.7172H24.2994C23.8254 49.7172 23.4414 49.3332 23.4414 48.8592V23.1432C23.4414 22.6692 23.8254 22.2852 24.2994 22.2852H30.1254C30.5994 22.2852 30.9834 22.6692 30.9834 23.1432V28.4352C30.9834 28.8912 30.8034 29.3232 30.4794 29.6472Z" fill="#FFF7EF"/>
</svg>
