<svg width="32" height="22" viewBox="0 0 36 28" fill="none" xmlns="http://www.w3.org/2000/svg"><path d="M8.31369 9.04159L8.31318 9.04204L8.31285 9.0423L8.00352 9.30538H4V7.11966H7.2062C7.27059 7.07083 7.344 7.01612 7.42622 6.95627C7.77118 6.70512 8.27222 6.36255 8.91252 5.98341C10.191 5.22638 12.0377 4.31588 14.3162 3.7013C18.9068 2.46305 25.1985 2.446 32 7.16633L30.7293 8.95514C24.5396 4.65941 18.9455 4.71825 14.8983 5.80991C12.8579 6.36029 11.1976 7.17824 10.0489 7.85843C9.47558 8.1979 9.03294 8.50113 8.73761 8.71613C8.59007 8.82356 8.47959 8.90874 8.4083 8.96512C8.39281 8.97737 8.37916 8.98826 8.3674 8.99771C8.35212 9.01 8.34 9.01988 8.33111 9.02718L8.3233 9.0336L8.31511 9.04041L8.31369 9.04159Z" fill="white"></path><path fill-rule="evenodd" clip-rule="evenodd" d="M8.23056 10.6298C8.15288 10.6893 8.0831 10.7439 8.02147 10.7929H4V12.9786H8.02147C8.0831 13.0276 8.15288 13.0822 8.23056 13.1417C8.57081 13.4024 9.06413 13.7585 9.69043 14.1525C10.9398 14.9383 12.7365 15.8861 14.9172 16.5201C16.6217 17.0156 18.5543 17.3159 20.6306 17.205L8.20054 22.8061C7.55826 22.757 7.21274 22.49 6.9784 22.1232C6.66702 21.6359 6.4877 20.8546 6.4877 19.8089V19.5357H4.27641V19.8089C4.27641 21.0267 4.47238 22.2945 5.10879 23.2904C5.79657 24.3668 6.91993 25 8.42257 25H8.66271L26.1129 17.1368V25H28.3242V14.8109C29.2945 14.2366 30.273 13.544 31.2533 12.7169L30.5354 11.8857L31.2533 11.0545C25.2562 5.99425 19.3242 5.97018 14.9172 7.25135C12.7365 7.88532 10.9398 8.83312 9.69043 9.61901C9.06413 10.013 8.57081 10.3691 8.23056 10.6298ZM28.767 11.8857C26.7402 10.3871 24.7549 9.5165 22.8721 9.08188C23.5147 9.84084 23.9016 10.8186 23.9016 11.8857C23.9016 12.9528 23.5147 13.9306 22.8721 14.6896C24.7549 14.255 26.7402 13.3844 28.767 11.8857ZM15.5412 9.34825C15.6807 9.30767 15.822 9.26855 15.965 9.23105C15.3951 9.96703 15.0564 10.8873 15.0564 11.8857C15.0564 12.8842 15.3951 13.8044 15.965 14.5404C15.822 14.5029 15.6807 14.4638 15.5412 14.4232C13.6103 13.8619 12.0036 13.0167 10.8776 12.3085C10.641 12.1596 10.4265 12.0174 10.2354 11.8857C10.4265 11.7541 10.641 11.6118 10.8776 11.463C12.0036 10.7548 13.6103 9.90959 15.5412 9.34825ZM18.101 8.77829C17.8403 8.88739 17.596 9.02527 17.3703 9.19028L18.0232 9.83602C18.4456 9.55944 18.951 9.39798 19.4942 9.39798C20.043 9.39798 20.5537 9.5628 20.9783 9.84499L21.6303 9.19987C21.401 9.03061 21.1523 8.8895 20.8866 8.77829C20.4453 8.59368 19.9768 8.5 19.4938 8.5C19.0108 8.5 18.5423 8.59368 18.101 8.77829ZM16.6131 14.1417L17.2659 13.4955C16.9863 13.0776 16.8232 12.5775 16.8232 12.0401C16.8232 11.497 16.9897 10.9917 17.2749 10.5716L16.623 9.92647C16.4519 10.1534 16.3093 10.3995 16.1969 10.6624C16.0103 11.0991 15.9156 11.5627 15.9156 12.0406C15.9156 12.5185 16.0103 12.9822 16.1969 13.4189C16.3071 13.6767 16.4464 13.9184 16.6131 14.1417ZM18.101 15.303C18.5423 15.4876 19.0108 15.5813 19.4938 15.5813C19.9768 15.5813 20.4453 15.4878 20.8866 15.303C21.1473 15.1939 21.3917 15.056 21.6174 14.891L20.9643 14.2449C20.542 14.5214 20.0366 14.6829 19.4934 14.6829C18.9446 14.6829 18.4339 14.5181 18.0093 14.2359L17.357 14.8812C17.5864 15.0506 17.8352 15.1917 18.101 15.303ZM22.3743 9.93929L21.7217 10.585C22.0013 11.0029 22.1644 11.503 22.1644 12.0404C22.1644 12.5835 21.9979 13.0888 21.7127 13.5097L22.3646 14.1548C22.5357 13.9279 22.6783 13.6818 22.7907 13.4189C22.9773 12.9822 23.072 12.5185 23.072 12.0406C23.072 11.5627 22.9773 11.0991 22.7907 10.6624C22.6805 10.4045 22.5411 10.1626 22.3743 9.93929ZM17.8782 12.0404C17.8782 11.1587 18.6031 10.4415 19.4942 10.4415C20.3853 10.4415 21.1102 11.1587 21.1102 12.0404C21.1102 12.9221 20.3853 13.6394 19.4942 13.6394C18.6031 13.6394 17.8782 12.9221 17.8782 12.0404Z" fill="white"></path><circle cx="19.5" cy="12" r="4" fill="white"></circle></svg>
