<svg fill="none" height="28" viewBox="0 0 128 128" width="28" xmlns="http://www.w3.org/2000/svg" color="inherit" name="logo-symbol-gradient" size="28"><g filter="url(#LogoSymbolGradient_svg__a)"><path clip-rule="evenodd" d="m121.544 12.78-6.834 100.505-.154.15c-.312 2.384-1.174 4.347-2.629 5.802-6.583 6.582-23.564 1.025-42.915-12.635l4.835-4.835c4.905 3.406 9.6 6.232 13.933 8.41 5.845 2.94 10.68 4.525 14.27 4.964 3.692.451 4.86-.41 5.116-.666.255-.255 1.116-1.423.665-5.115-.439-3.589-2.024-8.425-4.963-14.27-5.509-10.954-15.152-24.228-27.86-37.337l-58.419 58.418 1.119-10.641 52.538-52.538C57.138 40.284 43.864 30.64 32.91 25.132c-5.845-2.939-10.68-4.524-14.27-4.963-3.692-.451-4.86.41-5.115.665-.256.256-1.117 1.424-.666 5.116.44 3.59 2.024 8.425 4.964 14.27 2.178 4.333 5.004 9.028 8.41 13.933l-4.835 4.835C7.738 39.637 2.181 22.656 8.763 16.073c1.456-1.456 3.421-2.318 5.808-2.63q.07-.075.144-.147L115.224 6.46 122.005 6zM78.57 15.704l31.078-2.114-14.642 14.643c-5.91-5.623-11.679-9.688-16.436-12.53m-13.1.89-30.447 2.071c11.916 5.824 26.136 16.128 39.985 29.566l15.235-15.235c-6.38-6.052-12.565-10.158-17.289-12.796a67 67 0 0 0-6.284-3.113q-.704-.3-1.2-.492m29.494 21.203L79.77 52.991c13.442 13.853 23.749 28.077 29.572 39.996l2.136-31.422q-.216-.468-.541-1.125a79 79 0 0 0-3.38-6.08c-2.727-4.462-6.826-10.321-12.592-16.564m4.765-4.764c5.57 6.006 9.685 11.697 12.582 16.27l2.105-30.958zm-54.924 18.42-22.5 22.5-1.118 10.641 30.032-30.032zm28.634 25.33-29.995 29.994 10.641-1.118 22.9-22.901z" fill="url(#LogoSymbolGradient_svg__b)" fill-rule="evenodd"></path></g><defs><linearGradient gradientUnits="userSpaceOnUse" id="LogoSymbolGradient_svg__b" x1="6" x2="122" y1="6" y2="122.005"><stop stop-color="#FFB0AB"></stop><stop offset="0.464" stop-color="#FF6D63"></stop><stop offset="1" stop-color="#FF4337"></stop></linearGradient><filter color-interpolation-filters="sRGB" filterUnits="userSpaceOnUse" height="128" id="LogoSymbolGradient_svg__a" width="128.005" x="0" y="0"><feFlood flood-opacity="0" result="BackgroundImageFix"></feFlood><feColorMatrix in="SourceAlpha" result="hardAlpha" values="0 0 0 0 0 0 0 0 0 0 0 0 0 0 0 0 0 0 127 0"></feColorMatrix><feOffset></feOffset><feGaussianBlur stdDeviation="3"></feGaussianBlur><feComposite in2="hardAlpha" operator="out"></feComposite><feColorMatrix values="0 0 0 0 1 0 0 0 0 0.426332 0 0 0 0 0.388542 0 0 0 0.8 0"></feColorMatrix><feBlend in2="BackgroundImageFix" result="effect1_dropShadow_3546_3533"></feBlend><feBlend in="SourceGraphic" in2="effect1_dropShadow_3546_3533" result="shape"></feBlend></filter></defs></svg>
